<?xml version="1.0" standalone="no"?>
<!DOCTYPE svg PUBLIC "-//W3C//DTD SVG 1.1//EN" "http://www.w3.org/Graphics/SVG/1.1/DTD/svg11.dtd" >
<svg xmlns="http://www.w3.org/2000/svg">
<metadata></metadata>
<defs>
<font id="conduit_itcregular" horiz-adv-x="1044" >
<font-face units-per-em="2048" ascent="1638" descent="-410" />
<missing-glyph horiz-adv-x="366" />
<glyph horiz-adv-x="2048" />
<glyph horiz-adv-x="2048" />
<glyph horiz-adv-x="682" />
<glyph horiz-adv-x="1024" d="M283 1208q0 -78 49 -126t135 -48h92q86 0 135 48t49 126v103q0 20 -20 20h-51q-20 0 -21 -20v-62q0 -37 -27.5 -64.5t-64.5 -27.5h-92q-37 0 -64.5 27.5t-27.5 64.5v62q0 20 -21 20h-51q-20 0 -20 -20v-103z" />
<glyph horiz-adv-x="1024" d="M393 1147q0 -51 33 -82t90 -31t90 32t33 81v61q0 49 -33 81t-90 32t-90 -30.5t-33 -82.5v-61z" />
<glyph horiz-adv-x="1024" d="M330 1210q0 -78 50 -127t134 -49q86 0 135 49t49 127v58q0 78 -49 127t-135 49q-84 0 -134 -49t-50 -127v-58zM436 1210v58q0 33 22.5 55.5t55.5 22.5t55.5 -23.5t22.5 -54.5v-58q0 -31 -22.5 -54t-55.5 -23t-55.5 23.5t-22.5 53.5z" />
<glyph unicode="&#xa;" horiz-adv-x="1024" d="M348 1049q0 -14 21 -15h43l18 10l145 256l5 15q0 16 -23 16h-102l-19 -14l-86 -256q-2 -4 -2 -12zM575 1049q0 -14 21 -15h43l18 10l146 256q4 12 4 15q0 16 -23 16h-102q-10 0 -18 -14l-86 -256q-2 -4 -3 -12z" />
<glyph horiz-adv-x="1024" d="M442 14v-198q0 -57 22.5 -107.5t58.5 -87.5t81 -58.5t92 -21.5q23 1 23 21v82q0 14 -17 20q-27 12 -48 23.5t-37.5 25t-25.5 34t-9 54.5v213h-140z" />
<glyph horiz-adv-x="1024" d="M272 1313q0 -8 7 -17l182 -256l16 -8h74l16 8l183 256q6 8 6 17q0 16 -23 16h-98l-17 -10l-90 -139q-6 -12 -14 -13q-8 0 -16 13l-88 139l-17 10h-98q-23 0 -23 -16z" />
<glyph unicode="&#xd;" horiz-adv-x="450" d="M133 20q0 -20 21 -20h143q20 0 20 20v881q0 20 -20 21h-143q-20 0 -21 -21v-881z" />
<glyph horiz-adv-x="636" d="M6 35q0 -35 39 -35h45q27 0 37 25l500 1210q4 12 4 20q0 35 -39 35h-45q-29 0 -37 -24l-500 -1211q-4 -12 -4 -20z" />
<glyph horiz-adv-x="1013" d="M72 686q0 -20 20 -20h51q20 0 21 -21v-625q0 -20 20 -20h144q20 0 20 20v625q0 20 21 21h143q20 0 20 20v123q0 20 -20 20h-143q-20 0 -21 21v113q0 43 12.5 70.5t34 47t53 33.5t68.5 31q8 4 12 7t4 13v123q0 23 -32 23q-137 0 -240 -121q-47 -55 -71.5 -120.5 t-24.5 -127.5v-92q0 -20 -21 -21h-51q-20 0 -20 -20v-123zM676 1198q0 -49 32.5 -81t79.5 -32t80 33t33 80t-32.5 80t-80.5 33q-47 0 -79.5 -33t-32.5 -80zM696 20q0 -20 21 -20h143q21 0 21 20v881q0 20 -21 21h-143q-20 0 -21 -21v-881z" />
<glyph horiz-adv-x="1019" d="M72 686q0 -20 20 -20h51q20 0 21 -21v-625q0 -20 20 -20h144q20 0 20 20v625q0 20 21 21h143q20 0 20 20v123q0 20 -20 20h-143q-20 0 -21 21v92q0 78 53.5 131t130.5 53h150q20 0 20 -20v-1086q0 -20 21 -20h143q21 0 21 20v1250q0 20 -21 20h-334q-156 0 -262 -106.5 t-106 -261.5v-72q0 -20 -21 -21h-51q-20 0 -20 -20v-123z" />
<glyph horiz-adv-x="931" d="M-10 502q0 -8 8 -15l61 -57q12 -8 15 -8q6 0 14 8l31 33q8 8 18 8q16 0 17 -22v-429q0 -20 20 -20h696q21 0 21 20v123q0 20 -21 21h-512q-20 0 -20 20v490l6 14l150 150q8 8 8 14q0 2 -8 14l-56 58q-8 8 -14 8t-14 -8l-37 -35q-8 -8 -19 -8q-16 0 -16 22v367 q0 20 -21 20h-143q-20 0 -20 -20v-592l-7 -14l-149 -148q-8 -8 -8 -14z" />
<glyph horiz-adv-x="450" d="M-31 502q0 -6 8 -15l62 -57q12 -8 14 -8q6 0 15 8l30 33q8 8 17 8q18 0 18 -22v-429q0 -20 21 -20h143q20 0 20 20v654l7 14l149 150q8 8 8 14q0 2 -8 14l-55 58q-8 8 -15 8q-6 0 -14 -8l-37 -35q-8 -8 -18 -8q-16 0 -17 22v367q0 20 -20 20h-143q-20 0 -21 -20v-592 l-6 -14l-150 -148q-8 -8 -8 -14z" />
<glyph horiz-adv-x="901" d="M47 16q0 -16 23 -16h729q20 0 20 20v123q0 20 -20 21h-455q-23 0 -22 16q0 4 4 13l481 1069q4 8 4 12q0 16 -23 16h-686q-20 0 -20 -20v-123q0 -20 20 -21h410q23 0 23 -16q0 -4 -5 -12l-479 -1069q-4 -8 -4 -13zM215 1682q0 -8 7 -17l182 -256l16 -8h74l16 8l183 256 q6 8 6 17q0 16 -23 16h-98l-17 -10l-90 -139q-6 -12 -14 -13q-8 0 -16 13l-88 139l-17 10h-98q-23 0 -23 -16z" />
<glyph horiz-adv-x="880" d="M49 16q0 -16 23 -16h714q21 0 21 20v123q0 20 -21 21h-397q-23 0 -22 16q0 10 4 15l417 694q4 8 5 14q0 16 -23 17h-678q-20 0 -20 -21v-123q0 -20 20 -20h359q23 0 22 -17q0 -6 -4 -14l-416 -694q-4 -8 -4 -15zM200 1313q0 -8 7 -17l182 -256l16 -8h74l16 8l183 256 q6 8 6 17q0 16 -23 16h-98l-17 -10l-90 -139q-6 -12 -14 -13q-8 0 -16 13l-88 139l-17 10h-98q-23 0 -23 -16z" />
<glyph unicode=" "  horiz-adv-x="366" />
<glyph unicode="&#x09;" horiz-adv-x="366" />
<glyph unicode="&#xa0;" horiz-adv-x="366" />
<glyph unicode="!" horiz-adv-x="552" d="M195 92q0 -49 31.5 -80.5t80.5 -31.5t81 32.5t32 79.5t-33 80t-80 33t-79.5 -32t-32.5 -81zM215 741l45 -354q2 -18 21 -18h55q16 0 20 18l43 354v529q0 20 -20 20h-143q-20 0 -21 -20v-529z" />
<glyph unicode="&#x22;" horiz-adv-x="634" d="M84 1268l43 -328q2 -18 20 -18h56q16 0 20 18l41 328v4q0 18 -20 18h-140q-20 0 -20 -18v-4zM371 1268l43 -328q2 -18 20 -18h55q16 0 21 18l41 328v4q0 18 -21 18h-139q-20 0 -20 -18v-4z" />
<glyph unicode="#" horiz-adv-x="1148" d="M74 381q0 -12 16 -12h127q23 0 23 -19q0 -2 -1 -3t-1 -3l-91 -317q0 -4 -1 -5.5t-1 -3.5q0 -18 23 -18h68q18 0 20 14l96 342q2 12 21 13h231q23 0 23 -19q0 -2 -1 -3t-1 -3l-88 -317q0 -4 -1 -5.5t-1 -3.5q0 -18 22 -18h68q18 0 20 14l98 342q2 12 21 13h156q20 0 26 20 l33 123q0 4 1 5t1 3q0 12 -16 12h-144q-23 0 -22 19q0 2 1 4t1 4l53 186q2 12 20 13h140q20 0 26 20l33 123q0 4 1 5t1 3q0 12 -16 13h-125q-23 0 -23 18q0 2 1 4t1 4l88 316q0 2 1.5 4t1.5 4q0 18 -23 18h-68q-18 0 -20 -14l-98 -338q-6 -16 -21 -16h-229q-23 0 -23 18 q0 2 1 4t1 4l88 316q0 2 1 4t1 4q0 18 -22 18h-68q-14 0 -20 -14l-96 -338q-6 -16 -21 -16h-158q-20 0 -26 -21l-33 -123q0 -4 -1 -5t-1 -3q0 -12 16 -12h144q23 0 22 -19q0 -2 -1 -3t-1 -3l-53 -184q-6 -16 -21 -17h-139q-20 0 -26 -20l-33 -123q0 -4 -1 -5t-1 -3zM410 551 q0 2 1 4t1 4l53 186q2 12 20 13h230q23 0 22 -19q0 -2 -1 -3t-1 -3l-51 -184q-6 -16 -20 -17h-232q-23 0 -22 19z" />
<glyph unicode="$" d="M129 190q0 -25 28.5 -64.5t88.5 -86.5q35 -27 91 -42t132 -17q14 -2 14 -21v-61q0 -20 21 -21h51q20 0 20 21v63q0 14 12.5 18.5t33 7.5t49 8t59.5 21q195 100 195 312q0 119 -52.5 204.5t-162.5 149.5q-59 35 -96.5 46.5t-37.5 31.5v360q0 20 19 21q20 0 44 -12.5 t42 -36.5q27 -35 40 -54.5t23 -19.5q4 0 13 4l129 65q10 4 10 17q0 20 -16.5 49t-49 56.5t-82 52t-114.5 38.5q-33 6 -45.5 8.5t-12.5 20.5v64q0 20 -20 20h-51q-20 0 -21 -20v-66q0 -12 -12 -17t-32.5 -8.5t-48.5 -9.5t-56 -20q-180 -94 -180 -309q0 -109 52 -192t150 -134 q53 -29 88 -42t39 -34v-397q0 -14 -6 -17.5t-22 -3.5q-53 0 -85 34t-71 83q-10 12 -18 12q-6 0 -11 -2l-129 -65q-12 -6 -12 -15zM338 963q0 35 12 66.5t30.5 55t42 37t46.5 13.5q14 0 14 -21v-289q0 -23 -14 -22q-14 0 -36.5 13t-43 34.5t-36 51.5t-15.5 61zM575 168v326 q0 23 15 22q16 0 41.5 -15.5t49.5 -41t41 -59t17 -72.5q0 -37 -13 -70t-33.5 -57.5t-46 -39t-52.5 -14.5q-19 1 -19 21z" />
<glyph unicode="%" d="M109 911q0 -78 49 -126t135 -48t135 48t49 126v205q0 78 -49 126t-135 48t-135 -48t-49 -126v-205zM209 14q0 -14 22 -14h50q14 2 18 12l535 1250q4 8 4 12q0 16 -23 16h-49q-12 0 -18 -12l-535 -1249q-4 -12 -4 -15zM221 911v205q0 31 20.5 51.5t51.5 20.5t51.5 -20.5 t20.5 -51.5v-205q0 -31 -20.5 -51t-51.5 -20q-33 0 -52.5 20.5t-19.5 50.5zM569 174q0 -78 49.5 -126t135.5 -48t135 48t49 126v205q0 78 -49 126t-135 48t-135.5 -48t-49.5 -126v-205zM682 174v205q0 31 19.5 51.5t52.5 20.5q31 0 51 -20.5t20 -51.5v-205 q0 -31 -20.5 -51.5t-50.5 -20.5q-33 0 -52.5 20.5t-19.5 51.5z" />
<glyph unicode="&#x26;" horiz-adv-x="1269" d="M123 344q0 -168 98 -266t271 -98h61q156 0 238 71q39 35 56 56.5t25 21.5q6 0 22.5 -12.5t45.5 -32.5q59 -41 117.5 -71.5t148.5 -30.5q23 0 23 20v143q0 14 -17 21q-51 23 -112.5 50.5t-122.5 96.5l-6 15v41q0 76 54 130t130 54h53q20 0 21 20v144q0 20 -21 20h-37 q-92 0 -161.5 -29.5t-104.5 -76.5q-47 -63 -64.5 -101t-27.5 -38q-12 0 -32.5 23.5t-59.5 57.5q-23 20 -35 30.5t-12 21.5q0 10 10 17t26.5 16.5t36 22.5t37.5 36q37 47 56.5 95t19.5 89v41q0 170 -99 269.5t-269 99.5q-172 0 -270.5 -99.5t-98.5 -273.5q0 -84 28.5 -131 t67.5 -92q18 -23 30.5 -35t12.5 -23q0 -10 -25.5 -28.5t-50.5 -57.5q-33 -49 -48 -94t-15 -82v-51zM307 328v61q0 100 99 168l20 -2q88 -47 163 -112.5t144 -157.5l2 -19q-74 -123 -182 -123h-61q-78 0 -131.5 53.5t-53.5 131.5zM307 963q0 78 53.5 131t131.5 53t131 -54.5 t53 -129.5v-41q0 -70 -47 -120t-140 -73q-92 59 -137 115.5t-45 118.5z" />
<glyph unicode="'" horiz-adv-x="348" d="M84 1268l43 -328q2 -18 20 -18h56q16 0 20 18l41 328v4q0 18 -20 18h-140q-20 0 -20 -18v-4z" />
<glyph unicode="(" horiz-adv-x="737" d="M184 0q0 -84 28 -151.5t73 -115.5t104.5 -74t122.5 -26q23 0 32 3.5t9 17.5v123q0 10 -4 13t-12 7q-37 16 -69 30.5t-53.5 34t-33.5 47.5t-12 71v1167q0 43 12 70.5t33.5 47t53.5 34t69 30.5q8 4 12 7t4 14v123q0 14 -9 17t-32 3q-63 0 -122.5 -25.5t-104.5 -73.5 t-73 -116t-28 -152v-1126z" />
<glyph unicode=")" horiz-adv-x="737" d="M184 -223v-123q0 -14 8.5 -17.5t30.5 -3.5q63 0 124 27t106 74t72.5 114.5t27.5 151.5v1126q0 84 -27.5 152t-72.5 116t-105.5 73.5t-124.5 25.5q-20 0 -29.5 -3t-9.5 -17v-123q0 -10 4.5 -13.5t12.5 -7.5q37 -16 68.5 -30.5t53 -34t34 -47t12.5 -70.5v-1167 q0 -59 -45 -117q-14 -16 -46 -30.5t-77 -35.5q-8 -4 -12.5 -7t-4.5 -13z" />
<glyph unicode="*" horiz-adv-x="794" d="M63 950q0 -4 5 -12l53 -92q6 -12 16 -12q4 0 15 6l163 116q8 6 17 7q16 0 16 -21v-4l-24 -205v-4q0 -18 20 -18h107q20 0 20 18v4l-25 205v4q0 20 17 21q6 0 16 -7l170 -116q4 -4 15 -4q10 0 16 10l53 90q4 8 4 12q0 10 -14 17l-193 82q-16 6 -16 18t16 18l193 84 q14 6 14 17q0 4 -4 12l-53 90q-6 12 -16 12q-6 0 -15 -6l-168 -121q-10 -6 -16 -6q-16 0 -16 21v4l22 203v4q0 18 -20 18h-107q-20 0 -20 -18v-4l22 -203v-4q0 -20 -16 -21q-8 0 -17 6l-161 121q-10 6 -15 6q-10 0 -16 -12l-53 -90q-4 -8 -5 -12q0 -10 15 -17l188 -84 q14 -6 15 -18q0 -12 -15 -18l-188 -80q-14 -6 -15 -17z" />
<glyph unicode="+" d="M92 451q0 -20 21 -21h327q20 0 21 -20v-328q0 -20 20 -21h82q20 0 21 21v328q0 20 20 20h328q20 1 20 21v81q0 20 -20 21h-328q-20 0 -20 20v328q0 20 -21 21h-82q-20 0 -20 -21v-328q0 -20 -21 -20h-327q-20 0 -21 -21v-81z" />
<glyph unicode="," horiz-adv-x="450" d="M92 -186q0 -2 1 -3t1 -4l29 -59q6 -14 14 -14q14 0 48 21.5t75 68.5q78 86 78 250v127q0 20 -21 20h-184q-20 0 -20 -20v-148q0 -20 20 -20h27q20 0 20 -33q0 -45 -13 -75.5t-30.5 -52.5t-31 -35t-13.5 -23z" />
<glyph unicode="-" horiz-adv-x="552" d="M92 389q0 -20 21 -20h327q21 0 21 20v143q0 20 -21 21h-327q-20 0 -21 -21v-143z" />
<glyph unicode="." horiz-adv-x="450" d="M113 92q0 -49 31.5 -80.5t80.5 -31.5t81 32.5t32 79.5t-33 80t-80 33t-79.5 -33t-32.5 -80z" />
<glyph unicode="/" horiz-adv-x="665" d="M8 27q0 -27 33 -27h68q20 0 26 18l518 1229q4 12 4 17q0 27 -32 26h-68q-20 0 -27 -18l-518 -1229q-4 -12 -4 -16z" />
<glyph unicode="0" d="M123 328q0 -78 26.5 -142.5t74.5 -110.5t116 -70.5t152 -24.5h61q84 0 151.5 24.5t115.5 70.5t75 110.5t27 142.5v635q0 78 -27 142t-75 110.5t-115.5 71t-151.5 24.5h-61q-84 0 -152 -24.5t-116 -71t-74.5 -111t-26.5 -141.5v-635zM307 328v635q0 78 53.5 131t131.5 53 h61q78 0 131 -53.5t53 -130.5v-635q0 -78 -53 -131.5t-131 -53.5h-61q-78 0 -131.5 53.5t-53.5 131.5z" />
<glyph unicode="1" d="M207 940q0 -6 8 -14l90 -88q8 -8 14 -9q6 0 15 9l98 100q8 8 17 8q18 0 18 -22v-740q0 -20 -21 -20h-204q-20 0 -21 -21v-123q0 -20 21 -20h635q20 0 20 20v123q0 20 -20 21h-205q-20 0 -21 20v1086q0 20 -20 20h-72l-14 -6l-330 -330q-8 -8 -8 -14z" />
<glyph unicode="2" d="M121 1102q0 -8 12 -15l129 -65q4 -2 10 -2q8 0 19 12q18 23 33.5 44.5t34 36.5t43 24.5t59.5 9.5h78q37 0 70.5 -14.5t59 -39t40 -58.5t14.5 -72q0 -47 -19.5 -83t-54.5 -67t-84 -60.5t-106 -66.5q-154 -96 -229.5 -196.5t-75.5 -251.5v-218q0 -20 20 -20h696q20 0 21 20 v123q0 20 -21 21h-512q-20 0 -20 20v54q0 78 43 138t135 118q66 41 128.5 77.5t115.5 81.5q72 59 109.5 139t37.5 171q0 78 -26.5 141t-74.5 109.5t-115.5 72t-151.5 25.5h-78q-72 0 -129.5 -16.5t-91.5 -43.5q-59 -45 -89 -84t-30 -65z" />
<glyph unicode="3" d="M121 190q0 -25 28.5 -64.5t88.5 -86.5q35 -27 92 -43t131 -16h61q172 0 270.5 98t98.5 266v62q0 76 -64 169q-27 39 -51 58.5t-24 30.5q0 10 24.5 28.5t50.5 52.5q63 88 64 166v31q0 170 -99.5 269.5t-269.5 99.5h-61q-72 0 -129.5 -16.5t-91.5 -43.5q-59 -45 -89 -84 t-30 -65q0 -8 12 -15l129 -65q4 -2 10 -2q8 0 19 12q18 23 33.5 44.5t34 36.5t43 24.5t59.5 9.5h61q76 0 130.5 -53.5t54.5 -130.5v-31q0 -78 -54.5 -131t-130.5 -53h-164q-20 0 -20 -21v-123q0 -20 20 -20h164q76 0 130.5 -53.5t54.5 -131.5v-71q0 -78 -54.5 -131.5 t-130.5 -53.5h-61q-35 0 -59.5 9.5t-43 26t-34 37t-33.5 44.5q-4 6 -7 10t-10 4q-4 0 -12 -4l-129 -65q-12 -6 -12 -15z" />
<glyph unicode="4" d="M63 313q0 -16 19 -16h512q20 0 20 -21v-256q0 -20 21 -20h143q20 0 21 20v256q0 20 20 21h144q20 0 20 20v123q0 20 -20 21h-144q-20 0 -20 20v789q0 20 -21 20h-153l-17 -8l-542 -821l-3 -144v-4zM262 477q0 6 6 17l310 464q4 10 18 11q18 0 18 -23v-465q0 -20 -20 -20 h-309q-23 0 -23 16z" />
<glyph unicode="5" d="M154 190q0 -25 28.5 -64.5t87.5 -86.5q35 -27 92.5 -43t131.5 -16h61q172 0 270.5 98t98.5 266v39q0 168 -98.5 266.5t-270.5 98.5h-143q-20 0 -21 20v338q0 20 21 20h471q20 0 20 21v123q0 20 -20 20h-656q-20 0 -20 -20v-666q0 -20 20 -20h328q76 0 130 -53.5 t54 -131.5v-71q0 -78 -54 -131.5t-130 -53.5h-61q-35 0 -59.5 9.5t-43 26t-34 37t-33.5 44.5q-10 14 -19 14q-2 0 -10 -4l-129 -65q-12 -6 -12 -15z" />
<glyph unicode="6" d="M123 328q0 -78 26.5 -142.5t74.5 -110.5t116 -70.5t152 -24.5h61q84 0 151.5 24.5t115.5 70.5t75 110.5t27 142.5v82q0 76 -27 140t-73 110.5t-110.5 72t-138.5 25.5h-61q-41 0 -72.5 -10.5t-55.5 -23.5t-39 -23.5t-21 -10.5q-16 0 -17 23v250q0 78 53.5 131t131.5 53h61 q37 0 61.5 -9.5t43 -24.5t34 -35.5t33.5 -45.5q4 -6 7 -10t9 -4q4 0 13 4l129 65q12 6 12 15q0 29 -24.5 64.5t-69.5 68.5t-108.5 54.5t-139.5 21.5h-61q-84 0 -152 -24.5t-116 -71t-74.5 -111t-26.5 -141.5v-635zM307 328v82q0 78 53.5 131t131.5 53h61q78 0 131 -53.5 t53 -130.5v-82q0 -72 -46 -119t-138 -66h-61q-78 0 -131.5 53.5t-53.5 131.5z" />
<glyph unicode="7" d="M174 1147q0 -20 21 -21h512q20 0 20 -20v-53q0 -55 -18.5 -97.5t-50 -78t-77.5 -68.5t-102 -72q-66 -45 -115 -87t-81.5 -89t-50 -103.5t-17.5 -129.5v-308q0 -20 21 -20h143q20 0 20 20v308q0 43 14.5 76.5t41 63.5t65.5 58.5t86 61.5q72 49 129.5 96t96 101.5t59 119 t20.5 148.5v217q0 20 -20 20h-696q-20 0 -21 -20v-123z" />
<glyph unicode="8" d="M123 344q0 -168 98 -266t271 -98h61q172 0 270.5 98t98.5 266v51q0 76 -64 170q-27 41 -51.5 59.5t-24.5 28.5q0 12 26 29.5t50 52.5q63 88 64 166v41q0 170 -99.5 269.5t-269.5 99.5h-61q-170 0 -269.5 -99.5t-99.5 -269.5v-41q0 -78 63 -166q25 -35 50.5 -52t25.5 -30 q0 -10 -25.5 -28.5t-52.5 -59.5q-33 -47 -47 -91t-14 -79v-51zM307 328v61q0 76 53.5 130t131.5 54h61q78 0 131 -54t53 -130v-61q0 -78 -53 -131.5t-131 -53.5h-61q-78 0 -131.5 53.5t-53.5 131.5zM307 922v41q0 78 53.5 131t131.5 53h61q78 0 131 -53.5t53 -130.5v-41 q0 -78 -53 -131.5t-131 -53.5h-61q-78 0 -131.5 53.5t-53.5 131.5z" />
<glyph unicode="9" d="M123 809q0 -76 26.5 -140.5t72.5 -110.5t109.5 -71.5t139.5 -25.5h61q39 0 70 10t53.5 23.5t40 23.5t27.5 10q14 0 14 -22v-178q0 -78 -53 -131.5t-131 -53.5h-61q-37 0 -61.5 9.5t-43 26t-33 37t-32.5 44.5q-4 6 -7.5 10t-9.5 4q-4 0 -12 -4l-129 -65q-12 -6 -12 -15 q0 -25 28.5 -64.5t87.5 -86.5q35 -27 92.5 -43t131.5 -16h61q84 0 151.5 24.5t115.5 70.5t75 110.5t27 142.5v635q0 78 -27 142t-75 110.5t-115.5 71t-151.5 24.5h-61q-84 0 -152 -24.5t-116 -71t-74.5 -111t-26.5 -141.5v-154zM307 809v154q0 78 53.5 131t131.5 53h61 q78 0 131 -53.5t53 -130.5v-154q0 -76 -53 -130t-131 -54h-61q-78 0 -131.5 54t-53.5 130z" />
<glyph unicode=":" horiz-adv-x="450" d="M113 92q0 -49 31.5 -80.5t80.5 -31.5t81 32.5t32 79.5t-33 80t-80 33t-79.5 -33t-32.5 -80zM113 645q0 -47 32.5 -80t79.5 -33t80 33t33 80t-33 80t-80 33t-79.5 -32t-32.5 -81z" />
<glyph unicode=";" horiz-adv-x="450" d="M92 -186q0 -2 1 -3t1 -4l29 -59q6 -14 14 -14q14 0 48 21.5t75 68.5q78 86 78 250v127q0 20 -21 20h-184q-20 0 -20 -20v-148q0 -20 20 -20h27q20 0 20 -33q0 -45 -13 -75.5t-30.5 -52.5t-31 -35t-13.5 -23zM113 645q0 -47 32.5 -80t79.5 -33t80 33t33 80t-33 80t-80 33 t-79.5 -32t-32.5 -81z" />
<glyph unicode="&#x3c;" d="M135 436l10 -18l635 -367q8 -4 13 -4q10 0 16 12l43 70q4 8 4 12q0 10 -12 17l-553 319q-14 10 -15 19q0 8 15 18l551 320q12 6 12 18q0 2 -4 10l-41 70q-6 12 -16 12q-4 0 -13 -4l-635 -369l-10 -18v-117z" />
<glyph unicode="=" d="M92 266q0 -20 21 -20h819q20 0 20 20v82q0 20 -20 21h-819q-20 0 -21 -21v-82zM92 635q0 -20 21 -21h819q20 1 20 21v82q0 20 -20 20h-819q-20 0 -21 -20v-82z" />
<glyph unicode="&#x3e;" d="M190 141q0 -4 5 -12l43 -70q6 -12 16 -12q4 0 12 4l633 367l10 18v117l-10 18l-633 369q-8 4 -12 4q-10 0 -16 -12l-43 -70q-4 -8 -5 -12q0 -10 13 -16l551 -320q14 -10 14 -18t-14 -19l-551 -319q-12 -6 -13 -17z" />
<glyph unicode="?" d="M127 1102q0 -8 12 -15l129 -65q4 -2 11 -2q8 0 18 12q18 23 33.5 44.5t34 36.5t43 24.5t59.5 9.5h78q37 0 70.5 -14.5t59 -39t40 -58.5t14.5 -72q0 -45 -16.5 -76t-45 -55.5t-69.5 -46t-92 -48.5q-90 -45 -131 -105.5t-41 -148.5q0 -63 4 -88.5t24 -25.5h142q20 0 20 22 q0 8 -3 23.5t-3 40.5q0 41 15.5 68.5t43 49t65.5 41t85 41.5q98 49 142 122t44 186q0 78 -26.5 141t-74.5 109.5t-115.5 72t-151.5 25.5h-78q-76 0 -138.5 -21.5t-107.5 -54.5t-69.5 -69t-24.5 -64zM348 92q0 -49 32 -80.5t81 -31.5t80.5 32.5t31.5 79.5t-32.5 80t-79.5 33 t-80 -32t-33 -81z" />
<glyph unicode="@" horiz-adv-x="1474" d="M184 356q0 -80 27 -145.5t76 -112.5t117.5 -72.5t154.5 -25.5h514q39 0 39 39v51q0 39 -39 39h-514q-113 0 -179.5 61.5t-66.5 165.5v578q0 102 66.5 164.5t179.5 62.5h356q113 0 179.5 -62.5t66.5 -164.5v-418q0 -29 -20.5 -49.5t-46.5 -20.5h-25q-31 0 -51.5 20.5 t-20.5 49.5l2 424q0 41 -38 41h-48q-41 0 -41 -41v-6q-78 47 -149 47q-53 0 -98 -18.5t-79 -51t-53.5 -78t-19.5 -100.5v-166q0 -55 19.5 -101t53.5 -79t79 -51.5t98 -18.5q88 0 182 72q66 -72 162 -72h27q90 0 143 52.5t53 136.5v428q0 80 -26.5 145.5t-75.5 112.5 t-119 72.5t-154 25.5h-356q-84 0 -153.5 -25.5t-118.5 -72.5t-76 -112.5t-27 -145.5v-578zM602 584v133q0 53 39 94t94 41q59 0 98 -40t39 -95v-133q0 -55 -39.5 -96.5t-97.5 -41.5q-57 0 -95 39t-38 99z" />
<glyph unicode="A" horiz-adv-x="921" d="M2 18q0 -18 23 -18h153q18 0 21 14l75 271q2 12 21 12h332q18 0 20 -12l76 -271q2 -14 20 -14h154q23 0 23 18q0 2 -1 3.5t-1 5.5l-381 1249q-6 14 -21 14h-110q-18 0 -21 -14l-381 -1249q0 -4 -1 -5.5t-1 -3.5zM331 482q1 1 1 5l100 383l25 93h8q8 -29 14 -51.5 t10 -39.5l99 -385q0 -2 1 -4t1 -4q0 -18 -23 -18h-215q-22 0 -22 17q0 3 1 4z" />
<glyph unicode="B" horiz-adv-x="1064" d="M154 20q0 -20 20 -20h410q172 0 270 97.5t98 267.5v30q0 76 -63 170q-27 41 -51.5 59.5t-24.5 28.5t24.5 27.5t51.5 54.5q63 88 63 166v21q0 170 -99 269t-269 99h-410q-20 0 -20 -20v-1250zM338 184v369q0 20 20 20h226q78 0 131 -54t53 -130v-41q0 -76 -53 -130 t-131 -54h-226q-20 0 -20 20zM338 758v348q0 20 20 20h226q78 0 131 -53t53 -131v-20q0 -78 -53 -131.5t-131 -53.5h-226q-20 0 -20 21z" />
<glyph unicode="C" horiz-adv-x="952" d="M123 328q0 -78 26.5 -142.5t74.5 -110.5t116 -70.5t152 -24.5h61q164 0 256 86q47 43 66.5 78.5t19.5 45.5q0 9 -12 15l-129 65q-8 4 -13 4q-10 0 -26.5 -23.5t-50.5 -64.5q-14 -16 -44 -29.5t-67 -13.5h-61q-78 0 -131.5 53.5t-53.5 131.5v635q0 78 53.5 131t131.5 53 h61q66 0 100.5 -34t69.5 -81q8 -12 16 -12q6 0 11 2l131 65q12 6 12 17q0 31 -24.5 66.5t-69.5 66.5t-107.5 52.5t-138.5 21.5h-61q-84 0 -152 -24.5t-116 -71t-74.5 -111t-26.5 -141.5v-635z" />
<glyph unicode="D" horiz-adv-x="1075" d="M154 20q0 -20 20 -20h410q172 0 270 98.5t98 270.5v553q0 170 -99 269t-269 99h-410q-20 0 -20 -20v-1250zM338 184v922q0 20 20 20h226q78 0 131 -53t53 -131v-594q0 -76 -53 -130t-131 -54h-226q-20 0 -20 20z" />
<glyph unicode="E" horiz-adv-x="983" d="M154 20q0 -20 20 -20h696q21 0 21 20v123q0 20 -21 21h-512q-20 0 -20 20v369q0 20 20 20h420q20 0 21 21v123q0 20 -21 20h-420q-20 0 -20 21v348q0 20 20 20h512q20 0 21 21v123q0 20 -21 20h-696q-20 0 -20 -20v-1250z" />
<glyph unicode="F" horiz-adv-x="931" d="M154 20q0 -20 20 -20h143q20 0 21 20v533q0 20 20 20h420q20 0 21 21v123q0 20 -21 20h-420q-20 0 -20 21v348q0 20 20 20h512q21 1 21 21v123q0 20 -21 20h-696q-20 0 -20 -20v-1250z" />
<glyph unicode="G" d="M123 328q0 -78 26.5 -142.5t74.5 -110.5t116 -70.5t152 -24.5h61q84 0 151.5 24.5t115.5 70.5t75 110.5t27 142.5v297q0 20 -21 20h-389q-20 0 -20 -20v-123q0 -20 20 -21h205q20 0 20 -20v-133q0 -78 -53 -131.5t-131 -53.5h-61q-78 0 -131.5 53.5t-53.5 131.5v635 q0 78 53.5 131t131.5 53h98q66 0 100.5 -34t69.5 -81q8 -12 16 -12q6 0 10 2l132 65q12 6 12 17q0 31 -24.5 66.5t-69.5 66.5t-107.5 52.5t-138.5 21.5h-98q-84 0 -152 -24.5t-116 -71t-74.5 -111t-26.5 -141.5v-635z" />
<glyph unicode="H" horiz-adv-x="1136" d="M154 20q0 -20 20 -20h143q20 0 21 20v533q0 20 20 20h420q20 0 21 -20v-533q0 -20 20 -20h144q20 0 20 20v1250q0 20 -20 20h-144q-20 0 -20 -20v-512q0 -20 -21 -21h-420q-20 0 -20 21v512q0 20 -21 20h-143q-20 0 -20 -20v-1250z" />
<glyph unicode="I" horiz-adv-x="491" d="M154 20q0 -20 20 -20h143q21 0 21 20v1250q0 20 -21 20h-143q-20 0 -20 -20v-1250z" />
<glyph unicode="J" horiz-adv-x="860" d="M27 193q0 -25 36.5 -69t110.5 -85q106 -59 205 -59q74 0 137.5 27.5t112.5 80.5q108 115 108 260v922q0 20 -20 20h-144q-20 0 -20 -20v-942q0 -76 -53.5 -130.5t-130.5 -54.5q-35 0 -59.5 9.5t-43 25t-35 37t-34.5 45.5q-10 12 -17 12q-6 0 -10 -2l-129 -63 q-14 -8 -14 -14z" />
<glyph unicode="K" horiz-adv-x="1075" d="M154 20q0 -20 20 -20h143q20 0 21 20v410q80 106 139 176l369 -596l16 -10h182q20 0 21 16q0 9 -4 15l-449 721q-2 4 -2 10q0 8 4 12l394 483q6 8 6 17q0 16 -23 16h-170l-16 -8l-430 -563q-10 -12 -19 -12q-18 0 -18 24v539q0 20 -21 20h-143q-20 0 -20 -20v-1250z" />
<glyph unicode="L" horiz-adv-x="931" d="M154 20q0 -20 20 -20h696q21 0 21 20v123q0 20 -21 21h-512q-20 0 -20 20v1086q0 20 -21 20h-143q-20 0 -20 -20v-1250z" />
<glyph unicode="M" horiz-adv-x="1323" d="M154 20q0 -20 20 -20h143q20 0 21 20l-19 912l289 -735q4 -10 19 -13h69q14 2 19 13l293 733l-23 -910q0 -20 21 -20h143q20 0 20 20v1250q0 20 -20 20l-145 2l-19 -12l-321 -815h-7l-323 813q-4 12 -19 12h-141q-20 0 -20 -20v-1250z" />
<glyph unicode="N" horiz-adv-x="1136" d="M154 20q0 -20 20 -20h143q20 0 21 20l-12 910l487 -920l18 -10h132q20 0 20 20v1250q0 20 -20 20h-144q-20 0 -20 -20l10 -908l-485 918l-19 10h-131q-20 0 -20 -20v-1250z" />
<glyph unicode="O" d="M123 328q0 -78 26.5 -142.5t74.5 -110.5t116 -70.5t152 -24.5h61q84 0 151.5 24.5t115.5 70.5t75 110.5t27 142.5v635q0 78 -27 142t-75 110.5t-115.5 71t-151.5 24.5h-61q-84 0 -152 -24.5t-116 -71t-74.5 -111t-26.5 -141.5v-635zM307 328v635q0 78 53.5 131t131.5 53 h61q78 0 131 -53.5t53 -130.5v-635q0 -78 -53 -131.5t-131 -53.5h-61q-78 0 -131.5 53.5t-53.5 131.5z" />
<glyph unicode="P" horiz-adv-x="993" d="M154 20q0 -20 20 -20h143q20 0 21 20v533q0 20 20 20h226q82 0 150.5 26t116.5 72t74.5 109.5t26.5 141.5q0 170 -99 269t-269 99h-410q-20 0 -20 -20v-1250zM338 758v348q0 20 20 20h226q78 0 131 -53t53 -131v-20q0 -78 -53 -131.5t-131 -53.5h-226q-20 0 -20 21z" />
<glyph unicode="Q" d="M123 328q0 -104 43 -181t129 -124q27 -16 53.5 -22.5t47 -10.5t32.5 -9.5t12 -17.5v-127q0 -20 21 -20h123q20 0 20 20v127q0 12 11.5 17.5t31 9.5t45 10t53.5 23q177 98 177 305v635q0 78 -27 142t-75 110.5t-115.5 71t-151.5 24.5h-61q-84 0 -152 -24.5t-116 -71 t-74.5 -111t-26.5 -141.5v-635zM307 328v635q0 78 53.5 131t131.5 53h61q78 0 131 -53.5t53 -130.5v-635q0 -35 -11 -65t-28.5 -53.5t-38 -36.5t-41.5 -13q-14 0 -14 20v84q0 20 -20 21h-123q-20 0 -21 -21v-84q0 -20 -14 -20q-20 0 -40.5 13t-38 36.5t-29 53.5t-11.5 65z " />
<glyph unicode="R" d="M154 20q0 -20 20 -20h143q20 0 21 20v533q0 20 20 20h203l17 -12l190 -547l18 -14h158q20 0 21 16q0 7 -2 11l-199 573q-2 2 -2 6q0 16 22.5 25.5t51.5 36.5q59 55 87.5 117.5t28.5 115.5v21q0 170 -99 269t-269 99h-410q-20 0 -20 -20v-1250zM338 758v348q0 20 20 20 h226q78 0 131 -53t53 -131v-20q0 -78 -53 -131.5t-131 -53.5h-226q-20 0 -20 21z" />
<glyph unicode="S" horiz-adv-x="901" d="M57 190q0 -25 29 -64.5t88 -86.5q35 -27 92.5 -43t130.5 -16h86q84 0 151.5 25.5t116 71.5t75 109.5t26.5 141.5q0 76 -19.5 134t-59.5 106t-99.5 89t-141.5 78q-61 29 -111 52.5t-84 49t-52.5 55.5t-18.5 71q0 39 14.5 72.5t40 58t59.5 39t71 14.5h32q66 0 100.5 -34 t69.5 -81q8 -12 17 -12q6 0 10 2l131 65q12 6 12 17q0 29 -24.5 64.5t-69.5 67.5t-107.5 53.5t-138.5 21.5h-32q-84 0 -152 -24.5t-116 -71t-74.5 -111t-26.5 -141.5q0 -78 21.5 -135.5t64.5 -101.5t106.5 -81t145.5 -76q59 -29 105 -53t78 -52t48.5 -60.5t16.5 -75.5 q0 -78 -54.5 -131.5t-130.5 -53.5h-86q-35 0 -59.5 9.5t-43 26t-33.5 37t-34 44.5q-10 14 -18 14q-2 0 -10 -4l-129 -65q-12 -6 -13 -15z" />
<glyph unicode="T" horiz-adv-x="819" d="M41 1147q0 -20 20 -21h236q20 0 20 -20v-1086q0 -20 21 -20h143q20 0 21 20v1086q0 20 20 20h236q20 1 20 21v123q0 20 -20 20h-697q-20 0 -20 -20v-123z" />
<glyph unicode="U" d="M123 328q0 -78 26.5 -142.5t74.5 -110.5t116 -70.5t152 -24.5h61q84 0 151.5 24.5t115.5 70.5t75 110.5t27 142.5v942q0 20 -21 20h-143q-20 0 -21 -20v-942q0 -78 -53 -131.5t-131 -53.5h-61q-78 0 -131.5 53.5t-53.5 131.5v942q0 20 -20 20h-144q-20 0 -20 -20v-942z " />
<glyph unicode="V" horiz-adv-x="921" d="M2 1272q0 -2 1 -3t1 -5l381 -1250q6 -14 21 -14h110q14 0 21 14l381 1250q0 2 1 4t1 4q0 18 -23 18h-154q-18 0 -20 -14l-258 -938l-266 938q-2 14 -21 14h-153q-23 0 -23 -18z" />
<glyph unicode="W" horiz-adv-x="1366" d="M20 1274q0 -2 1.5 -4t1.5 -4l264 -1250q4 -16 20 -16h117q18 0 20 14l242 908l236 -908q2 -14 20 -14h117q16 0 20 16l264 1250q0 2 1.5 4t1.5 4q0 16 -23 16h-149q-16 0 -21 -16l-174 -944l-244 950q-2 14 -20 14h-64q-18 0 -20 -14l-240 -950l-178 944q-4 16 -20 16 h-150q-23 0 -23 -16z" />
<glyph unicode="X" horiz-adv-x="940" d="M29 16q0 -16 22 -16h176l19 12l211 432q6 16 18 17q12 0 19 -17l200 -432q4 -10 19 -12h178q22 0 22 15q0 6 -4 14l-305 608v18l305 607q4 8 4 12q0 16 -22 16h-176q-12 0 -19 -12l-202 -438q-6 -14 -19 -15q-12 0 -18 15l-213 438l-19 12h-174q-22 0 -22 -15q0 -3 4 -15 l309 -605v-18l-309 -606q-4 -12 -4 -15z" />
<glyph unicode="Y" horiz-adv-x="921" d="M8 1274q0 -2 4 -14l357 -668v-572q0 -20 20 -20h143q20 0 21 20v572l356 668q4 12 4 14q0 16 -22 16h-168l-18 -12l-226 -467q-6 -14 -18 -14t-19 14l-225 467l-18 12h-168q-23 0 -23 -16z" />
<glyph unicode="Z" horiz-adv-x="901" d="M47 16q0 -16 23 -16h729q20 0 20 20v123q0 20 -20 21h-455q-23 0 -22 16q0 4 4 13l481 1069q4 8 4 12q0 16 -23 16h-686q-20 0 -20 -20v-123q0 -20 20 -21h410q23 0 23 -16q0 -4 -5 -12l-479 -1069q-4 -8 -4 -13z" />
<glyph unicode="[" horiz-adv-x="737" d="M184 -348q0 -20 21 -21h327q21 1 21 21v123q0 20 -21 20h-143q-20 0 -20 21v1495q0 20 20 20h143q20 0 21 21v123q0 20 -21 20h-327q-20 0 -21 -20v-1823z" />
<glyph unicode="\" horiz-adv-x="665" d="M8 1264q0 -4 4 -17l518 -1229q6 -18 27 -18h68q33 0 32 27q0 4 -4 16l-518 1229q-8 18 -26 18h-68q-33 0 -33 -26z" />
<glyph unicode="]" horiz-adv-x="737" d="M184 -225v-123q0 -20 21 -21h327q21 1 21 21v1823q0 20 -21 20h-327q-20 0 -21 -20v-123q0 -20 21 -21h143q20 0 21 -20v-1495q0 -20 -21 -21h-143q-20 0 -21 -20z" />
<glyph unicode="^" horiz-adv-x="1538" d="M72 686q0 -20 20 -20h51q20 0 21 -21v-625q0 -20 20 -20h144q20 0 20 20v625q0 20 21 21h313q20 0 20 -21v-625q0 -20 21 -20h143q20 0 21 20v625q0 20 20 21h144q20 0 20 20v123q0 20 -20 20h-144q-20 0 -20 21v113q0 43 12 70.5t33.5 47t53.5 33.5t69 31q8 4 12 7t4 13 v123q0 23 -37 23q-43 0 -79.5 -15.5t-65.5 -34t-48.5 -34t-31.5 -15.5q-6 0 -23.5 14.5t-50.5 35.5q-80 49 -186 49q-84 0 -154.5 -29t-122 -78t-80 -116.5t-28.5 -145.5v-92q0 -20 -21 -21h-51q-20 0 -20 -20v-123zM348 850v113q0 76 53.5 130t130.5 54q90 0 177 -90l4 -17 q-6 -23 -8.5 -47t-2.5 -51v-92q0 -20 -20 -21h-313q-20 0 -21 21zM1214 1198q0 -49 33 -81t80 -32t80 33t33 80t-33 80t-80 33t-80 -33t-33 -80zM1235 20q0 -20 20 -20h144q20 0 20 20v881q0 20 -20 21h-144q-20 0 -20 -21v-881z" />
<glyph unicode="_" horiz-adv-x="450" d="M-10 -389v-51q0 -20 20 -21h430q21 1 21 21v51q0 20 -21 20h-430q-20 0 -20 -20z" />
<glyph unicode="`" horiz-adv-x="1024" d="M219 1313q0 -10 8 -19l260 -256l15 -6h88q20 0 20 15q0 10 -4 16l-168 256l-16 10h-180q-23 0 -23 -16z" />
<glyph unicode="a" horiz-adv-x="972" d="M127 256q0 -55 19.5 -102.5t55.5 -81t86 -53t111 -19.5h80q35 0 63.5 11.5t51 23.5t39 23.5t29.5 11.5q14 0 14 -23v-27q0 -20 20 -20h123q21 0 21 20v310l-2 270q-2 154 -101.5 248t-267.5 94q-156 0 -244 -78q-49 -43 -70.5 -77.5t-21.5 -47.5q0 -10 12 -16l125 -66 q8 -4 13 -4q10 0 25.5 22.5t49.5 59.5q18 20 47 32.5t64 12.5q80 0 130 -51t54 -129l2 -57q0 -20 -20 -21h-236q-61 0 -111 -19.5t-86 -53t-55.5 -79.5t-19.5 -102v-12zM309 256v33q0 39 25.5 64.5t64.5 25.5h236q20 0 20 -21v-8l-2 -39q-53 -147 -174 -147h-80 q-39 0 -64.5 25.5t-25.5 66.5z" />
<glyph unicode="b" horiz-adv-x="972" d="M133 20q0 -20 21 -20h122q20 0 21 20v25q0 23 14 23q10 0 25.5 -10.5t40 -24t58.5 -23.5t79 -10q78 0 143.5 25.5t112.5 71.5t73.5 109.5t26.5 141.5v225q0 76 -26.5 139.5t-72.5 109.5t-107.5 73t-133.5 27q-45 0 -78.5 -11.5t-57 -24t-39 -23.5t-21.5 -11q-16 0 -17 25 v393q0 20 -20 20h-143q-20 0 -21 -20v-1250zM317 348v225q0 76 53.5 130.5t131.5 54.5q39 0 72.5 -14.5t58 -40t39 -59.5t14.5 -71v-225q0 -37 -14.5 -70.5t-39 -59t-58 -40t-72.5 -14.5q-78 0 -131.5 54t-53.5 130z" />
<glyph unicode="c" horiz-adv-x="876" d="M102 328q0 -78 27 -142.5t75 -110.5t115.5 -70.5t151.5 -24.5q164 0 256 86q47 43 66.5 78.5t19.5 45.5q0 9 -12 15l-129 65q-8 4 -13 4q-10 0 -25.5 -22.5t-49.5 -63.5q-16 -20 -46 -32.5t-67 -12.5q-39 0 -72.5 14.5t-58.5 40t-39 59.5t-14 71v266q0 37 14 70.5 t39 59.5t58.5 40t72.5 14q63 0 98 -31.5t72 -82.5q8 -12 16 -13q6 0 11 2l131 66q12 6 12 16q0 33 -42 84t-124 88q-80 35 -174 35q-84 0 -151.5 -24.5t-115.5 -70.5t-75 -110.5t-27 -142.5v-266z" />
<glyph unicode="d" horiz-adv-x="972" d="M102 348q0 -78 27 -141.5t74 -109.5t111.5 -71.5t142.5 -25.5q45 0 78.5 10t58 23.5t41 24t27.5 10.5q14 0 14 -23v-25q0 -20 20 -20h123q21 0 21 20v1250q0 20 -21 20h-143q-20 0 -21 -20v-393q0 -23 -14 -23q-10 0 -27.5 10t-40 23.5t-53.5 24t-69 10.5 q-76 0 -140.5 -27t-110.5 -73t-72 -109.5t-26 -139.5v-225zM287 348v225q0 37 14 71t39 59.5t58.5 40t72.5 14.5q78 0 131 -54.5t53 -130.5v-225q0 -76 -53 -130t-131 -54q-39 0 -72.5 14.5t-58.5 40t-39 59t-14 70.5z" />
<glyph unicode="e" horiz-adv-x="942" d="M102 328q0 -78 27 -142.5t75 -110.5t115.5 -70.5t151.5 -24.5q164 0 256 86q47 43 66.5 78.5t19.5 45.5q0 8 -12 15l-129 65q-8 4 -13 4q-10 0 -25.5 -22.5t-49.5 -63.5q-16 -20 -46 -32.5t-67 -12.5q-39 0 -72.5 14.5t-58.5 40t-39 59.5t-14 71v82q0 20 20 20h512 q21 1 21 21v143q0 70 -29 133.5t-79 110.5t-117.5 75.5t-143.5 28.5q-78 0 -144.5 -28.5t-116.5 -75.5t-79 -110.5t-29 -133.5v-266zM287 604q0 33 15 64.5t40 56.5t58.5 39t70.5 14t69.5 -14t58.5 -38t41 -54.5t15 -63.5q0 -18 -3 -26.5t-17 -8.5h-328q-14 0 -17 7.5 t-3 23.5z" />
<glyph unicode="f" horiz-adv-x="583" d="M72 686q0 -20 20 -20h51q20 0 21 -21v-625q0 -20 20 -20h144q20 0 20 20v625q0 20 21 21h143q20 0 20 20v123q0 20 -20 20h-143q-20 0 -21 21v113q0 37 14.5 70.5t39 59t58.5 40t72 14.5q6 0 18.5 -1t31.5 -3q14 0 20 14l41 119q2 4 2 8q0 16 -27.5 21.5t-85.5 5.5 q-164 0 -262 -109q-53 -55 -79.5 -121.5t-26.5 -138.5v-92q0 -20 -21 -21h-51q-20 0 -20 -20v-123z" />
<glyph unicode="g" horiz-adv-x="942" d="M102 -184v-21q0 -55 20.5 -102t56.5 -81t87 -53.5t113 -19.5h276q61 0 112.5 19.5t87.5 54.5t56.5 81t20.5 101v21q0 55 -20.5 101t-56.5 81t-87 54.5t-113 19.5h-241q-55 25 -56 69q0 39 54 70q20 -2 34.5 -3t24.5 -1q80 0 147.5 26.5t116.5 73.5t77 110.5t28 137.5v346 q0 20 -21 21h-123q-20 0 -20 -21v-24q0 -23 -14 -23q-10 0 -28 10t-40.5 23.5t-53 24t-69.5 10.5q-80 0 -147.5 -27t-116.5 -74t-77 -110.5t-28 -137.5v-18q0 -57 15.5 -105.5t38.5 -76.5q37 -47 58.5 -69.5t21.5 -29.5q0 -10 -19.5 -39.5t-19.5 -93.5q0 -43 14 -70.5 t14 -41.5q0 -10 -20.5 -27.5t-54.5 -52.5q-20 -23 -34 -57.5t-14 -75.5zM287 -184q0 37 27.5 64.5t64.5 27.5h276q37 0 65 -27.5t28 -64.5v-21q0 -37 -28 -64.5t-65 -27.5h-276q-39 0 -65.5 27.5t-26.5 64.5v21zM287 555v18q0 37 14 71t39 59.5t58.5 40t72.5 14.5 q78 0 131 -54.5t53 -130.5v-18q0 -76 -53 -130t-131 -54q-39 0 -72.5 14t-58.5 40t-39 59.5t-14 70.5z" />
<glyph unicode="h" horiz-adv-x="993" d="M133 20q0 -20 21 -20h143q20 0 20 20v553q0 76 53.5 130.5t131.5 54.5q39 0 72.5 -14.5t58 -40t39 -59.5t14.5 -71v-553q0 -20 21 -20h143q20 0 20 20v553q0 76 -25.5 139.5t-71.5 109.5t-107.5 73t-133.5 27q-45 0 -78.5 -11.5t-58 -24t-40 -23.5t-21.5 -11 q-16 0 -17 25v393q0 20 -20 20h-143q-20 0 -21 -20v-1250z" />
<glyph unicode="i" horiz-adv-x="450" d="M113 1198q0 -49 32.5 -81t79.5 -32t80 33t33 80t-33 80t-80 33t-79.5 -33t-32.5 -80zM133 20q0 -20 21 -20h143q20 0 20 20v881q0 20 -20 21h-143q-20 0 -21 -21v-881z" />
<glyph unicode="j" horiz-adv-x="450" d="M-51 -338v-123q0 -20 22 -20q152 0 250 119q47 57 71.5 121.5t24.5 125.5v1016q0 20 -20 21h-143q-20 0 -21 -21v-1036q0 -43 -12 -70.5t-33.5 -47t-53.5 -34t-69 -30.5q-8 -4 -12 -7.5t-4 -13.5zM113 1198q0 -49 32.5 -81t79.5 -32t80 33t33 80t-33 80t-80 33t-79.5 -33 t-32.5 -80z" />
<glyph unicode="k" horiz-adv-x="919" d="M133 20q0 -20 21 -20h143q20 0 20 20v340l78 80q6 8 17 9q10 0 16 -13l260 -426l19 -10h180q22 0 22 15q0 8 -4 16l-348 561q-4 8 -4 10t8 14l266 271q8 8 9 18q0 16 -23 17h-174l-14 -7l-273 -299q-6 -8 -16 -8q-18 0 -19 23v639q0 20 -20 20h-143q-20 0 -21 -20v-1250z " />
<glyph unicode="l" horiz-adv-x="450" d="M133 20q0 -20 21 -20h143q20 0 20 20v1250q0 20 -20 20h-143q-20 0 -21 -20v-1250z" />
<glyph unicode="m" horiz-adv-x="1474" d="M133 20q0 -20 21 -20h143q20 0 20 20v553q0 37 14.5 71t37 58.5t52.5 40t60 15.5q31 0 60.5 -14.5t53 -40t37 -59.5t13.5 -71v-553q0 -20 21 -20h143q20 0 20 20v553q0 37 14.5 70t37 58.5t52.5 41t60 15.5q31 0 60.5 -14.5t53 -40t37 -59.5t13.5 -71v-553q0 -20 21 -20 h143q20 0 20 20v553q0 76 -25.5 140.5t-71.5 110.5t-110.5 72t-140.5 26q-106 0 -176 -45q-35 -23 -52 -40.5t-26 -17.5q-6 0 -23.5 16.5t-51.5 38.5q-68 47 -162 48q-37 0 -68 -11.5t-54.5 -24t-40.5 -23.5t-28 -11q-14 0 -14 22v27q0 20 -21 21h-122q-20 0 -21 -21v-881z " />
<glyph unicode="n" horiz-adv-x="1003" d="M133 20q0 -20 21 -20h143q20 0 20 20v553q0 76 53.5 130.5t131.5 54.5q39 0 72.5 -14.5t58 -40t39 -59.5t14.5 -71v-553q0 -20 21 -20h143q20 0 20 20v553q0 78 -26.5 141.5t-73.5 109.5t-111.5 72t-142.5 26q-45 0 -79 -10.5t-58.5 -24t-40.5 -23.5t-27 -10 q-14 0 -14 23v24q0 20 -21 21h-122q-20 0 -21 -21v-881z" />
<glyph unicode="o" horiz-adv-x="942" d="M102 328q0 -78 27 -142.5t75 -110.5t115.5 -70.5t151.5 -24.5t151.5 24.5t115.5 70.5t75 110.5t27 142.5v266q0 78 -27 141.5t-75 109.5t-115.5 71.5t-151.5 25.5t-151.5 -24.5t-115.5 -70.5t-75 -110.5t-27 -142.5v-266zM287 328v266q0 76 53 130t131 54t131 -54 t53 -130v-266q0 -76 -53 -130.5t-131 -54.5q-39 0 -72.5 14.5t-58.5 40t-39 59.5t-14 71z" />
<glyph unicode="p" horiz-adv-x="972" d="M133 -440q0 -20 21 -21h143q20 0 20 21v485q0 23 17 23q6 0 21.5 -10.5t40 -24t58 -23.5t78.5 -10q72 0 133.5 26.5t107.5 72.5t71.5 109.5t25.5 139.5v225q0 78 -26.5 141.5t-73.5 109.5t-111.5 72t-142.5 26q-45 0 -79 -10.5t-58.5 -24t-40.5 -23.5t-27 -10 q-14 0 -14 23v24q0 20 -21 21h-122q-20 0 -21 -21v-1341zM317 348v225q0 76 53.5 130.5t131.5 54.5q39 0 72.5 -14.5t58 -40t39 -59.5t14.5 -71v-225q0 -37 -14.5 -70.5t-39 -59t-58 -40t-72.5 -14.5q-78 0 -131.5 54t-53.5 130z" />
<glyph unicode="q" horiz-adv-x="972" d="M102 348q0 -76 26 -139.5t72 -109.5t110.5 -72.5t140.5 -26.5q39 0 69.5 10t53 23.5l40 24t27.5 10.5q14 0 14 -23v-485q0 -20 21 -21h143q21 1 21 21v1341q0 20 -21 21h-123q-20 0 -20 -21v-24q0 -23 -14 -23q-10 0 -27 10t-41.5 23.5t-58 24t-78.5 10.5 q-78 0 -142.5 -26t-111.5 -72t-74 -109.5t-27 -141.5v-225zM287 348v225q0 37 14 71t39 59.5t58.5 40t72.5 14.5q78 0 131 -54.5t53 -130.5v-225q0 -76 -53 -130t-131 -54q-39 0 -72.5 14.5t-58.5 40t-39 59t-14 70.5z" />
<glyph unicode="r" horiz-adv-x="626" d="M133 20q0 -20 21 -20h143q20 0 20 20v533q0 86 49.5 134t135.5 48q39 0 62.5 -7t37.5 -7q12 0 12 20v154q0 18 -23.5 22.5t-82.5 4.5q-41 0 -74 -17.5t-56.5 -38t-38.5 -38t-24 -17.5q-18 0 -18 25v65q0 20 -21 21h-122q-20 0 -21 -21v-881z" />
<glyph unicode="s" horiz-adv-x="901" d="M82 186q0 -31 23.5 -66.5t67.5 -67.5t105.5 -52t137.5 -20h61q156 0 247 85t91 224q0 59 -20.5 101t-60.5 70.5t-101.5 48t-143.5 36.5q-113 23 -168 47t-55 88q0 49 39 76.5t111 27.5h61q66 0 101.5 -32.5t74.5 -81.5q4 -4 7.5 -8.5t7.5 -4.5t12 5l119 59q12 6 12 14 q0 31 -23.5 67t-67.5 67.5t-105.5 52t-137.5 20.5h-61q-74 0 -134.5 -21.5t-104.5 -61.5t-67.5 -95t-23.5 -123q0 -115 70.5 -169t216.5 -83q63 -12 112.5 -22.5t82 -23.5t49 -33.5t16.5 -53.5q0 -49 -42 -84t-114 -35h-61q-68 0 -104 34t-72 81q-12 12 -17 12q-2 0 -10 -4 l-119 -59q-12 -6 -12 -15z" />
<glyph unicode="t" horiz-adv-x="645" d="M20 778q0 -20 21 -20h113q20 0 20 -21v-409q0 -78 27.5 -141.5t74 -108.5t105.5 -70.5t123 -25.5q23 0 31 3t8 17v123q0 14 -17 20q-47 20 -77.5 34t-45.5 30q-45 57 -45 119v409q0 20 21 21h143q20 0 21 20v123q0 20 -21 21h-143q-20 0 -21 20v143q0 20 -20 21h-64 l-14 -6l-235 -250z" />
<glyph unicode="u" horiz-adv-x="983" d="M113 348q0 -78 26.5 -141.5t73.5 -109.5t111.5 -71.5t142.5 -25.5q45 0 79 10t58.5 23.5t41 24t26.5 10.5q14 0 14 -23v-25q0 -20 21 -20h122q21 0 21 20v881q0 20 -21 21h-143q-20 0 -20 -21v-553q0 -37 -14.5 -70.5t-39 -59t-58.5 -40t-73 -14.5t-72.5 14.5t-58 40 t-39 59t-14.5 70.5v553q0 20 -21 21h-143q-20 0 -20 -21v-553z" />
<glyph unicode="v" horiz-adv-x="880" d="M6 905q0 -8 2 -12l348 -881q6 -12 19 -12h131q8 2 18 12l348 881q2 4 2 12q0 16 -20 17h-154q-16 -6 -18 -13l-244 -669l-239 669q-10 8 -19 13h-153q-20 0 -21 -17z" />
<glyph unicode="w" horiz-adv-x="1243" d="M24 900q1 -1 1 -5l260 -881q2 -14 20 -14h119q18 0 20 14l179 705l176 -705q8 -14 20 -14h115q14 0 20 14l265 881q0 4 1 5t1 3q0 18 -23 19h-149q-18 0 -23 -15l-152 -657l-163 657q-2 14 -21 15h-137q-8 0 -21 -15l-163 -657l-154 657q-12 14 -20 15h-150 q-22 0 -22 -17q0 -4 1 -5z" />
<glyph unicode="x" horiz-adv-x="835" d="M12 16q0 -16 23 -16h164l18 10l180 291q10 14 19 14q8 0 18 -14l180 -291l19 -10h168q20 0 20 16q0 7 -4 15l-274 422v20l274 418q4 4 4 14q0 16 -20 17h-170l-17 -11l-184 -293q-10 -12 -16 -12t-15 12l-182 293l-16 11h-166q-23 0 -23 -17q0 -6 6 -14l273 -416 q4 -4 4 -10q0 -2 -4 -14l-273 -420q-6 -10 -6 -15z" />
<glyph unicode="y" horiz-adv-x="983" d="M113 348q0 -78 26.5 -142.5t74.5 -110.5t115.5 -70.5t151.5 -24.5q37 0 63.5 9t46 20.5t34 20.5t24.5 9q16 0 17 -22v-170q0 -37 -14.5 -71t-39 -59.5t-58.5 -39.5t-73 -14q-35 0 -59.5 9t-43 24.5t-34.5 36t-35 44.5q-10 14 -18 15q-2 0 -10 -5l-129 -65q-12 -6 -13 -14 q0 -27 30 -66t89 -84q35 -27 93.5 -43t129.5 -16q174 0 271.5 98t97.5 270v1014q0 20 -21 21h-143q-20 0 -20 -21v-553q0 -37 -14.5 -70.5t-39 -59t-58.5 -40t-73 -14.5t-72.5 14.5t-58 40t-39 59t-14.5 70.5v553q0 20 -21 21h-143q-20 0 -20 -21v-553z" />
<glyph unicode="z" horiz-adv-x="880" d="M49 16q0 -16 23 -16h714q21 0 21 20v123q0 20 -21 21h-397q-23 0 -22 16q0 10 4 15l417 694q4 8 5 14q0 16 -23 17h-678q-20 0 -20 -21v-123q0 -20 20 -20h359q23 0 22 -17q0 -6 -4 -14l-416 -694q-4 -8 -4 -15z" />
<glyph unicode="{" horiz-adv-x="737" d="M0 500q0 -10 4 -13.5t12 -7.5q39 -16 70 -30.5t52.5 -34t33.5 -47t12 -70.5v-297q0 -84 28 -151.5t73 -115.5t104.5 -74t122.5 -26q23 0 32 3.5t9 17.5v123q0 10 -4 13t-12 7q-37 16 -69 30.5t-53.5 34t-33.5 47.5t-12 71v323q0 76 -64 170q-27 41 -51.5 59.5t-24.5 28.5 t26 28.5t50 53.5q63 88 64 166v338q0 43 12 70.5t33.5 47t53.5 34t69 30.5q8 4 12 7t4 14v123q0 14 -9 17t-32 3q-63 0 -122.5 -25.5t-104.5 -73.5t-73 -116t-28 -152v-297q0 -43 -12 -70.5t-33.5 -47t-52.5 -33.5t-70 -31q-8 -4 -12 -7t-4 -13v-127z" />
<glyph unicode="|" horiz-adv-x="1558" d="M72 686q0 -20 20 -20h51q20 0 21 -21v-625q0 -20 20 -20h144q20 0 20 20v625q0 20 21 21h313q20 0 20 -21v-625q0 -20 21 -20h143q20 0 21 20v625q0 20 20 21h144q20 0 20 20v123q0 20 -20 20h-144q-20 0 -20 21v92q0 78 54 131t130 53h150q20 0 20 -20v-1086 q0 -20 21 -20h143q20 0 20 20v1250q0 20 -20 20h-334q-55 0 -98 -13t-74 -30.5t-50.5 -31t-27.5 -13.5q-4 0 -23.5 15.5t-56.5 39.5q-78 53 -190 54q-86 0 -156.5 -29t-122 -78t-80 -116.5t-28.5 -145.5v-92q0 -20 -21 -21h-51q-20 0 -20 -20v-123zM348 850v113 q0 76 53.5 130t130.5 54q100 0 183 -100v-17q-8 -27 -10.5 -53.5t-2.5 -54.5v-72q0 -20 -20 -21h-313q-20 0 -21 21z" />
<glyph unicode="}" horiz-adv-x="737" d="M184 -223v-123q0 -14 8.5 -17.5t30.5 -3.5q63 0 124 27t106 74t72.5 114.5t27.5 151.5v297q0 43 12.5 70.5t34 47t53 34t68.5 30.5q8 4 12 7.5t4 13.5v127q0 10 -4 13t-12 7q-37 16 -68.5 30.5t-53 34t-34 47t-12.5 70.5v297q0 84 -27.5 152t-72.5 116t-105.5 73.5 t-124.5 25.5q-20 0 -29.5 -3t-9.5 -17v-123q0 -10 4.5 -13.5t12.5 -7.5q37 -16 68.5 -30.5t53 -34t34 -47t12.5 -70.5v-338q0 -78 63 -166q25 -35 50.5 -52.5t25.5 -29.5t-24.5 -30.5t-51.5 -57.5q-63 -94 -63 -170v-323q0 -59 -45 -117q-14 -16 -46 -30.5t-77 -35.5 q-8 -4 -12.5 -7t-4.5 -13z" />
<glyph unicode="~" horiz-adv-x="1122" d="M72 686q0 -20 20 -20h51q20 0 21 -21v-625q0 -20 20 -20h144q20 0 20 20v625q0 20 21 21h313q20 0 20 -21v-625q0 -20 21 -20h143q20 0 21 20v625q0 20 20 21h144q20 0 20 20v123q0 20 -20 20h-144q-20 0 -20 21v113q0 76 53 130t131 54q6 0 18.5 -1t30.5 -3q14 0 21 14 l41 119q2 4 2 8q0 16 -27 21.5t-86 5.5q-41 0 -71.5 -6.5t-55 -16.5t-44 -22.5t-38.5 -22.5q-20 -12 -32.5 -21.5t-20.5 -9.5q-6 0 -23.5 14.5t-50.5 35.5q-80 49 -186 49q-84 0 -154.5 -29t-122 -78t-80 -116.5t-28.5 -145.5v-92q0 -20 -21 -21h-51q-20 0 -20 -20v-123z M348 850v113q0 76 53.5 130t130.5 54q90 0 177 -90l4 -17q-6 -23 -8.5 -47t-2.5 -51v-92q0 -20 -20 -21h-313q-20 0 -21 21z" />
<glyph unicode="&#xa1;" horiz-adv-x="552" d="M133 829q0 -47 33 -79.5t80 -32.5t79.5 32.5t32.5 79.5t-32.5 80t-79.5 33t-80 -31.5t-33 -81.5zM154 186v-534q0 -20 20 -21h143q21 1 21 21v534l-45 349q-4 18 -21 18h-55q-18 0 -20 -18z" />
<glyph unicode="&#xa2;" d="M172 512q0 -211 174 -307q29 -16 55.5 -22.5t47 -9.5t33 -8t12.5 -18v-127q0 -20 20 -20h51q20 0 21 20v127q0 20 39 29.5t114 38.5q31 12 57.5 31.5t45 43t30 45t11.5 38.5q-1 10 -13 16l-129 66q-4 2 -10 2q-12 0 -23.5 -17.5t-33.5 -48.5q-16 -23 -37 -35t-37 -12 q-14 0 -14 21v561q0 20 14 20q35 0 58.5 -28.5t54.5 -69.5q8 -12 18 -12q6 0 10 2l129 65q12 6 13 17q0 23 -26 58.5t-79 76.5q-18 14 -65 37.5t-111 29.5q-10 4 -13 7.5t-3 13.5v127q0 20 -21 20h-51q-20 0 -20 -20v-127q0 -12 -12.5 -17.5t-33 -9.5t-47 -11t-55.5 -22 q-174 -96 -174 -305v-266zM356 512v266q0 33 11.5 64.5t30 54.5t40 37t41.5 14q14 0 15 -20v-566q0 -20 -15 -20q-20 0 -41.5 14.5t-40 37t-30 53t-11.5 65.5z" />
<glyph unicode="&#xa3;" d="M0 20q0 -20 20 -20h881q20 0 21 20v123q0 20 -21 21h-463q-23 0 -22 14q0 20 22.5 57t22.5 93v225q0 20 20 20h144q20 0 20 21v123q0 20 -20 20h-144q-20 0 -20 21v205q0 37 14 70.5t39 59t58.5 40t72.5 14.5q63 0 98 -33t72 -82q8 -12 16 -12q6 0 11 2l131 65 q12 6 12 17q0 35 -42 85t-124 87q-80 35 -162 35q-84 0 -153.5 -29t-120.5 -78t-79 -116.5t-28 -145.5v-184q0 -20 -20 -21h-51q-20 0 -21 -20v-123q0 -20 21 -21h51q20 0 20 -20v-205q0 -137 -161 -184h-95q-20 0 -20 -21v-123z" />
<glyph unicode="&#xa4;" horiz-adv-x="1241" d="M80 428l82 -82l205 205q113 -86 256 -86q76 0 138 22.5t116 63.5l204 -205l82 82l-205 205q43 57 62.5 119.5t19.5 132.5q0 143 -82 252l205 206l-82 80l-204 -204q-115 86 -256 86t-254 -86l-205 204l-82 -80l207 -206q-84 -113 -84 -252q0 -82 24.5 -145.5t59.5 -106.5 zM319 887q0 61 24 116.5t65 97.5t96 65.5t119 23.5q63 0 118.5 -23.5t96.5 -65.5t64.5 -97.5t23.5 -116.5q0 -63 -23.5 -118.5t-64.5 -97.5t-96.5 -65.5t-118.5 -23.5t-118.5 23.5t-96.5 65.5t-65 97t-24 119z" />
<glyph unicode="&#xa5;" d="M70 1276q0 -10 4 -16l295 -553q4 -12 4 -15q0 -16 -23 -16h-248q-20 0 -20 -21v-102q0 -20 20 -21h308q20 0 20 -20v-164q0 -20 -20 -20h-308q-20 0 -20 -21v-102q0 -20 20 -21h308q20 0 20 -20v-144q0 -20 21 -20h143q20 0 20 20v144q0 20 21 20h307q20 0 21 21v102 q0 20 -21 21h-307q-20 0 -21 20v164q0 20 21 20h307q20 0 21 21v102q0 20 -21 21h-248q-23 0 -22 16q0 2 4 15l295 553q4 12 4 14q0 16 -23 16h-168q-10 0 -18 -12l-225 -467q-6 -14 -19 -14q-12 0 -18 14l-225 467l-19 12h-168q-23 0 -22 -14z" />
<glyph unicode="&#xa6;" horiz-adv-x="1024" d="M438 -350h150v758h-150v-758zM438 674h150v758h-150v-758z" />
<glyph unicode="&#xa7;" d="M129 -252q0 -27 29.5 -65.5t89.5 -83.5q35 -27 92 -43.5t129 -16.5h86q84 0 151.5 25.5t115.5 72t75 110t27 140.5q-1 121 -60 219l-2 21q61 88 62 201q0 141 -71 232t-222 163q-66 31 -120 55.5t-92 50t-59.5 57.5t-21.5 77q0 39 14.5 72.5t40 58t59 39t70.5 14.5h33 q66 0 100.5 -34t69.5 -81q8 -12 16 -12q6 0 11 2l131 65q12 6 12 17q0 31 -24.5 66.5t-69.5 66.5t-107.5 52.5t-138.5 21.5h-33q-84 0 -151.5 -24.5t-115.5 -71t-74.5 -111t-26.5 -141.5q0 -55 10 -94.5t22.5 -66t22.5 -40.5t10 -21q0 -6 -10 -21t-22.5 -42t-22.5 -66 t-10 -90q0 -70 17 -123t54 -96t92.5 -80t128.5 -73q66 -33 120.5 -58.5t92 -54.5t59 -63.5t21.5 -86.5q0 -78 -54 -131t-130 -53h-86q-35 0 -59.5 9t-43 25.5t-34 37t-33.5 43.5q-10 12 -18 12q-6 0 -11 -2l-129 -66q-12 -6 -12 -14zM338 522q0 47 11 74t22 27q12 0 141 -62 q92 -45 113 -57q57 -39 85.5 -78t28.5 -98q0 -37 -10 -60.5t-18 -23.5q-6 0 -83 29.5t-200 109.5q-45 29 -67.5 62.5t-22.5 76.5z" />
<glyph unicode="&#xa8;" horiz-adv-x="1024" d="M252 1171q0 -43 29.5 -72.5t72.5 -29.5t73 30.5t30 71.5t-30 72t-73 31t-72.5 -30t-29.5 -73zM571 1171q0 -43 30 -72.5t73 -29.5t72.5 30.5t29.5 71.5t-29.5 72t-72.5 31t-73 -30t-30 -73z" />
<glyph unicode="&#xa9;" horiz-adv-x="1474" d="M184 348q0 -78 27 -142.5t75 -110.5t115.5 -70.5t151.5 -24.5h369q84 0 151.5 24.5t115.5 70.5t74.5 110.5t26.5 142.5v594q0 78 -26.5 142.5t-74.5 110.5t-115.5 70.5t-151.5 24.5h-369q-84 0 -151.5 -24.5t-115.5 -70.5t-75 -110.5t-27 -142.5v-594zM276 348v594 q0 117 75 186.5t202 69.5h369q127 0 201.5 -70.5t74.5 -185.5v-594q0 -115 -74.5 -185.5t-201.5 -70.5h-369q-127 0 -202 69.5t-75 186.5zM475 557q0 -111 70.5 -178.5t189.5 -67.5q53 0 96 13.5t73 33t46.5 42t16.5 40.5q-1 13 -11 19l-61 33q-8 4 -12 4q-8 0 -19.5 -14.5 t-28 -31t-41 -30.5t-59.5 -14q-63 0 -107 45t-44 106v203q0 63 43 106t108 43q33 0 58.5 -13t43 -29.5t29 -30t17.5 -13.5q4 0 12 4l59 31q10 6 11 14q0 16 -16.5 39t-46.5 42.5t-72 33.5t-95 14q-121 0 -190.5 -65.5t-69.5 -175.5v-203z" />
<glyph unicode="&#xaa;" horiz-adv-x="679" d="M78 819q0 -82 56 -136t145 -54h57q53 0 119 49l8 -4v-19q0 -25 24 -24h86q25 -1 25 24v217l-2 189q-2 113 -73.5 181.5t-194.5 68.5q-55 0 -100.5 -16.5t-77 -40t-49 -50t-17.5 -49.5q0 -10 14 -16l86 -45q6 -4 15 -4q12 0 18 12q45 76 111 76q49 0 81.5 -33t36.5 -84 l3 -41l-5 -4h-165q-92 0 -146.5 -52.5t-54.5 -134.5v-10zM227 819v25q0 23 14.5 37t37.5 14h165l5 -4v-4l-3 -27q-31 -94 -110 -94h-57q-23 0 -37.5 15.5t-14.5 37.5z" />
<glyph unicode="&#xab;" horiz-adv-x="1134" d="M113 510l8 -16l403 -287q8 -6 17 -6q16 -1 16 22v117l-8 16l-277 199q-10 8 -10 16t10 17l277 198l8 17v117q0 23 -16 22q-8 0 -17 -6l-403 -289l-8 -16v-121zM553 510l8 -16l406 -287q8 -6 16 -6q16 -1 16 22v117l-8 16l-276 199q-10 8 -10 16t10 17l276 198l8 17v117 q0 23 -16 22q-8 0 -16 -6l-406 -289l-8 -16v-121z" />
<glyph unicode="&#xac;" horiz-adv-x="1705" d="M254 721h1061v-363h137v502h-1198v-139z" />
<glyph unicode="&#xad;" horiz-adv-x="552" d="M92 389q0 -20 21 -20h327q21 0 21 20v143q0 20 -21 21h-327q-20 0 -21 -21v-143z" />
<glyph unicode="&#xae;" horiz-adv-x="901" d="M78 901q0 -78 26.5 -142.5t74.5 -110.5t115.5 -70.5t151.5 -24.5h9q84 0 151.5 24.5t115.5 70.5t74.5 110.5t26.5 142.5v41q0 78 -26.5 142.5t-74.5 110.5t-115.5 70.5t-151.5 24.5h-9q-84 0 -151.5 -24.5t-115.5 -70.5t-74.5 -110.5t-26.5 -142.5v-41zM139 901v41 q0 129 83 208t224 79h9q141 0 224 -79t83 -208v-41q0 -129 -83 -208t-224 -79h-9q-141 0 -224 79t-83 208zM324 758q0 -20 20 -21h23q20 0 20 21v92q0 20 21 20h51q14 -6 18 -12l47 -108q4 -10 19 -13h32q23 0 23 17q0 4 -4 12l-51 102q-2 2 -2 6q0 8 9 19.5t21.5 24 t21.5 28.5t9 39v8q0 59 -35 94t-94 35h-129q-20 0 -20 -20v-344zM387 948v96q0 20 21 21h65q29 0 46.5 -18.5t17.5 -47.5v-6q0 -29 -17.5 -47t-46.5 -18h-65q-20 0 -21 20z" />
<glyph unicode="&#xaf;" horiz-adv-x="1024" d="M276 1126q0 -20 21 -20h430q21 0 21 20v123q0 20 -21 21h-430q-20 0 -21 -21v-123z" />
<glyph unicode="&#xb0;" horiz-adv-x="450" d="M41 1077q0 -78 49 -127t135 -49t135.5 49t49.5 127v58q0 78 -49.5 127t-135.5 49t-135 -48.5t-49 -127.5v-58zM147 1077v58q0 33 23 55t55 22q33 0 55.5 -23t22.5 -54v-58q0 -31 -22.5 -54.5t-55.5 -23.5t-55.5 22.5t-22.5 55.5z" />
<glyph unicode="&#xb1;" horiz-adv-x="1705" d="M254 29h1198v141h-1198v-141zM254 713h528v-340h142v340h528v139h-528v340h-142v-340h-528v-139z" />
<glyph unicode="&#xb2;" horiz-adv-x="690" d="M80 1178q0 -6 8 -9l84 -41h8q6 0 13 7q23 29 44 49t68 20h51q49 0 85 -31.5t36 -78.5q0 -57 -49 -90t-125 -76q-102 -59 -151.5 -117.5t-49.5 -151.5v-131q0 -12 13 -12h460q12 0 13 12v74q0 12 -13 12h-337q-14 0 -15 13v32q0 47 29 83t88 71q45 25 86 46.5t76 47.5 q96 74 96 187q0 94 -65.5 151.5t-176.5 57.5h-51q-49 0 -87 -9.5t-60 -25.5q-41 -29 -59.5 -51.5t-18.5 -38.5z" />
<glyph unicode="&#xb3;" horiz-adv-x="690" d="M80 631q0 -16 18.5 -40t59.5 -52q23 -16 60.5 -25.5t86.5 -9.5h39q115 0 179.5 58.5t64.5 160.5v37q0 47 -41 102q-18 23 -34.5 34t-16.5 17q0 8 16 18.5t35 31.5q41 53 41 100v18q0 102 -65.5 162t-178.5 60h-39q-49 0 -87 -9.5t-60 -25.5q-41 -29 -59.5 -51.5 t-18.5 -38.5q0 -6 8 -9l84 -41h8q6 0 13 7q23 29 44 49t68 20h39q51 0 87 -31.5t36 -78.5v-19q0 -47 -36 -78.5t-87 -31.5h-106q-14 0 -15 -13v-73q0 -12 15 -13h106q51 0 87 -31.5t36 -78.5v-43q0 -47 -36 -79t-87 -32h-39q-47 0 -68.5 20.5t-43.5 49.5q-6 8 -13 8h-2 t-6 -2l-84 -39q-8 -2 -8 -8z" />
<glyph unicode="&#xb4;" horiz-adv-x="1024" d="M410 1049q0 -16 20 -17h88l14 6l261 256q8 8 8 17q0 18 -23 18h-180l-16 -10l-168 -256q-4 -6 -4 -14z" />
<glyph unicode="&#xb5;" horiz-adv-x="1150" d="M-113 -428h181l110 530q53 -61 113.5 -88.5t142.5 -27.5q182 0 271 131q18 -70 50.5 -99.5t98.5 -29.5q27 0 53.5 2t55.5 8l30 143q-10 -2 -18 -2h-14q-39 0 -55.5 15.5t-16.5 52.5q0 23 6 55.5t16 77.5l156 731h-178l-115 -536q-45 -207 -119.5 -305.5t-212.5 -98.5 q-96 0 -148 53.5t-52 153.5q0 70 14 133l129 600h-180z" />
<glyph unicode="&#xb6;" horiz-adv-x="1259" d="M123 532q0 -78 26.5 -141t74.5 -109t116 -72t152 -26h40q20 0 21 -20v-604q0 -20 20 -21h144q20 0 20 21v1546q0 20 21 20h143q20 0 21 -20v-1546q0 -20 20 -21h143q21 1 21 21v1710q0 20 -21 20h-593q-170 0 -269.5 -99t-99.5 -269v-390z" />
<glyph unicode="&#xb7;" horiz-adv-x="450" d="M113 647q0 -49 32.5 -80.5t79.5 -31.5t80 32.5t33 79.5t-33 80t-80 33t-79.5 -33t-32.5 -80z" />
<glyph unicode="&#xb8;" horiz-adv-x="1024" d="M313 -367v-82q0 -20 21 -20h98q92 0 149.5 54t57.5 136v17q0 57 -26.5 87t-57.5 60q-8 8 -8 15q0 6 2 10l49 104h-143l-80 -178q-4 -8 -4 -12q0 -16 22 -17h39q29 0 48.5 -20t19.5 -49v-17q0 -29 -19.5 -48t-48.5 -19h-98q-20 0 -21 -21z" />
<glyph unicode="&#xb9;" horiz-adv-x="690" d="M137 1079q0 -4 4 -8l60 -53q8 -4 10 -4t10 4l64 61q4 4 12 4q10 0 10 -12v-444q0 -12 -12 -13h-135q-14 0 -15 -12v-74q0 -12 15 -12h418q14 0 14 12v74q0 12 -14 12h-136q-12 0 -12 13v651q0 12 -14 12h-47l-9 -4l-219 -196q-4 -4 -4 -11z" />
<glyph unicode="&#xba;" horiz-adv-x="659" d="M61 870q0 -115 73 -184.5t196 -69.5t195.5 69.5t72.5 184.5v187q0 115 -72.5 184.5t-195.5 69.5t-196 -70t-73 -184v-187zM211 870v187q0 47 35 83t84 36t84 -36t35 -83v-187q0 -47 -35 -82.5t-84 -35.5t-84 35.5t-35 82.5z" />
<glyph unicode="&#xbb;" horiz-adv-x="1134" d="M135 223q0 -23 15 -22q8 0 18 6l405 287l9 16v121l-9 16l-405 289q-10 6 -16 6q-16 0 -17 -22v-117l8 -17l277 -198q10 -6 10 -17q0 -10 -10 -16l-277 -199l-8 -16v-117zM578 223q0 -23 16 -22q6 0 16 6l404 287l8 16v121l-8 16l-404 289q-10 6 -16 6q-16 0 -16 -22v-117 l8 -17l276 -198q10 -6 10 -17q0 -10 -10 -16l-276 -199l-8 -16v-117z" />
<glyph unicode="&#xbc;" horiz-adv-x="1953" d="M131 1094q0 -4 4 -9l58 -49q4 -4 8 -4q6 0 10 4l61 56q6 6 11 6q12 0 12 -13v-415q0 -10 -14 -11h-129q-12 0 -13 -12v-67q0 -12 13 -13h401q12 1 12 13v67q0 12 -12 12h-129q-14 0 -14 11v608q0 12 -13 12h-45l-8 -4l-209 -184q-4 -4 -4 -8zM664 35q0 -35 38 -35h46 q26 0 36 25l500 1210q4 12 4 20q0 35 -39 35h-45q-29 0 -37 -24l-499 -1211q-4 -12 -4 -20zM1335 176q0 -10 11 -10h323q12 0 12 -10v-144q0 -12 13 -12h90q14 0 14 12v144q0 10 12 10h91q12 0 12 12v68q0 12 -12 12h-91q-12 0 -12 12v441q0 12 -14 12h-96l-11 -4l-342 -461 v-82zM1460 266q0 6 4 10l195 261q2 6 10 6q12 0 12 -13v-260q0 -12 -12 -12h-194q-14 0 -15 8z" />
<glyph unicode="&#xbd;" horiz-adv-x="1953" d="M131 1094q0 -4 4 -9l58 -49q4 -4 8 -4q6 0 10 4l61 56q6 6 11 6q12 0 12 -13v-415q0 -10 -14 -11h-129q-12 0 -13 -12v-67q0 -12 13 -13h401q12 1 12 13v67q0 12 -12 12h-129q-14 0 -14 11v608q0 12 -13 12h-45l-8 -4l-209 -184q-4 -4 -4 -8zM664 35q0 -35 38 -35h46 q26 0 36 25l500 1210q4 12 4 20q0 35 -39 35h-45q-29 0 -37 -24l-499 -1211q-4 -12 -4 -20zM1370 616q0 -6 8 -8l82 -37h6q6 0 11 7q23 27 43 46t65 19h49q47 0 81 -29.5t34 -74.5q0 -53 -46 -83t-120 -71q-96 -55 -144 -111.5t-48 -140.5v-121q0 -12 14 -12h438q12 0 12 12 v68q0 12 -12 12h-323q-12 0 -13 10v31q0 45 28 78t85 65q41 23 80 43.5t74 47.5q45 33 68.5 77.5t23.5 94.5q0 88 -64 141t-168 53h-49q-94 0 -139 -33q-76 -49 -76 -84z" />
<glyph unicode="&#xbe;" horiz-adv-x="1953" d="M76 674q0 -14 18.5 -37t55.5 -47q23 -16 58.5 -25.5t82.5 -9.5h39q109 0 170 55.5t61 149.5v35q0 43 -39 94q-16 23 -32.5 34t-16.5 15q0 6 16.5 16.5t32.5 30.5q39 47 39 92v19q0 94 -62.5 149t-168.5 55h-39q-94 0 -139 -32q-76 -49 -76 -84q0 -6 8 -8l82 -37h6 q6 0 10 6q23 27 43.5 46t65.5 19h39q47 0 80.5 -30.5t33.5 -73.5v-16q0 -43 -33.5 -74t-80.5 -31h-105q-12 0 -12 -10v-70q0 -10 12 -10h105q47 0 80.5 -30.5t33.5 -73.5v-39q0 -43 -33.5 -74t-80.5 -31h-39q-45 0 -65.5 19.5t-43.5 46.5q-4 8 -10 8l-2 -1t-4 -1l-82 -37 q-8 -2 -8 -8zM664 35q0 -35 38 -35h46q26 0 36 25l500 1210q4 12 4 20q0 35 -39 35h-45q-29 0 -37 -24l-499 -1211q-4 -12 -4 -20zM1335 176q0 -10 11 -10h323q12 0 12 -10v-144q0 -12 13 -12h90q14 0 14 12v144q0 10 12 10h91q12 0 12 12v68q0 12 -12 12h-91q-12 0 -12 12 v441q0 12 -14 12h-96l-11 -4l-342 -461v-82zM1460 266q0 6 4 10l195 261q2 6 10 6q12 0 12 -13v-260q0 -12 -12 -12h-194q-14 0 -15 8z" />
<glyph unicode="&#xbf;" d="M131 -41q0 -78 26.5 -142.5t75 -110.5t116 -70.5t151.5 -24.5h78q76 0 138 21.5t107 53t70 67.5t25 65q-1 10 -13 16l-131 66q-8 4 -10 4q-10 0 -21.5 -21.5t-40.5 -54.5q-20 -25 -54 -39t-70 -14h-78q-37 0 -71 14t-59.5 39t-40 58.5t-14.5 72.5q0 45 16.5 77t45.5 56.5 t70.5 46t93.5 47.5q88 45 129 104.5t41 147.5q0 63 -5.5 89t-23.5 26h-141q-20 0 -21 -23q0 -8 3 -23t3 -40q0 -47 -18.5 -77t-51 -51.5t-74.5 -39.5t-89 -45q-86 -47 -124 -119t-38 -176zM471 829q0 -47 33 -79.5t80 -32.5t79.5 32.5t32.5 79.5t-32.5 80t-79.5 33 t-80 -31.5t-33 -81.5z" />
<glyph unicode="&#xc0;" horiz-adv-x="921" d="M2 18q0 -18 23 -18h153q18 0 21 14l75 271q2 12 21 12h332q18 0 20 -12l76 -271q2 -14 20 -14h154q23 0 23 18q0 2 -1 3.5t-1 5.5l-381 1249q-6 14 -21 14h-110q-18 0 -21 -14l-381 -1249q0 -4 -1 -5.5t-1 -3.5zM172 1682q0 -10 8 -19l260 -256l15 -6h88q20 0 20 15 q0 10 -4 16l-168 256l-16 10h-180q-23 0 -23 -16zM330 479q0 2 1 3t1 5l100 383l25 93h8q8 -29 14 -51.5t10 -39.5l99 -385q0 -2 1 -4t1 -4q0 -18 -23 -18h-215q-23 0 -22 18z" />
<glyph unicode="&#xc1;" horiz-adv-x="921" d="M2 18q0 -18 23 -18h153q18 0 21 14l75 271q2 12 21 12h332q18 0 20 -12l76 -271q2 -14 20 -14h154q23 0 23 18q0 2 -1 3.5t-1 5.5l-381 1249q-6 14 -21 14h-110q-18 0 -21 -14l-381 -1249q0 -4 -1 -5.5t-1 -3.5zM330 479q0 2 1 3t1 5l100 383l25 93h8q8 -29 14 -51.5 t10 -39.5l99 -385q0 -2 1 -4t1 -4q0 -18 -23 -18h-215q-23 0 -22 18zM363 1418q0 -16 20 -17h88l14 6l261 256q8 8 8 17q0 18 -23 18h-180l-16 -10l-168 -256q-4 -6 -4 -14z" />
<glyph unicode="&#xc2;" horiz-adv-x="921" d="M2 18q0 -18 23 -18h153q18 0 21 14l75 271q2 12 21 12h332q18 0 20 -12l76 -271q2 -14 20 -14h154q23 0 23 18q0 2 -1 3.5t-1 5.5l-381 1249q-6 14 -21 14h-110q-18 0 -21 -14l-381 -1249q0 -4 -1 -5.5t-1 -3.5zM223 1420q0 -16 25 -17h98l17 10l88 140q8 12 16 12 t14 -12l90 -140l17 -10h98q23 0 23 17q0 6 -6 16l-183 256l-16 8h-74l-16 -8l-182 -256q-8 -12 -9 -16zM330 479q0 2 1 3t1 5l100 383l25 93h8q8 -29 14 -51.5t10 -39.5l99 -385q0 -2 1 -4t1 -4q0 -18 -23 -18h-215q-23 0 -22 18z" />
<glyph unicode="&#xc3;" horiz-adv-x="921" d="M2 18q0 -18 23 -18h153q18 0 21 14l75 271q2 12 21 12h332q18 0 20 -12l76 -271q2 -14 20 -14h154q23 0 23 18q0 2 -1 3.5t-1 5.5l-381 1249q-6 14 -21 14h-110q-18 0 -21 -14l-381 -1249q0 -4 -1 -5.5t-1 -3.5zM166 1522q0 -8 10 -14l45 -33q4 -4 13 -4q6 0 15 10 t22.5 22.5t32 22.5t42.5 10q33 0 74 -26l41 -27q66 -53 129 -53q98 0 176 139q2 4 2 10q0 8 -8 17l-41 33q-4 4 -12 4q-6 0 -15.5 -10.5t-24 -23.5t-33.5 -23.5t-48 -10.5q-41 0 -72 25l-39 30q-61 49 -129 49q-35 0 -67.5 -18t-57 -43t-40 -49.5t-15.5 -36.5zM330 479 q0 2 1 3t1 5l100 383l25 93h8q8 -29 14 -51.5t10 -39.5l99 -385q0 -2 1 -4t1 -4q0 -18 -23 -18h-215q-23 0 -22 18z" />
<glyph unicode="&#xc4;" horiz-adv-x="921" d="M2 18q0 -18 23 -18h153q18 0 21 14l75 271q2 12 21 12h332q18 0 20 -12l76 -271q2 -14 20 -14h154q23 0 23 18q0 2 -1 3.5t-1 5.5l-381 1249q-6 14 -21 14h-110q-18 0 -21 -14l-381 -1249q0 -4 -1 -5.5t-1 -3.5zM205 1540q0 -43 29.5 -72.5t72.5 -29.5t73 30.5t30 71.5 t-30 72t-73 31t-72.5 -30t-29.5 -73zM330 479q0 2 1 3t1 5l100 383l25 93h8q8 -29 14 -51.5t10 -39.5l99 -385q0 -2 1 -4t1 -4q0 -18 -23 -18h-215q-23 0 -22 18zM524 1540q0 -43 30 -72.5t73 -29.5t72.5 30.5t29.5 71.5t-29.5 72t-72.5 31t-73 -30t-30 -73z" />
<glyph unicode="&#xc5;" horiz-adv-x="921" d="M2 18q0 -18 23 -18h153q18 0 21 14l75 271q2 12 21 12h332q18 0 20 -12l76 -271q2 -14 20 -14h154q23 0 23 18q0 2 -1 3.5t-1 5.5l-381 1249q-6 14 -21 14h-110q-18 0 -21 -14l-381 -1249q0 -4 -1 -5.5t-1 -3.5zM281 1559q0 -80 49 -128.5t135 -48.5t135 48.5t49 128.5 v57q0 80 -49 128t-135 48t-135 -48t-49 -128v-57zM330 479q0 2 1 3t1 5l100 383l25 93h8q8 -29 14 -51.5t10 -39.5l99 -385q0 -2 1 -4t1 -4q0 -18 -23 -18h-215q-23 0 -22 18zM387 1559v57q0 31 22.5 54.5t55.5 23.5t55.5 -23.5t22.5 -54.5v-57q0 -31 -22.5 -54.5 t-55.5 -23.5t-55.5 23.5t-22.5 54.5z" />
<glyph unicode="&#xc6;" horiz-adv-x="1429" d="M-121 16q0 -16 23 -16h149l19 10l155 279l21 8h334q20 0 20 -21v-256q0 -20 21 -20h696q20 0 20 20v123q0 20 -20 21h-512q-20 0 -21 20v369q0 20 21 20h420q20 0 20 21v123q0 20 -20 20h-420q-20 0 -21 21v348q0 20 21 20h512q20 0 20 21v123q0 20 -20 20h-678l-18 -10 l-738 -1249q-4 -6 -4 -15zM340 477q0 8 4 15l217 382q18 31 37 74l8 -2q-4 -78 -5 -154.5t-1 -152.5v-158q0 -20 -20 -20h-218q-23 0 -22 16z" />
<glyph unicode="&#xc7;" horiz-adv-x="952" d="M123 328q0 -154 92 -246t262 -102l-65 -144q-4 -8 -4 -12q0 -16 22 -17h39q29 0 48.5 -20t19.5 -49v-17q0 -29 -19.5 -48t-48.5 -19h-98q-20 0 -21 -21v-82q0 -20 21 -20h98q92 0 149.5 54t57.5 136v17q0 59 -26.5 88t-57.5 59q-8 8 -8 15q0 6 2 10l35 74q68 14 119 39.5 t85.5 54t52 58.5t17.5 54q0 8 -12 15l-129 65q-8 4 -13 4q-10 0 -26.5 -23.5t-50.5 -64.5q-14 -16 -44 -29.5t-67 -13.5h-61q-78 0 -131.5 53.5t-53.5 131.5v635q0 78 53.5 131t131.5 53h61q66 0 100.5 -34t69.5 -81q8 -12 16 -12q6 0 11 2l131 65q12 6 12 17 q0 31 -24.5 66.5t-69.5 66.5t-107.5 52.5t-138.5 21.5h-61q-84 0 -152 -24.5t-116 -71t-74.5 -111t-26.5 -141.5v-635z" />
<glyph unicode="&#xc8;" horiz-adv-x="983" d="M154 20q0 -20 20 -20h696q21 0 21 20v123q0 20 -21 21h-512q-20 0 -20 20v369q0 20 20 20h420q20 0 21 21v123q0 20 -21 20h-420q-20 0 -20 21v348q0 20 20 20h512q20 0 21 21v123q0 20 -21 20h-696q-20 0 -20 -20v-1250zM229 1682q0 -10 8 -19l260 -256l15 -6h88 q20 0 20 15q0 10 -4 16l-168 256l-16 10h-180q-23 0 -23 -16z" />
<glyph unicode="&#xc9;" horiz-adv-x="983" d="M154 20q0 -20 20 -20h696q21 0 21 20v123q0 20 -21 21h-512q-20 0 -20 20v369q0 20 20 20h420q20 0 21 21v123q0 20 -21 20h-420q-20 0 -20 21v348q0 20 20 20h512q20 0 21 21v123q0 20 -21 20h-696q-20 0 -20 -20v-1250zM420 1418q0 -16 20 -17h88l14 6l261 256 q8 8 8 17q0 18 -23 18h-180l-16 -10l-168 -256q-4 -6 -4 -14z" />
<glyph unicode="&#xca;" horiz-adv-x="983" d="M154 20q0 -20 20 -20h696q21 0 21 20v123q0 20 -21 21h-512q-20 0 -20 20v369q0 20 20 20h420q20 0 21 21v123q0 20 -21 20h-420q-20 0 -20 21v348q0 20 20 20h512q20 0 21 21v123q0 20 -21 20h-696q-20 0 -20 -20v-1250zM280 1420q0 -16 25 -17h98l17 10l88 140 q8 12 16 12t14 -12l90 -140l17 -10h98q23 0 23 17q0 6 -6 16l-183 256l-16 8h-74l-16 -8l-182 -256q-8 -12 -9 -16z" />
<glyph unicode="&#xcb;" horiz-adv-x="983" d="M154 20q0 -20 20 -20h696q21 0 21 20v123q0 20 -21 21h-512q-20 0 -20 20v369q0 20 20 20h420q20 0 21 21v123q0 20 -21 20h-420q-20 0 -20 21v348q0 20 20 20h512q20 0 21 21v123q0 20 -21 20h-696q-20 0 -20 -20v-1250zM262 1540q0 -43 29.5 -72.5t72.5 -29.5t73 30.5 t30 71.5t-30 72t-73 31t-72.5 -30t-29.5 -73zM581 1540q0 -43 30 -72.5t73 -29.5t72.5 30.5t29.5 71.5t-29.5 72t-72.5 31t-73 -30t-30 -73z" />
<glyph unicode="&#xcc;" horiz-adv-x="491" d="M-43 1682q0 -10 8 -19l260 -256l15 -6h88q20 0 20 15q0 10 -4 16l-168 256l-16 10h-180q-23 0 -23 -16zM154 20q0 -20 20 -20h143q21 0 21 20v1250q0 20 -21 20h-143q-20 0 -20 -20v-1250z" />
<glyph unicode="&#xcd;" horiz-adv-x="491" d="M148 1418q0 -16 20 -17h88l14 6l261 256q8 8 8 17q0 18 -23 18h-180l-16 -10l-168 -256q-4 -6 -4 -14zM154 20q0 -20 20 -20h143q21 0 21 20v1250q0 20 -21 20h-143q-20 0 -20 -20v-1250z" />
<glyph unicode="&#xce;" horiz-adv-x="491" d="M8 1420q0 -16 25 -17h98l17 10l88 140q8 12 16 12t14 -12l90 -140l17 -10h98q23 0 23 17q0 6 -6 16l-183 256l-16 8h-74l-16 -8l-182 -256q-8 -12 -9 -16zM154 20q0 -20 20 -20h143q21 0 21 20v1250q0 20 -21 20h-143q-20 0 -20 -20v-1250z" />
<glyph unicode="&#xcf;" horiz-adv-x="491" d="M-10 1540q0 -43 29.5 -72.5t72.5 -29.5t73 30.5t30 71.5t-30 72t-73 31t-72.5 -30t-29.5 -73zM154 20q0 -20 20 -20h143q21 0 21 20v1250q0 20 -21 20h-143q-20 0 -20 -20v-1250zM309 1540q0 -43 30 -72.5t73 -29.5t72.5 30.5t29.5 71.5t-29.5 72t-72.5 31t-73 -30 t-30 -73z" />
<glyph unicode="&#xd0;" horiz-adv-x="1075" d="M47 573q0 -20 21 -20h65q20 0 21 -21v-512q0 -20 20 -20h410q172 0 270 98.5t98 270.5v553q0 170 -99 269t-269 99h-410q-20 0 -20 -20v-512q0 -20 -21 -21h-65q-20 0 -21 -20v-144zM338 184v348q0 20 20 21h174q20 0 21 20v144q0 20 -21 20h-174q-20 0 -20 21v348 q0 20 20 20h226q78 0 131 -53t53 -131v-594q0 -76 -53 -130t-131 -54h-226q-20 0 -20 20z" />
<glyph unicode="&#xd1;" horiz-adv-x="1136" d="M154 20q0 -20 20 -20h143q20 0 21 20l-12 910l487 -920l18 -10h132q20 0 20 20v1250q0 20 -20 20h-144q-20 0 -20 -20l10 -908l-485 918l-19 10h-131q-20 0 -20 -20v-1250zM270 1522q0 -8 10 -14l45 -33q4 -4 13 -4q6 0 15 10t22.5 22.5t32 22.5t42.5 10q33 0 74 -26 l41 -27q66 -53 129 -53q98 0 176 139q2 4 2 10q0 8 -8 17l-41 33q-4 4 -12 4q-6 0 -15.5 -10.5t-24 -23.5t-33.5 -23.5t-48 -10.5q-41 0 -72 25l-39 30q-61 49 -129 49q-35 0 -67.5 -18t-57 -43t-40 -49.5t-15.5 -36.5z" />
<glyph unicode="&#xd2;" d="M123 328q0 -78 26.5 -142.5t74.5 -110.5t116 -70.5t152 -24.5h61q84 0 151.5 24.5t115.5 70.5t75 110.5t27 142.5v635q0 78 -27 142t-75 110.5t-115.5 71t-151.5 24.5h-61q-84 0 -152 -24.5t-116 -71t-74.5 -111t-26.5 -141.5v-635zM231 1682q0 -10 8 -19l260 -256l15 -6 h88q20 0 20 15q0 10 -4 16l-168 256l-16 10h-180q-23 0 -23 -16zM307 328v635q0 78 53.5 131t131.5 53h61q78 0 131 -53.5t53 -130.5v-635q0 -78 -53 -131.5t-131 -53.5h-61q-78 0 -131.5 53.5t-53.5 131.5z" />
<glyph unicode="&#xd3;" d="M123 328q0 -78 26.5 -142.5t74.5 -110.5t116 -70.5t152 -24.5h61q84 0 151.5 24.5t115.5 70.5t75 110.5t27 142.5v635q0 78 -27 142t-75 110.5t-115.5 71t-151.5 24.5h-61q-84 0 -152 -24.5t-116 -71t-74.5 -111t-26.5 -141.5v-635zM307 328v635q0 78 53.5 131t131.5 53 h61q78 0 131 -53.5t53 -130.5v-635q0 -78 -53 -131.5t-131 -53.5h-61q-78 0 -131.5 53.5t-53.5 131.5zM422 1418q0 -16 20 -17h88l14 6l261 256q8 8 8 17q0 18 -23 18h-180l-16 -10l-168 -256q-4 -6 -4 -14z" />
<glyph unicode="&#xd4;" d="M123 328q0 -78 26.5 -142.5t74.5 -110.5t116 -70.5t152 -24.5h61q84 0 151.5 24.5t115.5 70.5t75 110.5t27 142.5v635q0 78 -27 142t-75 110.5t-115.5 71t-151.5 24.5h-61q-84 0 -152 -24.5t-116 -71t-74.5 -111t-26.5 -141.5v-635zM282 1420q0 -16 25 -17h98l17 10 l88 140q8 12 16 12t14 -12l90 -140l17 -10h98q23 0 23 17q0 6 -6 16l-183 256l-16 8h-74l-16 -8l-182 -256q-8 -12 -9 -16zM307 328v635q0 78 53.5 131t131.5 53h61q78 0 131 -53.5t53 -130.5v-635q0 -78 -53 -131.5t-131 -53.5h-61q-78 0 -131.5 53.5t-53.5 131.5z" />
<glyph unicode="&#xd5;" d="M123 328q0 -78 26.5 -142.5t74.5 -110.5t116 -70.5t152 -24.5h61q84 0 151.5 24.5t115.5 70.5t75 110.5t27 142.5v635q0 78 -27 142t-75 110.5t-115.5 71t-151.5 24.5h-61q-84 0 -152 -24.5t-116 -71t-74.5 -111t-26.5 -141.5v-635zM225 1522q0 -8 10 -14l45 -33 q4 -4 13 -4q6 0 15 10t22.5 22.5t32 22.5t42.5 10q33 0 74 -26l41 -27q66 -53 129 -53q98 0 176 139q2 4 2 10q0 8 -8 17l-41 33q-4 4 -12 4q-6 0 -15.5 -10.5t-24 -23.5t-33.5 -23.5t-48 -10.5q-41 0 -72 25l-39 30q-61 49 -129 49q-35 0 -67.5 -18t-57 -43t-40 -49.5 t-15.5 -36.5zM307 328v635q0 78 53.5 131t131.5 53h61q78 0 131 -53.5t53 -130.5v-635q0 -78 -53 -131.5t-131 -53.5h-61q-78 0 -131.5 53.5t-53.5 131.5z" />
<glyph unicode="&#xd6;" d="M123 328q0 -78 26.5 -142.5t74.5 -110.5t116 -70.5t152 -24.5h61q84 0 151.5 24.5t115.5 70.5t75 110.5t27 142.5v635q0 78 -27 142t-75 110.5t-115.5 71t-151.5 24.5h-61q-84 0 -152 -24.5t-116 -71t-74.5 -111t-26.5 -141.5v-635zM264 1540q0 -43 29.5 -72.5 t72.5 -29.5t73 30.5t30 71.5t-30 72t-73 31t-72.5 -30t-29.5 -73zM307 328v635q0 78 53.5 131t131.5 53h61q78 0 131 -53.5t53 -130.5v-635q0 -78 -53 -131.5t-131 -53.5h-61q-78 0 -131.5 53.5t-53.5 131.5zM583 1540q0 -43 30 -72.5t73 -29.5t72.5 30.5t29.5 71.5 t-29.5 72t-72.5 31t-73 -30t-30 -73z" />
<glyph unicode="&#xd7;" horiz-adv-x="1705" d="M293 141l98 -96l469 467l469 -467l98 96l-469 469l469 469l-98 99l-469 -469l-469 469l-98 -99l469 -469z" />
<glyph unicode="&#xd8;" d="M123 328q0 -78 26.5 -142.5t74.5 -110.5t116 -70.5t152 -24.5h61q84 0 151.5 24.5t115.5 70.5t75 110.5t27 142.5v635q0 78 -27 142t-75 110.5t-115.5 71t-151.5 24.5h-61q-84 0 -152 -24.5t-116 -71t-74.5 -111t-26.5 -141.5v-635zM307 324v639q0 78 53.5 131t131.5 53 h61q51 0 84 -19.5t33 -33.5q0 -7 -2 -9l-332 -768q-6 -12 -17 -12q-12 0 -12 19zM383 188q0 6 2 11l344 807q8 -25 8 -48v-630q0 -78 -53 -131.5t-131 -53.5h-61q-47 0 -78 14.5t-31 30.5z" />
<glyph unicode="&#xd9;" d="M123 328q0 -78 26.5 -142.5t74.5 -110.5t116 -70.5t152 -24.5h61q84 0 151.5 24.5t115.5 70.5t75 110.5t27 142.5v942q0 20 -21 20h-143q-20 0 -21 -20v-942q0 -78 -53 -131.5t-131 -53.5h-61q-78 0 -131.5 53.5t-53.5 131.5v942q0 20 -20 20h-144q-20 0 -20 -20v-942z M231 1682q0 -10 8 -19l260 -256l15 -6h88q20 0 20 15q0 10 -4 16l-168 256l-16 10h-180q-23 0 -23 -16z" />
<glyph unicode="&#xda;" d="M123 328q0 -78 26.5 -142.5t74.5 -110.5t116 -70.5t152 -24.5h61q84 0 151.5 24.5t115.5 70.5t75 110.5t27 142.5v942q0 20 -21 20h-143q-20 0 -21 -20v-942q0 -78 -53 -131.5t-131 -53.5h-61q-78 0 -131.5 53.5t-53.5 131.5v942q0 20 -20 20h-144q-20 0 -20 -20v-942z M422 1418q0 -16 20 -17h88l14 6l261 256q8 8 8 17q0 18 -23 18h-180l-16 -10l-168 -256q-4 -6 -4 -14z" />
<glyph unicode="&#xdb;" d="M123 328q0 -78 26.5 -142.5t74.5 -110.5t116 -70.5t152 -24.5h61q84 0 151.5 24.5t115.5 70.5t75 110.5t27 142.5v942q0 20 -21 20h-143q-20 0 -21 -20v-942q0 -78 -53 -131.5t-131 -53.5h-61q-78 0 -131.5 53.5t-53.5 131.5v942q0 20 -20 20h-144q-20 0 -20 -20v-942z M282 1420q0 -16 25 -17h98l17 10l88 140q8 12 16 12t14 -12l90 -140l17 -10h98q23 0 23 17q0 6 -6 16l-183 256l-16 8h-74l-16 -8l-182 -256q-8 -12 -9 -16z" />
<glyph unicode="&#xdc;" d="M123 328q0 -78 26.5 -142.5t74.5 -110.5t116 -70.5t152 -24.5h61q84 0 151.5 24.5t115.5 70.5t75 110.5t27 142.5v942q0 20 -21 20h-143q-20 0 -21 -20v-942q0 -78 -53 -131.5t-131 -53.5h-61q-78 0 -131.5 53.5t-53.5 131.5v942q0 20 -20 20h-144q-20 0 -20 -20v-942z M264 1540q0 -43 29.5 -72.5t72.5 -29.5t73 30.5t30 71.5t-30 72t-73 31t-72.5 -30t-29.5 -73zM583 1540q0 -43 30 -72.5t73 -29.5t72.5 30.5t29.5 71.5t-29.5 72t-72.5 31t-73 -30t-30 -73z" />
<glyph unicode="&#xdd;" horiz-adv-x="921" d="M8 1274q0 -2 4 -14l357 -668v-572q0 -20 20 -20h143q20 0 21 20v572l356 668q4 12 4 14q0 16 -22 16h-168l-18 -12l-226 -467q-6 -14 -18 -14t-19 14l-225 467l-18 12h-168q-23 0 -23 -16zM363 1418q0 -16 20 -17h88l14 6l261 256q8 8 8 17q0 18 -23 18h-180l-16 -10 l-168 -256q-4 -6 -4 -14z" />
<glyph unicode="&#xde;" horiz-adv-x="993" d="M154 20q0 -20 20 -20h143q20 0 21 20v349q0 20 20 20h226q82 0 150.5 25.5t116.5 71.5t74.5 109.5t26.5 141.5q0 170 -99 269.5t-269 99.5h-226q-20 0 -20 20v144q0 20 -21 20h-143q-20 0 -20 -20v-1250zM338 573v349q0 20 20 20h226q78 0 131 -53t53 -131v-21 q0 -78 -53 -131t-131 -53h-226q-20 0 -20 20z" />
<glyph unicode="&#xdf;" horiz-adv-x="987" d="M72 686q0 -20 20 -20h51q20 0 21 -21v-625q0 -20 20 -20h144q20 0 20 20v943q0 78 51.5 131t132.5 53q39 0 73 -14.5t58.5 -40t39 -59.5t14.5 -70v-41q0 -43 -12.5 -71t-34 -47.5t-53 -33.5t-68.5 -31q-8 -4 -12.5 -7t-4.5 -13v-127q0 -10 4.5 -13.5t12.5 -7.5 q37 -16 68.5 -30.5t53 -34t34 -47t12.5 -70.5v-61q0 -43 -12.5 -71t-34 -47.5t-53 -33.5t-68.5 -31q-8 -4 -12.5 -7t-4.5 -13v-123q0 -14 8.5 -17t28.5 -3q66 0 126.5 25.5t106.5 72.5t72.5 113.5t26.5 150.5v51q0 76 -63 170q-27 41 -51.5 59.5t-24.5 28.5t24.5 27.5 t51.5 54.5q63 88 63 166v41q0 84 -25.5 151.5t-72.5 115.5t-112.5 75t-145.5 27q-84 0 -153.5 -29t-120 -78t-79 -116.5t-28.5 -145.5v-92q0 -20 -21 -21h-51q-20 0 -20 -20v-123z" />
<glyph unicode="&#xe0;" horiz-adv-x="972" d="M127 256q0 -55 19.5 -102.5t55.5 -81t86 -53t111 -19.5h80q35 0 63.5 11.5t51 23.5t39 23.5t29.5 11.5q14 0 14 -23v-27q0 -20 20 -20h123q21 0 21 20v310l-2 270q-2 154 -101.5 248t-267.5 94q-156 0 -244 -78q-49 -43 -70.5 -77.5t-21.5 -47.5q0 -10 12 -16l125 -66 q8 -4 13 -4q10 0 25.5 22.5t49.5 59.5q18 20 47 32.5t64 12.5q80 0 130 -51t54 -129l2 -57q0 -20 -20 -21h-236q-61 0 -111 -19.5t-86 -53t-55.5 -79.5t-19.5 -102v-12zM194 1313q0 -10 8 -19l260 -256l15 -6h88q20 0 20 15q0 10 -4 16l-168 256l-16 10h-180q-23 0 -23 -16z M309 256v33q0 39 25.5 64.5t64.5 25.5h236q20 0 20 -21v-8l-2 -39q-53 -147 -174 -147h-80q-39 0 -64.5 25.5t-25.5 66.5z" />
<glyph unicode="&#xe1;" horiz-adv-x="972" d="M127 256q0 -55 19.5 -102.5t55.5 -81t86 -53t111 -19.5h80q35 0 63.5 11.5t51 23.5t39 23.5t29.5 11.5q14 0 14 -23v-27q0 -20 20 -20h123q21 0 21 20v310l-2 270q-2 154 -101.5 248t-267.5 94q-156 0 -244 -78q-49 -43 -70.5 -77.5t-21.5 -47.5q0 -10 12 -16l125 -66 q8 -4 13 -4q10 0 25.5 22.5t49.5 59.5q18 20 47 32.5t64 12.5q80 0 130 -51t54 -129l2 -57q0 -20 -20 -21h-236q-61 0 -111 -19.5t-86 -53t-55.5 -79.5t-19.5 -102v-12zM309 256v33q0 39 25.5 64.5t64.5 25.5h236q20 0 20 -21v-8l-2 -39q-53 -147 -174 -147h-80 q-39 0 -64.5 25.5t-25.5 66.5zM385 1049q0 -16 20 -17h88l14 6l261 256q8 8 8 17q0 18 -23 18h-180l-16 -10l-168 -256q-4 -6 -4 -14z" />
<glyph unicode="&#xe2;" horiz-adv-x="972" d="M127 256q0 -55 19.5 -102.5t55.5 -81t86 -53t111 -19.5h80q35 0 63.5 11.5t51 23.5t39 23.5t29.5 11.5q14 0 14 -23v-27q0 -20 20 -20h123q21 0 21 20v310l-2 270q-2 154 -101.5 248t-267.5 94q-156 0 -244 -78q-49 -43 -70.5 -77.5t-21.5 -47.5q0 -10 12 -16l125 -66 q8 -4 13 -4q10 0 25.5 22.5t49.5 59.5q18 20 47 32.5t64 12.5q80 0 130 -51t54 -129l2 -57q0 -20 -20 -21h-236q-61 0 -111 -19.5t-86 -53t-55.5 -79.5t-19.5 -102v-12zM245 1051q0 -16 25 -17h98l17 10l88 140q8 12 16 12t14 -12l90 -140l17 -10h98q23 0 23 17q0 6 -6 16 l-183 256l-16 8h-74l-16 -8l-182 -256q-8 -12 -9 -16zM309 256v33q0 39 25.5 64.5t64.5 25.5h236q20 0 20 -21v-8l-2 -39q-53 -147 -174 -147h-80q-39 0 -64.5 25.5t-25.5 66.5z" />
<glyph unicode="&#xe3;" horiz-adv-x="972" d="M127 256q0 -55 19.5 -102.5t55.5 -81t86 -53t111 -19.5h80q35 0 63.5 11.5t51 23.5t39 23.5t29.5 11.5q14 0 14 -23v-27q0 -20 20 -20h123q21 0 21 20v310l-2 270q-2 154 -101.5 248t-267.5 94q-156 0 -244 -78q-49 -43 -70.5 -77.5t-21.5 -47.5q0 -10 12 -16l125 -66 q8 -4 13 -4q10 0 25.5 22.5t49.5 59.5q18 20 47 32.5t64 12.5q80 0 130 -51t54 -129l2 -57q0 -20 -20 -21h-236q-61 0 -111 -19.5t-86 -53t-55.5 -79.5t-19.5 -102v-12zM188 1153q0 -8 10 -14l45 -33q4 -4 13 -4q6 0 15 10t22.5 22.5t32 22.5t42.5 10q33 0 74 -26l41 -27 q66 -53 129 -53q98 0 176 139q2 4 2 10q0 8 -8 17l-41 33q-4 4 -12 4q-6 0 -15.5 -10.5t-24 -23.5t-33.5 -23.5t-48 -10.5q-41 0 -72 25l-39 30q-61 49 -129 49q-35 0 -67.5 -18t-57 -43t-40 -49.5t-15.5 -36.5zM309 256v33q0 39 25.5 64.5t64.5 25.5h236q20 0 20 -21v-8 l-2 -39q-53 -147 -174 -147h-80q-39 0 -64.5 25.5t-25.5 66.5z" />
<glyph unicode="&#xe4;" horiz-adv-x="972" d="M127 256q0 -55 19.5 -102.5t55.5 -81t86 -53t111 -19.5h80q35 0 63.5 11.5t51 23.5t39 23.5t29.5 11.5q14 0 14 -23v-27q0 -20 20 -20h123q21 0 21 20v310l-2 270q-2 154 -101.5 248t-267.5 94q-156 0 -244 -78q-49 -43 -70.5 -77.5t-21.5 -47.5q0 -10 12 -16l125 -66 q8 -4 13 -4q10 0 25.5 22.5t49.5 59.5q18 20 47 32.5t64 12.5q80 0 130 -51t54 -129l2 -57q0 -20 -20 -21h-236q-61 0 -111 -19.5t-86 -53t-55.5 -79.5t-19.5 -102v-12zM227 1171q0 -43 29.5 -72.5t72.5 -29.5t73 30.5t30 71.5t-30 72t-73 31t-72.5 -30t-29.5 -73zM309 256 v33q0 39 25.5 64.5t64.5 25.5h236q20 0 20 -21v-8l-2 -39q-53 -147 -174 -147h-80q-39 0 -64.5 25.5t-25.5 66.5zM546 1171q0 -43 30 -72.5t73 -29.5t72.5 30.5t29.5 71.5t-29.5 72t-72.5 31t-73 -30t-30 -73z" />
<glyph unicode="&#xe5;" horiz-adv-x="972" d="M127 256q0 -55 19.5 -102.5t55.5 -81t86 -53t111 -19.5h80q35 0 63.5 11.5t51 23.5t39 23.5t29.5 11.5q14 0 14 -23v-27q0 -20 20 -20h123q21 0 21 20v310l-2 270q-2 154 -101.5 248t-267.5 94q-156 0 -244 -78q-49 -43 -70.5 -77.5t-21.5 -47.5q0 -10 12 -16l125 -66 q8 -4 13 -4q10 0 25.5 22.5t49.5 59.5q18 20 47 32.5t64 12.5q80 0 130 -51t54 -129l2 -57q0 -20 -20 -21h-236q-61 0 -111 -19.5t-86 -53t-55.5 -79.5t-19.5 -102v-12zM309 256v33q0 39 25.5 64.5t64.5 25.5h236q20 0 20 -21v-8l-2 -39q-53 -147 -174 -147h-80 q-39 0 -64.5 25.5t-25.5 66.5zM322 1210q0 -78 49 -127t135 -49t135 49t49 127v58q0 78 -49 127t-135 49t-135 -49t-49 -127v-58zM428 1210v58q0 33 22.5 55.5t55.5 22.5t55.5 -23.5t22.5 -54.5v-58q0 -31 -22.5 -54t-55.5 -23t-55.5 23.5t-22.5 53.5z" />
<glyph unicode="&#xe6;" horiz-adv-x="1495" d="M102 236q0 -55 20.5 -101.5t56.5 -81.5t87 -54t113 -19h102q41 0 92.5 19t83.5 48q29 23 41.5 41t22.5 18q6 0 25.5 -19t58.5 -48q82 -59 219 -59q74 0 131 16t92 43q61 47 90 87t29 64q0 8 -12 15l-129 65q-8 4 -13 4q-10 0 -26.5 -22.5t-48.5 -63.5q-16 -20 -46 -32.5 t-67 -12.5q-39 0 -72.5 14.5t-58.5 40t-39 59.5t-14 71v82q0 20 20 20h512q21 1 21 21v143q0 70 -29 132t-79 109.5t-117.5 75t-143.5 27.5q-55 0 -103.5 -11.5t-89.5 -37.5q-35 -23 -53 -39t-24 -16t-23.5 15t-52.5 38q-82 51 -207 51q-76 0 -138.5 -21.5t-107.5 -54.5 t-69.5 -68.5t-24.5 -64.5q0 -8 12 -14l129 -66q4 -2 11 -2q10 0 24.5 20.5t42.5 55.5q41 51 121 51q78 0 131 -54t53 -130v-58q0 -20 -20 -20h-256q-129 0 -203 -64.5t-74 -171.5v-40zM287 236v40q0 37 27.5 65t64.5 28h256q20 0 20 -21v-20l-4 -41q-70 -143 -170 -144h-102 q-39 0 -65.5 27t-26.5 66zM840 604q0 33 15 64.5t40 54t58.5 37t70.5 14.5t70.5 -14.5t58.5 -37t40 -54t15 -64.5q0 -16 -3 -23.5t-17 -7.5h-328q-14 0 -17 7.5t-3 23.5z" />
<glyph unicode="&#xe7;" horiz-adv-x="876" d="M102 328q0 -145 83 -235.5t237 -110.5l-66 -146q-4 -8 -4 -12q0 -16 23 -17h39q29 0 48 -20t19 -49v-17q0 -29 -19.5 -48t-47.5 -19h-99q-20 0 -20 -21v-82q0 -20 20 -20h99q92 0 149.5 54t57.5 136v17q0 57 -27 87t-57 60q-8 8 -9 15q0 6 2 10l37 78q123 39 184.5 98 t61.5 104q0 8 -12 15l-129 65q-8 4 -13 4q-10 0 -25.5 -22.5t-49.5 -63.5q-16 -20 -46 -32.5t-67 -12.5q-39 0 -72.5 14.5t-58.5 40t-39 59.5t-14 71v266q0 37 14 70.5t39 59.5t58.5 40t72.5 14q63 0 98 -31.5t72 -82.5q8 -12 16 -13q6 0 11 2l131 66q12 6 12 16 q0 33 -42 84t-124 88q-80 35 -174 35q-84 0 -151.5 -24.5t-115.5 -70.5t-75 -110.5t-27 -142.5v-266z" />
<glyph unicode="&#xe8;" horiz-adv-x="942" d="M102 328q0 -78 27 -142.5t75 -110.5t115.5 -70.5t151.5 -24.5q164 0 256 86q47 43 66.5 78.5t19.5 45.5q0 8 -12 15l-129 65q-8 4 -13 4q-10 0 -25.5 -22.5t-49.5 -63.5q-16 -20 -46 -32.5t-67 -12.5q-39 0 -72.5 14.5t-58.5 40t-39 59.5t-14 71v82q0 20 20 20h512 q21 1 21 21v143q0 70 -29 133.5t-79 110.5t-117.5 75.5t-143.5 28.5q-78 0 -144.5 -28.5t-116.5 -75.5t-79 -110.5t-29 -133.5v-266zM178 1313q0 -10 8 -19l260 -256l15 -6h88q20 0 20 15q0 10 -4 16l-168 256l-16 10h-180q-23 0 -23 -16zM287 604q0 33 15 64.5t40 56.5 t58.5 39t70.5 14t69.5 -14t58.5 -38t41 -54.5t15 -63.5q0 -18 -3 -26.5t-17 -8.5h-328q-14 0 -17 7.5t-3 23.5z" />
<glyph unicode="&#xe9;" horiz-adv-x="942" d="M102 328q0 -78 27 -142.5t75 -110.5t115.5 -70.5t151.5 -24.5q164 0 256 86q47 43 66.5 78.5t19.5 45.5q0 8 -12 15l-129 65q-8 4 -13 4q-10 0 -25.5 -22.5t-49.5 -63.5q-16 -20 -46 -32.5t-67 -12.5q-39 0 -72.5 14.5t-58.5 40t-39 59.5t-14 71v82q0 20 20 20h512 q21 1 21 21v143q0 70 -29 133.5t-79 110.5t-117.5 75.5t-143.5 28.5q-78 0 -144.5 -28.5t-116.5 -75.5t-79 -110.5t-29 -133.5v-266zM287 604q0 33 15 64.5t40 56.5t58.5 39t70.5 14t69.5 -14t58.5 -38t41 -54.5t15 -63.5q0 -18 -3 -26.5t-17 -8.5h-328q-14 0 -17 7.5 t-3 23.5zM369 1049q0 -16 20 -17h88l14 6l261 256q8 8 8 17q0 18 -23 18h-180l-16 -10l-168 -256q-4 -6 -4 -14z" />
<glyph unicode="&#xea;" horiz-adv-x="942" d="M102 328q0 -78 27 -142.5t75 -110.5t115.5 -70.5t151.5 -24.5q164 0 256 86q47 43 66.5 78.5t19.5 45.5q0 8 -12 15l-129 65q-8 4 -13 4q-10 0 -25.5 -22.5t-49.5 -63.5q-16 -20 -46 -32.5t-67 -12.5q-39 0 -72.5 14.5t-58.5 40t-39 59.5t-14 71v82q0 20 20 20h512 q21 1 21 21v143q0 70 -29 133.5t-79 110.5t-117.5 75.5t-143.5 28.5q-78 0 -144.5 -28.5t-116.5 -75.5t-79 -110.5t-29 -133.5v-266zM229 1051q0 -16 25 -17h98l17 10l88 140q8 12 16 12t14 -12l90 -140l17 -10h98q23 0 23 17q0 6 -6 16l-183 256l-16 8h-74l-16 -8 l-182 -256q-8 -12 -9 -16zM287 604q0 33 15 64.5t40 56.5t58.5 39t70.5 14t69.5 -14t58.5 -38t41 -54.5t15 -63.5q0 -18 -3 -26.5t-17 -8.5h-328q-14 0 -17 7.5t-3 23.5z" />
<glyph unicode="&#xeb;" horiz-adv-x="942" d="M102 328q0 -78 27 -142.5t75 -110.5t115.5 -70.5t151.5 -24.5q164 0 256 86q47 43 66.5 78.5t19.5 45.5q0 8 -12 15l-129 65q-8 4 -13 4q-10 0 -25.5 -22.5t-49.5 -63.5q-16 -20 -46 -32.5t-67 -12.5q-39 0 -72.5 14.5t-58.5 40t-39 59.5t-14 71v82q0 20 20 20h512 q21 1 21 21v143q0 70 -29 133.5t-79 110.5t-117.5 75.5t-143.5 28.5q-78 0 -144.5 -28.5t-116.5 -75.5t-79 -110.5t-29 -133.5v-266zM211 1171q0 -43 29.5 -72.5t72.5 -29.5t73 30.5t30 71.5t-30 72t-73 31t-72.5 -30t-29.5 -73zM287 604q0 33 15 64.5t40 56.5t58.5 39 t70.5 14t69.5 -14t58.5 -38t41 -54.5t15 -63.5q0 -18 -3 -26.5t-17 -8.5h-328q-14 0 -17 7.5t-3 23.5zM530 1171q0 -43 30 -72.5t73 -29.5t72.5 30.5t29.5 71.5t-29.5 72t-72.5 31t-73 -30t-30 -73z" />
<glyph unicode="&#xec;" horiz-adv-x="450" d="M-68 1313q0 -10 8 -19l260 -256l15 -6h88q20 0 20 15q0 10 -4 16l-168 256l-16 10h-180q-23 0 -23 -16zM133 20q0 -20 21 -20h143q20 0 20 20v881q0 20 -20 21h-143q-20 0 -21 -21v-881z" />
<glyph unicode="&#xed;" horiz-adv-x="450" d="M123 1049q0 -16 20 -17h88l14 6l261 256q8 8 8 17q0 18 -23 18h-180l-16 -10l-168 -256q-4 -6 -4 -14zM133 20q0 -20 21 -20h143q20 0 20 20v881q0 20 -20 21h-143q-20 0 -21 -21v-881z" />
<glyph unicode="&#xee;" horiz-adv-x="450" d="M-17 1051q0 -16 25 -17h98l17 10l88 140q8 12 16 12t14 -12l90 -140l17 -10h98q23 0 23 17q0 6 -6 16l-183 256l-16 8h-74l-16 -8l-182 -256q-8 -12 -9 -16zM133 20q0 -20 21 -20h143q20 0 20 20v881q0 20 -20 21h-143q-20 0 -21 -21v-881z" />
<glyph unicode="&#xef;" horiz-adv-x="450" d="M-35 1171q0 -43 29.5 -72.5t72.5 -29.5t73 30.5t30 71.5t-30 72t-73 31t-72.5 -30t-29.5 -73zM133 20q0 -20 21 -20h143q20 0 20 20v881q0 20 -20 21h-143q-20 0 -21 -21v-881zM284 1171q0 -43 30 -72.5t73 -29.5t72.5 30.5t29.5 71.5t-29.5 72t-72.5 31t-73 -30t-30 -73 z" />
<glyph unicode="&#xf0;" d="M154 328q0 -78 26.5 -142.5t74.5 -110.5t115.5 -70.5t151.5 -24.5t151.5 24.5t116 70.5t75 110.5t26.5 142.5v635q0 41 -5 65.5t-5 32.5q0 12 8 20l139 99q8 6 8 14q0 10 -4 14l-45 66q-6 10 -14 10q-6 0 -15 -6l-122 -86q-10 -6 -17 -6q-6 0 -27.5 20.5t-64.5 50.5 q-74 53 -205 54q-76 0 -138 -21.5t-107.5 -54.5t-70 -69t-24.5 -64q0 -8 13 -15l129 -65q8 -4 12 -4q10 0 22.5 21.5t40.5 56.5q18 23 50 37t73 14q39 0 69 -11.5t58 -39.5q10 -10 10 -19q0 -8 -10 -14l-162 -115q-8 -6 -8 -16q0 -8 4 -12l45 -68q6 -10 15 -10q4 0 14 6 l117 84q8 6 16 6q16 0 17 -23v-202q0 -23 -15 -23q-10 0 -26.5 10.5t-41 23.5t-56 23.5t-74.5 10.5q-72 0 -134.5 -26.5t-108.5 -73t-71.5 -110t-25.5 -138.5v-82zM338 328v82q0 37 14.5 70.5t39 59t58 40t72.5 14.5q78 0 131.5 -54.5t53.5 -129.5v-82q0 -76 -53.5 -130.5 t-131.5 -54.5q-39 0 -72.5 14.5t-58 40t-39 59.5t-14.5 71z" />
<glyph unicode="&#xf1;" horiz-adv-x="1003" d="M133 20q0 -20 21 -20h143q20 0 20 20v553q0 76 53.5 130.5t131.5 54.5q39 0 72.5 -14.5t58 -40t39 -59.5t14.5 -71v-553q0 -20 21 -20h143q20 0 20 20v553q0 78 -26.5 141.5t-73.5 109.5t-111.5 72t-142.5 26q-45 0 -79 -10.5t-58.5 -24t-40.5 -23.5t-27 -10 q-14 0 -14 23v24q0 20 -21 21h-122q-20 0 -21 -21v-881zM203 1153q0 -8 10 -14l45 -33q4 -4 13 -4q6 0 15 10t22.5 22.5t32 22.5t42.5 10q33 0 74 -26l41 -27q66 -53 129 -53q98 0 176 139q2 4 2 10q0 8 -8 17l-41 33q-4 4 -12 4q-6 0 -15.5 -10.5t-24 -23.5t-33.5 -23.5 t-48 -10.5q-41 0 -72 25l-39 30q-61 49 -129 49q-35 0 -67.5 -18t-57 -43t-40 -49.5t-15.5 -36.5z" />
<glyph unicode="&#xf2;" horiz-adv-x="942" d="M102 328q0 -78 27 -142.5t75 -110.5t115.5 -70.5t151.5 -24.5t151.5 24.5t115.5 70.5t75 110.5t27 142.5v266q0 78 -27 141.5t-75 109.5t-115.5 71.5t-151.5 25.5t-151.5 -24.5t-115.5 -70.5t-75 -110.5t-27 -142.5v-266zM178 1313q0 -10 8 -19l260 -256l15 -6h88 q20 0 20 15q0 10 -4 16l-168 256l-16 10h-180q-23 0 -23 -16zM287 328v266q0 76 53 130t131 54t131 -54t53 -130v-266q0 -76 -53 -130.5t-131 -54.5q-39 0 -72.5 14.5t-58.5 40t-39 59.5t-14 71z" />
<glyph unicode="&#xf3;" horiz-adv-x="942" d="M102 328q0 -78 27 -142.5t75 -110.5t115.5 -70.5t151.5 -24.5t151.5 24.5t115.5 70.5t75 110.5t27 142.5v266q0 78 -27 141.5t-75 109.5t-115.5 71.5t-151.5 25.5t-151.5 -24.5t-115.5 -70.5t-75 -110.5t-27 -142.5v-266zM287 328v266q0 76 53 130t131 54t131 -54 t53 -130v-266q0 -76 -53 -130.5t-131 -54.5q-39 0 -72.5 14.5t-58.5 40t-39 59.5t-14 71zM369 1049q0 -16 20 -17h88l14 6l261 256q8 8 8 17q0 18 -23 18h-180l-16 -10l-168 -256q-4 -6 -4 -14z" />
<glyph unicode="&#xf4;" horiz-adv-x="942" d="M102 328q0 -78 27 -142.5t75 -110.5t115.5 -70.5t151.5 -24.5t151.5 24.5t115.5 70.5t75 110.5t27 142.5v266q0 78 -27 141.5t-75 109.5t-115.5 71.5t-151.5 25.5t-151.5 -24.5t-115.5 -70.5t-75 -110.5t-27 -142.5v-266zM229 1051q0 -16 25 -17h98l17 10l88 140 q8 12 16 12t14 -12l90 -140l17 -10h98q23 0 23 17q0 6 -6 16l-183 256l-16 8h-74l-16 -8l-182 -256q-8 -12 -9 -16zM287 328v266q0 76 53 130t131 54t131 -54t53 -130v-266q0 -76 -53 -130.5t-131 -54.5q-39 0 -72.5 14.5t-58.5 40t-39 59.5t-14 71z" />
<glyph unicode="&#xf5;" horiz-adv-x="942" d="M102 328q0 -78 27 -142.5t75 -110.5t115.5 -70.5t151.5 -24.5t151.5 24.5t115.5 70.5t75 110.5t27 142.5v266q0 78 -27 141.5t-75 109.5t-115.5 71.5t-151.5 25.5t-151.5 -24.5t-115.5 -70.5t-75 -110.5t-27 -142.5v-266zM172 1153q0 -8 10 -14l45 -33q4 -4 13 -4 q6 0 15 10t22.5 22.5t32 22.5t42.5 10q33 0 74 -26l41 -27q66 -53 129 -53q98 0 176 139q2 4 2 10q0 8 -8 17l-41 33q-4 4 -12 4q-6 0 -15.5 -10.5t-24 -23.5t-33.5 -23.5t-48 -10.5q-41 0 -72 25l-39 30q-61 49 -129 49q-35 0 -67.5 -18t-57 -43t-40 -49.5t-15.5 -36.5z M287 328v266q0 76 53 130t131 54t131 -54t53 -130v-266q0 -76 -53 -130.5t-131 -54.5q-39 0 -72.5 14.5t-58.5 40t-39 59.5t-14 71z" />
<glyph unicode="&#xf6;" horiz-adv-x="942" d="M102 328q0 -78 27 -142.5t75 -110.5t115.5 -70.5t151.5 -24.5t151.5 24.5t115.5 70.5t75 110.5t27 142.5v266q0 78 -27 141.5t-75 109.5t-115.5 71.5t-151.5 25.5t-151.5 -24.5t-115.5 -70.5t-75 -110.5t-27 -142.5v-266zM211 1171q0 -43 29.5 -72.5t72.5 -29.5t73 30.5 t30 71.5t-30 72t-73 31t-72.5 -30t-29.5 -73zM287 328v266q0 76 53 130t131 54t131 -54t53 -130v-266q0 -76 -53 -130.5t-131 -54.5q-39 0 -72.5 14.5t-58.5 40t-39 59.5t-14 71zM530 1171q0 -43 30 -72.5t73 -29.5t72.5 30.5t29.5 71.5t-29.5 72t-72.5 31t-73 -30t-30 -73z " />
<glyph unicode="&#xf7;" horiz-adv-x="1705" d="M254 541h1198v139h-1198v-139zM729 242q0 -53 36 -89t89 -36t89 36.5t36 88.5q0 53 -37 89t-88 36t-88 -36t-37 -89zM729 979q0 -53 36 -89t89 -36t89 37t36 88q0 53 -37 90t-88 37t-88 -37t-37 -90z" />
<glyph unicode="&#xf8;" horiz-adv-x="942" d="M102 328q0 -78 27 -142.5t75 -110.5t115.5 -70.5t151.5 -24.5t151.5 25.5t115.5 71.5t75 109.5t27 141.5v266q0 78 -27 141.5t-75 109.5t-116.5 71.5t-150.5 25.5q-84 0 -151.5 -24.5t-115.5 -70.5t-75 -110.5t-27 -142.5v-266zM287 328v266q0 37 14 70.5t39 58.5 t58.5 40t72.5 15q25 0 55 -10l6 -4l5 -4q4 -4 4 -8q0 -7 -2 -11l-205 -473q-6 -16 -19 -16q-29 0 -28 76zM393 174v8l207 494q6 14 18 14t24.5 -25.5t12.5 -70.5v-266q0 -37 -14 -71t-38.5 -58.5t-58.5 -40t-73 -15.5q-16 0 -31.5 2t-33.5 11q-12 4 -13 18z" />
<glyph unicode="&#xf9;" horiz-adv-x="983" d="M113 348q0 -78 26.5 -141.5t73.5 -109.5t111.5 -71.5t142.5 -25.5q45 0 79 10t58.5 23.5t41 24t26.5 10.5q14 0 14 -23v-25q0 -20 21 -20h122q21 0 21 20v881q0 20 -21 21h-143q-20 0 -20 -21v-553q0 -37 -14.5 -70.5t-39 -59t-58.5 -40t-73 -14.5t-72.5 14.5t-58 40 t-39 59t-14.5 70.5v553q0 20 -21 21h-143q-20 0 -20 -21v-553zM199 1313q0 -10 8 -19l260 -256l15 -6h88q20 0 20 15q0 10 -4 16l-168 256l-16 10h-180q-23 0 -23 -16z" />
<glyph unicode="&#xfa;" horiz-adv-x="983" d="M113 348q0 -78 26.5 -141.5t73.5 -109.5t111.5 -71.5t142.5 -25.5q45 0 79 10t58.5 23.5t41 24t26.5 10.5q14 0 14 -23v-25q0 -20 21 -20h122q21 0 21 20v881q0 20 -21 21h-143q-20 0 -20 -21v-553q0 -37 -14.5 -70.5t-39 -59t-58.5 -40t-73 -14.5t-72.5 14.5t-58 40 t-39 59t-14.5 70.5v553q0 20 -21 21h-143q-20 0 -20 -21v-553zM390 1049q0 -16 20 -17h88l14 6l261 256q8 8 8 17q0 18 -23 18h-180l-16 -10l-168 -256q-4 -6 -4 -14z" />
<glyph unicode="&#xfb;" horiz-adv-x="983" d="M113 348q0 -78 26.5 -141.5t73.5 -109.5t111.5 -71.5t142.5 -25.5q45 0 79 10t58.5 23.5t41 24t26.5 10.5q14 0 14 -23v-25q0 -20 21 -20h122q21 0 21 20v881q0 20 -21 21h-143q-20 0 -20 -21v-553q0 -37 -14.5 -70.5t-39 -59t-58.5 -40t-73 -14.5t-72.5 14.5t-58 40 t-39 59t-14.5 70.5v553q0 20 -21 21h-143q-20 0 -20 -21v-553zM250 1051q0 -16 25 -17h98l17 10l88 140q8 12 16 12t14 -12l90 -140l17 -10h98q23 0 23 17q0 6 -6 16l-183 256l-16 8h-74l-16 -8l-182 -256q-8 -12 -9 -16z" />
<glyph unicode="&#xfc;" horiz-adv-x="983" d="M113 348q0 -78 26.5 -141.5t73.5 -109.5t111.5 -71.5t142.5 -25.5q45 0 79 10t58.5 23.5t41 24t26.5 10.5q14 0 14 -23v-25q0 -20 21 -20h122q21 0 21 20v881q0 20 -21 21h-143q-20 0 -20 -21v-553q0 -37 -14.5 -70.5t-39 -59t-58.5 -40t-73 -14.5t-72.5 14.5t-58 40 t-39 59t-14.5 70.5v553q0 20 -21 21h-143q-20 0 -20 -21v-553zM232 1171q0 -43 29.5 -72.5t72.5 -29.5t73 30.5t30 71.5t-30 72t-73 31t-72.5 -30t-29.5 -73zM551 1171q0 -43 30 -72.5t73 -29.5t72.5 30.5t29.5 71.5t-29.5 72t-72.5 31t-73 -30t-30 -73z" />
<glyph unicode="&#xfd;" horiz-adv-x="983" d="M113 348q0 -78 26.5 -142.5t74.5 -110.5t115.5 -70.5t151.5 -24.5q37 0 63.5 9t46 20.5t34 20.5t24.5 9q16 0 17 -22v-170q0 -37 -14.5 -71t-39 -59.5t-58.5 -39.5t-73 -14q-35 0 -59.5 9t-43 24.5t-34.5 36t-35 44.5q-10 14 -18 15q-2 0 -10 -5l-129 -65q-12 -6 -13 -14 q0 -27 30 -66t89 -84q35 -27 93.5 -43t129.5 -16q174 0 271.5 98t97.5 270v1014q0 20 -21 21h-143q-20 0 -20 -21v-553q0 -37 -14.5 -70.5t-39 -59t-58.5 -40t-73 -14.5t-72.5 14.5t-58 40t-39 59t-14.5 70.5v553q0 20 -21 21h-143q-20 0 -20 -21v-553zM390 1049 q0 -16 20 -17h88l14 6l261 256q8 8 8 17q0 18 -23 18h-180l-16 -10l-168 -256q-4 -6 -4 -14z" />
<glyph unicode="&#xfe;" horiz-adv-x="972" d="M133 -440q0 -20 21 -21h143q20 0 20 21v485q0 23 17 23q6 0 21.5 -10.5t40 -24t58 -23.5t78.5 -10q72 0 133.5 26.5t107.5 72.5t71.5 109.5t25.5 139.5v225q0 78 -25.5 141.5t-71.5 109.5t-107.5 72t-133.5 26q-43 0 -77.5 -10.5t-59 -24t-40 -23.5t-21.5 -10 q-16 0 -17 23v393q0 20 -20 20h-143q-20 0 -21 -20v-1710zM317 348v225q0 76 53.5 130.5t131.5 54.5q39 0 72.5 -14.5t58 -40t39 -59.5t14.5 -71v-225q0 -37 -14.5 -70.5t-39 -59t-58 -40t-72.5 -14.5q-78 0 -131.5 54t-53.5 130z" />
<glyph unicode="&#xff;" horiz-adv-x="983" d="M113 348q0 -78 26.5 -142.5t74.5 -110.5t115.5 -70.5t151.5 -24.5q37 0 63.5 9t46 20.5t34 20.5t24.5 9q16 0 17 -22v-170q0 -37 -14.5 -71t-39 -59.5t-58.5 -39.5t-73 -14q-35 0 -59.5 9t-43 24.5t-34.5 36t-35 44.5q-10 14 -18 15q-2 0 -10 -5l-129 -65q-12 -6 -13 -14 q0 -27 30 -66t89 -84q35 -27 93.5 -43t129.5 -16q174 0 271.5 98t97.5 270v1014q0 20 -21 21h-143q-20 0 -20 -21v-553q0 -37 -14.5 -70.5t-39 -59t-58.5 -40t-73 -14.5t-72.5 14.5t-58 40t-39 59t-14.5 70.5v553q0 20 -21 21h-143q-20 0 -20 -21v-553zM232 1171 q0 -43 29.5 -72.5t72.5 -29.5t73 30.5t30 71.5t-30 72t-73 31t-72.5 -30t-29.5 -73zM551 1171q0 -43 30 -72.5t73 -29.5t72.5 30.5t29.5 71.5t-29.5 72t-72.5 31t-73 -30t-30 -73z" />
<glyph unicode="&#x152;" horiz-adv-x="1566" d="M123 328q0 -78 26.5 -142.5t74.5 -110.5t116 -70.5t152 -24.5h61q35 0 68.5 5t68.5 15h764q21 0 21 20v123q0 20 -21 21h-536q-20 0 -21 12q0 16 12.5 53t12.5 99v225q0 20 20 20h420q20 0 20 21v123q0 20 -20 20h-420q-20 0 -20 21v205q0 59 -12.5 97t-12.5 54 q0 12 21 12h536q20 0 21 21v123q0 20 -21 20h-772q-59 20 -129 21h-61q-84 0 -152 -24.5t-116 -71t-74.5 -111t-26.5 -141.5v-635zM307 328v635q0 78 53.5 131t131.5 53h61q78 0 131 -53.5t53 -130.5v-635q0 -78 -53 -131.5t-131 -53.5h-61q-78 0 -131.5 53.5t-53.5 131.5z " />
<glyph unicode="&#x153;" horiz-adv-x="1495" d="M102 328q0 -78 27 -142.5t75 -110.5t115.5 -70.5t151.5 -24.5q57 0 95 8t57 18q55 35 85.5 53.5t36.5 18.5q8 0 39 -18.5t88 -53.5q16 -10 54.5 -18t97.5 -8q74 0 131 16t92 43q61 47 90 87t29 64q0 8 -12 15l-129 65q-8 4 -13 4q-10 0 -26.5 -22.5t-48.5 -63.5 q-16 -20 -46 -32.5t-67 -12.5q-115 0 -186 146q2 16 2 24v15v82q0 20 20 20h512q21 1 21 21v143q0 70 -29 133.5t-79 110.5t-117.5 75.5t-143.5 28.5q-109 0 -199 -55q-33 -20 -49 -34.5t-22 -14.5t-29 16t-66 45q-70 43 -188 43q-84 0 -151.5 -24.5t-115.5 -70.5 t-75 -110.5t-27 -142.5v-266zM287 328v266q0 76 53 130t131 54t131 -54t53 -130v-266q0 -76 -53 -130.5t-131 -54.5q-39 0 -72.5 14.5t-58.5 40t-39 59.5t-14 71zM838 635q63 143 186 143q37 0 70.5 -14t58.5 -39t40 -56.5t15 -64.5q0 -16 -3 -23.5t-17 -7.5h-328 q-20 0 -20 23v14q0 10 -2 25z" />
<glyph unicode="&#x178;" horiz-adv-x="921" d="M8 1274q0 -2 4 -14l357 -668v-572q0 -20 20 -20h143q20 0 21 20v572l356 668q4 12 4 14q0 16 -22 16h-168l-18 -12l-226 -467q-6 -14 -18 -14t-19 14l-225 467l-18 12h-168q-23 0 -23 -16zM205 1540q0 -43 29.5 -72.5t72.5 -29.5t73 30.5t30 71.5t-30 72t-73 31 t-72.5 -30t-29.5 -73zM524 1540q0 -43 30 -72.5t73 -29.5t72.5 30.5t29.5 71.5t-29.5 72t-72.5 31t-73 -30t-30 -73z" />
<glyph unicode="&#x2c6;" horiz-adv-x="1024" d="M270 1051q0 -16 25 -17h98l17 10l88 140q8 12 16 12t14 -12l90 -140l17 -10h98q23 0 23 17q0 6 -6 16l-183 256l-16 8h-74l-16 -8l-182 -256q-8 -12 -9 -16z" />
<glyph unicode="&#x2dc;" horiz-adv-x="1024" d="M213 1153q0 -8 10 -14l45 -33q4 -4 13 -4q6 0 15 10t22.5 22.5t32 22.5t42.5 10q33 0 74 -26l41 -27q66 -53 129 -53q98 0 176 139q2 4 2 10q0 8 -8 17l-41 33q-4 4 -12 4q-6 0 -15.5 -10.5t-24 -23.5t-33.5 -23.5t-48 -10.5q-41 0 -72 25l-39 30q-61 49 -129 49 q-35 0 -67.5 -18t-57 -43t-40 -49.5t-15.5 -36.5z" />
<glyph unicode="&#x2000;" horiz-adv-x="896" />
<glyph unicode="&#x2001;" horiz-adv-x="1792" />
<glyph unicode="&#x2002;" horiz-adv-x="896" />
<glyph unicode="&#x2003;" horiz-adv-x="1792" />
<glyph unicode="&#x2004;" horiz-adv-x="597" />
<glyph unicode="&#x2005;" horiz-adv-x="448" />
<glyph unicode="&#x2006;" horiz-adv-x="298" />
<glyph unicode="&#x2007;" horiz-adv-x="298" />
<glyph unicode="&#x2008;" horiz-adv-x="224" />
<glyph unicode="&#x2009;" horiz-adv-x="358" />
<glyph unicode="&#x200a;" horiz-adv-x="99" />
<glyph unicode="&#x2010;" horiz-adv-x="552" d="M92 389q0 -20 21 -20h327q21 0 21 20v143q0 20 -21 21h-327q-20 0 -21 -21v-143z" />
<glyph unicode="&#x2011;" horiz-adv-x="552" d="M92 389q0 -20 21 -20h327q21 0 21 20v143q0 20 -21 21h-327q-20 0 -21 -21v-143z" />
<glyph unicode="&#x2012;" horiz-adv-x="552" d="M92 389q0 -20 21 -20h327q21 0 21 20v143q0 20 -21 21h-327q-20 0 -21 -21v-143z" />
<glyph unicode="&#x2013;" d="M41 451q0 -20 20 -21h922q21 1 21 21v81q0 20 -21 21h-922q-20 0 -20 -21v-81z" />
<glyph unicode="&#x2014;" horiz-adv-x="1597" d="M41 451q0 -20 20 -21h1475q20 1 20 21v81q0 20 -20 21h-1475q-20 0 -20 -21v-81z" />
<glyph unicode="&#x2018;" horiz-adv-x="362" d="M82 934q0 -20 20 -21h154q20 0 20 21v137q0 20 -20 21h-23q-20 0 -20 30q0 39 11.5 73t27.5 50q20 20 33.5 30.5t13.5 20.5q0 7 -2 11l-27 55q-6 12 -16 12q-27 0 -57.5 -21.5t-56 -63.5t-42 -101.5t-16.5 -134.5v-119z" />
<glyph unicode="&#x2019;" horiz-adv-x="362" d="M66 907q0 -6 2 -10l28 -55q6 -12 17 -13q25 0 54.5 21.5t55 63.5t42 101.5t16.5 135.5v119q0 20 -21 20h-154q-20 0 -20 -20v-137q0 -20 20 -21h23q14 0 17.5 -9t3.5 -32q0 -41 -13.5 -68.5t-29 -47t-28.5 -31t-13 -17.5z" />
<glyph unicode="&#x201a;" horiz-adv-x="362" d="M66 -160q0 -4 2 -8l26 -55q6 -14 17 -15q4 0 12 5q84 45 121 122.5t37 196.5v119q0 20 -21 20h-154q-20 0 -20 -20v-137q0 -20 20 -21h23q14 0 17.5 -9t3.5 -32q0 -53 -23 -85t-53 -64q-8 -8 -8 -17z" />
<glyph unicode="&#x201c;" horiz-adv-x="645" d="M82 934q0 -20 20 -21h154q20 0 20 21v137q0 20 -20 21h-23q-20 0 -20 30q0 39 11.5 73t27.5 50q20 20 33.5 30.5t13.5 20.5q0 7 -2 11l-27 55q-6 12 -16 12q-27 0 -57.5 -21.5t-56 -63.5t-42 -101.5t-16.5 -134.5v-119zM365 934q0 -20 20 -21h154q20 0 20 21v137 q0 20 -20 21h-23q-14 0 -17 7t-3 23q0 39 12 74t29 51q20 20 32.5 29.5t12.5 19.5q0 7 -2 11l-27 55q-6 12 -16 12q-27 0 -57.5 -21.5t-56.5 -63.5t-42 -101.5t-16 -134.5v-119z" />
<glyph unicode="&#x201d;" horiz-adv-x="645" d="M66 907q0 -6 2 -10l28 -55q6 -12 17 -13q25 0 54.5 21.5t55 63.5t42 101.5t16.5 135.5v119q0 20 -21 20h-154q-20 0 -20 -20v-137q0 -20 20 -21h23q14 0 17.5 -9t3.5 -32q0 -41 -13.5 -68.5t-29 -47t-28.5 -31t-13 -17.5zM348 907q0 -6 2 -10l29 -55q6 -12 14 -13 q25 0 54.5 21.5t55 63.5t43 101.5t17.5 135.5v119q0 20 -20 20h-154q-20 0 -20 -20v-137q0 -20 20 -21h23q23 0 22 -41q0 -41 -13 -68.5t-29.5 -47t-30 -31t-13.5 -17.5z" />
<glyph unicode="&#x201e;" horiz-adv-x="645" d="M66 -160q0 -4 2 -8l26 -55q6 -14 17 -15q4 0 12 5q84 45 121 122.5t37 196.5v119q0 20 -21 20h-154q-20 0 -20 -20v-137q0 -20 20 -21h23q14 0 17.5 -9t3.5 -32q0 -53 -23 -85t-53 -64q-8 -8 -8 -17zM348 -160q0 -4 2 -8l27 -55q6 -14 16 -15q4 0 13 5q84 45 120.5 122.5 t36.5 196.5v119q0 20 -20 20h-154q-20 0 -20 -20v-137q0 -20 20 -21h23q23 0 22 -41q0 -53 -23.5 -85t-54.5 -64q-8 -8 -8 -17z" />
<glyph unicode="&#x2022;" horiz-adv-x="901" d="M139 625q0 -129 83 -208t224 -79h9q141 0 224 79t83 208v41q0 129 -83 207.5t-224 78.5h-9q-141 0 -224 -78.5t-83 -207.5v-41z" />
<glyph unicode="&#x2026;" horiz-adv-x="940" d="M113 344q0 -170 98 -267t270 -97h62q74 0 131 16t92 43q59 47 88 87t29 64q-1 9 -13 15l-129 65q-8 4 -12 4q-10 0 -23.5 -23.5t-41.5 -57.5q-18 -23 -51 -36.5t-70 -13.5h-62q-78 0 -131 53.5t-53 131.5v71q0 78 53 131.5t131 53.5h164q20 0 21 20v123q0 20 -21 21h-164 q-78 0 -131 53t-53 131v31q0 78 53 131t131 53h62q35 0 59.5 -9.5t43 -24.5t33.5 -36.5t34 -44.5q8 -12 18 -12q6 0 10 2l129 65q12 6 13 15q0 27 -30 65.5t-89 83.5q-35 27 -92.5 43.5t-128.5 16.5h-62q-170 0 -269 -98.5t-99 -270.5v-31q0 -78 63 -166q25 -35 50.5 -52 t25.5 -29t-24.5 -31t-51.5 -58q-63 -94 -63 -169v-62z" />
<glyph unicode="&#x202f;" horiz-adv-x="358" />
<glyph unicode="&#x2039;" horiz-adv-x="692" d="M113 510l8 -16l403 -287q8 -6 17 -6q16 -1 16 22v117l-8 16l-277 199q-10 8 -10 16t10 17l277 198l8 17v117q0 23 -16 22q-8 0 -17 -6l-403 -289l-8 -16v-121z" />
<glyph unicode="&#x203a;" horiz-adv-x="692" d="M135 223q0 -23 15 -22q8 0 18 6l405 287l9 16v121l-9 16l-405 289q-10 6 -16 6q-16 0 -17 -22v-117l8 -17l277 -198q10 -6 10 -17q0 -10 -10 -16l-277 -199l-8 -16v-117z" />
<glyph unicode="&#x205f;" horiz-adv-x="448" />
<glyph unicode="&#x2122;" horiz-adv-x="835" d="M61 1079q0 -20 21 -20h55q20 0 21 -21v-280q0 -20 20 -21h25q20 0 20 21v280q0 20 21 21h55q20 0 20 20v23q0 20 -20 20h-217q-20 0 -21 -20v-23zM397 758q0 -20 21 -21h24q20 0 21 21v147q0 23 16 23q10 0 21 -13l55 -84l16 -10h9l18 10l51 84q10 14 19 15q20 0 20 -25 v-147q0 -20 21 -21h24q21 1 21 21v344q0 20 -21 20h-24l-19 -10l-96 -166q-10 -14 -19 -14q-8 0 -18 14l-96 166l-19 10h-24q-20 0 -21 -20v-344z" />
<glyph unicode="&#xe000;" horiz-adv-x="921" d="M0 0v922h922v-922h-922z" />
</font>
</defs>
</svg>
