<?xml version="1.0" standalone="no"?>
<!DOCTYPE svg PUBLIC "-//W3C//DTD SVG 1.1//EN" "http://www.w3.org/Graphics/SVG/1.1/DTD/svg11.dtd" >
<svg xmlns="http://www.w3.org/2000/svg">
<metadata></metadata>
<defs>
<font id="letter_gothicbold_italic" horiz-adv-x="1228" >
<font-face units-per-em="2048" ascent="1638" descent="-410" />
<missing-glyph horiz-adv-x="500" />
<glyph horiz-adv-x="2048" />
<glyph horiz-adv-x="2048" />
<glyph unicode="&#xd;" />
<glyph unicode=" " />
<glyph unicode="!" d="M481 74q0 78 68.5 140t148.5 62q37 0 66 -15t49 -52q16 -27 16 -64q0 -74 -69.5 -135t-149.5 -61q-68 0 -110 51q-18 37 -19 74zM682 436l227 1032h209l-307 -1032h-129z" />
<glyph unicode="&#x22;" d="M545 1194l82 305h274l-82 -305l-143 -242h-113zM1028 1194l82 305h274l-81 -305l-144 -242h-112z" />
<glyph unicode="#" d="M123 -209l313 692h-274l51 129h272l123 275h-258l56 145h274l281 629h145l-823 -1870h-160zM494 -209l821 1870h162l-285 -645h258l-51 -129h-275l-123 -275h275l-55 -145h-289l-293 -676h-145z" />
<glyph unicode="$" d="M291 307l104 80q45 -43 100.5 -86t106.5 -43l125 467q-98 37 -148.5 105.5t-50.5 152.5q0 127 103.5 238.5t263.5 132.5l43 162h129l-43 -162q170 -1 252 -144l-109 -98q-57 113 -178 113l-102 -387q109 -27 166 -110t57 -187q0 -158 -114.5 -285t-299.5 -127l-51 -192 h-129l51 192q-76 0 -162 52t-114 126zM668 1006q0 -47 23.5 -82t74.5 -54l90 340q-82 -8 -135 -69.5t-53 -134.5zM731 258q102 0 169 81t67 179q0 137 -119 176z" />
<glyph unicode="%" d="M121 -33l1188 1549h145l-1188 -1549h-145zM389 1059q0 61 35 155.5t148.5 203t234.5 108.5q58 0 111 -27q76 -41 75 -137q0 -127 -116.5 -279.5t-198.5 -172t-123 -19.5q-166 0 -166 168zM535 1085q0 -47 28 -69q20 -6 33 -6q43 0 97.5 40.5t113.5 159.5q41 76 41 125 q0 33 -16.5 49.5t-45.5 16.5q-41 0 -95 -39t-105 -123t-51 -154zM610 164q0 39 58.5 156.5t154 204.5t203.5 87q45 0 100 -16q88 -23 88 -135q0 -139 -121.5 -304t-263.5 -190q-74 -10 -146.5 50.5t-72.5 146.5zM752 147q0 -29 14 -43t37 -14q43 0 102 39q35 27 82.5 103 t63.5 139q12 31 12 55q0 66 -59 66q-41 0 -94.5 -42t-105.5 -140.5t-52 -162.5z" />
<glyph unicode="&#x26;" d="M256 209q0 20 12.5 92t120 231.5t264.5 274.5q-61 115 -61 254q0 94 27.5 173t90 141.5t128 94t123.5 31.5q82 0 134 -58.5t52 -150.5q0 -23 -8.5 -91t-95.5 -166.5t-252 -243.5l145 -420q57 90 89 201.5t32 185.5h145q-18 -180 -79.5 -304t-121.5 -212l107 -193 l-117 -82l-86 162q-86 -76 -185 -115t-194 -39q-119 0 -194.5 61.5t-75.5 172.5zM389 238q0 -88 78 -125q37 -14 84 -15q90 0 185.5 56.5t103.5 87.5l-158 436q-131 -104 -212 -224t-81 -216zM741 1059q0 -72 21 -139q111 96 171 183t60 163q0 16 -2 24q0 43 -19.5 64.5 t-49.5 21.5q-45 0 -93.5 -46t-68 -115.5t-19.5 -155.5z" />
<glyph unicode="'" d="M778 1184l82 305h275l-82 -305l-146 -242h-112z" />
<glyph unicode="(" d="M512 381q0 319 181 632.5t499 485.5l55 -96q-268 -162 -428 -443.5t-160 -560.5q0 -139 44.5 -259t134.5 -203l-111 -115q-106 100 -160.5 244.5t-54.5 314.5z" />
<glyph unicode=")" d="M350 -80q238 106 411 407.5t173 602.5q0 139 -43 256t-133 200l110 113q109 -109 162 -248t53 -301q0 -324 -193.5 -648.5t-490.5 -494.5z" />
<glyph unicode="*" d="M410 1049l88 145l344 -98l96 356h145l-96 -356l397 98l9 -145l-412 -97l149 -290l-124 -97l-164 289l-303 -289l-86 97l297 274z" />
<glyph unicode="+" d="M246 678l35 129h485l129 483h145l-129 -483h484l-35 -129h-483l-136 -500h-145l135 500h-485z" />
<glyph unicode="," d="M408 -225l32 129q78 18 101.5 25.5t62.5 37.5q-104 20 -104 103q0 61 58 119.5t126 58.5q31 0 57.5 -13t51.5 -42q20 -27 20 -68q0 -96 -106.5 -200.5t-298.5 -149.5z" />
<glyph unicode="-" d="M516 662l39 145h532l-38 -145h-533z" />
<glyph unicode="." d="M467 80q0 20 12.5 64t74.5 93.5t128 49.5q57 0 91 -34t34 -87q0 -20 -6 -43q-18 -68 -78.5 -116t-128.5 -48q-57 0 -92 33t-35 88z" />
<glyph unicode="/" d="M229 -49l1041 1597h145l-1040 -1597h-146z" />
<glyph unicode="0" d="M305 326q0 84 16.5 186t55.5 229q98 418 268 592t352 174q92 0 163 -39t81 -82q55 -90 55 -245q0 -231 -106.5 -539.5t-163.5 -376.5q-61 -115 -186 -192.5t-248 -77.5q-125 0 -206 90t-81 281zM453 346q0 -172 65 -217q63 -35 123 -35q135 0 250.5 173t195.5 540 q57 217 58 344q0 113 -43 164t-121 51q-39 0 -86 -12q-162 -27 -302 -375t-140 -633z" />
<glyph unicode="1" d="M274 0l35 129h275l323 1210l-311 -82l29 113l475 146l-371 -1387h258l-35 -129h-678z" />
<glyph unicode="2" d="M205 0l18 66q59 223 180 359t330 281.5t312.5 236.5t125 168t21.5 112q0 70 -44 110.5t-126 40.5q-129 0 -218 -87t-130 -220h-154q63 195 204.5 315.5t334.5 120.5q133 0 211 -65.5t78 -182.5q-1 -53 -15 -108q-27 -102 -96.5 -187.5t-142 -142.5t-224.5 -164l-131 -96 q-137 -96 -220 -194.5t-126 -233.5h672l-35 -129h-825z" />
<glyph unicode="3" d="M205 225l151 82q31 -117 101.5 -173t163.5 -56q145 0 267 115.5t122 277.5q0 12 -1 29.5t-12.5 72t-90.5 96.5t-171 42q-31 0 -45 -2l35 129q180 0 303 120.5t123 243.5q0 41 -22.5 80t-70.5 66.5t-112 27.5q-82 0 -169 -50t-175 -165l-108 80q84 90 199.5 178t279.5 88 q66 0 124.5 -19.5t121.5 -68.5q94 -76 94 -194q0 -106 -79 -222t-233 -212q80 -43 122 -121t42 -168q0 -205 -165.5 -378t-415.5 -173q-186 0 -273 94q-74 125 -106 180z" />
<glyph unicode="4" d="M233 387l29 113l805 1016h193l-267 -1000h211l-35 -129h-211l-104 -387h-145l104 387h-580zM430 516h418l219 823z" />
<glyph unicode="5" d="M262 217l144 88q18 -88 79.5 -146.5t153.5 -58.5q123 0 223.5 104.5t129 207t28.5 166.5q0 106 -52.5 161.5t-125.5 55.5q-84 0 -155 -43t-142 -125l-148 30l281 818h659l-34 -129h-523l-178 -517q127 94 270 95q139 0 223.5 -82t84.5 -230q0 -74 -39 -216t-194.5 -283.5 t-352.5 -141.5q-125 0 -206 65.5t-126 180.5z" />
<glyph unicode="6" d="M299 293q0 117 28.5 244t115.5 359t292 421.5t418 189.5q141 0 260 -88l-115 -129q-41 49 -88 72.5t-98 23.5q-162 0 -337 -202.5t-226 -392.5q111 88 210 130t177 42q125 0 193.5 -92.5t68.5 -237.5q0 -80 -44 -237.5t-203.5 -306t-342.5 -148.5q-90 0 -168 39.5 t-109.5 120.5t-31.5 192zM471 311q0 -102 51 -166.5t160 -64.5q98 0 217.5 127t142.5 373q6 29 7 53q0 84 -46.5 142.5t-123.5 58.5q-59 0 -131 -42t-137.5 -116t-102.5 -173.5t-37 -191.5z" />
<glyph unicode="7" d="M274 0l895 1354h-628l34 129h838l-977 -1483h-162z" />
<glyph unicode="8" d="M233 276q0 150 95.5 289.5t244.5 192.5q-53 49 -77.5 109.5t-24.5 127.5q0 186 160 344t373 158q37 0 57 -2t61 -12q113 -29 166 -101.5t53 -171.5q0 -125 -78.5 -257t-189.5 -195q61 -23 97 -95.5t36 -168.5q0 -180 -127 -336t-280.5 -176.5t-202.5 -20.5 q-182 0 -272.5 89t-90.5 226zM397 303q0 -33 6 -61q23 -74 86.5 -112t149.5 -38q100 0 199.5 49t154.5 133q61 92 62 187q0 96 -66.5 159.5t-185.5 63.5q-35 0 -138.5 -17.5t-185.5 -129t-82 -234.5zM625 1001q0 -33 5 -70.5t65.5 -73.5t144.5 -36q86 0 157.5 35t114.5 111 q78 104 78 202q0 84 -56.5 136.5t-154.5 52.5h-25q-18 -4 -87.5 -15.5t-155.5 -108.5t-86 -233z" />
<glyph unicode="9" d="M209 63q66 -51 133.5 -75.5t138.5 -24.5q309 0 569.5 397.5t260.5 864.5q-16 139 -100.5 205.5t-202.5 66.5q-96 0 -187.5 -39t-150.5 -104q-127 -117 -190.5 -252t-63.5 -258q0 -145 79.5 -239.5t211.5 -94.5q78 0 162.5 36t179.5 116q-51 -190 -206 -378t-323 -188 q-53 0 -101 19.5t-97 62.5zM578 854q0 -98 50 -152.5t128 -54.5t163 57.5t152 165.5q53 76 80 150t27 137q0 166 -154 197q-29 6 -55 6q-141 0 -220 -103.5t-131 -207.5q-41 -104 -40 -195z" />
<glyph unicode=":" d="M471 82q0 18 6 37q14 68 75.5 118t129.5 50q57 0 93 -34t36 -89q0 -12 -4 -37q-16 -68 -76.5 -118t-126.5 -50q-59 0 -96 35t-37 88zM653 778q0 10 9.5 55.5t67.5 97.5t128 52q59 0 97 -34t38 -91q0 -19 -2 -29q-14 -70 -72.5 -122t-127.5 -52q-61 0 -99.5 34t-38.5 89z " />
<glyph unicode=";" d="M408 -225l32 129q78 18 101.5 25.5t62.5 37.5q-104 20 -104 103q0 61 58 119.5t126 58.5q31 0 57.5 -13t51.5 -42q20 -27 20 -68q0 -96 -106.5 -200.5t-298.5 -149.5zM678 764l4 35q16 66 75.5 115t125.5 49q57 0 92 -33t35 -86q0 -12 -4 -37q-16 -68 -74 -115t-125 -47 q-55 0 -92 33t-37 86z" />
<glyph unicode="&#x3c;" d="M356 725l1004 743l51 -114l-846 -629l510 -629l-123 -96z" />
<glyph unicode="=" d="M193 532l34 130h1129l-35 -130h-1128zM256 774l35 129h1128l-35 -129h-1128z" />
<glyph unicode="&#x3e;" d="M188 96l844 629l-504 645l123 98l609 -743l-1002 -725z" />
<glyph unicode="?" d="M469 88q0 78 69.5 141.5t149.5 63.5q74 0 113 -68q16 -27 16 -65q0 -74 -68.5 -134.5t-148.5 -60.5q-35 0 -61.5 11.5t-51.5 39.5q-18 35 -18 72zM549 1145q41 178 171 273t279 95q123 0 210 -65.5t87 -177.5q0 -27 -2 -43t-12 -49q-27 -160 -149 -279 q-135 -102 -269 -205l-69 -258h-146l78 289q10 37 51 74t84 71q115 68 185.5 131.5t80 119t9.5 66.5v15q0 80 -48.5 124t-121.5 44q-84 0 -161 -57.5t-112 -167.5h-145z" />
<glyph unicode="@" d="M117 369q0 98 31.5 219t97.5 266q211 375 422 502t454 127q162 0 253 -134.5t91 -330.5q0 -135 -46 -267.5t-136 -234.5q-74 -84 -150.5 -126t-142.5 -42q-102 0 -166 88q-57 -41 -121.5 -63.5t-115.5 -22.5q-66 0 -104 34t-38 99q0 74 85 239t233.5 237.5t398.5 72.5 q-12 -37 -101 -243.5t-89 -262.5q0 -37 26 -43q123 -12 180.5 97.5t100.5 220t43 215.5q0 143 -86 225t-221 82q-166 0 -336 -124t-297 -376q-49 -111 -75.5 -212t-26.5 -187q0 -147 76.5 -230t238.5 -83q98 0 228 35.5t294 111.5l45 -129q-299 -172 -588 -172 q-207 0 -332.5 101.5t-125.5 310.5zM610 541q0 -53 43 -54q45 0 102.5 56.5t110.5 152.5q31 64 64 127q20 29 20 45q0 18 -26 19q-55 0 -148.5 -71t-136.5 -171q-29 -59 -29 -104z" />
<glyph unicode="A" d="M96 0l944 1597l88 -1597h-161l-13 436h-450l-246 -436h-162zM571 565h387l-34 596z" />
<glyph unicode="B" d="M221 0l395 1475h310q160 0 270.5 -47.5t110.5 -200.5q-1 -53 -19 -125q-27 -104 -98.5 -184t-179.5 -134q86 -49 130 -112.5t44 -151.5q0 -53 -32 -168.5t-177.5 -233.5t-331.5 -118h-422zM410 129h258q115 0 210 66.5t130 197.5q12 49 12 94q0 96 -64.5 155.5 t-199.5 59.5h-193zM598 831h178q111 0 219.5 76t141.5 201q12 49 12 86q0 102 -69.5 127t-178.5 25h-37h-129z" />
<glyph unicode="C" d="M303 291q0 123 5 170t69.5 331.5t260.5 491.5t402 207q125 0 209 -76t84 -192q0 -29 -2 -45.5t-12 -49.5h-145q6 31 6 58q0 82 -44 124t-118 42q-113 0 -237 -102.5t-193.5 -308.5t-98 -311.5t-28.5 -240.5q0 -80 18.5 -158.5t66.5 -114.5t118 -36q102 0 195 72.5 t118 185.5h162q-55 -180 -204 -286.5t-308 -106.5q-141 0 -232.5 87t-91.5 259z" />
<glyph unicode="D" d="M221 -16l176 661l221 823h420q158 0 233 -105.5t75 -270.5q0 -113 -31 -222q-82 -305 -122 -425.5t-151.5 -264t-233.5 -168t-184.5 -28.5t-140.5 -4q-45 0 -134 2t-128 2zM422 129q92 -10 151 -10q213 0 324.5 106.5t177.5 354.5q53 158 78 286.5t25 206.5 q0 119 -40 184.5t-139 65.5h-258z" />
<glyph unicode="E" d="M274 0l394 1468h790l-35 -129h-628l-142 -532h451l-35 -129h-451l-147 -549h645l-35 -129h-807z" />
<glyph unicode="F" d="M311 0l396 1475h790l-35 -129h-637l-137 -512h477l-35 -129h-477l-188 -705h-154z" />
<glyph unicode="G" d="M307 344q0 121 64.5 428t261 526.5t401.5 219.5q121 0 201 -78t80 -207q0 -74 -27 -152h-129q18 66 19 115q0 88 -44 134t-118 46q-131 0 -270.5 -141t-213 -411.5t-73.5 -436.5q0 -131 61.5 -199.5t157.5 -68.5q135 0 265 130t169 347h-373l35 129h502l-203 -758h-129 l51 195q-33 -59 -151.5 -116.5t-237.5 -57.5q-133 0 -216 82t-83 274z" />
<glyph unicode="H" d="M193 0l393 1468h162l-173 -645h500l172 645h162l-410 -1468h-145l182 678h-499l-183 -678h-161z" />
<glyph unicode="I" d="M338 0l35 129h211l323 1210h-211l35 129h549l-35 -129h-209l-323 -1210h209l-35 -129h-549z" />
<glyph unicode="J" d="M240 240q0 76 28 186l56 207h153l-71 -264q-14 -55 -15 -105q0 -164 176 -164q268 0 353 312l249 934h-272l35 129h426l-254 -949q-63 -233 -178 -394t-389 -161q-145 0 -221 64.5t-76 204.5z" />
<glyph unicode="K" d="M258 0l393 1468h146l-172 -645q121 10 320.5 206t371.5 454l113 -64q0 -35 -143.5 -199.5t-305.5 -314t-233 -164.5l446 -741h-211l-389 709l-191 -709h-145z" />
<glyph unicode="L" d="M322 0l393 1468h145l-358 -1339h661l-35 -129h-806z" />
<glyph unicode="M" d="M162 0l393 1468h129l123 -743l506 743h145l-393 -1468h-145l303 1128l-506 -741l-107 741l-303 -1128h-145z" />
<glyph unicode="N" d="M242 0l393 1468h162l168 -1114l299 1114h145l-393 -1468h-129l-189 1161l-311 -1161h-145z" />
<glyph unicode="O" d="M293 317q0 301 144.5 665t338.5 470q117 57 230 57q141 0 230 -95t89 -273q0 -45 -6.5 -95.5t-20.5 -109.5q-88 -532 -283.5 -761.5t-410.5 -229.5q-78 0 -141.5 29.5t-95.5 74.5q-37 35 -55.5 104.5t-18.5 163.5zM446 326q0 -55 26 -149.5t169 -94.5q115 0 230.5 128 t191.5 386q49 141 76.5 271t27.5 231q0 127 -46 194.5t-144 67.5q-31 0 -125 -19.5t-197.5 -204t-156 -420t-52.5 -390.5z" />
<glyph unicode="P" d="M274 0l394 1468h370q135 0 226.5 -71.5t91.5 -206.5q0 -82 -35 -174q-59 -219 -219 -335t-514 -116l-152 -565h-162zM623 694q59 -6 112 -6q170 0 288 80t157 264q12 59 12 105q0 115 -70.5 152.5t-187.5 37.5q-27 0 -76 -2t-67 -2z" />
<glyph unicode="Q" d="M281 328q0 133 43 310t138 411.5t242.5 349t299.5 114.5q88 0 162.5 -38.5t119.5 -104.5q20 -33 32.5 -91t12.5 -126q0 -268 -125 -616.5t-256 -423.5l127 -242h-209l-57 145q-57 -27 -116.5 -43t-116.5 -16q-131 0 -214 87t-83 284zM444 342q0 -78 15.5 -129t46.5 -68.5 t69.5 -29t73.5 -11.5q147 0 277.5 184.5t218.5 614.5q33 125 33 217q0 125 -57.5 182.5t-147.5 57.5q-53 0 -115 -21q-156 -61 -285 -399t-129 -598z" />
<glyph unicode="R" d="M268 0l396 1475h383q172 0 239.5 -84t67.5 -203q0 -35 -5.5 -70.5t-13.5 -60.5q-35 -127 -117.5 -225.5t-252.5 -182.5l223 -649h-187l-194 614l-221 -4l-164 -610h-154zM621 741h145q160 0 267.5 81t150.5 243q18 66 18 113q0 86 -64.5 127t-203.5 41h-152z" />
<glyph unicode="S" d="M229 193l140 98q8 -90 92 -149.5t190 -59.5q82 0 152.5 34t121 100.5t70 113.5t19.5 92q0 94 -117 184q-115 80 -227 160q-129 104 -140.5 177t-11.5 89q0 170 151.5 315.5t344.5 145.5q98 0 192 -45t176 -141l-131 -129q-61 88 -131.5 130t-142.5 42q-119 0 -210 -97.5 t-91 -197.5q0 -31 12 -56q225 -182 354 -290.5t129 -192.5q0 -244 -172 -405.5t-385 -161.5q-123 0 -223 59.5t-162 184.5z" />
<glyph unicode="T" d="M471 1339l35 129h983l-35 -129h-418l-358 -1339h-146l359 1339h-420z" />
<glyph unicode="U" d="M301 274q0 43 6 89.5t23 105.5l270 1006h154l-291 -1088q-14 -55 -14 -104q0 -94 55 -138.5t137 -44.5q133 0 216 84t120 222l287 1069h153l-291 -1088q-53 -195 -204.5 -305.5t-315.5 -110.5q-121 0 -213 69t-92 234z" />
<glyph unicode="V" d="M496 -16l59 1484h160l-68 -1275l617 1275h161l-735 -1484h-194z" />
<glyph unicode="W" d="M246 -14l276 1489h166l-231 -1151l436 739l33 -739l387 1151h166l-512 -1489h-176l-15 639l-360 -639h-170z" />
<glyph unicode="X" d="M178 0l553 741l-160 727h177l102 -581l397 581h178l-548 -727l172 -741h-179l-102 580l-430 -580h-160z" />
<glyph unicode="Y" d="M500 0l168 629l-162 839h162l114 -661l465 661h162l-596 -839l-168 -629h-145z" />
<glyph unicode="Z" d="M209 0l35 129l938 1210h-598l34 129h775l-35 -129l-936 -1210h661l-34 -129h-840z" />
<glyph unicode="[" d="M279 -225l460 1724h582l-35 -129h-436l-393 -1466h436l-33 -129h-581z" />
<glyph unicode="\" d="M635 1532h145l203 -1595h-145z" />
<glyph unicode="]" d="M248 -225l33 129h434l393 1466h-434l35 129h579l-461 -1724h-579z" />
<glyph unicode="^" d="M408 741l501 662h146l155 -678h-145l-121 516l-391 -500h-145z" />
<glyph unicode="_" d="M-59 -225l20 80h1225l-21 -80h-1224z" />
<glyph unicode="`" d="M727 1452l133 129l289 -307l-113 -113z" />
<glyph unicode="a" d="M268 225q0 203 143.5 352.5t323.5 149.5q59 0 113.5 -11t124.5 -38q31 98 31 158q0 143 -150 143q-59 0 -124.5 -16.5t-166.5 -59.5l-12 129q76 35 164 59.5t172 24.5q119 0 187.5 -54t68.5 -188q-2 -20 -2 -32v-19q-10 -80 -84 -369.5t-74 -453.5l-154 -33l-12 129 q-16 -31 -119.5 -75t-199.5 -44q-102 0 -166 56.5t-64 191.5zM424 250q0 -68 36 -103.5t97 -35.5q72 0 156 49t159 147l58 209q-59 80 -191 80q-82 0 -154.5 -42t-116.5 -135t-44 -169z" />
<glyph unicode="b" d="M180 -2q53 86 91 186.5t71 221.5l299 1114h154l-125 -463q66 31 127 46t123 15q125 0 225 -89t100 -267q0 -47 -6 -95.5t-22 -109.5q-78 -295 -251 -437.5t-345 -142.5q-86 0 -129 26t-107 99l-66 -122zM467 299q18 -88 59 -140.5t127 -52.5q104 0 224.5 102.5 t183.5 342.5q26 96 26 174v6q0 127 -63 192.5t-164 65.5q-55 0 -110.5 -21.5t-120.5 -66.5z" />
<glyph unicode="c" d="M305 301q0 49 12 102q47 334 237.5 515.5t406.5 181.5q125 0 215.5 -63.5t117.5 -182.5l-155 -96q0 92 -65.5 153.5t-164.5 61.5q-119 0 -231.5 -108.5t-179.5 -332.5q-33 -92 -33 -178q0 -117 59.5 -188.5t163.5 -71.5q78 0 166 43t186 137l68 -112 q-117 -98 -235.5 -147.5t-221.5 -49.5q-154 0 -250 94.5t-96 241.5z" />
<glyph unicode="d" d="M276 324q0 102 49.5 288.5t219.5 341t358 154.5q125 0 227 -76l130 484h145l-332 -1242q-14 -53 -25.5 -108t-11.5 -103v-33.5t8 -45.5l-149 -17l-21 113q-137 -115 -290 -115q-133 0 -220.5 91t-87.5 268zM436 354q0 -125 59.5 -194.5t147.5 -69.5q80 0 159 55.5 t134 161.5l143 531q-10 63 -65.5 105t-132.5 42q-115 0 -224.5 -97t-165 -264t-55.5 -270z" />
<glyph unicode="e" d="M293 326q0 104 47 278t209 344t389 170q170 0 236.5 -101.5t66.5 -250.5q0 -59 -5 -95t-17 -79l-23 -84h-729q-23 -90 -23 -168q0 -123 60.5 -178.5t167.5 -55.5q84 0 178 32t194 85l29 -137q-135 -55 -238.5 -82t-209.5 -27q-172 0 -252 95.5t-80 253.5zM500 637h577 q12 59 13 113q0 109 -50.5 174t-148.5 65q-123 0 -217 -89t-174 -263z" />
<glyph unicode="f" d="M436 897l35 129h272l29 104q49 180 176 276.5t262 96.5q68 0 133.5 -20.5t135.5 -55.5l-43 -155q-76 43 -134.5 72.5t-115.5 29.5q-98 0 -161.5 -58.5t-94.5 -166.5l-33 -123h352l-35 -129h-352l-239 -897h-154l240 897h-273z" />
<glyph unicode="g" d="M199 -162l135 82q61 -61 119.5 -90t115.5 -29q133 0 232.5 134.5t99.5 242.5q-90 -49 -164.5 -71.5t-138.5 -22.5q-133 0 -204.5 92t-71.5 232q0 74 37.5 232.5t195.5 316t338 157.5q68 0 129 -23.5t121 -74.5l57 96h146q-59 -121 -153.5 -441.5t-184.5 -637.5 q-94 -188 -190.5 -268t-278.5 -103q-104 0 -205 48t-135 128zM485 432q0 -106 46.5 -164.5t130.5 -58.5q57 0 129.5 31.5t152.5 97.5l117 436q6 25 6 47q0 68 -55.5 113t-132.5 45q-96 0 -189.5 -74t-149 -218t-55.5 -255z" />
<glyph unicode="h" d="M242 0l405 1516h146l-164 -613q201 207 389 207q90 0 143 -57.5t53 -173.5q0 -57 -8 -106.5t-35 -127.5l-172 -645h-145l186 694q20 74 21 131q0 74 -33 112t-88 38q-109 0 -233.5 -125t-176.5 -318l-143 -532h-145z" />
<glyph unicode="i" d="M498 952l32 129h467l-288 -1081h-144l256 952h-323zM852 1333q0 16 10 54t59.5 73t104.5 35q92 0 92 -98q0 -19 -6 -37q-14 -53 -61 -87t-105 -34q-41 0 -67.5 26.5t-26.5 67.5z" />
<glyph unicode="j" d="M160 -82q0 84 28 178h146q-27 -82 -27 -147q0 -82 38 -124t99 -42q82 0 163 72.5t114 193.5l244 903h-338l32 129h484l-285 -1065q-43 -164 -175 -264t-271 -100q-111 0 -181.5 66.5t-70.5 199.5zM981 1325q0 18 11.5 54t60.5 71t102 35q43 0 68.5 -27.5t25.5 -68.5 q0 -16 -6 -39q-18 -53 -66.5 -87t-99.5 -34q-43 0 -69.5 27.5t-26.5 68.5z" />
<glyph unicode="k" d="M274 0l406 1516h145l-250 -936l568 501h178l-569 -501l393 -580h-209l-307 483l-101 -80l-108 -403h-146z" />
<glyph unicode="l" d="M549 0l366 1370h-323l39 146h469l-406 -1516h-145z" />
<glyph unicode="m" d="M139 0l203 756q27 100 39 192t12 170h154l-4 -98q68 47 124 72.5t117 25.5q72 0 99.5 -18.5t60.5 -81.5q70 51 124 76.5t116 25.5q90 0 139 -43t49 -123q0 -36 -12 -77l-236 -877h-153l235 877q6 25 6 43q0 71 -73 71h-2q-49 0 -100.5 -32.5t-92.5 -81.5l-235 -877h-154 l231 864q10 31 11 58q0 33 -14.5 50t-49.5 17q-53 0 -113.5 -40t-97.5 -93l-229 -856h-154z" />
<glyph unicode="n" d="M225 0l148 549q74 272 98 547h143l-26 -226q225 242 442 242q86 0 135 -48t49 -146q0 -33 -2 -51.5t-12 -59.5l-217 -807h-145l202 758q14 57 15 104q0 117 -99 117q-68 0 -156.5 -57.5t-156.5 -147.5q-55 -68 -96 -168t-87 -270t-89 -336h-146z" />
<glyph unicode="o" d="M303 291q0 127 47 303t199.5 347t359.5 171q166 0 248 -105.5t82 -273.5q0 -238 -144.5 -469t-293 -265t-211.5 -34q-150 0 -218.5 87t-68.5 239zM453 354q0 -117 46 -183.5t152 -66.5h43q23 6 73 13.5t137 110t132 272.5q23 66 34 123t11 106q0 113 -60 173.5t-151 60.5 q-74 0 -143.5 -36t-127.5 -116t-102 -211t-44 -246z" />
<glyph unicode="p" d="M113 -420l315 1178q18 66 26.5 161t16.5 177l147 16l-6 -145q84 78 168 117.5t156 39.5q125 0 199.5 -99t74.5 -273q0 -23 -1 -41.5t-9 -81.5q-55 -330 -246.5 -497t-388.5 -167q-129 0 -186 68l-121 -453h-145zM422 193q49 -96 192 -97q129 0 249 102.5t179 317.5 q35 117 35 215q0 123 -53 190.5t-139 67.5q-76 0 -160 -60.5t-152 -170.5z" />
<glyph unicode="q" d="M274 336q0 47 6.5 95t54.5 226.5t218 319.5t344 141q88 0 132 -25.5t104 -97.5l67 127l139 -18q-55 -94 -94 -192.5t-67 -206.5l-301 -1125h-154l123 461q-70 -33 -125 -48.5t-123 -15.5q-129 0 -226.5 88.5t-97.5 270.5zM432 365q0 -125 60.5 -192t164.5 -67 q53 0 111.5 25t120.5 66l164 612q-25 88 -64 134t-123 46q-106 0 -225 -101.5t-164 -270t-45 -252.5z" />
<glyph unicode="r" d="M322 0q70 258 136 507t87.5 359.5t21.5 229.5h146l-29 -226q119 127 230.5 191.5t197.5 64.5q82 0 128 -54t46 -146q0 -83 -39 -185h-145q35 98 35 164q0 92 -74 92q-109 0 -265.5 -176t-222.5 -418l-108 -403h-145z" />
<glyph unicode="s" d="M221 162l111 112q82 -84 164 -121.5t159 -37.5q98 0 164 56t66 130q0 61 -45 108.5t-146 73.5q-121 41 -179 114t-58 159q0 135 122.5 245.5t290.5 110.5q84 0 166 -29.5t164 -99.5l-117 -129q-55 59 -116.5 87t-120.5 28q-96 0 -165 -56.5t-69 -132.5q0 -53 43 -98 t156 -76t174.5 -102.5t61.5 -161.5q0 -139 -128 -256t-303 -117q-102 0 -201.5 45t-193.5 148z" />
<glyph unicode="t" d="M424 967l35 129h235l90 336h154l-90 -336h391l-35 -129h-391l-166 -625q-10 -35 -17 -70.5t-7 -64.5q0 -47 22.5 -74t79.5 -27q82 0 152.5 53.5t130.5 139.5l137 -37q-92 -127 -210 -206t-249 -79q-104 0 -158.5 46.5t-54.5 156.5q0 86 33 211l153 576h-235z" />
<glyph unicode="u" d="M309 182q0 78 27 172l194 727h146l-195 -727q-20 -74 -20 -129q0 -131 106 -131q115 0 260.5 143.5t198.5 342.5l133 501h146q-31 -137 -104 -375.5t-106.5 -391t-33.5 -330.5h-129l2 194q-113 -111 -224.5 -168t-203.5 -57t-144.5 57.5t-52.5 171.5z" />
<glyph unicode="v" d="M467 1081h143l45 -856l504 856h146l-631 -1097h-146z" />
<glyph unicode="w" d="M238 -16l100 1097h176l-86 -807l330 564h129l24 -564l330 807h176l-469 -1097h-178l-14 612l-340 -612h-178z" />
<glyph unicode="x" d="M98 0l588 586l-213 510h178l154 -385l352 385h174l-475 -504l274 -592h-194l-197 473l-446 -473h-195z" />
<glyph unicode="y" d="M4 -96l148 67q10 -82 28.5 -129t73.5 -47t108.5 53.5t106.5 131.5l117 165l-99 951h166l68 -746l483 746h164l-680 -1028q-119 -178 -228.5 -290t-240.5 -112q-102 0 -158.5 67.5t-56.5 170.5z" />
<glyph unicode="z" d="M193 0l34 129l852 823h-532l33 129h708l-33 -129l-833 -823h661l-34 -129h-856z" />
<glyph unicode="{" d="M430 645q242 68 275.5 110t66.5 197l59 226q47 174 157 247.5t413 73.5l-17 -63q-156 0 -250 -39t-154 -268.5t-104.5 -339t-123.5 -144.5q49 -43 49 -102q0 -43 -45 -199t-54.5 -191.5t-19.5 -84t-10 -80.5q0 -78 62.5 -105.5t226.5 -27.5l-17 -64h-65.5t-67.5 -2 q-172 0 -230.5 49t-58.5 142v25t10 58l82 308q31 92 31 139q0 61 -42 81.5t-173 53.5z" />
<glyph unicode="|" d="M406 -596l548 2048l43 160h129l-548 -2048l-43 -160h-129z" />
<glyph unicode="}" d="M190 -193l17 64q176 0 267 36t132 189l94 355q29 106 49.5 130.5t90.5 80.5q-25 25 -35 54t-10 62q0 47 17 106.5t36 114.5l74 275q4 33 4 43q0 84 -72 109.5t-223 25.5l16 64h72q154 0 256 -33t102 -144q0 -39 -14 -82l-100 -370q-14 -49 -15 -88q0 -92 85.5 -109.5 t144.5 -27.5q-201 -23 -256.5 -77.5t-102.5 -230.5l-78 -291q-51 -156 -176 -207t-278 -51q-29 0 -53.5 1t-43.5 1z" />
<glyph unicode="~" d="M213 612q100 131 186 201t211 70q66 0 136.5 -21.5t136 -57.5t100.5 -52.5t72 -16.5q57 0 126.5 45t164.5 156l77 -82q-109 -139 -208 -200.5t-199 -61.5q-47 0 -92 13t-152.5 75.5t-193.5 62.5q-78 0 -161 -81.5t-128 -129.5z" />
<glyph unicode="&#xa0;" />
<glyph unicode="&#xa1;" d="M516 0l289 1016h145l-241 -1016h-193zM788 1278q0 20 12.5 65.5t73 93.5t127.5 48q57 0 92 -33t35 -88q0 -20 -6 -43q-18 -66 -80.5 -115t-128.5 -49q-57 0 -91 34t-34 87z" />
<glyph unicode="&#xa2;" d="M356 565q0 248 163 476.5t411 265.5l51 192h145l-51 -192q76 -12 159 -82t116 -160l-166 -82q-25 70 -59.5 119t-88.5 59l-225 -839q78 25 149.5 70.5t124.5 107.5l68 -113q-96 -84 -198.5 -141.5t-182.5 -67.5l-63 -241h-146l64 241q-135 31 -203 135.5t-68 251.5z M512 584q0 -102 38 -174t116 -88l225 839q-158 -14 -268.5 -199.5t-110.5 -377.5z" />
<glyph unicode="&#xa3;" d="M274 63q180 209 244 297.5t64 364.5h-242l35 129h209q-8 53 -9.5 74.5t-1.5 34.5q0 215 155 354t343 139q121 0 209 -64.5t121 -197.5l-158 -49q-12 78 -72.5 124t-142.5 46q-119 0 -212 -95.5t-93 -275.5q0 -43 6 -90h404l-35 -129h-371q6 -47 6 -94q0 -119 -45 -233.5 t-162 -235.5q29 8 64 12t61 4q68 0 141.5 -34.5t108.5 -34.5q37 0 77 17t105 67l72 -97q-98 -68 -167.5 -94.5t-123.5 -26.5q-43 0 -125 34t-131 34q-57 0 -119.5 -19.5t-162.5 -72.5z" />
<glyph unicode="&#xa4;" d="M76 225l299 211q-47 74 -47 174q0 117 59 237t152 202l-185 208l101 82l163 -227q156 96 324 96q180 0 287 -112l274 243l60 -82l-287 -225q41 -61 41 -149q0 -111 -60.5 -234t-156.5 -213l184 -211l-100 -80l-166 226q-72 -55 -160 -85t-174 -30q-90 0 -158.5 29.5 t-105.5 85.5l-285 -226zM418 633q0 -129 71.5 -212t212.5 -83q223 0 375 164t152 350q0 121 -79 198.5t-235 77.5q-225 0 -361 -153.5t-136 -341.5z" />
<glyph unicode="&#xa5;" d="M383 467l35 129h258l-133 887h162l92 -676l454 676h162l-608 -887h258l-35 -129h-258l-125 -467h-129l125 467h-258z" />
<glyph unicode="&#xa6;" d="M403 246l127 475h123l-127 -475h-123zM592 950l127 475h123l-127 -475h-123z" />
<glyph unicode="&#xa7;" d="M334 115q0 31 6 65.5t20 77.5h146q-20 -55 -21 -102q0 -68 39 -99.5t103 -31.5q84 0 151.5 50t67.5 126q0 18 -6 41q-178 180 -297 304t-119 232q0 72 50 143.5t165 143.5q-8 23 -15.5 52.5t-7.5 70.5q0 145 127 233t285 88q115 0 190.5 -54t75.5 -161q1 -67 -34 -149 h-146q20 59 21 104q0 63 -39 95t-99 32q-78 0 -149.5 -51t-71.5 -121q0 -35 17.5 -68.5t101.5 -112.5t213 -200q53 -57 71.5 -102t18.5 -92q0 -70 -49 -141.5t-172 -149.5q16 -31 22.5 -59.5t6.5 -61.5q0 -133 -134.5 -227t-287.5 -94q-111 0 -180.5 54t-69.5 165zM590 821 q0 -68 110.5 -174t223.5 -211q117 66 116 164q1 39 -24 62q-33 33 -146.5 153.5t-160.5 151.5q-66 -37 -92.5 -71t-26.5 -75z" />
<glyph unicode="&#xa8;" d="M221 1374q0 20 12.5 65.5t73 93.5t127.5 48q57 0 92 -32.5t35 -88.5q0 -20 -6 -43q-18 -68 -78.5 -116t-128.5 -48q-57 0 -92 33t-35 88zM647 1374q0 20 12.5 65.5t73 93.5t127.5 48q57 0 92 -32.5t35 -88.5q0 -20 -6 -43q-18 -68 -78.5 -116t-128.5 -48q-57 0 -92 33 t-35 88z" />
<glyph unicode="&#xa9;" d="M211 471q0 371 224.5 699.5t578.5 328.5q209 0 313.5 -135t104.5 -352q0 -367 -249 -706t-612 -339q-176 0 -268 141.5t-92 362.5zM352 526q0 -176 74 -286.5t221 -110.5q250 0 450.5 282.5t200.5 569.5q0 162 -80.5 260t-246.5 98q-268 0 -443.5 -261t-175.5 -552z M483 575q0 66 36 218.5t166 273.5t265 121q94 0 153.5 -61.5t59.5 -176.5q-2 -18 -2 -28v-19h-145q4 29 4 41q0 47 -25.5 72.5t-68.5 25.5q-80 0 -163 -79.5t-104.5 -181t-21.5 -150.5q0 -90 36 -137.5t89 -47.5q55 0 105.5 45.5t70.5 120.5h145q-61 -154 -164.5 -237.5 t-205.5 -83.5q-98 0 -164 74.5t-66 209.5z" />
<glyph unicode="&#xaa;" d="M215 811l25 90h548l-24 -90h-549zM367 1133q0 70 59 160.5t174 90.5q51 0 119 -24q16 45 16 78q0 72 -78 71q-29 0 -63.5 -8t-81.5 -28l-4 63q37 18 80 29.5t86 11.5q59 0 94 -27.5t35 -91.5q0 -16 -3 -38.5t-40 -169t-37 -230.5l-78 -16l-4 65q-8 -16 -61.5 -38.5 t-100.5 -22.5q-51 0 -81.5 28.5t-30.5 96.5zM444 1145q0 -70 66 -70q39 0 78 24t80 75l28 104q-31 41 -94 41q-43 0 -79 -20.5t-57.5 -68.5t-21.5 -85z" />
<glyph unicode="&#xab;" d="M227 725l711 549l68 -113l-570 -436l336 -434l-129 -113zM711 725l712 549l66 -113l-569 -436l335 -434l-127 -113z" />
<glyph unicode="&#xac;" horiz-adv-x="5685" d="M410 291q0 102 51 259t98 220l131 180q20 25 29.5 37t13.5 25q-92 0 -138 42t-60 138q31 -6 61 -6q111 0 222.5 63.5t209.5 161.5q6 14 12 14q10 0 17.5 -26.5t7.5 -44.5q0 -160 -102 -240q-84 -55 -168 -108q-18 -35 -113.5 -167t-95.5 -233q0 -63 30.5 -158.5 t73.5 -95.5q68 0 230.5 113t293.5 205q57 135 102.5 245.5t92.5 168t68.5 77t58.5 19.5q23 0 40 -15.5t17 -40.5q0 -80 -65.5 -150.5t-157.5 -129.5q-14 -27 -40.5 -134.5t-26.5 -144.5q0 -47 64.5 -140t143.5 -198q53 254 289 537t533 487.5t549.5 257t440 79t398.5 26.5 q156 0 321 -14.5t403.5 -53.5t427 -275.5t188.5 -758.5q0 -293 -166 -429t-463 -136q-84 0 -187.5 27.5t-103.5 91.5q0 41 22.5 61t59.5 20t74 -20.5t55 -54.5q12 -31 45 -50.5t78 -29.5q231 0 351 124t120 376q6 59 6 126q0 301 -144.5 550t-469 290t-475 58.5t-277.5 17.5 q-113 0 -274.5 -25.5t-370.5 -59.5t-536.5 -257t-571.5 -518t-270 -527q43 -61 68.5 -133.5t25.5 -140.5q0 -47 -7.5 -76.5t-37.5 -29.5q-57 0 -90 98t-33 176v25q-125 102 -210 185t-92 141.5t-9 87t-2 65.5q0 39 6 69q-90 -78 -215 -171t-253 -163.5t-210 -70.5 q-37 0 -65.5 22.5t-28.5 59.5zM1761 102q16 53 99 54q25 0 63.5 -10.5t68 -44t19.5 -70.5q-16 -55 -100 -56q-25 0 -63 9.5t-67.5 44t-19.5 73.5zM2017 250q0 104 75 187t183 112l6 -19q-80 -31 -126 -70.5t-52 -117.5q0 -158 166 -214t373 -56q299 0 443.5 108.5t177 155.5 t32.5 102q0 86 -68.5 109.5t-170.5 23.5q-59 0 -166 -9t-117 -9q-152 0 -258.5 67.5t-106.5 215.5q0 211 187.5 331.5t413.5 120.5q78 0 116.5 -8t73.5 -49q16 8 31 8q29 0 51 -50t43 -69q10 -2 10 -16q-8 -25 -60 -82t-59 -68q-6 -23 -20 -22q-14 0 -42 25.5t-46.5 29.5 t-38 11.5t-19.5 27.5q0 27 37 74t37 80q0 41 -38 57t-87 16q-166 0 -318.5 -85t-152.5 -240q0 -88 73 -119t173 -31q55 0 142 5t100 5q176 0 283.5 -34.5t107.5 -169.5q0 -121 -80 -231.5t-280.5 -263t-559.5 -152.5q-186 0 -327.5 72.5t-141.5 240.5zM3211 111q14 51 88 51 q27 0 66 -11.5t67.5 -41t18.5 -66.5q-16 -53 -94 -53q-23 0 -62 10t-66.5 42t-17.5 69zM3590 166q0 61 32 104t75 84q61 -76 96 -106.5t96 -30.5q166 0 291 266.5t125 454.5q0 111 -60.5 144.5t-173.5 33.5q-178 0 -194.5 -112.5t-38.5 -124.5l-27 69q2 14 2 27.5v19.5 q0 14 -2 50t-2 57q0 100 50.5 157.5t199.5 57.5q178 0 303 -27t125 -131q0 -125 -119.5 -404.5t-211 -439t-161 -245.5t-163.5 -86q-80 0 -161 52t-81 130z" />
<glyph unicode="&#xad;" d="M516 662l39 145h532l-38 -145h-533z" />
<glyph unicode="&#xae;" d="M180 492q0 365 231.5 686t585.5 321q213 0 317.5 -135t104.5 -354q0 -362 -239.5 -702.5t-575.5 -340.5q-209 0 -316.5 147.5t-107.5 377.5zM330 502q0 -168 73.5 -270.5t227.5 -102.5q254 0 445.5 282.5t191.5 575.5q0 164 -76 265.5t-234 101.5q-256 0 -442 -279.5 t-186 -572.5zM436 307l226 838h387q59 0 89.5 -44t30.5 -114q0 -113 -71.5 -211t-190.5 -98l62 -371h-129l-45 371h-129l-101 -371h-129zM694 791h226q37 0 76.5 50t39.5 99q0 33 -24.5 54.5t-77.5 21.5h-178z" />
<glyph unicode="&#xb0;" d="M352 1167q0 66 24.5 152t101.5 173t177 87q84 0 125 -52t41 -138q0 -121 -73 -236.5t-179 -140.5q-14 -4 -35.5 -6t-35.5 -2q-76 0 -111 43t-35 120zM426 1198q0 -57 22.5 -91t75.5 -34q16 0 39 6q49 6 90 53.5t66 137.5q23 61 22 112q0 59 -29.5 89t-76.5 30 q-80 0 -123 -58.5t-64.5 -122t-21.5 -122.5z" />
<glyph unicode="&#xb1;" d="M4 63l51 107l424 4l127 504h-485l35 129h485l129 483h145l-129 -483h484l-35 -129h-483l-125 -502l442 -6l-82 -107h-983z" />
<glyph unicode="&#xb2;" d="M305 782l10 33q31 113 89.5 180.5t166 142t157.5 118.5t61.5 82t11.5 57q0 78 -84 78q-63 0 -108.5 -43.5t-67.5 -110.5h-78q33 96 104.5 155.5t165.5 59.5q145 0 146 -123q0 -29 -15.5 -85t-84 -111.5t-140.5 -102.5l-66 -51q-70 -49 -110.5 -96t-61.5 -115h336l-18 -68 h-414z" />
<glyph unicode="&#xb3;" d="M260 922l76 41q14 -57 49 -85t82 -28q74 0 135.5 57.5t61.5 139.5q-1 11 -5 36q-10 41 -48 61.5t-85 20.5q-16 0 -24 -2l18 68q92 0 152.5 58.5t60.5 119.5q0 20 -19.5 55t-84.5 35q-41 0 -84 -24.5t-86 -81.5l-53 37q43 45 101 90t140 45q35 0 60.5 -9.5t66.5 -40 t41 -92.5q0 -53 -40 -111.5t-118 -107.5q84 -45 84 -143q0 -102 -83 -189.5t-209 -87.5q-92 0 -136 47q-37 63 -53 91z" />
<glyph unicode="&#xb4;" d="M733 1290l432 291l62 -129l-457 -258z" />
<glyph unicode="&#xb5;" d="M-274 -188q35 25 77.5 56.5t70.5 70t59.5 75.5t60.5 68q39 33 88 124l70 130l391 741h133l-387 -696q-53 -98 -53 -160q0 -53 36.5 -78.5t98.5 -25.5q119 0 232.5 121.5t281.5 418.5l233 420h148l-291 -514q-84 -145 -84 -276q0 -51 15.5 -83t39.5 -32q47 0 105.5 45 t107.5 90q-6 -8 -26.5 -28.5t-24.5 -26.5q27 33 53 65q31 29 64 60q23 6 32 6q33 0 33 -23q0 -8 -6 -24q-6 -20 -28.5 -48t-39 -55.5t-53.5 -59.5t-76 -62q-68 -74 -157 -74q-78 0 -104.5 44t-36 96t-9.5 93v31.5t2 24.5q-70 -125 -224.5 -231.5t-278.5 -106.5 q-10 0 -53.5 57t-75.5 57q-20 0 -67.5 -51t-130.5 -130t-136.5 -118t-69.5 -39t-19 16.5t-1 31.5z" />
<glyph unicode="&#xb6;" d="M362 948q0 199 178.5 359.5t497.5 160.5h500l-39 -145h-96l-420 -1565h-145l419 1565h-208l-420 -1565h-146l238 887q-12 -2 -26.5 -2h-22.5q-147 0 -228.5 86t-81.5 219z" />
<glyph unicode="&#xb8;" d="M244 -362l45 65l30 -10q16 -8 91 -15q119 0 131 47.5t12 63.5q0 53 -70 53q-29 0 -49 -3t-33 -5l-10 10l92 156l82 -2l-51 -84q35 6 64 6q133 0 133 -110q0 -20 -12.5 -65.5t-91.5 -92.5t-204 -47q-43 0 -79.5 6t-79.5 27z" />
<glyph unicode="&#xb9;" d="M330 815l16 66h137l162 604l-156 -41l17 57l237 72l-186 -692h129l-16 -66h-340z" />
<glyph unicode="&#xba;" d="M225 811l25 90h549l-25 -90h-549zM381 1149q0 63 23.5 152.5t100.5 175.5t179 86q84 0 125 -52.5t41 -136.5q0 -119 -74 -236.5t-180 -142.5q-14 -4 -35.5 -6t-36.5 -2q-76 0 -109.5 43t-33.5 119zM455 1182q0 -57 22.5 -91t73.5 -34q16 0 39 6q49 6 89.5 53t65.5 137 q8 25 15.5 53.5t7.5 61.5q0 57 -29.5 87t-76.5 30q-80 0 -122 -57.5t-63.5 -123t-21.5 -122.5z" />
<glyph unicode="&#xbb;" d="M111 291l567 434l-330 453l123 96l401 -549l-692 -532zM594 291l567 434l-330 453l123 96l402 -549l-692 -532z" />
<glyph unicode="&#xbc;" d="M37 106l1075 1467h115l-1084 -1467h-106zM115 823l18 66h137l162 604l-156 -41l15 57l237 72l-184 -692h129l-18 -66h-340zM436 252l15 53l401 508h96l-133 -500h105l-17 -61h-104l-54 -197h-73l53 197h-289zM532 313h209l109 412z" />
<glyph unicode="&#xbd;" d="M-16 98l1108 1491h131l-1133 -1491h-106zM111 823l18 66h137l162 604l-158 -41l17 57l237 72l-184 -692h129l-18 -66h-340zM449 53l8 33q33 115 89 179.5t166.5 142t160 119.5t59.5 83t10 58q0 76 -84 75q-61 0 -106 -44t-68 -109h-78q33 96 104.5 155.5t166.5 59.5 q145 0 145 -123q0 -29 -15.5 -85t-84 -111.5t-140.5 -102.5l-65 -51q-70 -49 -111 -96.5t-61 -114.5h336l-19 -68h-413z" />
<glyph unicode="&#xbe;" d="M41 123l1061 1450h115l-1070 -1450h-106zM96 930l76 41q14 -57 49 -85t82 -28q74 0 135.5 57.5t61.5 139.5q0 12 -4 37q-10 41 -48 61.5t-86 20.5q-16 0 -24 -3l18 68q92 0 152.5 58.5t60.5 119.5q0 20 -19.5 55t-84.5 35q-41 0 -84 -24.5t-86 -81.5l-53 37q43 45 101 90 t140 45q35 0 60.5 -9.5t66.5 -40t41 -91.5q0 -53 -40 -111.5t-117 -108.5q84 -45 84 -143q0 -102 -83 -189t-210 -87q-92 0 -135 47q-37 63 -54 90zM424 252l14 53l402 508h96l-133 -500h104l-16 -61h-105l-53 -197h-74l54 197h-289zM520 313h209l111 412z" />
<glyph unicode="&#xbf;" d="M315 186q0 25 16.5 126.5t77 164t200 160.5t165.5 201l47 178h146l-70 -258q-25 -90 -169 -190.5t-196.5 -151.5t-52.5 -191q0 -70 45 -105.5t117 -35.5q90 0 170 57.5t109 165.5h145q-47 -176 -177 -269t-280 -93q-125 0 -209 64.5t-84 176.5zM786 1292q0 20 11.5 64.5 t71 91.5t126.5 47q55 0 89 -34t34 -87q0 -16 -6 -39q-18 -66 -76.5 -111.5t-126.5 -45.5q-55 0 -89 31.5t-34 82.5z" />
<glyph unicode="&#xc0;" d="M57 0l944 1597l89 -1597h-162l-10 436h-451l-248 -436h-162zM57 0h162l248 436h451l10 -436h162l-89 1597zM532 565l353 596l35 -596h-388zM532 565h388l-35 596zM727 1993l133 129l289 -307l-113 -113z" />
<glyph unicode="&#xc1;" d="M37 31l944 1597l88 -1597h-162l-12 436h-451l-245 -436h-162zM512 596h387l-35 596zM967 1804l432 291l61 -129l-454 -258z" />
<glyph unicode="&#xc2;" d="M-2 20l944 1598l88 -1598h-162l-12 437h-450l-246 -437h-162zM473 586h387l-35 596zM684 1638l295 390h113l96 -398h-139l-50 219l-165 -211h-150z" />
<glyph unicode="&#xc3;" d="M29 10l944 1598l88 -1598h-162l-10 436h-451l-248 -436h-161zM420 1704q100 131 186 200.5t211 69.5q66 0 136.5 -21.5t136 -57t100.5 -52t72 -16.5q57 0 126.5 45t163.5 156l78 -82q-109 -139 -208 -201t-199 -62q-47 0 -92.5 13.5t-153 76t-193.5 62.5 q-78 0 -160.5 -82t-127.5 -129zM504 575h387l-35 596z" />
<glyph unicode="&#xc4;" d="M31 33l944 1597l88 -1597h-162l-12 436h-451l-245 -436h-162zM506 598h387l-35 596zM641 1800q0 20 12.5 65.5t72.5 93.5t128 48q57 0 92 -32.5t35 -88.5q0 -20 -6 -43q-18 -68 -78.5 -116t-128.5 -48q-57 0 -92 33t-35 88zM1067 1800q0 20 12.5 65.5t72.5 93.5t128 48 q57 0 92 -32.5t35 -88.5q0 -20 -6 -43q-18 -68 -78.5 -116t-128.5 -48q-57 0 -92 33t-35 88z" />
<glyph unicode="&#xc5;" d="M45 16l944 1598l88 -1598h-162l-12 437h-450l-246 -437h-162zM520 582h387l-35 596zM879 1810q0 16 10 60.5t68.5 93.5t125.5 49q55 0 91 -33.5t36 -87.5q0 -7 -4 -32q-16 -70 -73.5 -117t-124.5 -47q-57 0 -93 31.5t-36 82.5zM950 1825q0 -31 19.5 -52.5t52.5 -21.5 q37 0 71 32t46 75q10 37 -11.5 61.5t-62.5 24.5q-39 0 -70.5 -28t-38 -51.5t-6.5 -39.5z" />
<glyph unicode="&#xc6;" d="M-29 33l850 1458l740 2l-31 -121h-572l-143 -532h451l-35 -129h-451l-147 -549h588l-35 -129h-729l118 436h-196l-246 -436h-162zM446 598h162l129 489z" />
<glyph unicode="&#xc7;" d="M154 340q0 106 7 168.5t42 185.5q90 432 285.5 639t402.5 207q125 0 209 -75.5t84 -192.5q0 -29 -2 -45.5t-13 -48.5h-145q6 31 6 57q0 82 -44 124t-118 42q-115 0 -236.5 -102.5t-190 -301t-99.5 -310.5t-31 -247q0 -86 18.5 -162.5t67.5 -112.5t119 -36 q102 0 195.5 72.5t115.5 185.5h162q-55 -180 -201.5 -286.5t-308.5 -106.5l-51 -80q35 6 64 6q133 0 133 -110q0 -20 -12.5 -65.5t-91.5 -92.5t-204 -47q-43 0 -79.5 6t-79.5 27l45 65l30 -10q16 -8 91 -15q119 0 131 47.5t12 63.5q0 53 -70 53q-29 0 -49 -3t-33 -5l-10 10 l105 156q-113 18 -184.5 106.5t-71.5 233.5z" />
<glyph unicode="&#xc8;" d="M6 0l393 1468h791l-35 -129h-629l-141 -532h451l-35 -129h-451l-147 -549h645l-35 -129h-807zM530 1872l134 129l288 -307l-112 -113z" />
<glyph unicode="&#xc9;" d="M8 0l393 1468h791l-35 -129h-629l-143 -532h451l-35 -129h-451l-147 -549h645l-33 -129h-807zM770 1692l432 290l62 -129l-457 -258z" />
<glyph unicode="&#xca;" d="M29 -12l393 1468h790l-34 -129h-629l-143 -532h450l-35 -129h-450l-146 -549h645l-34 -129h-807zM551 1542l295 389h112l97 -397h-140l-49 219l-166 -211h-149z" />
<glyph unicode="&#xcb;" d="M-35 0l393 1468h791l-35 -129h-629l-141 -532h451l-35 -129h-451l-147 -549h645l-35 -129h-807zM463 1735q0 20 12 65t72.5 93.5t128.5 48.5q57 0 92 -33t35 -88q0 -20 -6 -43q-18 -66 -81 -115t-128 -49q-57 0 -91 33.5t-34 87.5zM889 1735q0 20 12 65t72.5 93.5 t128.5 48.5q57 0 92 -33t35 -88q0 -20 -6 -43q-18 -66 -81 -115t-128 -49q-57 0 -91 33.5t-34 87.5z" />
<glyph unicode="&#xcc;" d="M70 0l34 129h211l324 1210h-211l35 129h549l-35 -129h-209l-324 -1210h209l-35 -129h-548zM471 1882l133 129l289 -307l-113 -113z" />
<glyph unicode="&#xcd;" d="M74 0l35 129h210l324 1210h-211l35 129h549l-35 -129h-209l-323 -1210h208l-34 -129h-549zM754 1651l432 291l61 -130l-456 -258z" />
<glyph unicode="&#xce;" d="M31 0l35 129h210l324 1210h-211l35 129h549l-35 -129h-209l-323 -1210h208l-34 -129h-549zM465 1567l295 389h112l97 -397h-140l-49 219l-166 -211h-149z" />
<glyph unicode="&#xcf;" d="M31 0l35 129h210l324 1210h-211l35 129h549l-35 -129h-209l-323 -1210h208l-34 -129h-549zM387 1731q0 16 12.5 60t75 93t127.5 49q57 0 91 -33.5t34 -87.5q0 -20 -6 -43q-16 -66 -77.5 -114.5t-129.5 -48.5q-57 0 -92 34.5t-35 90.5zM813 1731q0 16 12.5 60t75 93 t127.5 49q57 0 91 -33.5t34 -87.5q0 -20 -6 -43q-16 -66 -77.5 -114.5t-129.5 -48.5q-57 0 -92 34.5t-35 90.5z" />
<glyph unicode="&#xd0;" d="M-4 696l37 140h209l170 632h419q158 0 232 -106.5t74 -271.5q0 -109 -55.5 -317t-95.5 -328.5t-151.5 -264t-232.5 -168t-186.5 -28.5t-141.5 -4q-45 0 -133 2t-127 2l176 661l15 51h-209zM215 129q92 -10 152 -10q213 0 324.5 106.5t176.5 354.5q39 119 70 254t31 239 q0 117 -40 183.5t-136 66.5h-258l-132 -487h228l-37 -140h-227z" />
<glyph unicode="&#xd1;" d="M31 8l393 1469h162l168 -1115l299 1115h145l-393 -1469h-129l-189 1161l-311 -1161h-145zM283 1669q100 131 186 200.5t211 69.5q66 0 136.5 -21.5t136 -57t100 -52t71.5 -16.5q57 0 127 45t164 156l78 -82q-109 -139 -208 -200.5t-200 -61.5q-47 0 -92 13t-152.5 75.5 t-193.5 62.5q-80 0 -163 -82t-128 -129z" />
<glyph unicode="&#xd2;" d="M59 369q0 301 144.5 665.5t337.5 468.5q117 57 229 58q141 0 230.5 -96.5t89.5 -276.5q0 -90 -25 -201q-61 -367 -177 -588t-250 -312t-267 -91q-78 0 -141.5 29.5t-96.5 74.5q-37 35 -55.5 104.5t-18.5 164.5zM211 377q0 -55 25.5 -149.5t169.5 -94.5q115 0 230 128 t191 386q49 141 77 271.5t28 230.5q0 125 -45 193.5t-144 68.5q-31 0 -158.5 -26.5t-250.5 -379t-123 -628.5zM465 1933l133 129l287 -307l-111 -113z" />
<glyph unicode="&#xd3;" d="M61 348q0 301 144.5 665.5t337.5 469.5q117 57 229 57q141 0 230.5 -96t89.5 -277q0 -89 -25 -200q-61 -367 -177 -588t-250 -312.5t-267 -91.5q-78 0 -141.5 30t-96.5 75q-37 35 -55.5 104.5t-18.5 163.5zM213 356q0 -55 25.5 -149t169.5 -94q115 0 230 128t191 386 q51 145 79 273t28 228q0 127 -46 195t-145 68q-31 0 -158.5 -27t-250.5 -379t-123 -629zM780 1722l432 291l62 -129l-457 -258z" />
<glyph unicode="&#xd4;" d="M53 369q0 301 144.5 665.5t337.5 468.5q117 57 229 58q141 0 230 -96.5t89 -276.5q1 -90 -24 -201q-61 -367 -177 -588t-250 -312t-267 -91q-78 0 -141.5 29.5t-96.5 74.5q-37 35 -55.5 104.5t-18.5 164.5zM205 377q0 -55 25.5 -149.5t168.5 -94.5q115 0 230.5 128 t191.5 386q49 141 77 271.5t28 230.5q0 127 -46 194.5t-145 67.5q-31 0 -125 -19.5t-197.5 -203.5t-155.5 -420t-52 -391zM551 1604l295 389h112l97 -398h-140l-49 220l-166 -211h-149z" />
<glyph unicode="&#xd5;" d="M23 328q0 301 144 665.5t337 468.5q117 57 229 58q141 0 230.5 -96.5t89.5 -276.5q0 -90 -25 -201q-61 -367 -177 -588t-250 -312t-267 -91q-78 0 -141.5 29.5t-96.5 74.5q-37 35 -55 104.5t-18 164.5zM174 336q0 -55 25.5 -149.5t169.5 -94.5q115 0 230.5 128t191.5 386 q49 141 76.5 271.5t27.5 230.5q0 127 -46 194.5t-144 67.5q-31 0 -125.5 -19.5t-197.5 -203.5t-155.5 -419.5t-52.5 -391.5zM199 1614q100 131 186 200.5t211 69.5q66 0 136.5 -21.5t136 -57.5t100.5 -52t71 -16q57 0 127 45t164 155l78 -82q-109 -139 -208 -200.5 t-200 -61.5q-47 0 -92 13.5t-152.5 76t-195.5 62.5q-78 0 -161 -82t-128 -129z" />
<glyph unicode="&#xd6;" d="M47 350q0 303 144.5 666.5t300 444.5t268.5 81q141 0 230 -95t89 -273q0 -45 -6 -95.5t-20 -109.5q-88 -532 -284 -762t-411 -230q-78 0 -141 30t-96 75q-37 35 -55.5 104.5t-18.5 163.5zM201 358q0 -55 25.5 -149t168.5 -94q115 0 230.5 128t191.5 386q49 141 77 271 t28 230q0 127 -46.5 195t-144.5 68q-31 0 -125 -19.5t-197.5 -204t-155.5 -420t-52 -391.5zM428 1767q0 20 11.5 64.5t72.5 93.5t129 49q57 0 92 -34.5t35 -90.5q0 -16 -6 -39q-18 -66 -81 -114.5t-128 -48.5q-57 0 -91 33.5t-34 86.5zM854 1767q0 20 11.5 64.5t72.5 93.5 t129 49q57 0 92 -34.5t35 -90.5q0 -16 -6 -39q-18 -66 -81 -114.5t-128 -48.5q-57 0 -91 33.5t-34 86.5z" />
<glyph unicode="&#xd7;" d="M0 12l1098 1039h133l-1110 -1047zM326 1061h141l516 -1063h-141z" />
<glyph unicode="&#xd8;" d="M-63 8l208 244q-4 20 -6 52t-2 63q0 301 144.5 664.5t339.5 469.5q117 57 229 58q195 0 278 -168l101 116h145l-211 -243q6 -37 6 -78q0 -53 -7 -100.5t-57 -340t-245.5 -522t-410.5 -229.5q-78 0 -141.5 29.5t-96.5 74.5l-25 31l-104 -121h-145zM291 420l713 825 q-16 80 -60.5 122t-120.5 42q-31 0 -154.5 -25.5t-250.5 -355t-127 -608.5zM305 266q25 -63 72 -98t108 -35q115 0 229.5 126t192.5 386q49 139 76 245.5t27 192.5z" />
<glyph unicode="&#xd9;" d="M70 274q0 43 6 89.5t22 105.5l269 1006h153l-291 -1088q-14 -55 -14 -104q0 -92 56.5 -137.5t138.5 -45.5q133 0 216 84t119 222l285 1069h154l-291 -1088q-51 -197 -202.5 -306.5t-315.5 -109.5q-121 0 -213 69t-92 234zM479 1892l133 129l289 -307l-113 -112z" />
<glyph unicode="&#xda;" d="M20 272q0 90 29 197l268 1006h154l-291 -1088q-14 -55 -14 -104q0 -94 55 -138.5t137 -44.5q133 0 217 86t119 220l287 1069h154l-291 -1088q-53 -195 -205 -305.5t-313 -110.5q-121 0 -213.5 69t-92.5 232zM715 1692l432 290l61 -129l-456 -258z" />
<glyph unicode="&#xdb;" d="M47 283q0 90 29 196l268 1006h154l-291 -1088q-14 -55 -14 -104q0 -94 55 -138t137 -44q133 0 217 86t119 219l287 1069h153l-291 -1088q-51 -197 -202.5 -306t-315.5 -109q-121 0 -213 68.5t-92 232.5zM551 1591l295 389h112l97 -397h-140l-49 219l-166 -211h-149z" />
<glyph unicode="&#xdc;" d="M76 274q0 43 6 89.5t22 105.5l271 1006h153l-290 -1088q-14 -55 -15 -104q0 -94 55.5 -138.5t137.5 -44.5q133 0 216 84t120 222l286 1069h154l-291 -1088q-53 -195 -204.5 -305.5t-315.5 -110.5q-121 0 -213 69t-92 234zM485 1731q0 16 12.5 60t75 93t127.5 49 q57 0 91 -33.5t34 -87.5q0 -20 -6 -43q-16 -66 -77.5 -114.5t-129.5 -48.5q-57 0 -92 34.5t-35 90.5zM911 1731q0 16 12.5 60t75 93t127.5 49q57 0 91 -33.5t34 -87.5q0 -20 -6 -43q-16 -66 -77.5 -114.5t-129.5 -48.5q-57 0 -92 34.5t-35 90.5z" />
<glyph unicode="&#xdd;" d="M190 0l170 629l-161 839h161l113 -661l467 661h162l-596 -839l-170 -629h-146zM666 1667l432 291l61 -129l-457 -258z" />
<glyph unicode="&#xde;" horiz-adv-x="1351" d="M25 -20l24 90h248l387 1443h-248l23 91h612l-22 -91h-248l-51 -188h229q160 0 234.5 -71.5t74.5 -188.5q0 -61 -33.5 -187t-178 -224.5t-351.5 -98.5h-180l-131 -485h248l-25 -90h-612zM565 627h168q182 0 289.5 82t146.5 227q18 72 19 123q0 102 -61.5 148t-157.5 46 h-236z" />
<glyph unicode="&#xdf;" d="M274 0l312 1161q47 172 164.5 261t250.5 89q86 0 148.5 -36.5t87.5 -104.5q29 -74 29 -149q0 -113 -62.5 -220.5t-202.5 -209.5q70 -41 102 -110t32 -155q0 -195 -136.5 -376t-306.5 -181q-104 0 -196 80l96 113q55 -61 125 -62q98 0 181 116t83 245q0 106 -70.5 177 t-220.5 71l35 129q182 25 281.5 119t99.5 221q0 94 -46 146t-116 52q-59 0 -113.5 -41t-87.5 -125l-323 -1210h-146z" />
<glyph unicode="&#xe0;" d="M160 225q0 203 142 352.5t323 149.5q59 0 113.5 -11t123.5 -38q33 94 33 160q0 68 -35 104.5t-112 36.5q-59 0 -126 -16.5t-169 -59.5l-13 129q76 35 164 59.5t172 24.5q119 0 187.5 -54t68.5 -188q-2 -20 -2 -32v-19q-10 -80 -84 -369.5t-74 -453.5l-153 -33l-12 129 q-16 -31 -120 -75t-200 -44q-100 0 -163.5 57.5t-63.5 190.5zM315 250q0 -68 35 -103.5t96 -35.5q70 0 154 50t162 146l57 209q-59 80 -188 80q-84 0 -157 -42t-118 -134q-41 -96 -41 -170zM524 1534l133 129l289 -307l-112 -113z" />
<glyph unicode="&#xe1;" d="M80 225q0 203 143.5 352.5t323.5 149.5q111 0 235 -49q33 94 33 160q0 68 -35 104.5t-112 36.5q-57 0 -124 -16.5t-169 -59.5l-13 129q76 35 164 59.5t172 24.5q119 0 187.5 -54t68.5 -185q0 -12 -2 -29t-9 -72t-59.5 -258t-70.5 -296t-18 -222l-156 -33l-12 129 q-16 -31 -120 -75t-200 -44q-100 0 -163.5 57.5t-63.5 190.5zM236 250q0 -68 35.5 -103.5t97.5 -35.5q70 0 153.5 50t161.5 146l55 209q-59 80 -188 80q-84 0 -156.5 -42t-118.5 -134q-41 -96 -40 -170zM692 1323l432 291l62 -129l-457 -258z" />
<glyph unicode="&#xe2;" d="M127 233q0 203 143.5 352.5t323.5 149.5q59 0 113.5 -11t123.5 -38q31 98 31 158q0 143 -149 143q-59 0 -125 -16.5t-166 -59.5l-12 129q76 35 164 59.5t171 24.5q119 0 187.5 -54t68.5 -187q-2 -20 -2 -33v-19q-10 -80 -83.5 -369.5t-73.5 -453.5l-154 -33l-12 129 q-16 -31 -119.5 -74.5t-200.5 -43.5q-102 0 -165.5 56t-63.5 191zM283 258q0 -68 35.5 -103.5t97.5 -35.5q72 0 155.5 49t159.5 147l55 209q-59 80 -188 80q-82 0 -154.5 -42t-116.5 -135t-44 -169zM502 1198l295 389h112l97 -397h-140l-49 219l-166 -211h-149z" />
<glyph unicode="&#xe3;" d="M152 233q0 203 143 352.5t323 149.5q111 0 236 -49q33 94 33 160q0 68 -35 104.5t-113 36.5q-57 0 -123.5 -16.5t-169.5 -59.5l-12 129q76 35 164 59.5t172 24.5q119 0 187.5 -54t68.5 -185q0 -12 -2 -28.5t-8 -68t-53.5 -237.5t-72 -303t-24.5 -240l-155 -33l-13 129 q-16 -31 -119.5 -74.5t-199.5 -43.5q-100 0 -163.5 57t-63.5 190zM266 1260q100 131 186.5 200.5t211.5 69.5q66 0 137 -21.5t137 -57.5t100.5 -52.5t71.5 -16.5q57 0 127 45.5t164 155.5l76 -82q-109 -139 -208.5 -200.5t-199.5 -61.5q-45 0 -90 13.5t-152.5 76 t-195.5 62.5q-78 0 -161 -82t-128 -129zM307 258q0 -68 36 -103.5t97 -35.5q72 0 156 49t160 147l55 209q-59 80 -188 80q-82 0 -155 -42t-117 -135t-44 -169z" />
<glyph unicode="&#xe4;" d="M104 233q0 203 143.5 352.5t323.5 149.5q111 0 236 -49q33 94 33 160q0 68 -35 104.5t-113 36.5q-57 0 -123.5 -16.5t-169.5 -59.5l-12 129q76 35 164 59.5t172 24.5q119 0 187.5 -54t68.5 -185q0 -12 -2 -28.5t-8 -68t-53.5 -237.5t-72 -303t-24.5 -240l-155 -33 l-13 129q-16 -31 -119.5 -74.5t-199.5 -43.5q-100 0 -164 57t-64 190zM260 258q0 -68 36 -103.5t97 -35.5q72 0 156 49t160 147l55 209q-59 80 -189 80q-82 0 -154.5 -42t-116.5 -135t-44 -169zM436 1382q0 20 12.5 64.5t75 93.5t127.5 49q57 0 91 -33.5t34 -87.5 q0 -20 -6 -43q-18 -68 -78.5 -115.5t-128.5 -47.5q-57 0 -92 32.5t-35 87.5zM862 1382q0 20 12.5 64.5t75 93.5t127.5 49q57 0 91 -33.5t34 -87.5q0 -20 -6 -43q-18 -68 -78.5 -115.5t-128.5 -47.5q-57 0 -92 32.5t-35 87.5z" />
<glyph unicode="&#xe5;" d="M152 225q0 203 143 352.5t323 149.5q59 0 113.5 -11t124.5 -38q31 98 31 158q0 143 -150 143q-59 0 -124.5 -16.5t-166.5 -59.5l-12 129q76 35 164 59.5t172 24.5q119 0 187.5 -54t68.5 -188q-2 -20 -2 -32v-19q-10 -80 -84 -369.5t-74 -453.5l-153 -33l-13 129 q-16 -31 -119.5 -75t-199.5 -44q-102 0 -165.5 56.5t-63.5 191.5zM307 250q0 -68 36 -103.5t97 -35.5q72 0 156 49t160 147l55 209q-59 80 -188 80q-82 0 -155 -42t-117 -135t-44 -169zM694 1321q0 18 6 37q14 66 72.5 115t126.5 49q55 0 91 -34t36 -87q0 -8 -4 -33 q-16 -68 -74.5 -116t-126.5 -48q-57 0 -92 31t-35 86zM766 1333q0 -31 19.5 -52t52.5 -21q37 0 70.5 31.5t45.5 74.5q10 37 -11 61.5t-62 24.5q-39 0 -71 -27.5t-38 -51t-6 -40.5z" />
<glyph unicode="&#xe6;" d="M-29 190q0 111 94.5 258.5t280.5 147.5q86 0 191 -39q27 80 26 131q0 55 -27.5 85t-93.5 30q-43 0 -100 -14.5t-133 -47.5l-12 103q55 27 130.5 48t141.5 21q84 0 137 -35.5t66 -117.5q68 80 155.5 127t192.5 47q137 0 191.5 -82t54.5 -201q0 -37 -5.5 -75.5t-13.5 -67.5 l-18 -68h-590q-18 -80 -18 -137q0 -98 49 -143t135 -45q68 0 143.5 25.5t157.5 68.5l22 -111q-106 -43 -190 -65.5t-172 -22.5q-76 0 -139.5 37t-102.5 90q-20 -33 -139 -81t-221 -48q-86 0 -139.5 42t-53.5 140zM94 213q0 -55 29 -85t78 -30q57 0 125 40t131 120l45 168 q-45 66 -152 66q-68 0 -127 -35t-96 -109q-33 -78 -33 -135zM666 543h469q10 51 10 88q0 88 -41 143t-121 55q-102 0 -178 -71.5t-139 -214.5z" />
<glyph unicode="&#xe7;" d="M168 338q0 45 12 98q47 334 237.5 515.5t405.5 181.5q125 0 216 -63.5t118 -182.5l-156 -96q0 92 -65.5 153.5t-163.5 61.5q-119 0 -231.5 -109t-180.5 -332q-33 -92 -32 -176q0 -117 62.5 -189.5t162.5 -72.5q78 0 165 43t185 137l70 -112q-115 -96 -229.5 -146.5 t-211.5 -50.5v-25q6 -45 21.5 -87t15.5 -58q0 -14 -6 -36.5t-16 -38t-35 -32t-61.5 -22.5t-85.5 -6q-41 0 -67 4t-50 20l31 47l22 -8q27 -10 68 -10q47 0 69.5 12.5t29.5 40t7 39.5q0 25 -11 36t-18 56l9 72q-129 20 -208 111.5t-79 224.5z" />
<glyph unicode="&#xe8;" d="M98 328q0 98 47.5 275t208 346t389.5 169q170 0 237 -101.5t67 -250.5q0 -59 -5.5 -95t-17.5 -79l-23 -84h-729q-25 -98 -24 -170q0 -121 61.5 -176.5t165.5 -55.5q86 0 180.5 32t194.5 85l29 -137q-137 -55 -239.5 -82t-211.5 -27q-172 0 -251 94.5t-79 256.5zM305 637 h578q12 55 12 111q0 109 -50 175t-149 66q-123 0 -217 -89t-174 -263zM455 1534l133 129l289 -307l-113 -113z" />
<glyph unicode="&#xe9;" d="M98 328q0 98 46 274t208 346t389 170q170 0 238 -103.5t68 -250.5q0 -57 -5.5 -94t-17.5 -78l-23 -84h-729q-25 -98 -24 -170q0 -121 61.5 -176.5t165.5 -55.5q84 0 178.5 32t194.5 85l29 -137q-135 -55 -238.5 -82t-210.5 -27q-172 0 -251 94.5t-79 256.5zM303 637h578 q12 59 12 113q0 109 -50 174t-149 65q-123 0 -217 -89t-174 -263zM737 1364l432 291l62 -129l-457 -258z" />
<glyph unicode="&#xea;" d="M70 328q0 98 46 274t207.5 346t389.5 170q170 0 237.5 -103.5t67.5 -250.5q0 -57 -5 -94t-18 -78l-22 -84h-729q-25 -98 -25 -170q0 -121 61.5 -176.5t165.5 -55.5q84 0 178.5 32t194.5 85l29 -137q-135 -55 -238.5 -82t-210.5 -27q-172 0 -250.5 94.5t-78.5 256.5z M274 637h578q14 55 14 115q0 106 -50 171.5t-148 65.5q-125 0 -219.5 -89t-174.5 -263zM477 1198l295 389h113l96 -397h-139l-49 219l-166 -211h-150z" />
<glyph unicode="&#xeb;" d="M63 328q0 98 46.5 274t208 346t389.5 170q170 0 237.5 -103.5t67.5 -250.5q0 -57 -5.5 -94t-17.5 -78l-22 -84h-729q-25 -98 -25 -170q0 -121 61.5 -176.5t165.5 -55.5q84 0 178.5 32t194.5 85l29 -137q-135 -55 -238.5 -82t-210.5 -27q-172 0 -251 94.5t-79 256.5z M270 637h578q12 55 12 111q0 109 -50 175t-148 66q-125 0 -219.5 -88t-172.5 -264zM371 1374q0 20 11 64.5t72.5 93.5t129.5 49q57 0 92 -35t35 -90q0 -16 -6 -39q-18 -66 -81 -115t-128 -49q-57 0 -91 34t-34 87zM797 1374q0 20 11 64.5t72.5 93.5t129.5 49q57 0 92 -35 t35 -90q-1 -16 -7 -39q-18 -66 -80.5 -115t-127.5 -49q-57 0 -91 34t-34 87z" />
<glyph unicode="&#xec;" d="M373 969l35 129h466l-290 -1082h-144l256 953h-323zM379 1550l133 129l287 -307l-111 -112z" />
<glyph unicode="&#xed;" d="M332 961l35 129h467l-291 -1082h-144l256 953h-323zM700 1364l433 291l61 -129l-457 -258z" />
<glyph unicode="&#xee;" d="M379 944l33 129h467l-289 -1081h-144l256 952h-323zM416 1186l295 389h112l97 -397h-140l-49 219l-166 -211h-149z" />
<glyph unicode="&#xef;" d="M324 952l34 129h467l-288 -1081h-144l254 952h-323zM365 1382q0 20 12 64.5t74.5 93.5t128.5 49q57 0 91 -33.5t34 -87.5q-1 -20 -7 -43q-18 -68 -78.5 -115.5t-127.5 -47.5q-57 0 -92 32.5t-35 87.5zM791 1382q0 20 12 64.5t74.5 93.5t128.5 49q57 0 90.5 -33.5 t33.5 -87.5q0 -20 -6 -43q-18 -68 -78.5 -115.5t-127.5 -47.5q-57 0 -92 32.5t-35 87.5z" />
<glyph unicode="&#xf0;" d="M133 289q0 82 39 229.5t183.5 296t303.5 148.5q82 0 156 -41t139 -131q12 43 13 100q0 180 -103 366l-266 -143l-41 98l252 136q-63 84 -142 134t-165 50q-109 0 -213 -78l24 145q59 29 122 43.5t120 14.5q121 0 229.5 -58.5t186.5 -162.5l227 120l41 -98l-213 -112 q43 -86 65.5 -179.5t22.5 -208.5q0 -88 -26.5 -252.5t-144.5 -405.5t-265.5 -300t-237.5 -59q-141 0 -224 95t-83 253zM279 295q0 -106 50 -160.5t111 -54.5q180 0 295 168t115 334q0 45 -12 80q-29 88 -78 130t-111 42q-90 0 -177 -76t-122 -178q-37 -82 -54 -155t-17 -130 z" />
<glyph unicode="&#xf1;" d="M2 0l148 549q35 129 61.5 271.5t38.5 275.5h143l-28 -226q225 242 442 242q84 0 134 -48t50 -144q0 -33 -2 -51.5t-12 -61.5l-217 -807h-146l203 758q6 23 11.5 53.5t5.5 50.5q0 59 -26 87t-73 28q-70 0 -158 -56.5t-157 -146.5q-57 -68 -97 -169t-86.5 -270t-89.5 -335 h-145zM162 1251q100 131 186 201t211 70q66 0 136.5 -21.5t136 -57.5t100.5 -52.5t72 -16.5q57 0 126.5 45t163.5 156l78 -82q-109 -139 -208 -200.5t-199 -61.5q-47 0 -92.5 13t-153 75.5t-193.5 62.5q-80 0 -162.5 -81.5t-127.5 -129.5z" />
<glyph unicode="&#xf2;" d="M199 291q0 127 47 303t199.5 347t359.5 171q166 0 248 -105.5t82 -273.5q0 -238 -144.5 -469t-357.5 -280q-84 -18 -148 -19q-150 0 -218 87t-68 239zM348 354q0 -117 46 -183.5t151 -66.5h43q23 6 74 13.5t137 108t133 274.5q47 129 47 227q0 115 -60.5 175.5 t-152.5 60.5q-74 0 -144.5 -37t-128 -116t-101.5 -211t-44 -245zM520 1534l133 129l289 -307l-113 -113z" />
<glyph unicode="&#xf3;" d="M188 293q0 121 47.5 300t200 349t359.5 170q166 0 247.5 -105.5t81.5 -273.5q0 -238 -146 -469t-357 -280q-84 -18 -148 -19q-150 0 -217.5 87t-67.5 241zM336 354q0 -117 46 -183.5t153 -66.5h43q23 6 73.5 13.5t137 108t133.5 274.5q47 129 47 227q0 117 -60.5 176.5 t-154.5 59.5q-74 0 -143.5 -36t-128 -116t-102.5 -211t-44 -246zM809 1364l432 291l62 -129l-457 -258z" />
<glyph unicode="&#xf4;" d="M147 283q0 121 47.5 300t200 349t359.5 170q166 0 247.5 -105.5t81.5 -273.5q0 -238 -146 -469.5t-357 -280.5q-84 -18 -148 -18q-150 0 -217.5 87t-67.5 241zM295 344q0 -117 46 -183.5t153 -66.5h43q23 6 74 13.5t137 107.5t133 274q47 129 47 228q0 117 -60.5 176 t-154.5 59q-74 0 -143.5 -35.5t-128 -115.5t-102.5 -211t-44 -246zM526 1174l295 389h113l96 -398h-139l-49 219l-166 -210h-150z" />
<glyph unicode="&#xf5;" d="M123 291q0 127 47 303t199.5 347t359.5 171q166 0 248 -105.5t82 -273.5q0 -238 -144.5 -469t-357.5 -280q-84 -18 -147 -19q-150 0 -218.5 87t-68.5 239zM203 1251q100 131 186 201t211 70q66 0 137.5 -21.5t137 -57.5t100.5 -52.5t72 -16.5q57 0 126.5 45t163.5 156 l76 -82q-109 -139 -208 -200.5t-199 -61.5q-45 0 -90.5 13t-153 75.5t-195.5 62.5q-78 0 -160.5 -81.5t-127.5 -129.5zM272 354q0 -117 46.5 -183.5t150.5 -66.5h43q23 6 75 13.5t138 107t131 275.5q47 129 47 227q0 115 -60.5 175.5t-152.5 60.5q-74 0 -144.5 -37 t-128 -116t-101.5 -211t-44 -245z" />
<glyph unicode="&#xf6;" d="M135 301q0 121 47 300t200 349t359 170q166 0 248 -105.5t82 -273.5q0 -238 -146.5 -469t-357.5 -280q-84 -18 -147 -19q-150 0 -217.5 87t-67.5 241zM283 362q0 -117 46 -183t152 -66h43q23 6 74 13t137 107.5t133 274.5q47 129 47 227q0 117 -60 176.5t-155 59.5 q-74 0 -143.5 -36t-127.5 -116t-102 -211t-44 -246zM432 1382q0 20 11.5 64.5t73 93.5t128.5 49q57 0 92 -34.5t35 -90.5q0 -16 -6 -39q-18 -66 -80.5 -114.5t-128.5 -48.5q-57 0 -91 33.5t-34 86.5zM858 1382q0 20 11.5 64.5t73 93.5t128.5 49q57 0 92 -34.5t35 -90.5 q0 -16 -6 -39q-18 -66 -80.5 -114.5t-128.5 -48.5q-57 0 -91 33.5t-34 86.5z" />
<glyph unicode="&#xf7;" horiz-adv-x="6213" d="M283 475h137q25 -188 104.5 -282.5t220.5 -94.5q119 0 215.5 87t96.5 249v31q-4 20 -10.5 89t-259 181.5t-356 184t-103.5 303.5q0 41 12 142t129 187t270 86q174 0 302 -104t128 -289h-149q0 123 -98.5 206t-219.5 83q-100 0 -165.5 -65.5t-65.5 -202.5q-2 -18 -2 -52 q0 -180 190 -280q178 -80 357 -158q192 -112 192 -319q0 -229 -141 -362.5t-330 -133.5q-188 0 -321 133t-133 381zM1384 717q0 158 71 323.5t288 186.5q190 0 294.5 -129t104.5 -348q0 -346 -65.5 -570.5t-333.5 -224.5q-213 0 -286 187.5t-73 574.5zM1509 698 q0 -274 35 -453t199 -179q152 0 213 158.5t61 369.5q0 248 -54 381t-220 133q-129 0 -181.5 -142.5t-52.5 -267.5zM2271 1075v119h137v188q0 170 71 212t216 42v-116q-100 0 -124.5 -27t-24.5 -131v-168h137v-119h-137v-1075h-138v1075h-137zM2728 1075v119h119v358h135 v-358h158v-119h-158v-854q0 -129 78 -129q33 0 80 25v-117q-25 -10 -48.5 -17.5t-56.5 -7.5q-80 0 -134 61.5t-54 217.5v821h-119zM3310 0v1624h149v-809l567 809h189l-481 -686l495 -938h-170l-424 803l-176 -223v-580h-149zM4325 561q0 356 91.5 503.5t269.5 147.5 q170 0 258 -139t88 -360v-82q-6 -35 -8 -51h-561q4 -172 37.5 -343t185.5 -171q104 0 157.5 86t53.5 188q0 20 -2 31h129q0 -213 -97.5 -314.5t-240.5 -101.5q-231 0 -296 187.5t-65 418.5zM4463 698h432q0 223 -58.5 307.5t-150.5 84.5q-111 0 -167 -89.5t-56 -302.5z M5143 1194h135l262 -973l254 973h137l-379 -1376q-23 -109 -100.5 -169.5t-196.5 -60.5q-33 0 -74 6v119q31 -6 60 -6q92 0 152.5 81t60.5 198z" />
<glyph unicode="&#xf8;" d="M20 35l154 145q-8 49 -9 72.5t-1 38.5q0 123 47 302t199.5 349t359.5 170q90 0 155.5 -29.5t106.5 -89.5l78 76h131l-168 -160q25 -78 25 -168q0 -242 -144.5 -475t-291 -267t-211.5 -34q-88 0 -148.5 32t-95.5 91l-55 -53h-132zM311 354q0 -29 2 -43l590 561 q-27 43 -74 67t-100 24q-74 0 -143.5 -36t-128 -116t-102.5 -210t-44 -247zM338 211q25 -51 66.5 -79t109.5 -28h39q23 6 74 13.5t137 108t133 274.5q23 63 34 119.5t11 105.5q0 14 -2 30.5t-2 24.5z" />
<glyph unicode="&#xf9;" d="M88 182q0 78 27 172l194 727h146l-195 -727q-20 -74 -20 -129q0 -131 106 -131q115 0 260.5 143.5t198.5 342.5l133 501h145q-31 -137 -103.5 -375.5t-106 -391t-33.5 -330.5h-129l2 194q-113 -111 -224.5 -168t-203.5 -57t-144.5 57.5t-52.5 171.5zM422 1534l133 129 l287 -307l-111 -113z" />
<glyph unicode="&#xfa;" d="M88 182q0 78 27 172l194 727h146l-195 -727q-20 -74 -20 -129q0 -131 106 -131q115 0 260.5 143.5t198.5 342.5l133 501h145q-27 -121 -99.5 -356.5t-108 -399t-35.5 -341.5h-129l2 194q-113 -111 -224.5 -168t-203.5 -57t-144.5 57.5t-52.5 171.5zM713 1372l432 291 l61 -129l-454 -258z" />
<glyph unicode="&#xfb;" d="M59 182q0 78 27 172l195 727h145l-195 -727q-20 -74 -20 -129q0 -131 106 -131q115 0 260.5 143.5t198.5 342.5l133 501h146q-31 -137 -103.5 -375.5t-106.5 -391t-34 -330.5h-129l2 194q-113 -111 -224.5 -168t-203.5 -57t-144.5 57.5t-52.5 171.5zM428 1210l295 389 h113l96 -397h-139l-50 219l-165 -211h-150z" />
<glyph unicode="&#xfc;" d="M55 182q0 78 27 172l194 727h146l-195 -727q-20 -74 -20 -129q0 -131 106 -131q115 0 260.5 143.5t198.5 342.5l133 501h146q-31 -137 -104 -375.5t-106.5 -391t-33.5 -330.5h-129l2 194q-113 -111 -224.5 -168t-203.5 -57t-144.5 57.5t-52.5 171.5zM346 1378 q0 16 12.5 60.5t75 93.5t127.5 49q57 0 91 -34t34 -87q0 -20 -6 -43q-16 -66 -77.5 -115t-129.5 -49q-57 0 -92 35t-35 90zM772 1378q0 16 12.5 60.5t75 93.5t127.5 49q57 0 91 -34t34 -87q0 -20 -6 -43q-16 -66 -77.5 -115t-129.5 -49q-57 0 -92 35t-35 90z" />
<glyph unicode="&#xfd;" d="M-160 -96l148 67q6 -74 26.5 -125t75.5 -51q57 0 105.5 49.5t109.5 135.5l117 165l-98 951h165l66 -746l485 746h164l-682 -1028q-78 -119 -139 -197t-148.5 -141.5t-179.5 -63.5q-102 0 -158.5 67.5t-56.5 170.5zM754 1307l432 290l61 -129l-456 -258z" />
<glyph unicode="&#xfe;" d="M-115 -315l23 90h338l389 1448l-383 -101l27 99l509 137l-118 -440h239q160 0 234 -72t74 -191q0 -61 -35 -188t-178.5 -225.5t-348.5 -98.5h-182l-2 -8h-10l-99 -360h328l-22 -90h-783zM492 217h167q182 0 290 82t147 227q18 72 18 123q0 102 -61.5 148.5t-157.5 46.5 h-236z" />
<glyph unicode="&#xff;" d="M-131 -96l145 67q10 -82 28.5 -129t74.5 -47q55 0 107 52.5t110 132.5l115 165l-97 951h166l66 -746l485 746h164l-682 -1028q-121 -182 -227.5 -292t-239.5 -110q-102 0 -158.5 67.5t-56.5 170.5zM465 1374q0 20 11 64.5t72.5 93.5t129.5 49q57 0 92 -35t35 -90 q0 -16 -6 -39q-18 -66 -81 -115t-128 -49q-57 0 -91 34t-34 87zM891 1374q0 20 11 64.5t72.5 93.5t129.5 49q57 0 92 -35t35 -90q0 -16 -6 -39q-18 -66 -81 -115t-128 -49q-57 0 -91 34t-34 87z" />
<glyph unicode="&#x152;" d="M10 311q0 248 118 543t275 381q100 47 187 47q145 0 217 -121l27 101h421l-28 -111h-283l-123 -455h215l-30 -110h-213l-127 -471h295l-29 -113h-434l30 117q-61 -55 -130.5 -84t-131.5 -29q-66 0 -117 23.5t-79 62.5q-59 57 -60 219zM135 317q0 -47 22.5 -122.5 t135.5 -75.5q94 0 187 104.5t155 313.5l20 63l41 154q25 109 25 196q0 102 -36 155.5t-118 53.5q-25 0 -129 -21.5t-203.5 -306t-99.5 -514.5z" />
<glyph unicode="&#x153;" d="M-8 266q0 94 35.5 232.5t147.5 270.5t263 132q94 0 150.5 -46t79.5 -130q63 84 146 132t181 48q125 0 173.5 -77.5t48.5 -194.5q0 -43 -3.5 -70.5t-11.5 -64.5l-16 -64h-531l-4 -12q-10 -59 -10 -76.5v-28.5q0 -98 42 -146t118 -48q63 0 130.5 24.5t141.5 65.5l23 -107 q-92 -39 -173 -61t-157 -22q-94 0 -151.5 43t-79.5 118q-94 -125 -222 -157q-61 -12 -106 -13q-113 0 -164 66.5t-51 185.5zM100 313q0 -86 35 -138t113 -52q27 0 74 7t108.5 84t90 171t34.5 133t6 82q0 92 -43 139t-108 47q-51 0 -104.5 -29.5t-88.5 -78.5 q-47 -70 -82 -174.5t-35 -190.5zM674 532h424q8 39 8 84q0 82 -37 135.5t-108 53.5q-168 0 -285 -262z" />
<glyph unicode="&#x178;" d="M154 0l168 629l-162 839h162l112 -661l467 661h162l-596 -839l-168 -629h-145zM338 1718q0 20 12 64.5t74.5 93.5t128.5 49q57 0 91 -33.5t34 -87.5q0 -20 -6 -43q-18 -68 -79 -116t-128 -48q-57 0 -92 33t-35 88zM764 1718q0 20 12 64.5t74.5 93.5t128.5 49 q57 0 91 -33.5t34 -87.5q0 -20 -6 -43q-18 -68 -79 -116t-128 -48q-57 0 -92 33t-35 88z" />
<glyph unicode="&#x2000;" horiz-adv-x="1061" />
<glyph unicode="&#x2001;" horiz-adv-x="2122" />
<glyph unicode="&#x2002;" horiz-adv-x="1061" />
<glyph unicode="&#x2003;" horiz-adv-x="2122" />
<glyph unicode="&#x2004;" horiz-adv-x="707" />
<glyph unicode="&#x2005;" horiz-adv-x="530" />
<glyph unicode="&#x2006;" horiz-adv-x="353" />
<glyph unicode="&#x2007;" horiz-adv-x="353" />
<glyph unicode="&#x2008;" horiz-adv-x="265" />
<glyph unicode="&#x2009;" horiz-adv-x="424" />
<glyph unicode="&#x200a;" horiz-adv-x="117" />
<glyph unicode="&#x2010;" d="M516 662l39 145h532l-38 -145h-533z" />
<glyph unicode="&#x2011;" d="M516 662l39 145h532l-38 -145h-533z" />
<glyph unicode="&#x2012;" d="M516 662l39 145h532l-38 -145h-533z" />
<glyph unicode="&#x2013;" d="M453 662l32 129h709l-33 -129h-708z" />
<glyph unicode="&#x2014;" d="M182 678l35 129h1225l-35 -129h-1225z" />
<glyph unicode="&#x2018;" d="M793 1143q0 100 99 209t304 164l-35 -130q-88 -20 -166 -79q55 -8 81 -34t26 -67q0 -63 -59.5 -124.5t-129.5 -61.5q-47 0 -83.5 27.5t-36.5 95.5z" />
<glyph unicode="&#x2019;" d="M756 1016l35 129q78 18 99 25.5t62 39.5q-104 20 -104 103q0 61 58.5 119.5t127.5 58.5q31 0 57.5 -13t51.5 -42q18 -29 18 -68q0 -96 -105.5 -201.5t-299.5 -150.5z" />
<glyph unicode="&#x201a;" d="M369 -180l34 129q78 18 99.5 25.5t62.5 39.5q-104 20 -104 103q0 61 58.5 119.5t127.5 58.5q31 0 57.5 -13t51.5 -42q18 -29 18 -68q0 -96 -105.5 -201.5t-299.5 -150.5z" />
<glyph unicode="&#x201c;" d="M571 1096q0 102 97.5 208.5t304.5 163.5l-35 -129q-49 -12 -85 -29.5t-79 -52.5q55 -8 81 -33.5t26 -66.5q0 -63 -59.5 -124.5t-131.5 -61.5q-47 0 -83 28.5t-36 96.5zM1008 1096q0 102 97 208.5t304 163.5l-35 -129q-49 -12 -86 -29.5t-80 -52.5q55 -8 81 -33.5 t26 -66.5q0 -63 -59.5 -124.5t-129.5 -61.5q-47 0 -82.5 28.5t-35.5 96.5z" />
<glyph unicode="&#x201d;" d="M530 1016l35 129q76 18 99.5 26.5t62.5 38.5q-104 20 -104 103q0 61 58 119.5t128 58.5q31 0 57.5 -13t51.5 -42q18 -29 18 -68q0 -94 -107.5 -200.5t-298.5 -151.5zM967 1016l34 129q76 18 98.5 26.5t61.5 38.5q-51 10 -76.5 38t-25.5 65q0 61 58.5 119.5t127.5 58.5 q60 0 107 -55q20 -27 20 -68q0 -98 -106.5 -202.5t-298.5 -149.5z" />
<glyph unicode="&#x201e;" d="M152 -197l32 129q76 18 100.5 26.5t63.5 39.5q-104 20 -104 102q0 61 58 120t128 59q31 0 57.5 -13.5t51.5 -42.5q18 -29 18 -67q0 -94 -107.5 -201t-297.5 -152zM588 -197l33 129q78 18 100 26.5t61 39.5q-104 20 -104 102q0 61 58.5 120t127.5 59q31 0 57.5 -13.5 t51.5 -42.5q20 -27 20 -67q0 -98 -106.5 -203t-298.5 -150z" />
<glyph unicode="&#x2022;" d="M561 729q0 94 61.5 169t127 107.5t133.5 32.5q61 0 124.5 -40t63.5 -140q0 -94 -72 -182q-47 -59 -115.5 -94t-135.5 -35q-59 0 -123 40t-64 142z" />
<glyph unicode="&#x2026;" d="M66 86q0 78 69.5 143.5t147.5 65.5q35 0 65.5 -17.5t48.5 -52.5q16 -27 17 -65q0 -74 -69 -134.5t-148 -60.5q-35 0 -61.5 11.5t-51.5 39.5q-18 35 -18 70zM469 88q0 78 69.5 141.5t149.5 63.5q74 0 113 -68q16 -27 16 -65q0 -74 -68.5 -134.5t-148.5 -60.5 q-35 0 -61.5 11.5t-51.5 39.5q-18 35 -18 72zM872 88q0 78 70 141.5t150 63.5q73 0 112 -68q16 -27 17 -65q0 -74 -69 -134.5t-148 -60.5q-35 0 -62 11.5t-51 39.5q-18 35 -19 72z" />
<glyph unicode="&#x202f;" horiz-adv-x="424" />
<glyph unicode="&#x2039;" d="M436 725l713 549l65 -113l-569 -436l336 -434l-127 -113z" />
<glyph unicode="&#x203a;" d="M412 274l569 435l-332 452l125 96l400 -548l-691 -531z" />
<glyph unicode="&#x205f;" horiz-adv-x="530" />
<glyph unicode="&#x2122;" d="M387 1386l35 130h467l-35 -130h-162l-121 -450h-129l121 450h-176zM815 936l156 580h192l35 -355l223 355h195l-156 -580h-114l131 483l-291 -483h-82l-45 483l-131 -483h-113z" />
<glyph unicode="&#xe000;" horiz-adv-x="1095" d="M0 0v1096h1096v-1096h-1096z" />
</font>
</defs>
</svg>
