<?xml version="1.0" standalone="no"?>
<!DOCTYPE svg PUBLIC "-//W3C//DTD SVG 1.1//EN" "http://www.w3.org/Graphics/SVG/1.1/DTD/svg11.dtd" >
<svg>
<metadata>
Created by FontForge 20090914 at Wed Jul 10 00:41:09 2013
 By www-data
2007 Albert Pinggera published by FSI FontShop International GmbH
</metadata>
<defs>
<font id="LetterGothicTextOT-Light" horiz-adv-x="1024" >
  <font-face 
    font-family="LetterGothicTextOT-Light"
    font-weight="350"
    font-stretch="normal"
    units-per-em="2048"
    panose-1="2 11 5 4 2 1 1 2 1 2"
    ascent="1606"
    descent="-442"
    x-height="1022"
    cap-height="1401"
    bbox="-813 -512 2324 1839"
    underline-thickness="102"
    underline-position="-102"
    unicode-range="U+000D-U+FEFF"
  />
<missing-glyph horiz-adv-x="1001" 
d="M129 0v1425h743v-1425h-743zM217 88h567v1249h-567v-1249z" />
    <glyph glyph-name="f_f" unicode="ff" horiz-adv-x="1228" 
d="M825 1303c-73.333 34 -148.333 51 -225 51c-90.667 0 -157.667 -20.5 -201 -61.5s-65 -107.167 -65 -198.5v-72h459v96c0 70 10.667 131.667 32 185zM1341 1423v-110c-80 40.667 -153.667 61 -221 61c-143.333 0 -215 -86.667 -215 -260v-92h332v-96h-332v-926h-112v926
h-459v-926h-113v926h-217v96h217v76c0 121.333 31.167 210.333 93.5 267s154.833 85 277.5 85c100.667 0 199 -19 295 -57c56 51.333 134.333 77 235 77c68 0 141 -15.667 219 -47z" />
    <glyph glyph-name="f_f_i" unicode="ffi" horiz-adv-x="1630" 
d="M1477 0h-113v926h-459v-926h-112v926h-459v-926h-113v926h-217v96h217v76c0 121.333 31.167 210.333 93.5 267s154.833 85 277.5 85c103.333 0 203 -19.667 299 -59c58 52.667 148.667 79 272 79c72.667 0 158 -14.333 256 -43v-110c-98 38 -180.667 57 -248 57
c-90.667 0 -157.667 -20.5 -201 -61.5s-65 -107.167 -65 -198.5v-92h572v-1022zM825 1303c-73.333 34 -148.333 51 -225 51c-90.667 0 -157.667 -20.5 -201 -61.5s-65 -107.167 -65 -198.5v-72h459v96c0 70 10.667 131.667 32 185z" />
    <glyph glyph-name="f_f_l" unicode="ffl" horiz-adv-x="1636" 
d="M1477 0h-113v1337c-66 24.667 -130.333 37 -193 37c-90.667 0 -157.667 -20.5 -201 -61.5s-65 -107.167 -65 -198.5v-92h236v-96h-236v-926h-112v926h-459v-926h-113v926h-217v96h217v76c0 121.333 31.167 210.333 93.5 267s154.833 85 277.5 85
c103.333 0 203 -19.667 299 -59c58 52.667 148.667 79 272 79c86 0 190.667 -16.333 314 -49v-1421zM825 1303c-73.333 34 -148.333 51 -225 51c-90.667 0 -157.667 -20.5 -201 -61.5s-65 -107.167 -65 -198.5v-72h459v96c0 70 10.667 131.667 32 185z" />
    <glyph glyph-name="f_i" unicode="fi" horiz-adv-x="1058" 
d="M905 0h-112v926h-459v-926h-113v926h-217v96h217v96c0 121.333 31.167 210.333 93.5 267s154.833 85 277.5 85c72.667 0 158 -14.333 256 -43v-110c-98 38 -180.667 57 -248 57c-90.667 0 -157.667 -20.5 -201 -61.5s-65 -107.167 -65 -198.5v-92h571v-1022z" />
    <glyph glyph-name="f_j" unicode="fj" horiz-adv-x="1060" 
d="M901 -80c0 -118.667 -28.6689 -206.999 -86.002 -264.999s-138.666 -87 -243.999 -87c-31.333 0 -60 2.16699 -86 6.5s-47 9.16602 -63 14.499s-39.333 14 -70 26v113c82.667 -41.333 156.334 -62 221.001 -62c143.333 0 215 86.667 215 260v1000h-458v-926h-113v926
h-217v96h217v96c0 121.333 31.167 210.333 93.5 267s154.833 85 277.5 85c72.667 0 158 -14.333 256 -43v-110c-98 38 -180.667 57 -248 57c-90.667 0 -157.667 -20.5 -201 -61.5s-65 -107.167 -65 -198.5v-92h571v-1102z" />
    <glyph glyph-name="f_l" unicode="fl" horiz-adv-x="1064" 
d="M905 0h-111.999v1337c-66 24.667 -130.333 37 -193 37c-90.667 0 -157.667 -20.5 -201 -61.5s-65 -107.167 -65 -198.5v-92h235v-96h-235v-926h-113v926h-217v96h217v96c0 121.333 31.167 210.333 93.5 267s154.833 85 277.5 85c85.333 0 189.666 -16.333 312.999 -49
v-1421z" />
    <glyph glyph-name=".notdef" horiz-adv-x="1001" 
d="M129 0v1425h743v-1425h-743zM217 88h567v1249h-567v-1249z" />
    <glyph glyph-name=".null" horiz-adv-x="0" 
 />
    <glyph glyph-name=".null" horiz-adv-x="0" 
 />
    <glyph glyph-name="CR" unicode="&#xd;" horiz-adv-x="450" 
 />
    <glyph glyph-name="space" unicode=" " horiz-adv-x="450" 
 />
    <glyph glyph-name="exclam" unicode="!" horiz-adv-x="524" 
d="M383 1432l-23 -1002h-94l-22 1002h139zM428 104c0 -34 -10.833 -62.5 -32.5 -85.5s-49.167 -34.5 -82.5 -34.5s-60.666 11.5 -81.999 34.5s-32 51.5 -32 85.5c0 34.667 10.667 63.5 32 86.5s48.666 34.5 81.999 34.5s60.833 -11.5 82.5 -34.5s32.5 -51.833 32.5 -86.5z
" />
    <glyph glyph-name="quotedbl" unicode="&#x22;" horiz-adv-x="772" 
d="M561 993h-110v469h110v-469zM274 993h-110v469h110v-469z" />
    <glyph glyph-name="numbersign" unicode="#" horiz-adv-x="1390" 
d="M1186 930h-234l-73 -375h217v-92h-234l-90 -463h-113l91 463h-254l-90 -463h-115l90 463h-217v92h233l74 375h-219v92h235l74 379h115l-74 -379h254l74 379h112l-73 -379h217v-92zM840 930h-254l-74 -375h254z" />
    <glyph glyph-name="dollar" unicode="$" horiz-adv-x="1091" 
d="M938 365c0 -102.667 -27.8369 -187.833 -83.5039 -255.5s-136.5 -108.167 -242.5 -121.5v-209h-108v205c-112 6.66699 -226 49.667 -342 129l67 106c61.333 -44 115.666 -76.167 162.999 -96.5s99.666 -30.5 156.999 -30.5c79.333 0 142.5 21.667 189.5 65
s70.5 107.666 70.5 192.999c0 39.333 -7 75 -21 107s-32.667 59 -56 81s-50.166 42.333 -80.499 61s-62.333 36 -96 52l-101 48c-33.667 16 -65.667 34.167 -96 54.5s-57.166 42.666 -80.499 66.999s-42 54.166 -56 89.499s-21 74.666 -21 117.999
c0 89.333 26.833 164.666 80.5 225.999s127.834 98 222.501 110v172h108v-170c98 -5.33301 197 -43 297 -113l-61 -98c-50 34 -96.833 60.333 -140.5 79s-89.167 28 -136.5 28c-79.333 0 -139.666 -19.5 -180.999 -58.5s-62 -94.167 -62 -165.5
c0 -35.333 7 -67.166 21 -95.499s32.667 -52.5 56 -72.5s50.333 -38.5 81 -55.5s62.834 -33.167 96.501 -48.5l101 -47.5c33.667 -16.333 65.834 -35.166 96.501 -56.499s57.667 -45.166 81 -71.499s42 -58.666 56 -96.999s21 -81.166 21 -128.499z" />
    <glyph glyph-name="percent" unicode="%" horiz-adv-x="1757" 
d="M1593 344c0 -116.667 -27.333 -205.832 -82 -267.499s-127 -92.5 -217 -92.5c-90.667 0 -163.167 30.667 -217.5 92s-81.5 150.666 -81.5 267.999c0 115.333 27.333 203.5 82 264.5s127 91.5 217 91.5s162.333 -30.667 217 -92s82 -149.333 82 -264zM762 1012
c0 -116.667 -27.333 -206 -82 -268s-127 -93 -217 -93s-162.333 30.833 -217 92.5s-82 151.167 -82 268.5c0 114.667 27.333 202.667 82 264s127 92 217 92s162.333 -30.833 217 -92.5s82 -149.5 82 -263.5zM1487 344.002c0 90.667 -16.501 158.333 -49.501 203
s-80.167 67 -141.5 67c-62 0 -109.833 -22.5 -143.5 -67.5s-50.5 -112.5 -50.5 -202.5c0 -89.333 16.667 -157.333 50 -204s80 -70 140 -70c62.667 0 110.834 23 144.501 69s50.5 114.333 50.5 205zM654.999 1012c0 180 -63.332 270.001 -189.999 270.001
c-62.667 0 -110.834 -22.333 -144.501 -67s-50.5 -112.334 -50.5 -203.001c0 -90 16.667 -158.333 50 -205s80.333 -70 141 -70c62.667 0 110.667 23 144 69s50 114.667 50 206zM1405 1346l-973 -1389l-78 55l971 1387z" />
    <glyph glyph-name="ampersand" unicode="&#x26;" horiz-adv-x="1204" 
d="M1133 72l-66 -83.999c-77.333 64.667 -145.666 126.667 -204.999 186c-79.333 -126.667 -196 -190 -350 -190c-106.667 0 -191.334 28.833 -254.001 86.5s-94 137.167 -94 238.5c0 44 5.83301 85.667 17.5 125s29.167 76.333 52.5 111s46.666 65 69.999 91
s52.333 55 87 87c-102 158.667 -153 296.667 -153 414c0 91.333 27.167 160.833 81.5 208.5s124.5 71.5 210.5 71.5c81.333 0 145.833 -21 193.5 -63s71.5 -103 71.5 -183c0 -26.667 -3.16699 -53.167 -9.5 -79.5s-13.333 -50 -21 -71s-20 -44.333 -37 -70l-42.5 -62.5
c-11.333 -16 -29.166 -37.167 -53.499 -63.5l-53.5 -57l-58 -58.5c80 -114 186 -237 318 -369c22.667 72 34 143.667 34 215v74h91v-54c0 -112.667 -17.333 -214.334 -52 -305.001c85.333 -80 159.333 -146 222 -198zM793 242.001
c-152.667 152.667 -266.666 285.001 -341.999 397.001c-55.333 -57.333 -98.333 -111.5 -129 -162.5s-46 -103.5 -46 -157.5c0 -76.667 22.667 -136.334 68 -179.001s102.666 -64 171.999 -64c120 0 212.333 55.333 277 166zM684.001 1153
c0 59.333 -14.8301 103.497 -44.4971 132.497s-68.167 43.5 -115.5 43.5c-50.667 0 -93.334 -16.667 -128.001 -50s-52 -78.666 -52 -135.999c0 -104 41 -220.667 123 -350c33.333 30 61.166 56.833 83.499 80.5s44.666 50.834 66.999 81.501s39 62.334 50 95.001
s16.5 67 16.5 103z" />
    <glyph glyph-name="quotesingle" unicode="'" horiz-adv-x="417" 
d="M274 993h-110v469h110v-469z" />
    <glyph glyph-name="parenleft" unicode="(" horiz-adv-x="628" 
d="M649 -297l-112.002 0.00195312c-99.333 168.667 -172.666 325.5 -219.999 470.5s-71 299.5 -71 463.5c0 165.333 23.833 319.166 71.5 461.499s120.167 288.166 217.5 437.499h112c-99.333 -154 -172.666 -301.167 -219.999 -441.5s-71 -292.833 -71 -457.5
c0 -163.333 23.667 -317 71 -461s121.333 -301.667 222 -473z" />
    <glyph glyph-name="parenright" unicode=")" horiz-adv-x="628" 
d="M383 637c0 -164 -23.668 -318.502 -71.001 -463.502s-120.666 -301.833 -219.999 -470.5h-112c100.667 171.333 174.5 328.833 221.5 472.5s70.5 297.5 70.5 461.5c0 165.333 -23.5 318 -70.5 458s-120.167 287 -219.5 441h112
c97.333 -149.333 169.833 -295.166 217.5 -437.499s71.5 -296.166 71.5 -461.499z" />
    <glyph glyph-name="asterisk" unicode="*" horiz-adv-x="806" 
d="M725 1253l-279 -65l191 -219l-88 -70l-143 256l-148 -256l-88 68l190 221l-278 67l35 107l260 -119l-27 293h107l-25 -293l258 119z" />
    <glyph glyph-name="plus" unicode="+" horiz-adv-x="1277" 
d="M1135 471h-441v-471h-110v471h-441v102h441v449h110v-449h441v-102z" />
    <glyph glyph-name="comma" unicode="," horiz-adv-x="415" 
d="M334 27c0 -78 -21.668 -140.501 -65.001 -187.501s-99 -70.5 -167 -70.5h-6v65c48 4 85.5 20.833 112.5 50.5s42.833 74.834 47.5 135.501c-19.333 -18.667 -42.666 -28 -69.999 -28c-30 0 -54.833 11.167 -74.5 33.5s-29.5 48.5 -29.5 78.5c0 32 10.333 58.833 31 80.5
s48 32.5 82 32.5c38.667 0 71.5 -16.5 98.5 -49.5s40.5 -79.833 40.5 -140.5z" />
    <glyph glyph-name="hyphen" unicode="-" horiz-adv-x="690" 
d="M557 502h-424v114h424v-114z" />
    <glyph glyph-name="period" unicode="." horiz-adv-x="393" 
d="M311 104c0 -34 -10.667 -62.5 -32 -85.5s-48.666 -34.5 -81.999 -34.5s-60.833 11.5 -82.5 34.5s-32.5 51.5 -32.5 85.5c0 34.667 10.833 63.5 32.5 86.5s49.167 34.5 82.5 34.5s60.666 -11.5 81.999 -34.5s32 -51.833 32 -86.5z" />
    <glyph glyph-name="slash" unicode="/" horiz-adv-x="782" 
d="M741 1550l-618 -1702l-82 31l618 1702z" />
    <glyph glyph-name="zero" unicode="0" horiz-adv-x="1069" 
d="M977 563c0 -183.333 -39.833 -325.668 -119.5 -427.001s-187.167 -152 -322.5 -152c-141.333 0 -250.5 48.833 -327.5 146.5s-115.5 241.834 -115.5 432.501c0 183.333 40.333 325.833 121 427.5s188.667 152.5 324 152.5c140.667 0 249.167 -49.333 325.5 -148
s114.5 -242.667 114.5 -432zM858 564.998c0 151.333 -27.499 269.5 -82.499 354.5s-135.167 127.5 -240.5 127.5c-106 0 -186.5 -42.5 -241.5 -127.5s-82.5 -203.167 -82.5 -354.5s27.667 -269.666 83 -354.999s134.666 -128 237.999 -128
c108.667 0 190.167 42.167 244.5 126.5s81.5 203.166 81.5 356.499z" />
    <glyph glyph-name="one" unicode="1" horiz-adv-x="696" 
d="M631 0h-502v100h211v914l-240 -88v100l269 100h84v-1026h178v-100z" />
    <glyph glyph-name="two" unicode="2" horiz-adv-x="937" 
d="M842 0h-760v80c0 52.667 7 100.167 21 142.5s32.833 77.833 56.5 106.5s51 54.667 82 78s63.5 43.833 97.5 61.5l102 51.5c34 16.667 66.5 34.334 97.5 53.001s58.333 39.167 82 61.5s42.5 49.833 56.5 82.5s21 69.334 21 110.001c0 61.333 -20.5 112.5 -61.5 153.5
s-94.833 61.5 -161.5 61.5c-48.667 0 -96.667 -11.167 -144 -33.5s-90 -52.5 -128 -90.5l-68 86c52.667 44.667 106.667 79 162 103s118 36 188 36c100.667 0 181.5 -28.667 242.5 -86s91.5 -130.333 91.5 -219c0 -50.667 -7.16699 -96.334 -21.5 -137.001
s-33.5 -74.667 -57.5 -102s-51.5 -52.166 -82.5 -74.499s-63.667 -41.833 -98 -58.5l-103 -49.5c-34.333 -16.333 -67 -34 -98 -53s-58.5 -39.833 -82.5 -62.5s-43.167 -50.834 -57.5 -84.501s-21.5 -71.834 -21.5 -114.501h645v-102z" />
    <glyph glyph-name="three" unicode="3" horiz-adv-x="901" 
d="M788 129c0 -131.333 -39.668 -235.166 -119.001 -311.499s-182.333 -114.5 -309 -114.5c-99.333 0 -201.666 22.667 -306.999 68l53 108c87.333 -48 168.666 -72 243.999 -72c96.667 0 173.834 27.333 231.501 82s86.5 132 86.5 232
c0 94.667 -31.167 170.167 -93.5 226.5s-141.833 84.5 -238.5 84.5c-18 0 -40.667 -0.666992 -68 -2v111c243.333 4 365 99.333 365 286c0 61.333 -20.5 112.5 -61.5 153.5s-94.833 61.5 -161.5 61.5c-98 0 -189 -41.333 -273 -124l-67 86c52.667 44.667 106.5 79 161.5 103
s117.833 36 188.5 36c100.667 0 181.5 -28.667 242.5 -86s91.5 -130.333 91.5 -219c0 -83.333 -21.167 -152.5 -63.5 -207.5s-106.5 -98.5 -192.5 -130.5v-2c88 -18 158.333 -59.333 211 -124s79 -146.334 79 -245.001z" />
    <glyph glyph-name="four" unicode="4" horiz-adv-x="1003" 
d="M934 72h-186v-353h-113v353h-598v92l541 962h170v-950h186v-104zM641 1051l-2.00098 1.99902c-10 -27.333 -42 -89.666 -96 -186.999l-299 -534c-39.333 -70.667 -71.666 -124 -96.999 -160c37.333 2.66699 200 4 488 4v608c0 150.667 2 239.667 6 267z" />
    <glyph glyph-name="five" unicode="5" horiz-adv-x="935" 
d="M852 236c0 -166 -44.333 -296.333 -133 -391s-201.334 -142 -338.001 -142c-63.333 0 -119.5 6.33301 -168.5 19s-101.5 31.667 -157.5 57l54 110c82.667 -54.667 172.667 -82 270 -82c106 0 191.167 36.833 255.5 110.5s96.5 176.167 96.5 307.5
c0 92.667 -22.333 166 -67 220s-107 81 -187 81c-95.333 0 -177.333 -44.333 -246 -133l-96 37l62 696h581v-100h-477c-28 -308 -45.667 -477.333 -53 -508h2c72.667 72.667 157.334 109 254.001 109c110 0 195.5 -34.167 256.5 -102.5s91.5 -164.5 91.5 -288.5z" />
    <glyph glyph-name="six" unicode="6" horiz-adv-x="989" 
d="M887 446c0 -142 -36.999 -254.5 -110.999 -337.5s-165.333 -124.5 -274 -124.5c-122.667 0 -218.5 49.667 -287.5 149s-103.5 256.333 -103.5 471c0 250 45.333 439.833 136 569.5s218.667 194.5 384 194.5c38 0 74 -5.33301 108 -16l-26 -101c-28 10 -58.667 15 -92 15
c-107.333 0 -196 -45.167 -266 -135.5s-111.333 -228.833 -124 -415.5h2c30.667 54 72.667 96.833 126 128.5s116.666 47.5 189.999 47.5c96.667 0 177.167 -39.167 241.5 -117.5s96.5 -187.5 96.5 -327.5zM766.001 442c0 112.667 -22.167 197.834 -66.5 255.501
s-104.833 86.5 -181.5 86.5c-80 0 -144.667 -29.333 -194 -88s-74 -137 -74 -235c0 -124.667 22.667 -218.334 68 -281.001s110 -94 194 -94c77.333 0 139 30.667 185 92s69 149.333 69 264z" />
    <glyph glyph-name="seven" unicode="7" horiz-adv-x="858" 
d="M768 1036l-504 -1317h-135l522 1303h-592v104h709v-90z" />
    <glyph glyph-name="eight" unicode="8" horiz-adv-x="995" 
d="M903 365c0 -117.333 -37.332 -210.167 -111.999 -278.5s-176.667 -102.5 -306 -102.5c-118 0 -213 34.5 -285 103.5s-108 161.5 -108 277.5c0 86.667 21.167 162.167 63.5 226.5s103.166 108.833 182.499 133.5v2c-124 65.333 -186 168.333 -186 309
c0 95.333 32.833 174.5 98.5 237.5s150.834 94.5 255.501 94.5c97.333 0 178 -31.833 242 -95.5s96 -142.5 96 -236.5c0 -136 -62.333 -239 -187 -309v-2c79.333 -24.667 140.166 -69.167 182.499 -133.5s63.5 -139.833 63.5 -226.5zM778.001 372.999
c0 88.667 -25.167 160.667 -75.5 216s-118.5 83 -204.5 83s-154.333 -27.667 -205 -83s-76 -127.333 -76 -216c0 -86.667 24.667 -156.5 74 -209.5s118.333 -79.5 207 -79.5c88 0 156.667 26.5 206 79.5s74 122.833 74 209.5zM725.001 1028
c0 76 -20.001 136.333 -60.001 181s-95.667 67 -167 67c-72 0 -128 -22.333 -168 -67s-60 -105 -60 -181c0 -78.667 20.833 -143.667 62.5 -195s96.834 -77 165.501 -77c68 0 122.833 25.667 164.5 77s62.5 116.333 62.5 195z" />
    <glyph glyph-name="nine" unicode="9" horiz-adv-x="993" 
d="M879 522c0 -262.667 -47.167 -464.833 -141.5 -606.5s-233.833 -212.5 -418.5 -212.5c-37.333 0 -78 4.66699 -122 14l16 103c42.667 -10 83 -15 121 -15c122 0 220.167 50.833 294.5 152.5s117.5 253.167 129.5 454.5h-2c-30.667 -54.667 -72.5 -97.667 -125.5 -129
s-116.5 -47 -190.5 -47c-96.667 0 -177.167 39 -241.5 117s-96.5 187 -96.5 327c0 72 10.333 137.5 31 196.5s48.5 107.667 83.5 146s75.833 68 122.5 89s96 31.5 148 31.5c59.333 0 112.5 -11.5 159.5 -34.5s88.167 -58.667 123.5 -107s62.333 -112.833 81 -193.5
s28 -176 28 -286zM739 668.001c0 124.667 -22.667 218.166 -68 280.499s-110 93.5 -194 93.5c-76.667 0 -138.167 -30.667 -184.5 -92s-69.5 -149.333 -69.5 -264c0 -112 22.333 -197 67 -255s105 -87 181 -87c80 0 144.667 29.333 194 88s74 137.334 74 236.001z" />
    <glyph glyph-name="colon" unicode=":" horiz-adv-x="475" 
d="M352 719c0 -34.667 -10.667 -63.5 -32 -86.5s-48.666 -34.5 -81.999 -34.5s-60.833 11.5 -82.5 34.5s-32.5 51.833 -32.5 86.5c0 34 10.833 62.667 32.5 86s49.167 35 82.5 35s60.666 -11.667 81.999 -35s32 -52 32 -86zM352 104c0 -34 -10.667 -62.5 -32 -85.5
s-48.666 -34.5 -81.999 -34.5s-60.833 11.5 -82.5 34.5s-32.5 51.5 -32.5 85.5c0 34.667 10.833 63.5 32.5 86.5s49.167 34.5 82.5 34.5s60.666 -11.5 81.999 -34.5s32 -51.833 32 -86.5z" />
    <glyph glyph-name="semicolon" unicode=";" horiz-adv-x="475" 
d="M375 27c0 -78 -21.834 -140.501 -65.501 -187.501s-99.167 -70.5 -166.5 -70.5h-6v65c48 4 85.5 20.833 112.5 50.5s42.833 74.834 47.5 135.501c-19.333 -18.667 -42.666 -28 -69.999 -28c-30 0 -54.833 11.167 -74.5 33.5s-29.5 48.5 -29.5 78.5
c0 32 10.333 58.833 31 80.5s48 32.5 82 32.5c38.667 0 71.5 -16.5 98.5 -49.5s40.5 -79.833 40.5 -140.5zM351.999 718.999c0 -34.667 -10.667 -63.5 -32 -86.5s-48.666 -34.5 -81.999 -34.5s-60.833 11.5 -82.5 34.5s-32.5 51.833 -32.5 86.5c0 34 10.833 62.667 32.5 86
s49.167 35 82.5 35s60.666 -11.667 81.999 -35s32 -52 32 -86z" />
    <glyph glyph-name="less" unicode="&#x3c;" horiz-adv-x="825" 
d="M702 53l-79 -80l-541 539l539 541l75 -76l-465 -459z" />
    <glyph glyph-name="equal" unicode="=" horiz-adv-x="1251" 
d="M1026 338h-801v102h801v-102zM1026 649h-801v101h801v-101z" />
    <glyph glyph-name="greater" unicode="&#x3e;" horiz-adv-x="825" 
d="M743 516l-538 -541l-76 76l465 459l-471 465l80 80z" />
    <glyph glyph-name="question" unicode="?" horiz-adv-x="817" 
d="M756 1163c0 -38.667 -5.83496 -75.332 -17.502 -109.999s-27 -65.667 -46 -93s-39.833 -54 -62.5 -80l-68 -77c-22.667 -25.333 -43.5 -51 -62.5 -77s-34.333 -55.5 -46 -88.5s-17.5 -67.167 -17.5 -102.5v-105h-119v111c0 53.333 11 103.833 33 151.5
s48.5 89.167 79.5 124.5l93 103.5c31 33.667 57.5 70.5 79.5 110.5s33 81.333 33 124c0 56.667 -19 102.667 -57 138s-90.667 53 -158 53c-58.667 0 -106.5 -17 -143.5 -51s-57.5 -78.667 -61.5 -134h-113c4.66699 89.333 35.834 159.5 93.501 210.5
s135.834 76.5 234.501 76.5c99.333 0 178.5 -26.333 237.5 -79s88.5 -121.334 88.5 -206.001zM491.998 104.002c0 -34 -10.833 -62.5 -32.5 -85.5s-49.167 -34.5 -82.5 -34.5s-60.833 11.5 -82.5 34.5s-32.5 51.5 -32.5 85.5c0 34.667 10.833 63.5 32.5 86.5
s49.167 34.5 82.5 34.5s60.833 -11.667 82.5 -35s32.5 -52 32.5 -86z" />
    <glyph glyph-name="at" unicode="@" horiz-adv-x="2021" 
d="M1858 694c0 -112 -12.3311 -214 -36.998 -306s-57.667 -166.833 -99 -224.5s-88 -102 -140 -133s-106.333 -46.5 -163 -46.5c-74.667 0 -130.5 22 -167.5 66s-55.5 103 -55.5 177c0 22 2 46.667 6 74l-2 2c-47.333 -96.667 -103.5 -174 -168.5 -232
s-135.833 -87 -212.5 -87c-151.333 0 -227 110.333 -227 331c0 224 48 400.5 144 529.5s227.333 193.5 394 193.5c101.333 0 197.666 -13.667 288.999 -41c-52 -285.333 -84.833 -471.833 -98.5 -559.5s-20.5 -149.5 -20.5 -185.5c0 -59.333 9.83301 -102.5 29.5 -129.5
s50.167 -40.5 91.5 -40.5c92.667 0 171.5 54.5 236.5 163.5s97.5 249.833 97.5 422.5c0 207.333 -56 369 -168 485s-268.333 174 -469 174c-114.667 0 -223.667 -25 -327 -75s-192.833 -118.5 -268.5 -205.5s-135.667 -192.667 -180 -317s-66.5 -257.5 -66.5 -399.5
c0 -211.333 56 -376.166 168 -494.499s268.333 -177.5 469 -177.5c153.333 0 281.666 24.667 384.999 74l33 -90c-117.333 -49.333 -262 -74 -434 -74c-116 0 -220 18 -312 54s-167.833 86.833 -227.5 152.5s-105.167 144.167 -136.5 235.5s-47 192.333 -47 303
c0 160 23.833 308.5 71.5 445.5s113.334 253.667 197.001 350s185.167 171.833 304.5 226.5s248.666 82 387.999 82c154 0 286 -30.833 396 -92.5s192 -146.334 246 -254.001s81 -233.167 81 -376.5zM1296 928c-52.667 17.333 -111.332 26.001 -175.999 26.001
c-86.667 0 -161.334 -28.5 -224.001 -85.5s-109.167 -131.833 -139.5 -224.5s-45.5 -196.667 -45.5 -312c0 -165.333 45 -248 135 -248c38.667 0 79 15.667 121 47s81.667 74.166 119 128.499s71.333 120.833 102 199.5s53.667 162 69 250z" />
    <glyph glyph-name="A" unicode="A" horiz-adv-x="960" 
d="M940 0h-137l-111 422h-430l-110 -422h-132l396 1401h135zM666 524l-123 469l-39 151c-6 24 -11.5 51.5 -16.5 82.5s-7.83301 61.167 -8.5 90.5h-2c-2 -42 -6.83301 -81.5 -14.5 -118.5s-24.5 -105.5 -50.5 -205.5l-123 -469h377z" />
    <glyph glyph-name="B" unicode="B" horiz-adv-x="1032" 
d="M950 393c0 -129.333 -38.333 -227.168 -115 -293.501s-181.667 -99.5 -315 -99.5h-336v1401h342c120 0 211.5 -28.167 274.5 -84.5s94.5 -138.833 94.5 -247.5c0 -72 -20.833 -137.167 -62.5 -195.5s-102.167 -98.166 -181.5 -119.499v-2
c97.333 -20 171.5 -62.5 222.5 -127.5s76.5 -142.167 76.5 -231.5zM819 388.998c0 53.333 -9 100 -27 140s-42.333 71.167 -73 93.5s-63.667 38.833 -99 49.5s-72.666 16 -111.999 16h-205v-586h240c83.333 0 150.166 26.5 200.499 79.5s75.5 122.167 75.5 207.5zM772 1065
c0 83.333 -21.832 143.333 -65.499 180s-107.834 55 -192.501 55h-211v-514h162c40 0 77.667 5 113 15s67.833 25.5 97.5 46.5s53.167 50 70.5 87s26 80.5 26 130.5z" />
    <glyph glyph-name="C" unicode="C" horiz-adv-x="966" 
d="M891 319c-9.33301 -100.667 -44.6689 -181.667 -106.002 -243s-149 -92 -263 -92c-143.333 0 -250.833 57.667 -322.5 173s-107.5 298 -107.5 548c0 237.333 40.833 415.333 122.5 534s189.834 178 324.501 178c96 0 174.5 -27.833 235.5 -83.5
s97.833 -134.167 110.5 -235.5h-121c-11.333 72 -37.166 125.833 -77.499 161.5s-91.833 53.5 -154.5 53.5c-98.667 0 -176.167 -49.833 -232.5 -149.5s-84.5 -254.167 -84.5 -463.5c0 -204.667 24.833 -357.5 74.5 -458.5s128.5 -151.5 236.5 -151.5
c72 0 128.667 20.333 170 61s66 96.667 74 168h121z" />
    <glyph glyph-name="D" unicode="D" horiz-adv-x="1060" 
d="M969 707c0 -246.667 -38.333 -426.167 -115 -538.5s-199 -168.5 -367 -168.5h-303v1401h316c169.333 0 289.833 -53.167 361.5 -159.5s107.5 -284.5 107.5 -534.5zM844 705c0 108.667 -5.83008 199.166 -17.4971 271.499s-31.834 133.333 -60.501 183
s-66.834 85.5 -114.501 107.5s-107.834 33 -180.501 33h-168v-1198h170c139.333 0 236 46.333 290 139s81 247.334 81 464.001z" />
    <glyph glyph-name="E" unicode="E" horiz-adv-x="950" 
d="M858 0h-674v1401h643v-103h-524v-510h488v-100h-488v-584h555v-104z" />
    <glyph glyph-name="F" unicode="F" horiz-adv-x="854" 
d="M793 1298h-490v-522h447v-100h-447v-676h-119v1401h609v-103z" />
    <glyph glyph-name="G" unicode="G" horiz-adv-x="1030" 
d="M907 0l-92.001 -0.000976562c0 87.333 2.66699 152.333 8 195l-2 2c-22 -67.333 -60.167 -119.666 -114.5 -156.999s-116.5 -56 -186.5 -56c-141.333 0 -248 57.833 -320 173.5s-108 298.167 -108 547.5c0 237.333 40.833 415.333 122.5 534s189.834 178 324.501 178
c96 0 174.5 -27.833 235.5 -83.5s97.833 -134.167 110.5 -235.5h-121c-11.333 72 -37.333 125.833 -78 161.5s-92 53.5 -154 53.5c-98.667 0 -176.167 -49.833 -232.5 -149.5s-84.5 -254.167 -84.5 -463.5c0 -206 25.333 -359.167 76 -459.5s132.667 -150.5 246 -150.5
c78.667 0 140.167 30 184.5 90s66.5 154.333 66.5 283v108h-204v103h323v-674z" />
    <glyph glyph-name="H" unicode="H" horiz-adv-x="1185" 
d="M1001 0h-118v700h-580v-700h-119v1401h119v-598h580v598h118v-1401z" />
    <glyph glyph-name="I" unicode="I" horiz-adv-x="569" 
d="M498 0h-426v104h153v1194h-153v103h426v-103h-154v-1194h154v-104z" />
    <glyph glyph-name="J" unicode="J" horiz-adv-x="956" 
d="M782 412c0 -146.667 -30.999 -254.663 -92.999 -323.996s-158.667 -104 -290 -104c-114 0 -200.5 36.333 -259.5 109s-88.5 179 -88.5 319c0 53.333 0.666992 90.666 2 111.999h111c-2.66699 -32 -4 -66.667 -4 -104c0 -105.333 20.667 -187.333 62 -246
s102.666 -88 183.999 -88c52 0 95.5 8.16699 130.5 24.5s61.5 40.166 79.5 71.499s30.5 65.166 37.5 101.499s10.5 79.166 10.5 128.499v886h-222v103h340v-989z" />
    <glyph glyph-name="K" unicode="K" horiz-adv-x="995" 
d="M987 0l-159.999 -0.000976562l-387 567c-2.66699 4.66699 -30 44.334 -82 119.001l-55 -24v-662h-119v1401h119v-633c75.333 31.333 161.166 104.333 257.499 219s182.5 260.667 258.5 438l115 -63l-109 -182c-68.667 -114.667 -131 -206 -187 -274
s-117 -123.667 -183 -167z" />
    <glyph glyph-name="L" unicode="L" horiz-adv-x="860" 
d="M850 0h-666v1401h119v-1299h547v-102z" />
    <glyph glyph-name="M" unicode="M" horiz-adv-x="1310" 
d="M1126 0l-118 -0.000976562v571c0 286.667 4 518.334 12 695.001l-4 2c-13.333 -58.667 -57 -185.667 -131 -381l-166 -441h-111l-182 441c-68.667 166 -112.334 293 -131.001 381l-4 -2c8 -176.667 12 -408.334 12 -695.001v-571h-119v1401h156l195 -479l34 -84l30 -74
l22.5 -57c9 -23.333 15.5 -41.5 19.5 -54.5s8 -27.167 12 -42.5s7 -29.666 9 -42.999h2c2 11.333 4.33301 22.833 7 34.5s6.33398 25.167 11.001 40.5l12.5 40c3.66699 11.333 9.66699 28 18 50l19.5 52.5l24.5 65.5l27.5 72l185 479h157v-1401z" />
    <glyph glyph-name="N" unicode="N" horiz-adv-x="1189" 
d="M1006 0l-159.999 0.00195312l-318 698c-96.667 214.667 -176.334 404.667 -239.001 570l-4 -2c8 -176.667 12 -408.334 12 -695.001v-571h-113v1401h158l317 -699c102 -222.667 182.667 -412.334 242 -569.001l4 2c-8 176 -12 407.333 -12 694v572h113v-1401z" />
    <glyph glyph-name="O" unicode="O" horiz-adv-x="1052" 
d="M961 700c0 -242 -38.667 -421.834 -116 -539.501s-187 -176.5 -329 -176.5c-282.667 0 -424 238.667 -424 716c0 240.667 39.167 420.334 117.5 539.001s187.5 178 327.5 178c282.667 0 424 -239 424 -717zM838 704.999c0 406.667 -104 610 -312 610
c-100.667 0 -177.667 -48.833 -231 -146.5s-80 -240.167 -80 -427.5c0 -220 24.833 -383.833 74.5 -491.5s128.5 -161.5 236.5 -161.5c208 0 312 205.667 312 617z" />
    <glyph glyph-name="P" unicode="P" horiz-adv-x="966" 
d="M915 997c0 -141.333 -39.167 -250 -117.5 -326s-188.5 -114 -330.5 -114h-164v-557h-119v1401h342c127.333 0 224 -34 290 -102s99 -168.667 99 -302zM791 993c0 105.333 -25.5 182.833 -76.5 232.5s-129.5 74.5 -235.5 74.5h-176v-638h172
c102 0 180.167 27.667 234.5 83s81.5 138 81.5 248z" />
    <glyph glyph-name="Q" unicode="Q" horiz-adv-x="1052" 
d="M1061 -127l-77.998 -96.001c-90.667 78.667 -179.334 164.667 -266.001 258c-56.667 -34 -123.667 -51 -201 -51c-282.667 0 -424 238.667 -424 716c0 240.667 39.167 420.334 117.5 539.001s187.5 178 327.5 178c282.667 0 424 -239 424 -717
c0 -280.667 -54 -480.667 -162 -600c71.333 -77.333 158.666 -153 261.999 -227zM838.002 704.999c0 406.667 -104 610 -312 610c-100.667 0 -177.667 -48.833 -231 -146.5s-80 -240.167 -80 -427.5c0 -220 24.833 -383.833 74.5 -491.5s128.5 -161.5 236.5 -161.5
c208 0 312 205.667 312 617z" />
    <glyph glyph-name="R" unicode="R" horiz-adv-x="1003" 
d="M952 0l-145.001 0.000976562l-295 590h-209v-590h-119v1401h338c124.667 0 220.334 -33.833 287.001 -101.5s100 -161.5 100 -281.5c0 -96.667 -22.5 -181.334 -67.5 -254.001s-115.833 -124.667 -212.5 -156zM781.999 1018c0 92 -26.332 162 -78.999 210
s-125.334 72 -218.001 72h-182v-608h164c102 0 180 27.667 234 83s81 136.333 81 243z" />
    <glyph glyph-name="S" unicode="S" horiz-adv-x="927" 
d="M836 365c0 -109.333 -36.333 -200.167 -109 -272.5s-171 -108.5 -295 -108.5c-118.667 0 -243 43 -373 129l68 106c61.333 -44 115.5 -76.167 162.5 -96.5s99.167 -30.5 156.5 -30.5c78 0 141 22.167 189 66.5s72 108.166 72 191.499c0 50 -11.167 94.833 -33.5 134.5
s-51.5 73.167 -87.5 100.5s-75.667 53.166 -119 77.499l-129.5 74.5c-43 25.333 -82.5 52.666 -118.5 81.999s-65.167 66 -87.5 110s-33.5 93.333 -33.5 148c0 101.333 33.333 183.333 100 246s159 94 277 94c109.333 0 220 -38 332 -114l-62 -99
c-102 71.333 -194 107 -276 107c-80 0 -140.667 -19.5 -182 -58.5s-62 -94.167 -62 -165.5c0 -35.333 7 -67.666 21 -96.999s32.833 -55 56.5 -77s50.667 -42.667 81 -62s62.5 -38 96.5 -56l101.5 -55.5c33.667 -19 65.667 -40.5 96 -64.5s57.333 -50.167 81 -78.5
s42.5 -62.166 56.5 -101.499s21 -82.666 21 -129.999z" />
    <glyph glyph-name="T" unicode="T" horiz-adv-x="872" 
d="M852 1298h-356v-1298h-119v1298h-357v103h832v-103z" />
    <glyph glyph-name="U" unicode="U" horiz-adv-x="1110" 
d="M936 414c0 -143.333 -34.166 -250.833 -102.499 -322.5s-163.166 -107.5 -284.499 -107.5c-122 0 -215 34.167 -279 102.5s-96 176.833 -96 325.5v989h119v-981c0 -46.667 4.33301 -89 13 -127s22.667 -73.167 42 -105.5s46.666 -57.333 81.999 -75
s77.666 -26.5 126.999 -26.5c173.333 0 260 110 260 330v985h119v-987z" />
    <glyph glyph-name="V" unicode="V" horiz-adv-x="962" 
d="M942 1401l-391.001 -1401h-133l-398 1401h140l264 -993c25.333 -97.333 42 -165 50 -203s12.333 -78.333 13 -121h2c2.66699 42 7.83398 81.5 15.501 118.5s24.5 105.5 50.5 205.5l256 993h131z" />
    <glyph glyph-name="W" unicode="W" horiz-adv-x="1241" 
d="M1139 1401l-121.002 -1401h-160l-151 471c-35.333 108.667 -57.833 180.5 -67.5 215.5s-15.834 70.5 -18.501 106.5h-3l-4 -28c-1.33301 -9.33301 -2.66602 -17.666 -3.99902 -24.999s-3.66602 -17.166 -6.99902 -29.499l-8 -30
c-2 -7.66699 -5.83301 -20.834 -11.5 -39.501l-13.5 -44l-18.5 -58l-21.5 -68l-149 -471h-158l-121 1401h131l64 -830c16.667 -220 25 -354.333 25 -403v-25l4 -2c12 58 53.667 194.667 125 410l114 352h117l115 -352c70.667 -216.667 112.334 -353.334 125.001 -410.001
l4 2v25c0 58 8 192.333 24 403l64 830h125z" />
    <glyph glyph-name="X" unicode="X" horiz-adv-x="913" 
d="M893 0h-148l-299 625l-292 -625h-134l371 752l-330 649h146l244 -510l237 510h133l-315 -637z" />
    <glyph glyph-name="Y" unicode="Y" horiz-adv-x="870" 
d="M840 1401l-338 -797v-604h-119v586l-352 815h141l211 -527c35.333 -86.667 54.333 -138 57 -154c1.33301 -5.33301 2 -10.333 2 -15h2c2.66699 18.667 22.667 75 60 169l205 527h131z" />
    <glyph glyph-name="Z" unicode="Z" horiz-adv-x="872" 
d="M801 0h-729v94l604 1202l-2 2c-24.667 -2.66699 -102 -4 -232 -4h-340v107h699v-92l-600 -1203c26 2 103.667 3 233 3h367v-109z" />
    <glyph glyph-name="bracketleft" unicode="[" horiz-adv-x="587" 
d="M608 -297h-342v1833h342v-84h-233v-1665h233v-84z" />
    <glyph glyph-name="backslash" unicode="\" horiz-adv-x="782" 
d="M741 -121l-82 -31l-618 1702l82 31z" />
    <glyph glyph-name="bracketright" unicode="]" horiz-adv-x="587" 
d="M322 -297h-342v84h233v1665h-233v84h342v-1833z" />
    <glyph glyph-name="asciicircum" unicode="^" horiz-adv-x="1110" 
d="M1038 778h-137l-348 522l-348 -522h-133l430 623h106z" />
    <glyph glyph-name="underscore" unicode="_" 
d="M1024 -248h-1024v88h1024v-88z" />
    <glyph glyph-name="grave" unicode="`" horiz-adv-x="892" 
d="M629 1264l-45 -66l-312 184l74 105z" />
    <glyph glyph-name="a" unicode="a" horiz-adv-x="903" 
d="M784 0l-110.003 -0.000976562c-11.333 46 -19.666 100.667 -24.999 164l-2 2c-30.667 -54 -70.167 -97.833 -118.5 -131.5s-105.166 -50.5 -170.499 -50.5c-98.667 0 -173.5 27.833 -224.5 83.5s-76.5 133.5 -76.5 233.5c0 106.667 31.333 189.334 94 248.001
s145.334 88 248.001 88c52 0 108 -9.66699 168 -29l66 -20v104c0 80 -17.667 141.333 -53 184s-93.333 64 -174 64c-70 0 -143.333 -19.667 -220 -59l-34 94c90 42 180.667 63 272 63c100 0 178.5 -26 235.5 -78s85.5 -127 85.5 -225v-399c0 -113.333 13 -225.333 39 -336z
M632.997 398.999l-0.000976562 97.0039l-53 20c-50 19.333 -104 29 -162 29c-73.333 0 -132 -21.333 -176 -64s-66 -101.334 -66 -176.001c0 -68.667 17.333 -122.334 52 -161.001s84.334 -58 149.001 -58c50.667 0 96 15.667 136 47s70 70.666 90 117.999
s30 96.666 30 147.999z" />
    <glyph glyph-name="b" unicode="b" horiz-adv-x="974" 
d="M897 512c0 -168.667 -33.832 -298.834 -101.499 -390.501s-160.834 -137.5 -279.501 -137.5c-110 0 -196.667 35.333 -260 106l-2 -2c-2 -17.333 -7.33301 -46.666 -16 -87.999h-109c26 106.667 39 218.667 39 336v1126h113v-256c0 -132 -4.33301 -229.667 -13 -293l2 -2
c35.333 40 76.5 71.167 123.5 93.5s96.167 33.5 147.5 33.5c112.667 0 200.167 -43.167 262.5 -129.5s93.5 -218.5 93.5 -396.5zM778.001 510c0 136.667 -22.168 242.5 -66.501 317.5s-107.5 112.5 -189.5 112.5c-51.333 0 -98.166 -14.333 -140.499 -43
s-75.833 -67.667 -100.5 -117v-585c62.667 -76.667 141.667 -115 237 -115c87.333 0 152.5 37.333 195.5 112s64.5 180.667 64.5 318z" />
    <glyph glyph-name="c" unicode="c" horiz-adv-x="866" 
d="M815 141c-100 -104.667 -209.333 -157.002 -328 -157.002c-272.667 0 -409 175.333 -409 526c0 168.667 37.333 298.834 112 390.501s176.667 137.5 306 137.5c124 0 225 -47 303 -141l-82 -74c-24.667 34.667 -56.667 62.834 -96 84.501s-82.333 32.5 -129 32.5
c-98 0 -171.667 -37 -221 -111s-74 -179.667 -74 -317s24.667 -243 74 -317s122 -111 218 -111c94.667 0 178.667 45.667 252 137z" />
    <glyph glyph-name="d" unicode="d" horiz-adv-x="974" 
d="M846 0l-111.001 -0.00195312c-9.33301 39.333 -16 78.333 -20 117l-2 2c-78 -90 -171 -135 -279 -135c-112.667 0 -200.167 43.167 -262.5 129.5s-93.5 218.5 -93.5 396.5c0 168.667 33.833 298.834 101.5 390.501s160.834 137.5 279.501 137.5c100 0 182 -30 246 -90
l2 2c-8.66699 62.667 -13 160.334 -13 293.001v219h113v-1126c0 -117.333 13 -229.333 39 -336zM693.999 243.998v585c-32 38.667 -66.667 67.5 -104 86.5s-81.666 28.5 -132.999 28.5c-87.333 0 -152.5 -37.333 -195.5 -112s-64.5 -180.667 -64.5 -318
c0 -136.667 22.167 -242.5 66.5 -317.5s107.5 -112.5 189.5 -112.5c51.333 0 98.166 14.333 140.499 43s75.833 67.667 100.5 117z" />
    <glyph glyph-name="e" unicode="e" horiz-adv-x="925" 
d="M778 174l43 -99.999c-115.333 -60 -222.333 -90 -321 -90c-134.667 0 -238.667 47.167 -312 141.5s-110 223.166 -110 386.499c0 164.667 36.167 293.5 108.5 386.5s166.5 139.5 282.5 139.5c120.667 0 213 -43 277 -129s96 -213 96 -381v-22h-645
c4 -128 32.333 -230 85 -306s130 -114 232 -114c72 0 160 29.333 264 88zM199 602.001h522.001v2c-7.33301 111.333 -32.5 196.5 -75.5 255.5s-103.833 88.5 -182.5 88.5c-72.667 0 -132.834 -31.5 -180.501 -94.5s-75.5 -146.833 -83.5 -251.5z" />
    <glyph glyph-name="f" unicode="f" horiz-adv-x="657" 
d="M770 1313c-81.333 40.667 -154.999 61 -220.999 61c-143.333 0 -215 -86.667 -215 -260v-92h332v-96h-332v-926h-113v926h-217v96h217v96c0 118.667 28.667 207 86 265s138.666 87 243.999 87c67.333 0 140.333 -15.667 219 -47v-110z" />
    <glyph glyph-name="g" unicode="g" horiz-adv-x="974" 
d="M846 1022c-26 -106.667 -39.002 -218.666 -39.002 -335.999v-688c0 -140.667 -34.167 -247.5 -102.5 -320.5s-160.5 -109.5 -276.5 -109.5c-108 0 -213 26.667 -315 80l49 100c90.667 -53.333 179.334 -80 266.001 -80c87.333 0 153.833 29 199.5 87
s68.5 133.667 68.5 227c0 45.333 3.66699 87.666 11 126.999l-2 2c-35.333 -40 -76.5 -71.167 -123.5 -93.5s-96.167 -33.5 -147.5 -33.5c-112.667 0 -200.167 43.167 -262.5 129.5s-93.5 218.5 -93.5 396.5c0 168.667 33.833 298.834 101.5 390.501
s160.834 137.5 279.501 137.5c110 0 196.667 -35.333 260 -106l2 2c2 17.333 7.33301 46.666 16 87.999h109zM693.998 244.001l0.000976562 585c-62.667 76.667 -141.667 115 -237 115c-87.333 0 -152.5 -37.333 -195.5 -112s-64.5 -180.667 -64.5 -318
c0 -136.667 22.167 -242.5 66.5 -317.5s107.5 -112.5 189.5 -112.5c51.333 0 98.166 14.333 140.499 43s75.833 67.667 100.5 117z" />
    <glyph glyph-name="h" unicode="h" horiz-adv-x="993" 
d="M844 0l-113.002 0.00195312v668c0 101.333 -14.833 171.666 -44.5 210.999s-73.5 59 -131.5 59c-55.333 0 -104.666 -20 -147.999 -60s-76.666 -93 -99.999 -159s-35 -138.333 -35 -217v-502h-112v1462h112v-362c0 -132.667 -4 -230.334 -12 -293.001l2 -2
c26.667 73.333 67 130.5 121 171.5s117.333 61.5 190 61.5c180.667 0 271 -109 271 -327v-711z" />
    <glyph glyph-name="i" unicode="i" horiz-adv-x="473" 
d="M319 0h-112v926h-176v96h288v-1022zM346 1319c0 -26.667 -8.83301 -49.667 -26.5 -69s-39.5 -29 -65.5 -29c-27.333 0 -49.5 9.33301 -66.5 28s-25.5 42 -25.5 70c0 26.667 8.83301 49.667 26.5 69s39.5 29 65.5 29c27.333 0 49.5 -9.33301 66.5 -28s25.5 -42 25.5 -70z
" />
    <glyph glyph-name="j" unicode="j" horiz-adv-x="483" 
d="M324 -80c0 -118.667 -28.668 -207 -86.001 -265s-138.666 -87 -243.999 -87c-44.667 0 -81.5 3.5 -110.5 10.5s-65.167 19.167 -108.5 36.5v113c81.333 -41.333 155 -62 221 -62c143.333 0 215 86.667 215 260v1000h-176v96h289v-1102zM349.999 1319
c0 -26.667 -8.83301 -49.667 -26.5 -69s-39.5 -29 -65.5 -29c-27.333 0 -49.5 9.33301 -66.5 28s-25.5 42 -25.5 70c0 26.667 8.83301 49.667 26.5 69s39.5 29 65.5 29c27.333 0 49.5 -9.33301 66.5 -28s25.5 -42 25.5 -70z" />
    <glyph glyph-name="k" unicode="k" horiz-adv-x="899" 
d="M877 0h-156l-373 498l-76 -62v-436h-112v1462h112v-899c164.667 150.667 300.667 303.667 408 459h139c-64 -89.333 -122.667 -164.333 -176 -225s-124.333 -136 -213 -226z" />
    <glyph glyph-name="l" unicode="l" horiz-adv-x="454" 
d="M295 0h-113v1366h-176v96h289v-1462z" />
    <glyph glyph-name="m" unicode="m" horiz-adv-x="1462" 
d="M1313 0l-113 0.00390625v719c0 65.333 -10.833 118.166 -32.5 158.499s-57.167 60.5 -106.5 60.5c-50 0 -95.5 -19.833 -136.5 -59.5s-72.5 -90.334 -94.5 -152.001s-33 -126.5 -33 -194.5v-532h-113v719c0 65.333 -10.833 118.166 -32.5 158.499
s-57.167 60.5 -106.5 60.5c-50 0 -95.5 -19.833 -136.5 -59.5s-72.5 -90.334 -94.5 -152.001s-33 -126.5 -33 -194.5v-532h-113v686c0 117.333 -13 229.333 -39 336h111c18.667 -84 28.667 -156.333 30 -217h2c26 71.333 63.333 128 112 170s105 63 169 63
c74 0 131.333 -19.833 172 -59.5s62.667 -96.167 66 -169.5h2c25.333 73.333 62.333 129.833 111 169.5s103.667 59.5 165 59.5c84.667 0 146.5 -24.5 185.5 -73.5s58.5 -123.5 58.5 -223.5v-741z" />
    <glyph glyph-name="n" unicode="n" horiz-adv-x="1001" 
d="M852 0l-112.999 0.000976562v668c0 101.333 -14.833 171.666 -44.5 210.999s-73.5 59 -131.5 59c-82.667 0 -150.334 -42.5 -203.001 -127.5s-79 -187.833 -79 -308.5v-502h-113v686c0 117.333 -13 229.333 -39 336h111c18.667 -85.333 28 -157 28 -215l2 -2
c27.333 73.333 67.833 130.5 121.5 171.5s117.167 61.5 190.5 61.5c180 0 270 -109 270 -327v-711z" />
    <glyph glyph-name="o" unicode="o" horiz-adv-x="946" 
d="M868 510c0 -167.333 -35.832 -296.832 -107.499 -388.499s-167.5 -137.5 -287.5 -137.5c-127.333 0 -225 43.667 -293 131s-102 219 -102 395c0 167.333 36.333 297.166 109 389.499s168.667 138.5 288 138.5c127.333 0 224.666 -44 291.999 -132s101 -220 101 -396z
M750.001 512.001c0 136 -23.833 241.667 -71.5 317s-116.167 113 -205.5 113s-157.666 -37.667 -204.999 -113s-71 -181 -71 -317c0 -136.667 23.667 -242.5 71 -317.5s115 -112.5 203 -112.5c91.333 0 160.666 37.333 207.999 112s71 180.667 71 318z" />
    <glyph glyph-name="p" unicode="p" horiz-adv-x="974" 
d="M897 512c0 -168.667 -33.832 -298.833 -101.499 -390.5s-160.834 -137.5 -279.501 -137.5c-100 0 -182 30 -246 90l-2 -2c8.66699 -63.333 13 -161 13 -293v-195h-113v1102c0 117.333 -13 229.333 -39 336h111c9.33301 -39.333 16 -78.333 20 -117l2 -2
c78 90 171 135 279 135c112.667 0 200.167 -43.167 262.5 -129.5s93.5 -218.5 93.5 -396.5zM778.001 510.001c0 136.667 -22.167 242.5 -66.5 317.5s-107.5 112.5 -189.5 112.5c-51.333 0 -98.166 -14.333 -140.499 -43s-75.833 -67.667 -100.5 -117v-585
c32 -38.667 66.667 -67.5 104 -86.5s81.666 -28.5 132.999 -28.5c87.333 0 152.5 37.333 195.5 112s64.5 180.667 64.5 318z" />
    <glyph glyph-name="q" unicode="q" horiz-adv-x="974" 
d="M846 1022c-26 -106.667 -39.001 -218.667 -39.001 -336v-1126h-113v256c0 132 4.33301 229.667 13 293l-2 2c-35.333 -40 -76.5 -71.167 -123.5 -93.5s-96.167 -33.5 -147.5 -33.5c-112.667 0 -200.167 43.167 -262.5 129.5s-93.5 218.5 -93.5 396.5
c0 168.667 33.833 298.834 101.5 390.501s160.834 137.5 279.501 137.5c110 0 196.667 -35.333 260 -106l2 2c2 17.333 7.33301 46.666 16 87.999h109zM693.999 242l0.000976562 585c-62.667 76.667 -141.667 115 -237 115c-87.333 0 -152.5 -37.333 -195.5 -112
s-64.5 -180.667 -64.5 -318c0 -136.667 22.167 -242.5 66.5 -317.5s107.5 -112.5 189.5 -112.5c51.333 0 98.166 14.333 140.499 43s75.833 67.667 100.5 117z" />
    <glyph glyph-name="r" unicode="r" horiz-adv-x="757" 
d="M772 981l-75.999 -87.999c-24.667 24.667 -55.334 37 -92.001 37c-91.333 0 -164.333 -50 -219 -150s-82 -233.667 -82 -401v-379h-113v496c0 107.333 -8.5 200.666 -25.5 279.999s-45.833 161.333 -86.5 246h119c46.667 -102.667 74 -197.667 82 -285h2
c38 98.667 84 173.5 138 224.5s119.667 76.5 197 76.5c61.333 0 113.333 -19 156 -57z" />
    <glyph glyph-name="s" unicode="s" horiz-adv-x="788" 
d="M709 266c0 -84 -27.6689 -152.334 -83.002 -205.001s-129.666 -79 -222.999 -79c-119.333 0 -231 36 -335 108l63 100c52.667 -38 99.667 -65.5 141 -82.5s84.333 -25.5 129 -25.5c57.333 0 103.833 15.333 139.5 46s53.5 70.667 53.5 120c0 34.667 -7 65.334 -21 92.001
s-32.5 48.167 -55.5 64.5s-49.333 32 -79 47s-59.834 28.167 -90.501 39.5s-60.834 25.666 -90.501 42.999s-56 35.833 -79 55.5s-41.5 45.834 -55.5 78.501s-21 70 -21 112c0 79.333 26.833 143.166 80.5 191.499s124.5 72.5 212.5 72.5c92 0 189 -31.333 291 -94l-57 -90
c-85.333 57.333 -162.666 86 -231.999 86c-58 0 -102.833 -15 -134.5 -45s-47.5 -67.667 -47.5 -113c0 -30.667 7 -58 21 -82s32.667 -43.5 56 -58.5s49.833 -29.667 79.5 -44s59.834 -27.166 90.501 -38.499s60.834 -25.833 90.501 -43.5s56.167 -37 79.5 -58
s42 -48.333 56 -82s21 -72.167 21 -115.5z" />
    <glyph glyph-name="t" unicode="t" horiz-adv-x="747" 
d="M780 137c-47.333 -51.333 -93.667 -89.667 -139 -115s-97.333 -38 -156 -38c-92.667 0 -159.834 25.167 -201.501 75.5s-62.5 128.833 -62.5 235.5v631h-217v96h217v328h113v-328h332v-96h-332v-637c0 -62 13.833 -111.333 41.5 -148s69.834 -55 126.501 -55
c73.333 0 141 41.667 203 125z" />
    <glyph glyph-name="u" unicode="u" horiz-adv-x="1001" 
d="M872 0l-109.998 -0.00195312c-19.333 86.667 -29 158.334 -29 215.001l-2 2c-26.667 -73.333 -67 -130.5 -121 -171.5s-117.333 -61.5 -190 -61.5c-180 0 -270 109 -270 327v711h112v-668c0 -101.333 14.833 -171.666 44.5 -210.999s73.5 -59 131.5 -59
c55.333 0 104.666 20 147.999 60s76.666 93 99.999 159s35 138.333 35 217v502h113v-686c0 -116 12.667 -228 38 -336z" />
    <glyph glyph-name="v" unicode="v" horiz-adv-x="858" 
d="M813 1022l-330 -1022h-108l-330 1022h123l141 -453l36 -116l29.5 -94l21 -69c7.66699 -25.333 13.167 -44 16.5 -56s6.66602 -25 9.99902 -39s5.66602 -25.333 6.99902 -34s2.33301 -17.334 3 -26.001h2c0.666992 8.66699 1.83398 17.334 3.50098 26.001
s4.33398 20 8.00098 34l10.5 39.5c3.33301 12.333 8.83301 30.833 16.5 55.5l21.5 69l29 94l36 116l139 453h115z" />
    <glyph glyph-name="w" unicode="w" horiz-adv-x="1150" 
d="M1083 1022l-162.997 -1022h-136l-84 289l-33.5 117l-28 96.5l-21 72.5l-17 60c-3.66699 13.333 -7.33398 27.833 -11.001 43.5s-6.33398 28.667 -8.00098 39s-2.83398 20.5 -3.50098 30.5h-3c-1.33301 -11.333 -3.5 -24.166 -6.5 -38.499s-6.16699 -28.5 -9.5 -42.5
s-8.83301 -34.667 -16.5 -62l-21.5 -75.5l-31.5 -107.5l-38.5 -133l-84 -289h-136l-163 1022h125l65 -449c34 -236.667 52.333 -384.667 55 -444h2c10 51.333 51 199.333 123 444l76 261h133l76 -261c72 -244.667 113 -392.667 123 -444h2c2.66699 59.333 21 207.333 55 444
l66 449h114z" />
    <glyph glyph-name="x" unicode="x" horiz-adv-x="874" 
d="M848 0h-142.999l-209 352c-37.333 63.333 -58 100.333 -62 111l-2 2c-6.66699 -15.333 -28.334 -54.333 -65.001 -117l-209 -348h-131l348 549l-301 473h139l160 -270c4.66699 -8.66699 10.667 -19.167 18 -31.5l15.5 -26.5l10.5 -18.5c4 -7 7.16699 -13 9.5 -18
s4.16602 -9.83301 5.49902 -14.5l2 -2c4.66699 10.667 25.334 47.667 62.001 111l161 270h129l-292 -465z" />
    <glyph glyph-name="y" unicode="y" horiz-adv-x="833" 
d="M788 1022l-382.001 -1198c-28.667 -88.667 -64.167 -153.5 -106.5 -194.5s-102.5 -61.5 -180.5 -61.5c-49.333 0 -93 6.5 -131 19.5s-81.667 33.167 -131 60.5l49 92c75.333 -50.667 145.666 -76 210.999 -76c29.333 0 54.166 4.5 74.499 13.5s38.333 24.5 54 46.5
s28.834 45.5 39.501 70.5s23 59.5 37 103.5l43 135l-320 989h123l129 -416l29 -92.5l24.5 -78.5l19.5 -62.5c7.33301 -23.667 12.666 -41.5 15.999 -53.5s7.33301 -25.667 12 -41s7.83398 -27 9.50098 -35s3.66699 -16.833 6 -26.5s3.83301 -17.834 4.5 -24.501l2 -20h2
c0.666992 8.66699 1.83398 17.334 3.50098 26.001s4.33398 19.834 8.00098 33.501l10.5 39c3.33301 12.333 8.83301 31 16.5 56l21.5 69.5l29 94l36 116l127 416h114z" />
    <glyph glyph-name="z" unicode="z" horiz-adv-x="815" 
d="M743 0h-673v88l528 832l-2 2c-24.667 -2.66699 -101.667 -4 -231 -4h-254v104h616v-88l-524 -830l2 -2c24.667 2.66699 101.667 4 231 4h307v-106z" />
    <glyph glyph-name="braceleft" unicode="{" horiz-adv-x="645" 
d="M666 -297h-102.997c-89.333 0 -151.5 20.667 -186.5 62s-52.5 101.333 -52.5 180v379c0 24 -0.166992 41.833 -0.5 53.5s-1 27.334 -2 47.001s-3 34.167 -6 43.5l-11.5 35c-4.66699 14 -11 24.5 -19 31.5s-17.5 14.667 -28.5 23s-24.167 14.5 -39.5 18.5
s-33 7.33301 -53 10v106c20 2 37.667 5.16699 53 9.5s28.5 10.666 39.5 18.999s20.5 16.333 28.5 24s14.333 18.667 19 33l11.5 36c3 9.66699 5 24.334 6 44.001s1.66699 35.167 2 46.5s0.5 28.666 0.5 51.999v338c0 78.667 17.5 138.667 52.5 180s97.167 62 186.5 62h103
v-84h-88c-54 0 -91.833 -13.167 -113.5 -39.5s-32.5 -70.5 -32.5 -132.5v-344c0 -28 -0.333008 -49.167 -1 -63.5s-2.33398 -32.166 -5.00098 -53.499s-7.33398 -38.5 -14.001 -51.5s-15.667 -27.5 -27 -43.5s-26 -30.5 -44 -43.5s-39.667 -26.167 -65 -39.5v-2
c29.333 -12.667 54.166 -27.834 74.499 -45.501s35.833 -35 46.5 -52s18.667 -38.5 24 -64.5s8.5 -48.333 9.5 -67s1.5 -44 1.5 -76v-375c0 -64 10.5 -108.667 31.5 -134s59.167 -38 114.5 -38h88v-84z" />
    <glyph glyph-name="bar" unicode="|" horiz-adv-x="522" 
d="M307 -512h-92v2048h92v-2048z" />
    <glyph glyph-name="braceright" unicode="}" horiz-adv-x="645" 
d="M481 588c-17.333 -2 -32.999 -5.16699 -46.999 -9.5s-26.333 -8.83301 -37 -13.5s-20 -11.5 -28 -20.5s-14.667 -17 -20 -24s-9.66602 -17.167 -12.999 -30.5s-6 -24.5 -8 -33.5s-3.5 -22.333 -4.5 -40s-1.5 -31.834 -1.5 -42.501v-48v-381
c0 -78.667 -17.667 -138.667 -53 -180s-97.666 -62 -186.999 -62h-102v84h88c54.667 0 92.5 12.667 113.5 38s31.5 70 31.5 134v375c0 32 0.5 57.333 1.5 76s4.16699 41 9.5 67s13.333 47.5 24 64.5s26.167 34.333 46.5 52s45.166 32.834 74.499 45.501v2
c-25.333 13.333 -47 26.5 -65 39.5s-32.667 27.5 -44 43.5s-20.333 30.5 -27 43.5s-11.334 30.167 -14.001 51.5s-4.33398 39.166 -5.00098 53.499s-1 35.5 -1 63.5v344c0 62 -10.833 106.167 -32.5 132.5s-59.167 39.5 -112.5 39.5h-88v84h102
c89.333 0 151.666 -20.667 186.999 -62s53 -101.333 53 -180v-336c0 -23.333 0.166992 -40.666 0.5 -51.999s1 -26.833 2 -46.5s3 -34.334 6 -44.001l11.5 -36c4.66699 -14.333 11 -25.333 19 -33s17.333 -15.667 28 -24s23.834 -14.666 39.501 -18.999
s33.167 -7.5 52.5 -9.5v-106z" />
    <glyph glyph-name="asciitilde" unicode="~" horiz-adv-x="1001" 
d="M909 647c-87.333 -61.333 -162.332 -92 -224.999 -92c-40.667 0 -80.667 7.66699 -120 23l-122 46c-42 15.333 -86.333 23 -133 23c-64.667 0 -137 -30.667 -217 -92v121c81.333 62.667 153.666 94 216.999 94c46.667 0 91 -7.66699 133 -23l122 -46
c39.333 -15.333 79.333 -23 120 -23c64 0 139 30 225 90v-121z" />
    <glyph glyph-name="uni00A0" unicode="&#xa0;" horiz-adv-x="450" 
 />
    <glyph glyph-name="exclamdown" unicode="&#xa1;" horiz-adv-x="462" 
d="M301 -410h-139l22 1002h95zM346 918c0 -34.667 -10.833 -63.5 -32.5 -86.5s-49.167 -34.5 -82.5 -34.5s-60.666 11.5 -81.999 34.5s-32 51.833 -32 86.5c0 34 10.667 62.5 32 85.5s48.666 34.5 81.999 34.5s60.833 -11.5 82.5 -34.5s32.5 -51.5 32.5 -85.5z" />
    <glyph glyph-name="cent" unicode="&#xa2;" horiz-adv-x="1021" 
d="M901 207c-90.667 -95.333 -187.666 -147.334 -290.999 -156.001v-188h-104v190c-228 28 -342 202 -342 522c0 150.667 30.167 271 90.5 361s144.166 144 251.499 162v155h102v-149c110.667 -7.33301 203 -54.333 277 -141l-82 -74
c-25.333 34.667 -57.5 62.834 -96.5 84.501s-81.833 32.5 -128.5 32.5c-98 0 -171.667 -37 -221 -111s-74 -179.667 -74 -317c0 -138 24.667 -243.833 74 -317.5s122 -110.5 218 -110.5c94.667 0 178.667 45.667 252 137z" />
    <glyph glyph-name="sterling" unicode="&#xa3;" horiz-adv-x="1126" 
d="M1024 299c0 -104 -24.333 -182.501 -73 -235.501s-118.667 -79.5 -210 -79.5c-44.667 0 -88.334 7.5 -131.001 22.5s-81.334 30 -116.001 45s-65 22.5 -91 22.5c-54.667 0 -114 -25.333 -178 -76l-61 84c79.333 60.667 136.333 124.667 171 192s52 148 52 242
c0 31.333 -4.66699 83.333 -14 156h-162v98h147c-16 122.667 -24 199 -24 229c0 117.333 29.167 208.166 87.5 272.499s138.5 96.5 240.5 96.5c82.667 0 150.334 -24.167 203.001 -72.5s81 -114.166 85 -197.499h-104c-6 52 -25.5 92.667 -58.5 122s-75.833 44 -128.5 44
c-60.667 0 -110.167 -21.667 -148.5 -65s-57.5 -100.333 -57.5 -171c0 -49.333 8 -135.333 24 -258h254v-98h-239c9.33301 -77.333 14 -134.666 14 -171.999c0 -63.333 -9.83301 -119 -29.5 -167s-59.167 -107 -118.5 -177v-2c44 10.667 85 16 123 16
c39.333 0 89.333 -13.333 150 -40s108.334 -40 143.001 -40c50.667 0 89 17 115 51s39 81.333 39 142c0 14.667 -0.666992 29 -2 43h98v-27z" />
    <glyph glyph-name="currency" unicode="&#xa4;" horiz-adv-x="1175" 
d="M1053 899l-144 -133c52 -74 78 -156.667 78 -248c0 -96 -29.333 -181.333 -88 -256l152 -141l-76 -76l-139 152c-77.333 -64.667 -165 -97 -263 -97c-91.333 0 -172.333 28 -243 84l-129 -139l-76 76l137 129c-62.667 76.667 -94 166 -94 268c0 94 29.333 179.333 88 256
l-133 125l76 76l123 -133c75.333 62.667 162 94 260 94c97.333 0 185.333 -33.333 264 -100l131 139zM887 520c0 88 -30.332 164.333 -90.999 229s-134.334 97 -221.001 97c-86 0 -158.667 -32.333 -218 -97s-89 -141 -89 -229s30.5 -164.5 91.5 -229.5
s134.5 -97.5 220.5 -97.5s158.667 32.5 218 97.5s89 141.5 89 229.5z" />
    <glyph glyph-name="yen" unicode="&#xa5;" horiz-adv-x="1044" 
d="M922 1352l-311.999 -714.999h234v-88h-254v-146h254v-88h-254v-315h-119v315h-262v88h262v146h-262v88h231l-317 715h143l205 -504l16 -39.5l13.5 -33.5l9.5 -25c4 -10.667 6.66699 -18.334 8 -23.001s3.16602 -10.5 5.49902 -17.5s3.83301 -13 4.5 -18l2 -15.5h2
c4 22.667 24 80 60 172l199 504h131z" />
    <glyph glyph-name="brokenbar" unicode="&#xa6;" horiz-adv-x="522" 
d="M307 307v-819h-92v819h92zM307 1536v-717h-92v717h92z" />
    <glyph glyph-name="section" unicode="&#xa7;" horiz-adv-x="1052" 
d="M868 602c0 -60.667 -15.5029 -113.67 -46.5029 -159.003s-72.167 -79 -123.5 -101c78 -65.333 117 -146.666 117 -243.999c0 -85.333 -28.667 -154.333 -86 -207s-133 -79 -227 -79c-110 0 -216 36.667 -318 110l47 101c56.667 -39.333 106.334 -68 149.001 -86
s85.334 -27 128.001 -27c59.333 0 106.5 15.167 141.5 45.5s52.5 71.166 52.5 122.499c0 38 -9.16699 72.833 -27.5 104.5s-42.333 59.167 -72 82.5s-62.5 45.833 -98.5 67.5l-107.5 67.5c-35.667 23.333 -68.334 48.333 -98.001 75s-53.667 59.167 -72 97.5
s-27.5 80.833 -27.5 127.5c0 57.333 17 107.833 51 151.5s79.667 76.5 137 98.5c-90 68.667 -135 153.334 -135 254.001c0 76 26.667 139.333 80 190s123 76 209 76c96 0 189.333 -34 280 -102l-51 -82c-86.667 58.667 -163 88 -229 88c-58 0 -102.333 -15 -133 -45
s-46 -67.333 -46 -112c0 -34.667 9.33301 -66.834 28 -96.501s42.834 -55.667 72.501 -78s62.5 -44.166 98.5 -65.499s72 -44 108 -68s68.833 -49.667 98.5 -77s53.834 -60.666 72.501 -99.999s28 -82.666 28 -129.999zM753.997 583.997
c0 18.667 -2.33203 36.6631 -6.99902 53.9961s-10.5 32.833 -17.5 46.5s-17 27.834 -30 42.501s-25 26.834 -36 36.501s-25.833 21.334 -44.5 35.001s-34.167 24.334 -46.5 32.001l-51.5 32.5l-50 32c-49.333 -14.667 -88.666 -37.167 -117.999 -67.5s-44 -68.5 -44 -114.5
c0 -27.333 5.33301 -52.833 16 -76.5s28.167 -46.5 52.5 -68.5s46.166 -40.167 65.499 -54.5s48.166 -33.5 86.499 -57.5s66.5 -42.333 84.5 -55c42 15.333 75.833 38.833 101.5 70.5s38.5 69.167 38.5 112.5z" />
    <glyph glyph-name="dieresis" unicode="&#xa8;" horiz-adv-x="884" 
d="M354 1329c0 -24 -7.83105 -44.333 -23.498 -61s-35.167 -25 -58.5 -25c-24.667 0 -44.834 8.33301 -60.501 25s-23.5 37 -23.5 61c0 24.667 7.66699 45.167 23 61.5s35.666 24.5 60.999 24.5c23.333 0 42.833 -8.16699 58.5 -24.5s23.5 -36.833 23.5 -61.5zM698.002 1329
c0 -24 -7.83301 -44.333 -23.5 -61s-35.834 -25 -60.501 -25c-23.333 0 -42.833 8.33301 -58.5 25s-23.5 37 -23.5 61c0 24.667 7.83301 45.167 23.5 61.5s35.167 24.5 58.5 24.5c24.667 0 44.834 -8.16699 60.501 -24.5s23.5 -36.833 23.5 -61.5z" />
    <glyph glyph-name="copyright" unicode="&#xa9;" horiz-adv-x="1822" 
d="M1628 700c0 -129.333 -31.999 -249.001 -95.999 -359.001s-151 -197 -261 -261s-230 -96 -360 -96c-129.333 0 -249 32 -359 96s-197 151 -261 261s-96 229.667 -96 359c0 130 32 250 96 360s151 197 261 261s229.667 96 359 96c97.333 0 190.166 -19 278.499 -57
s164.5 -89 228.5 -153s115 -140.167 153 -228.5s57 -181.166 57 -278.499zM1538 699.999c0 114.667 -27.833 220.667 -83.5 318s-131.667 174.5 -228 231.5s-201.5 85.5 -315.5 85.5c-85.333 0 -166.666 -16.833 -243.999 -50.5s-143.833 -79 -199.5 -136
s-100 -124.5 -133 -202.5s-49.5 -160 -49.5 -246c0 -85.333 16.5 -167.166 49.5 -245.499s77.333 -145.833 133 -202.5s122.167 -101.834 199.5 -135.501s158.666 -50.5 243.999 -50.5c114 0 219.167 28.5 315.5 85.5s172.333 134.167 228 231.5s83.5 203 83.5 317z
M1147 482.999c-5.33301 -50.667 -30.668 -94.333 -76.001 -131s-98.666 -55 -159.999 -55c-94 0 -164.5 32.333 -211.5 97s-70.5 166.667 -70.5 306c0 133.333 26.5 233.333 79.5 300s123.5 100 211.5 100c61.333 0 112 -15.5 152 -46.5s64.333 -74.833 73 -131.5h-107
c-8.66699 35.333 -23.5 59.833 -44.5 73.5s-49.167 20.5 -84.5 20.5c-116 0 -174 -104.667 -174 -314c0 -115.333 14 -197 42 -245s75 -72 141 -72c32.667 0 59.667 8.66699 81 26s35 41.333 41 72h107z" />
    <glyph glyph-name="ordfeminine" unicode="&#xaa;" horiz-adv-x="804" 
d="M686 637h-96c-11.333 52 -17.666 89.667 -18.999 113l-2 2c-24.667 -38 -56.5 -68.667 -95.5 -92s-81.5 -35 -127.5 -35c-74.667 0 -131.167 21.167 -169.5 63.5s-57.5 100.833 -57.5 175.5c0 78.667 24 140.334 72 185.001s110 67 186 67c61.333 0 122 -11.667 182 -35
v70c0 62.667 -13.333 109 -40 139s-71.334 45 -134.001 45c-51.333 0 -106.666 -13 -165.999 -39l-26 74c70.667 31.333 141.667 47 213 47c77.333 0 138.166 -19.667 182.499 -59s66.5 -95.333 66.5 -168v-299c0 -82.667 10.333 -167.334 31 -254.001zM559 952v52
c-59.333 21.333 -112 32 -158 32c-54 0 -97.5 -14.833 -130.5 -44.5s-49.5 -71.5 -49.5 -125.5c0 -102 50 -153 150 -153c58 0 103.833 23.833 137.5 71.5s50.5 103.5 50.5 167.5z" />
    <glyph glyph-name="guillemotleft" unicode="&#xab;" horiz-adv-x="808" 
d="M758 229l-92 -65l-263 368l263 367l88 -63l-222 -301zM389 229l-92 -65l-256 368l256 367l88 -63l-215 -301z" />
    <glyph glyph-name="logicalnot" unicode="&#xac;" horiz-adv-x="1007" 
d="M874 221h-114v322h-678v102h792v-424z" />
    <glyph glyph-name="uni00AD" unicode="&#xad;" horiz-adv-x="690" 
d="M557 502h-424v114h424v-114z" />
    <glyph glyph-name="registered" unicode="&#xae;" horiz-adv-x="1822" 
d="M1628 700c0 -129.333 -31.999 -249.001 -95.999 -359.001s-151 -197 -261 -261s-230 -96 -360 -96c-129.333 0 -249 32 -359 96s-197 151 -261 261s-96 229.667 -96 359c0 130 32 250 96 360s151 197 261 261s229.667 96 359 96c97.333 0 190.166 -19 278.499 -57
s164.5 -89 228.5 -153s115 -140.167 153 -228.5s57 -181.166 57 -278.499zM1538 699.999c0 114.667 -27.833 220.667 -83.5 318s-131.667 174.5 -228 231.5s-201.5 85.5 -315.5 85.5c-85.333 0 -166.666 -16.833 -243.999 -50.5s-143.833 -79 -199.5 -136
s-100 -124.5 -133 -202.5s-49.5 -160 -49.5 -246c0 -85.333 16.5 -167.166 49.5 -245.499s77.333 -145.833 133 -202.5s122.167 -101.834 199.5 -135.501s158.666 -50.5 243.999 -50.5c114 0 219.167 28.5 315.5 85.5s172.333 134.167 228 231.5s83.5 203 83.5 317z
M1208 304.999h-131l-188 332h-111v-332h-102v787h242c80.667 0 142.667 -19 186 -57s65 -90.667 65 -158c0 -54 -13.833 -101.5 -41.5 -142.5s-71.167 -70.167 -130.5 -87.5zM1059 876.999c0 44.667 -15.333 77.333 -46 98s-70 31 -118 31h-117v-283h105
c54 0 96.833 12.333 128.5 37s47.5 63.667 47.5 117z" />
    <glyph glyph-name="macron" unicode="&#xaf;" horiz-adv-x="980" 
d="M741 1274h-499v90h499v-90z" />
    <glyph glyph-name="degree" unicode="&#xb0;" horiz-adv-x="745" 
d="M643 1163c0 -94.667 -25.166 -169.167 -75.499 -223.5s-115.833 -81.5 -196.5 -81.5c-84.667 0 -150.667 26 -198 78s-71 127.667 -71 227c0 96.667 25 172 75 226s115.333 81 196 81c85.333 0 151.666 -26.167 198.999 -78.5s71 -128.5 71 -228.5zM541.001 1165
c0 71.333 -14.499 127.166 -43.499 167.499s-70.5 60.5 -124.5 60.5c-54.667 0 -96.334 -20.167 -125.001 -60.5s-43 -96.166 -43 -167.499s14.333 -127 43 -167s69.667 -60 123 -60c55.333 0 97.5 19.5 126.5 58.5s43.5 95.167 43.5 168.5z" />
    <glyph glyph-name="plusminus" unicode="&#xb1;" horiz-adv-x="1236" 
d="M1073 616h-399v-407h-111v407h-399v103h399v407h111v-407h399v-103zM1073 0h-909v102h909v-102z" />
    <glyph glyph-name="twosuperior" unicode="&#xb2;" horiz-adv-x="659" 
d="M88 1300c36 36 74.0039 63.502 114.004 82.502s87.333 28.5 142 28.5c69.333 0 126 -19.5 170 -58.5s66 -89.833 66 -152.5c0 -37.333 -7.33301 -71.333 -22 -102s-33.834 -56.834 -57.501 -78.501s-49.667 -42.334 -78 -62.001l-85 -57.5
c-28.333 -18.667 -54.333 -38.167 -78 -58.5s-42.834 -44.333 -57.501 -72s-22 -58.167 -22 -91.5h412v-96h-522v63c0 49.333 7.16699 93.5 21.5 132.5s33.166 71 56.499 96s48.833 47.833 76.5 68.5s55.5 39.5 83.5 56.5s53.667 34.333 77 52s42.166 38.667 56.499 63
s21.5 51.833 21.5 82.5c0 36.667 -10.833 65.667 -32.5 87s-51.834 32 -90.501 32c-59.333 0 -120.666 -29.333 -183.999 -88z" />
    <glyph glyph-name="threesuperior" unicode="&#xb3;" horiz-adv-x="618" 
d="M66 1313c36.667 32.667 73.833 57.167 111.5 73.5s82.167 24.5 133.5 24.5c62.667 0 114.167 -17.333 154.5 -52s60.5 -77.334 60.5 -128.001c0 -54 -12.667 -95.833 -38 -125.5s-63 -52.834 -113 -69.501c114.667 -23.333 172 -92.333 172 -207
c0 -80.667 -26 -143.834 -78 -189.501s-119.667 -68.5 -203 -68.5c-68 0 -138.333 18.667 -211 56l45 94c58 -35.333 115.333 -53 172 -53c48.667 0 87.5 14 116.5 42s43.5 70 43.5 126c0 42.667 -15.333 76.834 -46 102.501s-73.334 38.5 -128.001 38.5h-65v96
c79.333 0.666992 136 12.834 170 36.501s51 57.834 51 102.501c0 32.667 -10.667 58.667 -32 78s-49.666 29 -84.999 29c-48 0 -104 -26.667 -168 -80z" />
    <glyph glyph-name="acute" unicode="&#xb4;" horiz-adv-x="888" 
d="M711 1382l-312 -184l-45 66l283 223z" />
    <glyph glyph-name="mu" unicode="&#xb5;" 
d="M895 0l-111 0.000976562c-18.667 84 -28 155.667 -28 215l-2 2c-64 -155.333 -168.667 -233 -314 -233c-74.667 0 -132 19 -172 57c2.66699 -53.333 4 -170 4 -350v-107h-112v1438h112v-686c0 -92.667 15.833 -157.834 47.5 -195.501s76.834 -56.5 135.501 -56.5
c57.333 0 108.166 20 152.499 60s78 92.833 101 158.5s34.5 138.167 34.5 217.5v502h113v-686c0 -117.333 13 -229.333 39 -336z" />
    <glyph glyph-name="paragraph" unicode="&#xb6;" horiz-adv-x="1101" 
d="M877 -190l-103 -0.000976562v1499h-217v-1499h-102v892c-104.667 0 -186.167 32.833 -244.5 98.5s-87.5 149.834 -87.5 252.501c0 100 28 183 84 249s131.667 99 227 99h443v-1591z" />
    <glyph glyph-name="periodcentered" unicode="&#xb7;" horiz-adv-x="651" 
d="M457 592c0 -36.667 -12.833 -67.667 -38.5 -93s-56.5 -38 -92.5 -38c-37.333 0 -68.5 12.5 -93.5 37.5s-37.5 56.167 -37.5 93.5c0 36 12.667 66.833 38 92.5s56.333 38.5 93 38.5c35.333 0 66 -12.833 92 -38.5s39 -56.5 39 -92.5z" />
    <glyph glyph-name="cedilla" unicode="&#xb8;" horiz-adv-x="878" 
d="M674 -256c0 -45.333 -18 -83 -54 -113s-81.667 -45 -137 -45c-53.333 0 -112 11 -176 33l23 80c48 -24.667 93 -37 135 -37c80.667 0 121 27.333 121 82c0 18.667 -4.33301 33.834 -13 45.501s-21 19.667 -37 24s-30 7.16602 -42 8.49902s-27 2 -45 2
c-19.333 0 -36 -0.666992 -50 -2l50 170h73l-30 -107c12 1.33301 21.333 2 28 2c45.333 0 82.333 -12.333 111 -37s43 -60 43 -106z" />
    <glyph glyph-name="onesuperior" unicode="&#xb9;" horiz-adv-x="552" 
d="M61 1341l213 60h74v-725h135v-94h-417v94h174v618l-179 -49v96z" />
    <glyph glyph-name="ordmasculine" unicode="&#xba;" horiz-adv-x="843" 
d="M731 1020c0 -127.333 -27.999 -225 -83.999 -293s-131.667 -102 -227 -102c-204.667 0 -307 131.667 -307 395c0 128 27.667 226.167 83 294.5s130.666 102.5 225.999 102.5c206 0 309 -132.333 309 -397zM627.001 1022c0 207.333 -68.333 311 -205 311
s-205 -103.667 -205 -311s67.667 -311 203 -311c138 0 207 103.667 207 311z" />
    <glyph glyph-name="guillemotright" unicode="&#xbb;" horiz-adv-x="808" 
d="M406 532l-263 -366l-88 63l221 301l-225 306l92 65zM768 532l-256 -366l-88 63l215 301l-219 306l92 65z" />
    <glyph glyph-name="onequarter" unicode="&#xbc;" horiz-adv-x="1875" 
d="M1712 197h-121v-197h-108v197h-373v73l344 549h137v-526h121v-96zM1401 1462l-858 -1616h-115l858 1616h115zM586 582h-418v94h174v618l-178 -49v96l213 60h74v-725h135v-94zM1487 707l-4 0.000976562c-7.33301 -20.667 -27.333 -56.334 -60 -107.001l-137 -217
c-28 -43.333 -50.333 -74 -67 -92l2 -4c14.667 4 102 6 262 6v262c0 86 1.33301 136.667 4 152z" />
    <glyph glyph-name="onehalf" unicode="&#xbd;" horiz-adv-x="1918" 
d="M1401 1462l-858 -1616h-115l858 1616h115zM1755 0l-521.996 0.00195312v63c0 49.333 7.16699 93.5 21.5 132.5s33.166 71.167 56.499 96.5s49 48.166 77 68.499s55.833 38.833 83.5 55.5s53.167 33.5 76.5 50.5s42.166 37.167 56.499 60.5s21.5 49.666 21.5 78.999
c0 40 -10.5 71.167 -31.5 93.5s-50.167 33.5 -87.5 33.5c-34 0 -63 -6.66699 -87 -20s-50.333 -35.333 -79 -66l-81 70c42.667 39.333 81.5 67.833 116.5 85.5s78.5 26.5 130.5 26.5c70.667 0 127.667 -20 171 -60s65 -93 65 -159c0 -35.333 -7.33301 -68 -22 -98
s-33.834 -55.667 -57.501 -77s-49.667 -41.5 -78 -60.5l-85 -56.5c-28.333 -18.667 -54.333 -38 -78 -58s-42.834 -44 -57.501 -72s-22 -58.667 -22 -92h412v-96zM586.004 582.002h-418v94h174v618l-178 -49v96l213 60h74v-725h135v-94z" />
    <glyph glyph-name="threequarters" unicode="&#xbe;" horiz-adv-x="1878" 
d="M1724 197h-120v-197h-109v197h-373v73l344 549h138v-526h120v-96zM1413 1462l-858 -1616h-115l858 1616h115zM655 829c0 -80.667 -25.8311 -143.835 -77.498 -189.502s-119.167 -68.5 -202.5 -68.5c-68 0 -138.333 18.667 -211 56l45 94
c57.333 -35.333 114.666 -53 171.999 -53c48.667 0 87.5 14 116.5 42s43.5 70 43.5 126c0 42.667 -15.5 76.834 -46.5 102.501s-73.5 38.5 -127.5 38.5h-66v96c79.333 0.666992 136 12.834 170 36.501s51 57.834 51 102.501c0 32.667 -10.333 58.667 -31 78s-47 29 -79 29
s-59.833 -6.66699 -83.5 -20s-49.167 -34.666 -76.5 -63.999l-78 68c39.333 37.333 76.5 64.666 111.5 81.999s79.833 26 134.5 26c62.667 0 114.167 -17.333 154.5 -52s60.5 -77.334 60.5 -128.001c0 -52.667 -11 -92.5 -33 -119.5s-55.333 -51.5 -100 -73.5
c49.333 -14 87.166 -39 113.499 -75s39.5 -80.667 39.5 -134zM1499 706.999l-4.00098 0.000976562c-8 -23.333 -27.667 -59 -59 -107l-138 -217c-25.333 -40.667 -47.666 -71.334 -66.999 -92.001l2 -4c14.667 4 102 6 262 6v262c0 86 1.33301 136.667 4 152z" />
    <glyph glyph-name="questiondown" unicode="&#xbf;" horiz-adv-x="755" 
d="M715 -139c-4 -89.333 -34.833 -159.502 -92.5 -210.502s-136.167 -76.5 -235.5 -76.5s-178.5 26.333 -237.5 79s-88.5 121.334 -88.5 206.001c0 38.667 5.83301 75.334 17.5 110.001s27 65.667 46 93s39.833 54 62.5 80l68 77c22.667 25.333 43.5 51 62.5 77
s34.333 55.5 46 88.5s17.5 67.167 17.5 102.5v105h119v-111c0 -53.333 -11 -103.833 -33 -151.5s-48.5 -89.167 -79.5 -124.5l-93 -103.5c-31 -33.667 -57.5 -70.5 -79.5 -110.5s-33 -81.333 -33 -124c0 -56.667 19 -102.667 57 -138s90.667 -53 158 -53
c58.667 0 106.5 17 143.5 51s57.5 78.667 61.5 134h113zM555 917.998c0 -34.667 -10.833 -63.5 -32.5 -86.5s-49.167 -34.5 -82.5 -34.5s-60.666 11.5 -81.999 34.5s-32 51.833 -32 86.5c0 34 10.667 62.5 32 85.5s48.666 34.5 81.999 34.5s60.833 -11.5 82.5 -34.5
s32.5 -51.5 32.5 -85.5z" />
    <glyph glyph-name="Agrave" unicode="&#xc0;" horiz-adv-x="960" 
d="M940 0h-137l-111 422h-430l-110 -422h-132l396 1401h135zM666 524l-123 469l-39 151c-6 24 -11.5 51.5 -16.5 82.5s-7.83301 61.167 -8.5 90.5h-2c-2 -42 -6.83301 -81.5 -14.5 -118.5s-24.5 -105.5 -50.5 -205.5l-123 -469h377zM549 1581l-45 -65l-311 184l73 104z" />
    <glyph glyph-name="Aacute" unicode="&#xc1;" horiz-adv-x="960" 
d="M940 0h-137l-111 422h-430l-110 -422h-132l396 1401h135zM666 524l-123 469l-39 151c-6 24 -11.5 51.5 -16.5 82.5s-7.83301 61.167 -8.5 90.5h-2c-2 -42 -6.83301 -81.5 -14.5 -118.5s-24.5 -105.5 -50.5 -205.5l-123 -469h377zM772 1700l-311 -184l-45 65l282 223z" />
    <glyph glyph-name="Acircumflex" unicode="&#xc2;" horiz-adv-x="960" 
d="M940 0h-137l-111 422h-430l-110 -422h-132l396 1401h135zM666 524l-123 469l-39 151c-6 24 -11.5 51.5 -16.5 82.5s-7.83301 61.167 -8.5 90.5h-2c-2 -42 -6.83301 -81.5 -14.5 -118.5s-24.5 -105.5 -50.5 -205.5l-123 -469h377zM745 1556l-43 -59l-223 154l-215 -150
l-39 55l260 232z" />
    <glyph glyph-name="Atilde" unicode="&#xc3;" horiz-adv-x="960" 
d="M940 0h-137l-111 422h-430l-110 -422h-132l396 1401h135zM666 524l-123 469l-39 151c-6 24 -11.5 51.5 -16.5 82.5s-7.83301 61.167 -8.5 90.5h-2c-2 -42 -6.83301 -81.5 -14.5 -118.5s-24.5 -105.5 -50.5 -205.5l-123 -469h377zM758 1618
c-45.333 -54.667 -105.331 -82 -179.998 -82c-36 0 -74.167 9.83301 -114.5 29.5s-71.833 29.5 -94.5 29.5c-53.333 0 -97.666 -19 -132.999 -57l-48 72c47.333 56 107.666 84 180.999 84c35.333 0 73.166 -10 113.499 -30s72.166 -30 95.499 -30c52 0 96.333 19.333 133 58
z" />
    <glyph glyph-name="Adieresis" unicode="&#xc4;" horiz-adv-x="960" 
d="M940 0h-137l-111 422h-430l-110 -422h-132l396 1401h135zM666 524l-123 469l-39 151c-6 24 -11.5 51.5 -16.5 82.5s-7.83301 61.167 -8.5 90.5h-2c-2 -42 -6.83301 -81.5 -14.5 -118.5s-24.5 -105.5 -50.5 -205.5l-123 -469h377zM393 1616
c0 -24 -7.83105 -44.333 -23.498 -61s-35.167 -25 -58.5 -25c-24.667 0 -44.834 8.33301 -60.501 25s-23.5 37 -23.5 61c0 24.667 7.66699 45.167 23 61.5s35.666 24.5 60.999 24.5c23.333 0 42.833 -8.16699 58.5 -24.5s23.5 -36.833 23.5 -61.5zM737.002 1616
c0 -24 -8.00098 -44.333 -24.001 -61s-36 -25 -60 -25c-23.333 0 -42.833 8.33301 -58.5 25s-23.5 37 -23.5 61c0 24.667 7.83301 45.167 23.5 61.5s35.167 24.5 58.5 24.5c24.667 0 44.834 -8.16699 60.501 -24.5s23.5 -36.833 23.5 -61.5z" />
    <glyph glyph-name="Aring" unicode="&#xc5;" horiz-adv-x="960" 
d="M940 0l-136.999 0.000976562l-111 422h-430l-110 -422h-132l392 1382c-31.333 14 -56.333 35 -75 63s-28 59.667 -28 95c0 47.333 17.167 87.833 51.5 121.5s75.166 50.5 122.499 50.5c49.333 0 90.333 -16.5 123 -49.5s49 -73.833 49 -122.5
c0 -34.667 -9.16699 -65.834 -27.5 -93.501s-42.5 -48.5 -72.5 -62.5zM666.001 524.001l-123 469l-39 151c-6 24 -11.5 51.5 -16.5 82.5s-7.83301 61.167 -8.5 90.5h-2c-2 -42 -6.83301 -81.5 -14.5 -118.5s-24.5 -105.5 -50.5 -205.5l-123 -469h377zM575.001 1540
c0 28.667 -8.33301 52.167 -25 70.5s-39 27.5 -67 27.5s-50.667 -9.16699 -68 -27.5s-26 -41.833 -26 -70.5c0 -28 8.66699 -51.333 26 -70s40 -28 68 -28c27.333 0 49.5 9.33301 66.5 28s25.5 42 25.5 70z" />
    <glyph glyph-name="AE" unicode="&#xc6;" horiz-adv-x="1361" 
d="M1270 0h-608v403h-379l-170 -403h-129l618 1401h612v-98h-440v-515h402v-96h-402v-592h496v-100zM662 502v801h-3l-335 -801h338z" />
    <glyph glyph-name="Ccedilla" unicode="&#xc7;" horiz-adv-x="966" 
d="M891 319c-9.33301 -94 -40.833 -171.168 -94.5 -231.501s-130.834 -94.166 -231.501 -101.499l-28 -101c9.33301 1.33301 18.666 2 27.999 2c45.333 0 82.333 -12.333 111 -37s43 -60 43 -106c0 -45.333 -18 -83 -54 -113s-81.667 -45 -137 -45
c-53.333 0 -112 11 -176 33l23 80c48 -24.667 93 -37 135 -37c80.667 0 121 27.333 121 82c0 30 -11.833 50.833 -35.5 62.5s-60.5 17.5 -110.5 17.5c-16 0 -29.667 -0.666992 -41 -2l48 162c-133.333 8 -233.333 69.833 -300 185.5s-100 294.167 -100 535.5
c0 237.333 40.833 415.333 122.5 534s189.834 178 324.501 178c96 0 174.5 -27.833 235.5 -83.5s97.833 -134.167 110.5 -235.5h-121c-11.333 72 -37.166 125.833 -77.499 161.5s-91.833 53.5 -154.5 53.5c-98.667 0 -176.167 -49.833 -232.5 -149.5
s-84.5 -254.167 -84.5 -463.5c0 -204.667 24.833 -357.5 74.5 -458.5s128.5 -151.5 236.5 -151.5c72 0 128.667 20.333 170 61s66 96.667 74 168h121z" />
    <glyph glyph-name="Egrave" unicode="&#xc8;" horiz-adv-x="950" 
d="M858 0h-674v1401h643v-103h-524v-510h488v-100h-488v-584h555v-104zM629 1581l-45 -65l-312 184l74 104z" />
    <glyph glyph-name="Eacute" unicode="&#xc9;" horiz-adv-x="950" 
d="M858 0h-674v1401h643v-103h-524v-510h488v-100h-488v-584h555v-104zM772 1700l-311 -184l-45 65l282 223z" />
    <glyph glyph-name="Ecircumflex" unicode="&#xca;" horiz-adv-x="950" 
d="M858 0h-674v1401h643v-103h-524v-510h488v-100h-488v-584h555v-104zM760 1556l-43 -59l-223 154l-215 -150l-39 55l260 232z" />
    <glyph glyph-name="Edieresis" unicode="&#xcb;" horiz-adv-x="950" 
d="M858 0h-674v1401h643v-103h-524v-510h488v-100h-488v-584h555v-104zM412 1616c0 -24 -7.83105 -44.333 -23.498 -61s-35.167 -25 -58.5 -25c-24.667 0 -44.834 8.33301 -60.501 25s-23.5 37 -23.5 61c0 24.667 7.66699 45.167 23 61.5s35.666 24.5 60.999 24.5
c23.333 0 42.833 -8.16699 58.5 -24.5s23.5 -36.833 23.5 -61.5zM756.002 1616c0 -24 -8.00098 -44.333 -24.001 -61s-36 -25 -60 -25c-23.333 0 -42.833 8.33301 -58.5 25s-23.5 37 -23.5 61c0 24.667 7.83301 45.167 23.5 61.5s35.167 24.5 58.5 24.5
c24.667 0 44.834 -8.16699 60.501 -24.5s23.5 -36.833 23.5 -61.5z" />
    <glyph glyph-name="Igrave" unicode="&#xcc;" horiz-adv-x="569" 
d="M498 0h-426v104h153v1194h-153v103h426v-103h-154v-1194h154v-104zM381 1581l-45 -65l-311 184l73 104z" />
    <glyph glyph-name="Iacute" unicode="&#xcd;" horiz-adv-x="569" 
d="M498 0h-426v104h153v1194h-153v103h426v-103h-154v-1194h154v-104zM565 1700l-311 -184l-45 65l283 223z" />
    <glyph glyph-name="Icircumflex" unicode="&#xce;" horiz-adv-x="569" 
d="M498 0h-426v104h153v1194h-153v103h426v-103h-154v-1194h154v-104zM545 1556l-43 -59l-223 154l-216 -150l-38 55l260 232z" />
    <glyph glyph-name="Idieresis" unicode="&#xcf;" horiz-adv-x="569" 
d="M498 0h-426v104h153v1194h-153v103h426v-103h-154v-1194h154v-104zM199 1616c0 -24 -7.83105 -44.333 -23.498 -61s-35.167 -25 -58.5 -25c-24.667 0 -44.834 8.33301 -60.501 25s-23.5 37 -23.5 61c0 24.667 7.66699 45.167 23 61.5s35.666 24.5 60.999 24.5
c23.333 0 42.833 -8.16699 58.5 -24.5s23.5 -36.833 23.5 -61.5zM543.002 1616c0 -24 -8.00098 -44.333 -24.001 -61s-36 -25 -60 -25c-23.333 0 -42.833 8.33301 -58.5 25s-23.5 37 -23.5 61c0 24.667 7.83301 45.167 23.5 61.5s35.167 24.5 58.5 24.5
c24.667 0 44.834 -8.16699 60.501 -24.5s23.5 -36.833 23.5 -61.5z" />
    <glyph glyph-name="Eth" unicode="&#xd0;" horiz-adv-x="1114" 
d="M1022 707c0 -246.667 -38.167 -426.167 -114.5 -538.5s-198.5 -168.5 -366.5 -168.5h-303v707h-177v102h177v592h315c166 0 285.667 -54.333 359 -163s110 -285.667 110 -531zM897 705c0 108.667 -5.83008 199.166 -17.4971 271.499s-31.834 133.333 -60.501 183
s-66.834 85.5 -114.501 107.5s-107.834 33 -180.501 33h-168v-491h219v-102h-219v-605h174c71.333 0 130.5 11.333 177.5 34s84.5 59.334 112.5 110.001s47.833 112.5 59.5 185.5s17.5 164.167 17.5 273.5z" />
    <glyph glyph-name="Ntilde" unicode="&#xd1;" horiz-adv-x="1189" 
d="M1006 0l-159.999 0.00195312l-318 698c-96.667 214.667 -176.334 404.667 -239.001 570l-4 -2c8 -176.667 12 -408.334 12 -695.001v-571h-113v1401h158l317 -699c102 -222.667 182.667 -412.334 242 -569.001l4 2c-8 176 -12 407.333 -12 694v572h113v-1401z
M887.001 1618c-45.333 -54.667 -105.331 -82 -179.998 -82c-36 0 -74.167 9.83301 -114.5 29.5s-71.833 29.5 -94.5 29.5c-53.333 0 -97.666 -19 -132.999 -57l-48 72c47.333 56 107.666 84 180.999 84c35.333 0 73.166 -10 113.499 -30s72.166 -30 95.499 -30
c52 0 96.333 19.333 133 58z" />
    <glyph glyph-name="Ograve" unicode="&#xd2;" horiz-adv-x="1052" 
d="M961 700c0 -242 -38.667 -421.834 -116 -539.501s-187 -176.5 -329 -176.5c-282.667 0 -424 238.667 -424 716c0 240.667 39.167 420.334 117.5 539.001s187.5 178 327.5 178c282.667 0 424 -239 424 -717zM838 704.999c0 406.667 -104 610 -312 610
c-100.667 0 -177.667 -48.833 -231 -146.5s-80 -240.167 -80 -427.5c0 -220 24.833 -383.833 74.5 -491.5s128.5 -161.5 236.5 -161.5c208 0 312 205.667 312 617zM618 1581l-45 -65l-311 184l74 104z" />
    <glyph glyph-name="Oacute" unicode="&#xd3;" horiz-adv-x="1052" 
d="M961 700c0 -242 -38.667 -421.834 -116 -539.501s-187 -176.5 -329 -176.5c-282.667 0 -424 238.667 -424 716c0 240.667 39.167 420.334 117.5 539.001s187.5 178 327.5 178c282.667 0 424 -239 424 -717zM838 704.999c0 406.667 -104 610 -312 610
c-100.667 0 -177.667 -48.833 -231 -146.5s-80 -240.167 -80 -427.5c0 -220 24.833 -383.833 74.5 -491.5s128.5 -161.5 236.5 -161.5c208 0 312 205.667 312 617zM793 1700l-312 -184l-45 65l283 223z" />
    <glyph glyph-name="Ocircumflex" unicode="&#xd4;" horiz-adv-x="1052" 
d="M961 700c0 -242 -38.667 -421.834 -116 -539.501s-187 -176.5 -329 -176.5c-282.667 0 -424 238.667 -424 716c0 240.667 39.167 420.334 117.5 539.001s187.5 178 327.5 178c282.667 0 424 -239 424 -717zM838 704.999c0 406.667 -104 610 -312 610
c-100.667 0 -177.667 -48.833 -231 -146.5s-80 -240.167 -80 -427.5c0 -220 24.833 -383.833 74.5 -491.5s128.5 -161.5 236.5 -161.5c208 0 312 205.667 312 617zM786 1556l-43 -59l-223 154l-215 -150l-39 55l260 232z" />
    <glyph glyph-name="Otilde" unicode="&#xd5;" horiz-adv-x="1052" 
d="M961 700c0 -242 -38.667 -421.834 -116 -539.501s-187 -176.5 -329 -176.5c-282.667 0 -424 238.667 -424 716c0 240.667 39.167 420.334 117.5 539.001s187.5 178 327.5 178c282.667 0 424 -239 424 -717zM838 704.999c0 406.667 -104 610 -312 610
c-100.667 0 -177.667 -48.833 -231 -146.5s-80 -240.167 -80 -427.5c0 -220 24.833 -383.833 74.5 -491.5s128.5 -161.5 236.5 -161.5c208 0 312 205.667 312 617zM809 1618c-45.333 -54.667 -105.331 -82 -179.998 -82c-36 0 -74 9.83301 -114 29.5s-71.667 29.5 -95 29.5
c-52.667 0 -97 -19 -133 -57l-47 72c46 56 106 84 180 84c35.333 0 73.166 -10 113.499 -30s72.166 -30 95.499 -30c52 0 96.333 19.333 133 58z" />
    <glyph glyph-name="Odieresis" unicode="&#xd6;" horiz-adv-x="1052" 
d="M961 700c0 -242 -38.667 -421.834 -116 -539.501s-187 -176.5 -329 -176.5c-282.667 0 -424 238.667 -424 716c0 240.667 39.167 420.334 117.5 539.001s187.5 178 327.5 178c282.667 0 424 -239 424 -717zM838 704.999c0 406.667 -104 610 -312 610
c-100.667 0 -177.667 -48.833 -231 -146.5s-80 -240.167 -80 -427.5c0 -220 24.833 -383.833 74.5 -491.5s128.5 -161.5 236.5 -161.5c208 0 312 205.667 312 617zM434 1616c0 -24 -7.83105 -44.333 -23.498 -61s-35.167 -25 -58.5 -25
c-24.667 0 -44.834 8.33301 -60.501 25s-23.5 37 -23.5 61c0 24.667 7.66699 45.167 23 61.5s35.666 24.5 60.999 24.5c23.333 0 42.833 -8.16699 58.5 -24.5s23.5 -36.833 23.5 -61.5zM778.002 1616c0 -24 -8.00098 -44.333 -24.001 -61s-36 -25 -60 -25
c-23.333 0 -42.833 8.33301 -58.5 25s-23.5 37 -23.5 61c0 24.667 7.83301 45.167 23.5 61.5s35.167 24.5 58.5 24.5c24.667 0 44.834 -8.16699 60.501 -24.5s23.5 -36.833 23.5 -61.5z" />
    <glyph glyph-name="multiply" unicode="&#xd7;" horiz-adv-x="1161" 
d="M1030 143l-78 -77l-377 376l-370 -372l-72 71l373 371l-367 365l78 77l367 -366l362 364l72 -71l-365 -363z" />
    <glyph glyph-name="Oslash" unicode="&#xd8;" horiz-adv-x="1050" 
d="M965 1405l-101 -182.001c64.667 -118 97 -292.333 97 -523c0 -242 -38.667 -421.833 -116 -539.5s-187 -176.5 -329 -176.5c-116 0 -207.333 38.667 -274 116l-84 -153l-78 47l106 190c-62.667 118 -94 290 -94 516c0 240.667 39.167 420.334 117.5 539.001
s187.5 178 327.5 178c111.333 0 201.333 -36.667 270 -110l78 143zM838 704.999c0 155.333 -15.667 283.667 -47 385l-484 -873c48.667 -86 121.667 -129 219 -129c208 0 312 205.667 312 617zM743 1194c-51.333 80.667 -123.667 121 -217 121
c-100.667 0 -177.667 -48.833 -231 -146.5s-80 -240.167 -80 -427.5c0 -180 15.667 -320.667 47 -422z" />
    <glyph glyph-name="Ugrave" unicode="&#xd9;" horiz-adv-x="1110" 
d="M936 414c0 -143.333 -34.166 -250.833 -102.499 -322.5s-163.166 -107.5 -284.499 -107.5c-122 0 -215 34.167 -279 102.5s-96 176.833 -96 325.5v989h119v-981c0 -46.667 4.33301 -89 13 -127s22.667 -73.167 42 -105.5s46.666 -57.333 81.999 -75
s77.666 -26.5 126.999 -26.5c173.333 0 260 110 260 330v985h119v-987zM670.001 1581l-45 -65l-312 184l74 104z" />
    <glyph glyph-name="Uacute" unicode="&#xda;" horiz-adv-x="1110" 
d="M936 414c0 -143.333 -34.166 -250.833 -102.499 -322.5s-163.166 -107.5 -284.499 -107.5c-122 0 -215 34.167 -279 102.5s-96 176.833 -96 325.5v989h119v-981c0 -46.667 4.33301 -89 13 -127s22.667 -73.167 42 -105.5s46.666 -57.333 81.999 -75
s77.666 -26.5 126.999 -26.5c173.333 0 260 110 260 330v985h119v-987zM834.001 1700l-312 -184l-45 65l283 223z" />
    <glyph glyph-name="Ucircumflex" unicode="&#xdb;" horiz-adv-x="1110" 
d="M936 414c0 -143.333 -34.166 -250.833 -102.499 -322.5s-163.166 -107.5 -284.499 -107.5c-122 0 -215 34.167 -279 102.5s-96 176.833 -96 325.5v989h119v-981c0 -46.667 4.33301 -89 13 -127s22.667 -73.167 42 -105.5s46.666 -57.333 81.999 -75
s77.666 -26.5 126.999 -26.5c173.333 0 260 110 260 330v985h119v-987zM821.001 1556l-43 -59l-223 154l-215 -150l-39 55l260 232z" />
    <glyph glyph-name="Udieresis" unicode="&#xdc;" horiz-adv-x="1110" 
d="M936 414c0 -143.333 -34.166 -250.833 -102.499 -322.5s-163.166 -107.5 -284.499 -107.5c-122 0 -215 34.167 -279 102.5s-96 176.833 -96 325.5v989h119v-981c0 -46.667 4.33301 -89 13 -127s22.667 -73.167 42 -105.5s46.666 -57.333 81.999 -75
s77.666 -26.5 126.999 -26.5c173.333 0 260 110 260 330v985h119v-987zM465.001 1616c0 -24 -7.83105 -44.333 -23.498 -61s-35.167 -25 -58.5 -25c-24.667 0 -44.834 8.33301 -60.501 25s-23.5 37 -23.5 61c0 24.667 7.66699 45.167 23 61.5s35.666 24.5 60.999 24.5
c23.333 0 42.833 -8.16699 58.5 -24.5s23.5 -36.833 23.5 -61.5zM809.003 1616c0 -24 -8.00098 -44.333 -24.001 -61s-36 -25 -60 -25c-23.333 0 -42.833 8.33301 -58.5 25s-23.5 37 -23.5 61c0 24.667 7.83301 45.167 23.5 61.5s35.167 24.5 58.5 24.5
c24.667 0 44.834 -8.16699 60.501 -24.5s23.5 -36.833 23.5 -61.5z" />
    <glyph glyph-name="Yacute" unicode="&#xdd;" horiz-adv-x="870" 
d="M840 1401l-338 -797v-604h-119v586l-352 815h141l211 -527c35.333 -86.667 54.333 -138 57 -154c1.33301 -5.33301 2 -10.333 2 -15h2c2.66699 18.667 22.667 75 60 169l205 527h131zM739 1700l-311 -184l-45 65l283 223z" />
    <glyph glyph-name="Thorn" unicode="&#xde;" horiz-adv-x="976" 
d="M915 754c0 -142 -39.167 -251 -117.5 -327s-188.5 -114 -330.5 -114h-164v-313h-119v1401h119v-244h223c127.333 0 224 -34 290 -102s99 -168.333 99 -301zM791 750c0 105.333 -25.5 182.833 -76.5 232.5s-129.5 74.5 -235.5 74.5h-176v-639h172
c102 0 180.167 27.667 234.5 83s81.5 138.333 81.5 249z" />
    <glyph glyph-name="germandbls" unicode="&#xdf;" horiz-adv-x="1003" 
d="M932 406c0 -134 -30.501 -237.836 -91.501 -311.503s-142.5 -110.5 -244.5 -110.5c-64 0 -130.333 15.667 -199 47l43 100c56.667 -31.333 107.334 -47 152.001 -47c69.333 0 122.166 28.333 158.499 85s54.5 135.667 54.5 237c0 110.667 -25.5 193.667 -76.5 249
s-132.833 85.333 -245.5 90v101c162.667 21.333 244 122.333 244 303c0 70 -19.667 124.667 -59 164s-90.666 59 -153.999 59c-81.333 0 -142 -20.667 -182 -62s-60 -114.666 -60 -219.999v-1090h-112v1094c0 58.667 6.33301 110.334 19 155.001s29.667 80.834 51 108.501
s47.5 50 78.5 67s63 28.833 96 35.5s69.5 10 109.5 10c104.667 0 186.167 -28.5 244.5 -85.5s87.5 -134.833 87.5 -233.5c0 -177.333 -82.667 -291.333 -248 -342v-2c108.667 -6.66699 191.5 -45 248.5 -115s85.5 -165.333 85.5 -286z" />
    <glyph glyph-name="agrave" unicode="&#xe0;" horiz-adv-x="903" 
d="M784 0l-110.003 -0.000976562c-11.333 46 -19.666 100.667 -24.999 164l-2 2c-30.667 -54 -70.167 -97.833 -118.5 -131.5s-105.166 -50.5 -170.499 -50.5c-98.667 0 -173.5 27.833 -224.5 83.5s-76.5 133.5 -76.5 233.5c0 106.667 31.333 189.334 94 248.001
s145.334 88 248.001 88c52 0 108 -9.66699 168 -29l66 -20v104c0 80 -17.667 141.333 -53 184s-93.333 64 -174 64c-70 0 -143.333 -19.667 -220 -59l-34 94c90 42 180.667 63 272 63c100 0 178.5 -26 235.5 -78s85.5 -127 85.5 -225v-399c0 -113.333 13 -225.333 39 -336z
M632.997 398.999l-0.000976562 97.0039l-53 20c-50 19.333 -104 29 -162 29c-73.333 0 -132 -21.333 -176 -64s-66 -101.334 -66 -176.001c0 -68.667 17.333 -122.334 52 -161.001s84.334 -58 149.001 -58c50.667 0 96 15.667 136 47s70 70.666 90 117.999
s30 96.666 30 147.999zM587.996 1264l-45 -66l-312 184l74 105z" />
    <glyph glyph-name="aacute" unicode="&#xe1;" horiz-adv-x="903" 
d="M784 0l-110.003 -0.000976562c-11.333 46 -19.666 100.667 -24.999 164l-2 2c-30.667 -54 -70.167 -97.833 -118.5 -131.5s-105.166 -50.5 -170.499 -50.5c-98.667 0 -173.5 27.833 -224.5 83.5s-76.5 133.5 -76.5 233.5c0 106.667 31.333 189.334 94 248.001
s145.334 88 248.001 88c52 0 108 -9.66699 168 -29l66 -20v104c0 80 -17.667 141.333 -53 184s-93.333 64 -174 64c-70 0 -143.333 -19.667 -220 -59l-34 94c90 42 180.667 63 272 63c100 0 178.5 -26 235.5 -78s85.5 -127 85.5 -225v-399c0 -113.333 13 -225.333 39 -336z
M632.997 398.999l-0.000976562 97.0039l-53 20c-50 19.333 -104 29 -162 29c-73.333 0 -132 -21.333 -176 -64s-66 -101.334 -66 -176.001c0 -68.667 17.333 -122.334 52 -161.001s84.334 -58 149.001 -58c50.667 0 96 15.667 136 47s70 70.666 90 117.999
s30 96.666 30 147.999zM699.996 1382l-311 -184l-45 66l283 223z" />
    <glyph glyph-name="acircumflex" unicode="&#xe2;" horiz-adv-x="903" 
d="M784 0l-110.003 -0.000976562c-11.333 46 -19.666 100.667 -24.999 164l-2 2c-30.667 -54 -70.167 -97.833 -118.5 -131.5s-105.166 -50.5 -170.499 -50.5c-98.667 0 -173.5 27.833 -224.5 83.5s-76.5 133.5 -76.5 233.5c0 106.667 31.333 189.334 94 248.001
s145.334 88 248.001 88c52 0 108 -9.66699 168 -29l66 -20v104c0 80 -17.667 141.333 -53 184s-93.333 64 -174 64c-70 0 -143.333 -19.667 -220 -59l-34 94c90 42 180.667 63 272 63c100 0 178.5 -26 235.5 -78s85.5 -127 85.5 -225v-399c0 -113.333 13 -225.333 39 -336z
M632.997 398.999l-0.000976562 97.0039l-53 20c-50 19.333 -104 29 -162 29c-73.333 0 -132 -21.333 -176 -64s-66 -101.334 -66 -176.001c0 -68.667 17.333 -122.334 52 -161.001s84.334 -58 149.001 -58c50.667 0 96 15.667 136 47s70 70.666 90 117.999
s30 96.666 30 147.999zM695.996 1239l-43 -59l-223 153l-215 -149l-39 55l260 231z" />
    <glyph glyph-name="atilde" unicode="&#xe3;" horiz-adv-x="903" 
d="M784 0l-110.003 -0.000976562c-11.333 46 -19.666 100.667 -24.999 164l-2 2c-30.667 -54 -70.167 -97.833 -118.5 -131.5s-105.166 -50.5 -170.499 -50.5c-98.667 0 -173.5 27.833 -224.5 83.5s-76.5 133.5 -76.5 233.5c0 106.667 31.333 189.334 94 248.001
s145.334 88 248.001 88c52 0 108 -9.66699 168 -29l66 -20v104c0 80 -17.667 141.333 -53 184s-93.333 64 -174 64c-70 0 -143.333 -19.667 -220 -59l-34 94c90 42 180.667 63 272 63c100 0 178.5 -26 235.5 -78s85.5 -127 85.5 -225v-399c0 -113.333 13 -225.333 39 -336z
M632.997 398.999l-0.000976562 97.0039l-53 20c-50 19.333 -104 29 -162 29c-73.333 0 -132 -21.333 -176 -64s-66 -101.334 -66 -176.001c0 -68.667 17.333 -122.334 52 -161.001s84.334 -58 149.001 -58c50.667 0 96 15.667 136 47s70 70.666 90 117.999
s30 96.666 30 147.999zM726.996 1331c-45.333 -54.667 -105.331 -82 -179.998 -82c-36 0 -74 10 -114 30s-71.667 30 -95 30c-52 0 -96.333 -19.333 -133 -58l-47 72c46 56 106 84 180 84c35.333 0 73.166 -9.83301 113.499 -29.5s72.166 -29.5 95.499 -29.5
c52.667 0 97 19 133 57z" />
    <glyph glyph-name="adieresis" unicode="&#xe4;" horiz-adv-x="903" 
d="M784 0l-110.003 -0.000976562c-11.333 46 -19.666 100.667 -24.999 164l-2 2c-30.667 -54 -70.167 -97.833 -118.5 -131.5s-105.166 -50.5 -170.499 -50.5c-98.667 0 -173.5 27.833 -224.5 83.5s-76.5 133.5 -76.5 233.5c0 106.667 31.333 189.334 94 248.001
s145.334 88 248.001 88c52 0 108 -9.66699 168 -29l66 -20v104c0 80 -17.667 141.333 -53 184s-93.333 64 -174 64c-70 0 -143.333 -19.667 -220 -59l-34 94c90 42 180.667 63 272 63c100 0 178.5 -26 235.5 -78s85.5 -127 85.5 -225v-399c0 -113.333 13 -225.333 39 -336z
M632.997 398.999l-0.000976562 97.0039l-53 20c-50 19.333 -104 29 -162 29c-73.333 0 -132 -21.333 -176 -64s-66 -101.334 -66 -176.001c0 -68.667 17.333 -122.334 52 -161.001s84.334 -58 149.001 -58c50.667 0 96 15.667 136 47s70 70.666 90 117.999
s30 96.666 30 147.999zM353.996 1329c0 -24 -7.83105 -44.333 -23.498 -61s-35.167 -25 -58.5 -25c-24.667 0 -44.834 8.33301 -60.501 25s-23.5 37 -23.5 61c0 24.667 7.66699 45.167 23 61.5s35.666 24.5 60.999 24.5c23.333 0 42.833 -8.16699 58.5 -24.5
s23.5 -36.833 23.5 -61.5zM697.998 1329c0 -24 -7.83301 -44.333 -23.5 -61s-35.834 -25 -60.501 -25c-23.333 0 -42.833 8.33301 -58.5 25s-23.5 37 -23.5 61c0 24.667 7.83301 45.167 23.5 61.5s35.167 24.5 58.5 24.5c24.667 0 44.834 -8.16699 60.501 -24.5
s23.5 -36.833 23.5 -61.5z" />
    <glyph glyph-name="aring" unicode="&#xe5;" horiz-adv-x="903" 
d="M784 0l-110.003 -0.000976562c-11.333 46 -19.666 100.667 -24.999 164l-2 2c-30.667 -54 -70.167 -97.833 -118.5 -131.5s-105.166 -50.5 -170.499 -50.5c-98.667 0 -173.5 27.833 -224.5 83.5s-76.5 133.5 -76.5 233.5c0 106.667 31.333 189.334 94 248.001
s145.334 88 248.001 88c52 0 108 -9.66699 168 -29l66 -20v104c0 80 -17.667 141.333 -53 184s-93.333 64 -174 64c-70 0 -143.333 -19.667 -220 -59l-34 94c90 42 180.667 63 272 63c100 0 178.5 -26 235.5 -78s85.5 -127 85.5 -225v-399c0 -113.333 13 -225.333 39 -336z
M632.997 398.999l-0.000976562 97.0039l-53 20c-50 19.333 -104 29 -162 29c-73.333 0 -132 -21.333 -176 -64s-66 -101.334 -66 -176.001c0 -68.667 17.333 -122.334 52 -161.001s84.334 -58 149.001 -58c50.667 0 96 15.667 136 47s70 70.666 90 117.999
s30 96.666 30 147.999zM636.996 1325c0 -47.333 -16.667 -87.833 -50 -121.5s-74 -50.5 -122 -50.5c-49.333 0 -90.666 16.5 -123.999 49.5s-50 73.833 -50 122.5c0 47.333 17.167 87.833 51.5 121.5s75.166 50.5 122.499 50.5c48.667 0 89.5 -16.667 122.5 -50
s49.5 -74 49.5 -122zM556.996 1325c0 28.667 -8.5 52.167 -25.5 70.5s-39.167 27.5 -66.5 27.5c-28 0 -50.667 -9.16699 -68 -27.5s-26 -41.833 -26 -70.5c0 -28 8.66699 -51.333 26 -70s40 -28 68 -28c27.333 0 49.5 9.33301 66.5 28s25.5 42 25.5 70z" />
    <glyph glyph-name="ae" unicode="&#xe6;" horiz-adv-x="1472" 
d="M1389 506l-641.001 -0.00195312c2.66699 -83.333 15 -155.666 37 -216.999s56.667 -110.5 104 -147.5s105.333 -55.5 174 -55.5c38.667 0 78.5 7.5 119.5 22.5s89.167 36.833 144.5 65.5l43 -100c-64.667 -30 -121.334 -52.5 -170.001 -67.5s-99 -22.5 -151 -22.5
c-167.333 0 -287.666 73 -360.999 219c-87.333 -146 -197.333 -219 -330 -219c-98.667 0 -173.5 27.833 -224.5 83.5s-76.5 133.5 -76.5 233.5c0 106.667 31.333 189.334 94 248.001s145.334 88 248.001 88c52 0 108 -9.66699 168 -29l66 -20v104
c0 80 -17.667 141.333 -53 184s-93.333 64 -174 64c-70 0 -143.333 -19.667 -220 -59l-34 94c90 42 180.667 63 272 63c80 0 144.333 -15.333 193 -46s82 -70.667 100 -120h2c65.333 110.667 165 166 299 166c120 0 211.833 -43 275.5 -129s95.5 -213 95.5 -381v-22z
M632.999 378.998l-0.000976562 117.003l-53 20c-48.667 19.333 -102.667 29 -162 29c-73.333 0 -132 -21.333 -176 -64s-66 -101.334 -66 -176.001c0 -68.667 17.333 -122.334 52 -161.001s84.334 -58 149.001 -58c50 0 95.167 14.833 135.5 44.5s70.5 66.667 90.5 111
s30 90.166 30 137.499zM1268 602.001c-16 230.667 -101.333 346 -256 346c-72.667 0 -132.5 -31.333 -179.5 -94s-74.5 -146.667 -82.5 -252h518z" />
    <glyph glyph-name="ccedilla" unicode="&#xe7;" horiz-adv-x="866" 
d="M815 141c-94.667 -99.333 -198.33 -151.671 -310.997 -157.004l-29 -99c9.33301 1.33301 19 2 29 2c46 0 83 -12.167 111 -36.5s42 -59.833 42 -106.5c0 -45.333 -17.833 -83 -53.5 -113s-81.167 -45 -136.5 -45c-54.667 0 -113.334 11 -176.001 33l22 80
c48 -24.667 93.333 -37 136 -37c80 0 120 27.333 120 82c0 18 -4.16699 32.833 -12.5 44.5s-20.5 19.834 -36.5 24.501s-30.833 7.66699 -44.5 9s-30.834 2 -51.501 2c-16.667 0 -30.334 -0.666992 -41.001 -2l47 164c-234.667 24.667 -352 199.334 -352 524.001
c0 168.667 37.333 298.834 112 390.501s176.667 137.5 306 137.5c124 0 225 -47 303 -141l-82 -74c-24.667 34.667 -56.667 62.834 -96 84.501s-82.333 32.5 -129 32.5c-98 0 -171.667 -37 -221 -111s-74 -179.667 -74 -317s24.667 -243 74 -317s122 -111 218 -111
c94.667 0 178.667 45.667 252 137z" />
    <glyph glyph-name="egrave" unicode="&#xe8;" horiz-adv-x="925" 
d="M778 174l43 -99.999c-115.333 -60 -222.333 -90 -321 -90c-134.667 0 -238.667 47.167 -312 141.5s-110 223.166 -110 386.499c0 164.667 36.167 293.5 108.5 386.5s166.5 139.5 282.5 139.5c120.667 0 213 -43 277 -129s96 -213 96 -381v-22h-645
c4 -128 32.333 -230 85 -306s130 -114 232 -114c72 0 160 29.333 264 88zM199 602.001h522.001v2c-7.33301 111.333 -32.5 196.5 -75.5 255.5s-103.833 88.5 -182.5 88.5c-72.667 0 -132.834 -31.5 -180.501 -94.5s-75.5 -146.833 -83.5 -251.5zM598.001 1264l-45 -66
l-311 184l73 105z" />
    <glyph glyph-name="eacute" unicode="&#xe9;" horiz-adv-x="925" 
d="M778 174l43 -99.999c-115.333 -60 -222.333 -90 -321 -90c-134.667 0 -238.667 47.167 -312 141.5s-110 223.166 -110 386.499c0 164.667 36.167 293.5 108.5 386.5s166.5 139.5 282.5 139.5c120.667 0 213 -43 277 -129s96 -213 96 -381v-22h-645
c4 -128 32.333 -230 85 -306s130 -114 232 -114c72 0 160 29.333 264 88zM199 602.001h522.001v2c-7.33301 111.333 -32.5 196.5 -75.5 255.5s-103.833 88.5 -182.5 88.5c-72.667 0 -132.834 -31.5 -180.501 -94.5s-75.5 -146.833 -83.5 -251.5zM741.001 1382l-311 -184
l-45 66l283 223z" />
    <glyph glyph-name="ecircumflex" unicode="&#xea;" horiz-adv-x="925" 
d="M778 174l43 -99.999c-115.333 -60 -222.333 -90 -321 -90c-134.667 0 -238.667 47.167 -312 141.5s-110 223.166 -110 386.499c0 164.667 36.167 293.5 108.5 386.5s166.5 139.5 282.5 139.5c120.667 0 213 -43 277 -129s96 -213 96 -381v-22h-645
c4 -128 32.333 -230 85 -306s130 -114 232 -114c72 0 160 29.333 264 88zM199 602.001h522.001v2c-7.33301 111.333 -32.5 196.5 -75.5 255.5s-103.833 88.5 -182.5 88.5c-72.667 0 -132.834 -31.5 -180.501 -94.5s-75.5 -146.833 -83.5 -251.5zM727.001 1239l-43 -59
l-223 153l-215 -149l-39 55l260 231z" />
    <glyph glyph-name="edieresis" unicode="&#xeb;" horiz-adv-x="925" 
d="M778 174l43 -99.999c-115.333 -60 -222.333 -90 -321 -90c-134.667 0 -238.667 47.167 -312 141.5s-110 223.166 -110 386.499c0 164.667 36.167 293.5 108.5 386.5s166.5 139.5 282.5 139.5c120.667 0 213 -43 277 -129s96 -213 96 -381v-22h-645
c4 -128 32.333 -230 85 -306s130 -114 232 -114c72 0 160 29.333 264 88zM199 602.001h522.001v2c-7.33301 111.333 -32.5 196.5 -75.5 255.5s-103.833 88.5 -182.5 88.5c-72.667 0 -132.834 -31.5 -180.501 -94.5s-75.5 -146.833 -83.5 -251.5zM375.001 1329
c0 -24 -7.83105 -44.333 -23.498 -61s-35.167 -25 -58.5 -25c-24.667 0 -44.834 8.33301 -60.501 25s-23.5 37 -23.5 61c0 24.667 7.66699 45.167 23 61.5s35.666 24.5 60.999 24.5c23.333 0 42.833 -8.16699 58.5 -24.5s23.5 -36.833 23.5 -61.5zM719.003 1329
c0 -24 -8.00098 -44.333 -24.001 -61s-36 -25 -60 -25c-23.333 0 -42.833 8.33301 -58.5 25s-23.5 37 -23.5 61c0 24.667 7.83301 45.167 23.5 61.5s35.167 24.5 58.5 24.5c24.667 0 44.834 -8.16699 60.501 -24.5s23.5 -36.833 23.5 -61.5z" />
    <glyph glyph-name="igrave" unicode="&#xec;" horiz-adv-x="473" 
d="M319 0h-112v926h-176v96h288v-1022zM373 1264l-45 -66l-312 184l74 105z" />
    <glyph glyph-name="iacute" unicode="&#xed;" horiz-adv-x="473" 
d="M319 0h-112v926h-176v96h288v-1022zM496 1382l-312 -184l-45 66l283 223z" />
    <glyph glyph-name="icircumflex" unicode="&#xee;" horiz-adv-x="473" 
d="M319 0h-112v926h-176v96h288v-1022zM479 1239l-43 -59l-223 153l-215 -149l-39 55l260 231z" />
    <glyph glyph-name="idieresis" unicode="&#xef;" horiz-adv-x="473" 
d="M319 0h-112v926h-176v96h288v-1022zM119 1329c0 -24 -7.83105 -44.333 -23.498 -61s-35.167 -25 -58.5 -25c-24.667 0 -44.834 8.33301 -60.501 25s-23.5 37 -23.5 61c0 24.667 7.66699 45.167 23 61.5s35.666 24.5 60.999 24.5c23.333 0 42.833 -8.16699 58.5 -24.5
s23.5 -36.833 23.5 -61.5zM463.002 1329c0 -24 -8.00098 -44.333 -24.001 -61s-36 -25 -60 -25c-23.333 0 -42.833 8.33301 -58.5 25s-23.5 37 -23.5 61c0 24.667 7.83301 45.167 23.5 61.5s35.167 24.5 58.5 24.5c24.667 0 44.834 -8.16699 60.501 -24.5
s23.5 -36.833 23.5 -61.5z" />
    <glyph glyph-name="eth" unicode="&#xf0;" horiz-adv-x="978" 
d="M887 547c0 -66.667 -4.16602 -127.498 -12.499 -182.498s-22.333 -106.5 -42 -154.5s-44.667 -88.333 -75 -121s-68.166 -58.334 -113.499 -77.001s-97 -28 -155 -28c-264.667 0 -397 175.333 -397 526c0 170 36 300.5 108 391.5s169.333 136.5 292 136.5
c96 0 171 -34.667 225 -104l2 2c-35.333 116 -96 215 -182 297l-201 -139l-55 77l176 125c-58.667 41.333 -126.334 75 -203.001 101l41 90c97.333 -32.667 182.666 -75 255.999 -127l188 133l56 -78l-168 -119c92 -85.333 158.333 -190.333 199 -315
s61 -269.334 61 -434.001zM766.001 512.002c0 138 -23.167 244.167 -69.5 318.5s-114.5 111.5 -204.5 111.5c-90.667 0 -159.167 -37.167 -205.5 -111.5s-69.5 -180.5 -69.5 -318.5s23.167 -244.167 69.5 -318.5s113.833 -111.5 202.5 -111.5
c92 0 161.167 36.833 207.5 110.5s69.5 180.167 69.5 319.5z" />
    <glyph glyph-name="ntilde" unicode="&#xf1;" horiz-adv-x="1001" 
d="M852 0l-112.999 0.000976562v668c0 101.333 -14.833 171.666 -44.5 210.999s-73.5 59 -131.5 59c-82.667 0 -150.334 -42.5 -203.001 -127.5s-79 -187.833 -79 -308.5v-502h-113v686c0 117.333 -13 229.333 -39 336h111c18.667 -85.333 28 -157 28 -215l2 -2
c27.333 73.333 67.833 130.5 121.5 171.5s117.167 61.5 190.5 61.5c180 0 270 -109 270 -327v-711zM778.001 1331c-45.333 -54.667 -105.333 -82 -180 -82c-35.333 0 -73.166 10 -113.499 30s-72.166 30 -95.499 30c-52 0 -96.333 -19.333 -133 -58l-47 72
c46 56 106 84 180 84c35.333 0 73.166 -9.83301 113.499 -29.5s72.166 -29.5 95.499 -29.5c52.667 0 97 19 133 57z" />
    <glyph glyph-name="ograve" unicode="&#xf2;" horiz-adv-x="946" 
d="M868 510c0 -167.333 -35.832 -296.832 -107.499 -388.499s-167.5 -137.5 -287.5 -137.5c-127.333 0 -225 43.667 -293 131s-102 219 -102 395c0 167.333 36.333 297.166 109 389.499s168.667 138.5 288 138.5c127.333 0 224.666 -44 291.999 -132s101 -220 101 -396z
M750.001 512.001c0 136 -23.833 241.667 -71.5 317s-116.167 113 -205.5 113s-157.666 -37.667 -204.999 -113s-71 -181 -71 -317c0 -136.667 23.667 -242.5 71 -317.5s115 -112.5 203 -112.5c91.333 0 160.666 37.333 207.999 112s71 180.667 71 318zM592.001 1264l-45 -66
l-311 184l73 105z" />
    <glyph glyph-name="oacute" unicode="&#xf3;" horiz-adv-x="946" 
d="M868 510c0 -167.333 -35.832 -296.832 -107.499 -388.499s-167.5 -137.5 -287.5 -137.5c-127.333 0 -225 43.667 -293 131s-102 219 -102 395c0 167.333 36.333 297.166 109 389.499s168.667 138.5 288 138.5c127.333 0 224.666 -44 291.999 -132s101 -220 101 -396z
M750.001 512.001c0 136 -23.833 241.667 -71.5 317s-116.167 113 -205.5 113s-157.666 -37.667 -204.999 -113s-71 -181 -71 -317c0 -136.667 23.667 -242.5 71 -317.5s115 -112.5 203 -112.5c91.333 0 160.666 37.333 207.999 112s71 180.667 71 318zM752.001 1382
l-312 -184l-45 66l283 223z" />
    <glyph glyph-name="ocircumflex" unicode="&#xf4;" horiz-adv-x="946" 
d="M868 510c0 -167.333 -35.832 -296.832 -107.499 -388.499s-167.5 -137.5 -287.5 -137.5c-127.333 0 -225 43.667 -293 131s-102 219 -102 395c0 167.333 36.333 297.166 109 389.499s168.667 138.5 288 138.5c127.333 0 224.666 -44 291.999 -132s101 -220 101 -396z
M750.001 512.001c0 136 -23.833 241.667 -71.5 317s-116.167 113 -205.5 113s-157.666 -37.667 -204.999 -113s-71 -181 -71 -317c0 -136.667 23.667 -242.5 71 -317.5s115 -112.5 203 -112.5c91.333 0 160.666 37.333 207.999 112s71 180.667 71 318zM739.001 1239l-43 -59
l-223 153l-215 -149l-39 55l260 231z" />
    <glyph glyph-name="otilde" unicode="&#xf5;" horiz-adv-x="946" 
d="M868 510c0 -167.333 -35.832 -296.832 -107.499 -388.499s-167.5 -137.5 -287.5 -137.5c-127.333 0 -225 43.667 -293 131s-102 219 -102 395c0 167.333 36.333 297.166 109 389.499s168.667 138.5 288 138.5c127.333 0 224.666 -44 291.999 -132s101 -220 101 -396z
M750.001 512.001c0 136 -23.833 241.667 -71.5 317s-116.167 113 -205.5 113s-157.666 -37.667 -204.999 -113s-71 -181 -71 -317c0 -136.667 23.667 -242.5 71 -317.5s115 -112.5 203 -112.5c91.333 0 160.666 37.333 207.999 112s71 180.667 71 318zM754.001 1331
c-45.333 -54.667 -105.666 -82 -180.999 -82c-35.333 0 -73.166 10 -113.499 30s-71.833 30 -94.5 30c-52.667 0 -97.334 -19.333 -134.001 -58l-47 72c46 56 106.333 84 181 84c35.333 0 73.166 -9.83301 113.499 -29.5s71.833 -29.5 94.5 -29.5c53.333 0 98 19 134 57z
" />
    <glyph glyph-name="odieresis" unicode="&#xf6;" horiz-adv-x="946" 
d="M868 510c0 -167.333 -35.832 -296.832 -107.499 -388.499s-167.5 -137.5 -287.5 -137.5c-127.333 0 -225 43.667 -293 131s-102 219 -102 395c0 167.333 36.333 297.166 109 389.499s168.667 138.5 288 138.5c127.333 0 224.666 -44 291.999 -132s101 -220 101 -396z
M750.001 512.001c0 136 -23.833 241.667 -71.5 317s-116.167 113 -205.5 113s-157.666 -37.667 -204.999 -113s-71 -181 -71 -317c0 -136.667 23.667 -242.5 71 -317.5s115 -112.5 203 -112.5c91.333 0 160.666 37.333 207.999 112s71 180.667 71 318zM385.001 1329
c0 -24 -7.83105 -44.333 -23.498 -61s-35.167 -25 -58.5 -25c-24.667 0 -44.834 8.33301 -60.501 25s-23.5 37 -23.5 61c0 24.667 7.66699 45.167 23 61.5s35.666 24.5 60.999 24.5c23.333 0 42.833 -8.16699 58.5 -24.5s23.5 -36.833 23.5 -61.5zM729.003 1329
c0 -24 -8.00098 -44.333 -24.001 -61s-36 -25 -60 -25c-23.333 0 -42.833 8.33301 -58.5 25s-23.5 37 -23.5 61c0 24.667 7.83301 45.167 23.5 61.5s35.167 24.5 58.5 24.5c24.667 0 44.834 -8.16699 60.501 -24.5s23.5 -36.833 23.5 -61.5z" />
    <glyph glyph-name="divide" unicode="&#xf7;" horiz-adv-x="1277" 
d="M1135 471h-992v102h992v-102zM754 104c0 -34 -10.833 -62.5 -32.5 -85.5s-49.167 -34.5 -82.5 -34.5s-60.833 11.5 -82.5 34.5s-32.5 51.5 -32.5 85.5c0 34.667 10.833 63.5 32.5 86.5s49.167 34.5 82.5 34.5s60.833 -11.5 82.5 -34.5s32.5 -51.833 32.5 -86.5zM754 918
c0 -34.667 -10.833 -63.5 -32.5 -86.5s-49.167 -34.5 -82.5 -34.5s-60.833 11.5 -82.5 34.5s-32.5 51.833 -32.5 86.5c0 34 10.833 62.5 32.5 85.5s49.167 34.5 82.5 34.5s60.833 -11.5 82.5 -34.5s32.5 -51.5 32.5 -85.5z" />
    <glyph glyph-name="oslash" unicode="&#xf8;" horiz-adv-x="948" 
d="M872 510c0 -167.333 -35.832 -296.832 -107.499 -388.499s-167.5 -137.5 -287.5 -137.5c-102.667 0 -185.334 27.333 -248.001 82l-86 -134l-69 50l98 151c-60 87.333 -90 213 -90 377c0 167.333 36.333 297.166 109 389.499s168.667 138.5 288 138.5
c98 0 177.333 -25 238 -75l82 124l71 -47l-94 -141c64 -88 96 -217.667 96 -389zM754.001 512.001c0 111.333 -16.332 203.333 -48.999 276l-410 -624c46.667 -54.667 106.667 -82 180 -82c91.333 0 160.666 37.333 207.999 112s71 180.667 71 318zM653.002 866.001
c-44.667 50.667 -103.334 75.999 -176.001 75.999c-89.333 0 -157.666 -37.667 -204.999 -113s-71 -181 -71 -317c0 -107.333 15 -196.666 45 -267.999z" />
    <glyph glyph-name="ugrave" unicode="&#xf9;" horiz-adv-x="1001" 
d="M872 0l-109.998 -0.00195312c-19.333 86.667 -29 158.334 -29 215.001l-2 2c-26.667 -73.333 -67 -130.5 -121 -171.5s-117.333 -61.5 -190 -61.5c-180 0 -270 109 -270 327v711h112v-668c0 -101.333 14.833 -171.666 44.5 -210.999s73.5 -59 131.5 -59
c55.333 0 104.666 20 147.999 60s76.666 93 99.999 159s35 138.333 35 217v502h113v-686c0 -116 12.667 -228 38 -336zM618.002 1264l-45 -66l-311 184l74 105z" />
    <glyph glyph-name="uacute" unicode="&#xfa;" horiz-adv-x="1001" 
d="M872 0l-109.998 -0.00195312c-19.333 86.667 -29 158.334 -29 215.001l-2 2c-26.667 -73.333 -67 -130.5 -121 -171.5s-117.333 -61.5 -190 -61.5c-180 0 -270 109 -270 327v711h112v-668c0 -101.333 14.833 -171.666 44.5 -210.999s73.5 -59 131.5 -59
c55.333 0 104.666 20 147.999 60s76.666 93 99.999 159s35 138.333 35 217v502h113v-686c0 -116 12.667 -228 38 -336zM762.002 1382l-311 -184l-45 66l282 223z" />
    <glyph glyph-name="ucircumflex" unicode="&#xfb;" horiz-adv-x="1001" 
d="M872 0l-109.998 -0.00195312c-19.333 86.667 -29 158.334 -29 215.001l-2 2c-26.667 -73.333 -67 -130.5 -121 -171.5s-117.333 -61.5 -190 -61.5c-180 0 -270 109 -270 327v711h112v-668c0 -101.333 14.833 -171.666 44.5 -210.999s73.5 -59 131.5 -59
c55.333 0 104.666 20 147.999 60s76.666 93 99.999 159s35 138.333 35 217v502h113v-686c0 -116 12.667 -228 38 -336zM748.002 1239l-43 -59l-224 153l-215 -149l-39 55l260 231z" />
    <glyph glyph-name="udieresis" unicode="&#xfc;" horiz-adv-x="1001" 
d="M872 0l-109.998 -0.00195312c-19.333 86.667 -29 158.334 -29 215.001l-2 2c-26.667 -73.333 -67 -130.5 -121 -171.5s-117.333 -61.5 -190 -61.5c-180 0 -270 109 -270 327v711h112v-668c0 -101.333 14.833 -171.666 44.5 -210.999s73.5 -59 131.5 -59
c55.333 0 104.666 20 147.999 60s76.666 93 99.999 159s35 138.333 35 217v502h113v-686c0 -116 12.667 -228 38 -336zM399.002 1329c0 -24 -7.83105 -44.333 -23.498 -61s-35.167 -25 -58.5 -25c-24.667 0 -44.834 8.33301 -60.501 25s-23.5 37 -23.5 61
c0 24.667 7.66699 45.167 23 61.5s35.666 24.5 60.999 24.5c24 0 43.667 -8.16699 59 -24.5s23 -36.833 23 -61.5zM743.004 1329c0 -24 -7.83301 -44.333 -23.5 -61s-35.834 -25 -60.501 -25c-23.333 0 -42.666 8.33301 -57.999 25s-23 37 -23 61
c0 24.667 7.66699 45.167 23 61.5s34.666 24.5 57.999 24.5c24.667 0 44.834 -8.16699 60.501 -24.5s23.5 -36.833 23.5 -61.5z" />
    <glyph glyph-name="yacute" unicode="&#xfd;" horiz-adv-x="833" 
d="M788 1022l-382.001 -1198c-28.667 -88.667 -64.167 -153.5 -106.5 -194.5s-102.5 -61.5 -180.5 -61.5c-49.333 0 -93 6.5 -131 19.5s-81.667 33.167 -131 60.5l49 92c75.333 -50.667 145.666 -76 210.999 -76c29.333 0 54.166 4.5 74.499 13.5s38.333 24.5 54 46.5
s28.834 45.5 39.501 70.5s23 59.5 37 103.5l43 135l-320 989h123l129 -416l29 -92.5l24.5 -78.5l19.5 -62.5c7.33301 -23.667 12.666 -41.5 15.999 -53.5s7.33301 -25.667 12 -41s7.83398 -27 9.50098 -35s3.66699 -16.833 6 -26.5s3.83301 -17.834 4.5 -24.501l2 -20h2
c0.666992 8.66699 1.83398 17.334 3.50098 26.001s4.33398 19.834 8.00098 33.501l10.5 39c3.33301 12.333 8.83301 31 16.5 56l21.5 69.5l29 94l36 116l127 416h114zM726.999 1382l-311 -184l-45 66l282 223z" />
    <glyph glyph-name="thorn" unicode="&#xfe;" horiz-adv-x="966" 
d="M889 512c0 -168.667 -34.001 -298.833 -102.001 -390.5s-161 -137.5 -279 -137.5c-100 0 -182 30 -246 90l-2 -2c8 -63.333 12 -161 12 -293v-195h-112v1878h112v-256c0 -132 -4 -229.667 -12 -293l2 -2c35.333 40 76.5 71.167 123.5 93.5s95.833 33.5 146.5 33.5
c112.667 0 200.334 -43.167 263.001 -129.5s94 -218.5 94 -396.5zM769.999 510.001c0 136.667 -22.168 242.5 -66.501 317.5s-107.5 112.5 -189.5 112.5c-51.333 0 -98.166 -14.333 -140.499 -43s-76.166 -67.667 -101.499 -117v-585
c63.333 -76.667 142.666 -115 237.999 -115c87.333 0 152.5 37.333 195.5 112s64.5 180.667 64.5 318z" />
    <glyph glyph-name="ydieresis" unicode="&#xff;" horiz-adv-x="833" 
d="M788 1022l-382.001 -1198c-28.667 -88.667 -64.167 -153.5 -106.5 -194.5s-102.5 -61.5 -180.5 -61.5c-49.333 0 -93 6.5 -131 19.5s-81.667 33.167 -131 60.5l49 92c75.333 -50.667 145.666 -76 210.999 -76c29.333 0 54.166 4.5 74.499 13.5s38.333 24.5 54 46.5
s28.834 45.5 39.501 70.5s23 59.5 37 103.5l43 135l-320 989h123l129 -416l29 -92.5l24.5 -78.5l19.5 -62.5c7.33301 -23.667 12.666 -41.5 15.999 -53.5s7.33301 -25.667 12 -41s7.83398 -27 9.50098 -35s3.66699 -16.833 6 -26.5s3.83301 -17.834 4.5 -24.501l2 -20h2
c0.666992 8.66699 1.83398 17.334 3.50098 26.001s4.33398 19.834 8.00098 33.501l10.5 39c3.33301 12.333 8.83301 31 16.5 56l21.5 69.5l29 94l36 116l127 416h114zM333.999 1329c0 -24 -7.83105 -44.333 -23.498 -61s-35.167 -25 -58.5 -25
c-24.667 0 -44.834 8.33301 -60.501 25s-23.5 37 -23.5 61c0 24.667 7.66699 45.167 23 61.5s35.666 24.5 60.999 24.5c23.333 0 42.833 -8.16699 58.5 -24.5s23.5 -36.833 23.5 -61.5zM678.001 1329c0 -24 -8.00098 -44.333 -24.001 -61s-36 -25 -60 -25
c-23.333 0 -42.833 8.33301 -58.5 25s-23.5 37 -23.5 61c0 24.667 7.83301 45.167 23.5 61.5s35.167 24.5 58.5 24.5c24.667 0 44.834 -8.16699 60.501 -24.5s23.5 -36.833 23.5 -61.5z" />
    <glyph glyph-name="dotlessi" unicode="&#x131;" horiz-adv-x="473" 
d="M319 0h-112v926h-176v96h288v-1022z" />
    <glyph glyph-name="Lslash" unicode="&#x141;" horiz-adv-x="972" 
d="M963 0h-674v633l-201 -53l-27 98l228 61v662h119v-631l241 66l27 -99l-268 -71v-564h555v-102z" />
    <glyph glyph-name="lslash" unicode="&#x142;" horiz-adv-x="655" 
d="M594 684l-227 -61v-623h-113v592l-209 -55l-25 92l234 61v676h-176v96h289v-741l202 55z" />
    <glyph glyph-name="OE" unicode="&#x152;" horiz-adv-x="1402" 
d="M1311 0l-568.002 -0.000976562c-31.333 0 -70.666 -2.66699 -117.999 -8s-83.666 -8 -108.999 -8c-282.667 0 -424 238.667 -424 716c0 240.667 39.167 420.334 117.5 539.001s187.5 178 327.5 178c33.333 0 68.5 -2.66699 105.5 -8s67.833 -8 92.5 -8h545v-103h-467
v-507h432v-101h-432v-586h498v-104zM693.998 136.999v1139c-51.333 26 -107.333 39 -168 39c-100.667 0 -177.667 -48.833 -231 -146.5s-80 -240.167 -80 -427.5c0 -220 24.833 -383.833 74.5 -491.5s128.5 -161.5 236.5 -161.5c34 0 62 3.33301 84 10s50 19.667 84 39z" />
    <glyph glyph-name="oe" unicode="&#x153;" horiz-adv-x="1595" 
d="M1511 506l-645 0.000976562c4 -128 32.5 -230 85.5 -306s130.5 -114 232.5 -114c38.667 0 78.5 7.5 119.5 22.5s89.167 36.833 144.5 65.5l43 -100c-66 -30 -123 -52.5 -171 -67.5s-98.333 -22.5 -151 -22.5c-165.333 0 -285.333 71.667 -360 215
c-31.333 -64 -75 -115.833 -131 -155.5s-124.333 -59.5 -205 -59.5c-127.333 0 -225 43.667 -293 131s-102 219 -102 395c0 167.333 36.333 297.166 109 389.499s168.667 138.5 288 138.5c164.667 0 278 -67.333 340 -202h2c32 61.333 75.333 110.333 130 147
s118.667 55 192 55c120 0 212 -43 276 -129s96 -213 96 -381v-22zM750 512.001c0 136 -23.833 241.667 -71.5 317s-116.167 113 -205.5 113s-157.666 -37.667 -204.999 -113s-71 -181 -71 -317c0 -136.667 23.667 -242.5 71 -317.5s115 -112.5 203 -112.5
c91.333 0 160.666 37.333 207.999 112s71 180.667 71 318zM1391 602.001c-7.33301 111.333 -32.665 196.833 -75.998 256.5s-104 89.5 -182 89.5c-72.667 0 -132.834 -31.333 -180.501 -94s-75.834 -146.667 -84.501 -252h523z" />
    <glyph glyph-name="Scaron" unicode="&#x160;" horiz-adv-x="927" 
d="M836 365c0 -109.333 -36.333 -200.167 -109 -272.5s-171 -108.5 -295 -108.5c-118.667 0 -243 43 -373 129l68 106c61.333 -44 115.5 -76.167 162.5 -96.5s99.167 -30.5 156.5 -30.5c78 0 141 22.167 189 66.5s72 108.166 72 191.499c0 50 -11.167 94.833 -33.5 134.5
s-51.5 73.167 -87.5 100.5s-75.667 53.166 -119 77.499l-129.5 74.5c-43 25.333 -82.5 52.666 -118.5 81.999s-65.167 66 -87.5 110s-33.5 93.333 -33.5 148c0 101.333 33.333 183.333 100 246s159 94 277 94c109.333 0 220 -38 332 -114l-62 -99
c-102 71.333 -194 107 -276 107c-80 0 -140.667 -19.5 -182 -58.5s-62 -94.167 -62 -165.5c0 -35.333 7 -67.666 21 -96.999s32.833 -55 56.5 -77s50.667 -42.667 81 -62s62.5 -38 96.5 -56l101.5 -55.5c33.667 -19 65.667 -40.5 96 -64.5s57.333 -50.167 81 -78.5
s42.5 -62.166 56.5 -101.499s21 -82.666 21 -129.999zM725 1739l-260 -232l-260 232l43 59l221 -153l217 149z" />
    <glyph glyph-name="scaron" unicode="&#x161;" horiz-adv-x="788" 
d="M709 266c0 -84 -27.6689 -152.334 -83.002 -205.001s-129.666 -79 -222.999 -79c-119.333 0 -231 36 -335 108l63 100c52.667 -38 99.667 -65.5 141 -82.5s84.333 -25.5 129 -25.5c57.333 0 103.833 15.333 139.5 46s53.5 70.667 53.5 120c0 34.667 -7 65.334 -21 92.001
s-32.5 48.167 -55.5 64.5s-49.333 32 -79 47s-59.834 28.167 -90.501 39.5s-60.834 25.666 -90.501 42.999s-56 35.833 -79 55.5s-41.5 45.834 -55.5 78.501s-21 70 -21 112c0 79.333 26.833 143.166 80.5 191.499s124.5 72.5 212.5 72.5c92 0 189 -31.333 291 -94l-57 -90
c-85.333 57.333 -162.666 86 -231.999 86c-58 0 -102.833 -15 -134.5 -45s-47.5 -67.667 -47.5 -113c0 -30.667 7 -58 21 -82s32.667 -43.5 56 -58.5s49.833 -29.667 79.5 -44s59.834 -27.166 90.501 -38.499s60.834 -25.833 90.501 -43.5s56.167 -37 79.5 -58
s42 -48.333 56 -82s21 -72.167 21 -115.5zM654.998 1411l-260 -231l-260 231l43 59l221 -153l217 149z" />
    <glyph glyph-name="Ydieresis" unicode="&#x178;" horiz-adv-x="870" 
d="M840 1401l-338 -797v-604h-119v586l-352 815h141l211 -527c35.333 -86.667 54.333 -138 57 -154c1.33301 -5.33301 2 -10.333 2 -15h2c2.66699 18.667 22.667 75 60 169l205 527h131zM348 1616c0 -24 -7.83105 -44.333 -23.498 -61s-35.167 -25 -58.5 -25
c-24.667 0 -44.834 8.33301 -60.501 25s-23.5 37 -23.5 61c0 24.667 7.66699 45.167 23 61.5s35.666 24.5 60.999 24.5c23.333 0 42.833 -8.16699 58.5 -24.5s23.5 -36.833 23.5 -61.5zM692.002 1616c0 -24 -8.00098 -44.333 -24.001 -61s-36 -25 -60 -25
c-23.333 0 -42.833 8.33301 -58.5 25s-23.5 37 -23.5 61c0 24.667 7.83301 45.167 23.5 61.5s35.167 24.5 58.5 24.5c24.667 0 44.834 -8.16699 60.501 -24.5s23.5 -36.833 23.5 -61.5z" />
    <glyph glyph-name="Zcaron" unicode="&#x17d;" horiz-adv-x="872" 
d="M801 0h-729v94l604 1202l-2 2c-24.667 -2.66699 -102 -4 -232 -4h-340v107h699v-92l-600 -1203c26 2 103.667 3 233 3h367v-109zM725 1739l-260 -232l-260 232l43 59l221 -153l217 149z" />
    <glyph glyph-name="zcaron" unicode="&#x17e;" horiz-adv-x="815" 
d="M743 0h-673v88l528 832l-2 2c-24.667 -2.66699 -101.667 -4 -231 -4h-254v104h616v-88l-524 -830l2 -2c24.667 2.66699 101.667 4 231 4h307v-106zM688 1411l-260 -231l-260 231l43 59l221 -153l217 149z" />
    <glyph glyph-name="florin" unicode="&#x192;" horiz-adv-x="997" 
d="M956 1335l-16.001 -106c-61.333 28.667 -118.666 43 -171.999 43c-76 0 -131.833 -20.5 -167.5 -61.5s-60.5 -107.167 -74.5 -198.5l-39 -264h273v-93h-285l-104 -735c-17.333 -121.333 -54.5 -210.333 -111.5 -267s-136.833 -85 -239.5 -85
c-22.667 0 -44.334 1.16699 -65.001 3.5s-36.167 4.83301 -46.5 7.5s-24.333 6.5 -42 11.5l-36.5 10.5l16 106c61.333 -28.667 118.666 -43 171.999 -43c76.667 0 133 20.667 169 62s60.333 107.333 73 198l105 731h-228v93h240l39 268
c17.333 121.333 54.333 210.333 111 267s136.334 85 239.001 85c22.667 0 44.334 -1.16699 65.001 -3.5s36.167 -4.83301 46.5 -7.5s24.333 -6.5 42 -11.5z" />
    <glyph glyph-name="uni02BB" unicode="&#x2bb;" horiz-adv-x="378" 
d="M297 1233c0 -32 -10.3291 -58.833 -30.9961 -80.5s-48 -32.5 -82 -32.5c-38.667 0 -71.5 16.667 -98.5 50s-40.5 80.333 -40.5 141c0 77.333 21.667 139.666 65 186.999s98.666 71 165.999 71h7v-66c-48.667 -4 -86.334 -20.667 -113.001 -50
s-42.334 -74.666 -47.001 -135.999c19.333 19.333 42.666 29 69.999 29c30 0 54.833 -11.167 74.5 -33.5s29.5 -48.833 29.5 -79.5z" />
    <glyph glyph-name="afii57929" unicode="&#x2bc;" horiz-adv-x="389" 
d="M313 1321c0 -78 -21.6689 -140.499 -65.002 -187.499s-98.666 -70.5 -165.999 -70.5h-6v65c48 4.66699 85.333 21.667 112 51s42.667 74.666 48 135.999c-19.333 -19.333 -42.666 -29 -69.999 -29c-30 0 -55 11.167 -75 33.5s-30 48.833 -30 79.5
c0 31.333 10.333 57.833 31 79.5s48 32.5 82 32.5c39.333 0 72.333 -16.5 99 -49.5s40 -79.833 40 -140.5z" />
    <glyph glyph-name="circumflex" unicode="&#x2c6;" horiz-adv-x="888" 
d="M705 1239l-43 -59l-224 153l-215 -149l-39 55l260 231z" />
    <glyph glyph-name="caron" unicode="&#x2c7;" horiz-adv-x="884" 
d="M705 1411l-261 -231l-260 231l43 59l222 -153l217 149z" />
    <glyph glyph-name="breve" unicode="&#x2d8;" horiz-adv-x="980" 
d="M741 1401c0 -64 -19.168 -116.833 -57.501 -158.5s-98.166 -62.5 -179.499 -62.5s-141 20.667 -179 62s-57 94.333 -57 159h88c0 -92.667 50.667 -139 152 -139c99.333 0 149 46.333 149 139h84z" />
    <glyph glyph-name="dotaccent" unicode="&#x2d9;" horiz-adv-x="888" 
d="M578 1319c0 -26.667 -8.83105 -49.667 -26.498 -69s-39.834 -29 -66.501 -29c-27.333 0 -49.5 9.33301 -66.5 28s-25.5 42 -25.5 70c0 26.667 8.83301 49.667 26.5 69s39.5 29 65.5 29c27.333 0 49.666 -9.33301 66.999 -28s26 -42 26 -70z" />
    <glyph glyph-name="ring" unicode="&#x2da;" horiz-adv-x="888" 
d="M623 1325c0 -47.333 -16.667 -87.833 -50 -121.5s-74 -50.5 -122 -50.5c-49.333 0 -90.833 16.5 -124.5 49.5s-50.5 73.833 -50.5 122.5c0 48 17.167 88.667 51.5 122s75.5 50 123.5 50c48.667 0 89.5 -16.667 122.5 -50s49.5 -74 49.5 -122zM543 1325
c0 28.667 -8.5 52.167 -25.5 70.5s-39.167 27.5 -66.5 27.5c-28.667 0 -51.667 -9.16699 -69 -27.5s-26 -41.833 -26 -70.5c0 -28 8.66699 -51.333 26 -70s40.333 -28 69 -28c27.333 0 49.5 9.33301 66.5 28s25.5 42 25.5 70z" />
    <glyph glyph-name="ogonek" unicode="&#x2db;" horiz-adv-x="980" 
d="M686 -371c-58.667 -28.667 -115.334 -43.0029 -170.001 -43.0029c-60 0 -106.333 15 -139 45s-49 73 -49 129c0 94.667 53.667 181.334 161 260.001h95c-52 -39.333 -90 -77.666 -114 -114.999s-36 -78 -36 -122c0 -33.333 9 -59.166 27 -77.499s41.667 -27.5 71 -27.5
c30.667 0 68.334 12.333 113.001 37z" />
    <glyph glyph-name="tilde" unicode="&#x2dc;" horiz-adv-x="980" 
d="M778 1331c-45.333 -54.667 -105.333 -82 -180 -82c-35.333 0 -73.166 10 -113.499 30s-72.166 30 -95.499 30c-52 0 -96.333 -19.333 -133 -58l-47 72c46 56 106 84 180 84c35.333 0 73.166 -9.83301 113.499 -29.5s72.166 -29.5 95.499 -29.5c52.667 0 97 19 133 57z
" />
    <glyph glyph-name="hungarumlaut" unicode="&#x2dd;" horiz-adv-x="888" 
d="M803 1335l-281 -164l-43 64l252 203zM487 1376l-251 -205l-52 56l219 239z" />
    <glyph glyph-name="gravecomb" unicode="&#x300;" horiz-adv-x="2" 
d="M-354 1264l-45 -66l-312 184l74 105z" />
    <glyph glyph-name="acutecomb" unicode="&#x301;" horiz-adv-x="2" 
d="M-195 1382l-311 -184l-45 66l283 223z" />
    <glyph glyph-name="uni0302" unicode="&#x302;" horiz-adv-x="2" 
d="M-207 1239l-43 -59l-223 153l-215 -149l-39 55l260 231z" />
    <glyph glyph-name="tildecomb" unicode="&#x303;" horiz-adv-x="2" 
d="M-193 1331c-45.333 -54.667 -105.334 -82 -180.001 -82c-35.333 0 -73.166 10 -113.499 30s-72.166 30 -95.499 30c-52 0 -96.333 -19.333 -133 -58l-47 72c46 56 106 84 180 84c36 0 74 -9.83301 114 -29.5s71.667 -29.5 95 -29.5c53.333 0 97.666 19 132.999 57z" />
    <glyph glyph-name="uni0304" unicode="&#x304;" horiz-adv-x="2" 
d="M-240 1243h-499v90h499v-90z" />
    <glyph glyph-name="uni0306" unicode="&#x306;" horiz-adv-x="2" 
d="M-240 1419c0 -63.333 -19.168 -116 -57.501 -158s-98.166 -63 -179.499 -63s-141 20.833 -179 62.5s-57 94.5 -57 158.5h88c0 -92.667 50.667 -139 152 -139c99.333 0 149 46.333 149 139h84z" />
    <glyph glyph-name="uni0307" unicode="&#x307;" horiz-adv-x="2" 
d="M-311 1319c0 -26.667 -8.83496 -49.667 -26.502 -69s-39.5 -29 -65.5 -29c-27.333 0 -49.666 9.33301 -66.999 28s-26 42 -26 70c0 26.667 8.83301 49.667 26.5 69s39.834 29 66.501 29c27.333 0 49.5 -9.33301 66.5 -28s25.5 -42 25.5 -70z" />
    <glyph glyph-name="uni0308" unicode="&#x308;" horiz-adv-x="2" 
d="M-561 1329c0 -24 -7.83105 -44.333 -23.498 -61s-35.167 -25 -58.5 -25c-24.667 0 -44.834 8.33301 -60.501 25s-23.5 37 -23.5 61c0 24.667 7.66699 45.167 23 61.5s35.666 24.5 60.999 24.5c23.333 0 42.833 -8.16699 58.5 -24.5s23.5 -36.833 23.5 -61.5z
M-216.998 1329c0 -24 -8.00098 -44.333 -24.001 -61s-36 -25 -60 -25c-23.333 0 -42.833 8.33301 -58.5 25s-23.5 37 -23.5 61c0 24.667 7.83301 45.167 23.5 61.5s35.167 24.5 58.5 24.5c24.667 0 44.834 -8.16699 60.501 -24.5s23.5 -36.833 23.5 -61.5z" />
    <glyph glyph-name="uni030A" unicode="&#x30a;" horiz-adv-x="2" 
d="M-266 1325c0 -47.333 -16.667 -87.833 -50 -121.5s-74 -50.5 -122 -50.5c-49.333 0 -90.666 16.5 -123.999 49.5s-50 73.833 -50 122.5c0 47.333 17.167 87.833 51.5 121.5s75.166 50.5 122.499 50.5c48.667 0 89.5 -16.667 122.5 -50s49.5 -74 49.5 -122zM-346 1325
c0 28.667 -8.5 52.167 -25.5 70.5s-39.167 27.5 -66.5 27.5c-28.667 0 -51.5 -9.16699 -68.5 -27.5s-25.5 -41.833 -25.5 -70.5c0 -28 8.5 -51.333 25.5 -70s39.833 -28 68.5 -28c27.333 0 49.5 9.33301 66.5 28s25.5 42 25.5 70z" />
    <glyph glyph-name="uni030B" unicode="&#x30b;" horiz-adv-x="2" 
d="M-86 1362l-281 -164l-43 64l252 202zM-401 1403l-252 -205l-52 55l220 240z" />
    <glyph glyph-name="uni030C" unicode="&#x30c;" horiz-adv-x="2" 
d="M-127 1411l-260 -231l-260 231l43 59l221 -153l217 149z" />
    <glyph glyph-name="uni0312" unicode="&#x312;" horiz-adv-x="2" 
d="M-623 1335c0 58.667 19.0029 105.833 57.0029 141.5s86.667 53.5 146 53.5h4v-68c-84.667 -4.66699 -129.667 -42.667 -135 -114c17.333 13.333 36.333 20 57 20c27.333 0 49.666 -9 66.999 -27s26 -39.667 26 -65c0 -28.667 -8.83301 -51.5 -26.5 -68.5
s-41.834 -25.5 -72.501 -25.5c-34.667 0 -63.834 13.5 -87.501 40.5s-35.5 64.5 -35.5 112.5z" />
    <glyph glyph-name="uni0326" unicode="&#x326;" horiz-adv-x="2" 
d="M-358 -238c0 -58 -19.0029 -104.833 -57.0029 -140.5s-86.667 -53.5 -146 -53.5h-4v67c86.667 6 131.667 44.333 135 115c-15.333 -13.333 -34.333 -20 -57 -20c-27.333 0 -49.666 9 -66.999 27s-26 39.667 -26 65c0 28.667 8.83301 51.5 26.5 68.5
s41.834 25.5 72.501 25.5c34.667 0 63.834 -13.667 87.501 -41s35.5 -65 35.5 -113z" />
    <glyph glyph-name="uni0327" unicode="&#x327;" horiz-adv-x="2" 
d="M-203 -256c0 -45.333 -17.999 -83 -53.999 -113s-81.333 -45 -136 -45s-113.334 11 -176.001 33l22 80c48 -24.667 93 -37 135 -37c80.667 0 121 27.333 121 82c0 18.667 -4.33301 33.834 -13 45.501s-21 19.667 -37 24s-30 7.16602 -42 8.49902s-27 2 -45 2
c-19.333 0 -35.666 -0.666992 -48.999 -2l49 170h74l-31 -107c12 1.33301 21.667 2 29 2c45.333 0 82.166 -12.333 110.499 -37s42.5 -60 42.5 -106z" />
    <glyph glyph-name="uni0328" unicode="&#x328;" horiz-adv-x="2" 
d="M-162 -371c-58.667 -28.667 -115.333 -43.0029 -170 -43.0029c-60 0 -106.333 15 -139 45s-49 73 -49 129c0 94.667 54 181.334 162 260.001h94c-52 -39.333 -90 -77.666 -114 -114.999s-36 -78 -36 -122c0 -33.333 9 -59.166 27 -77.499s42 -27.5 72 -27.5
s67.333 12.333 112 37z" />
    <glyph glyph-name="uni0394" unicode="&#x394;" horiz-adv-x="960" 
d="M940 0h-920l396 1401h135zM774 109l-231 884l-39 151c-6 24 -11.5 51.5 -16.5 82.5s-7.83301 61.167 -8.5 90.5h-2c-2 -42 -6.83301 -81.5 -14.5 -118.5s-24.5 -105.5 -50.5 -205.5l-232 -884h594z" />
    <glyph glyph-name="uni03A9" unicode="&#x3a9;" horiz-adv-x="1286" 
d="M1163 731c0 -160 -22.333 -293.503 -67 -400.503s-104 -182.5 -178 -226.5v-2c39.333 4.66699 109.333 7 210 7v-109h-372v98c102 58.667 175.167 137.167 219.5 235.5s66.5 226.833 66.5 385.5c0 397.333 -132.333 596 -397 596
c-126.667 0 -225.167 -48.833 -295.5 -146.5s-105.5 -235.834 -105.5 -414.501c0 -169.333 22.5 -305.666 67.5 -408.999s118.5 -185.666 220.5 -246.999v-98h-374v109c110.667 0 183.667 -2.33301 219 -7v2c-74 46.667 -134.833 121.834 -182.5 225.501
s-71.5 234.834 -71.5 393.501c0 230 47 403.167 141 519.5s224.333 174.5 391 174.5c338.667 0 508 -228.667 508 -686z" />
    <glyph glyph-name="uni03BC" unicode="&#x3bc;" 
d="M895 0l-111 0.000976562c-18.667 84 -28 155.667 -28 215l-2 2c-64 -155.333 -168.667 -233 -314 -233c-74.667 0 -132 19 -172 57c2.66699 -53.333 4 -170 4 -350v-107h-112v1438h112v-686c0 -92.667 15.833 -157.834 47.5 -195.501s76.834 -56.5 135.501 -56.5
c57.333 0 108.166 20 152.499 60s78 92.833 101 158.5s34.5 138.167 34.5 217.5v502h113v-686c0 -117.333 13 -229.333 39 -336z" />
    <glyph glyph-name="pi" unicode="&#x3c0;" horiz-adv-x="1206" 
d="M1206 59c-32.667 -24.667 -64.999 -43.333 -96.999 -56s-70 -19 -114 -19c-80.667 0 -136.334 20 -167.001 60s-46 96.333 -46 169v713h-458v-926h-113v926h-176v96h1067v-96h-207v-707c0 -42.667 9.33301 -75.167 28 -97.5s45.667 -33.5 81 -33.5c48.667 0 97 19 145 57
z" />
    <glyph glyph-name="uni2007" unicode="&#x2007;" horiz-adv-x="1069" 
 />
    <glyph glyph-name="uni2008" unicode="&#x2008;" horiz-adv-x="393" 
 />
    <glyph glyph-name="uni200B" unicode="&#x200b;" horiz-adv-x="0" 
 />
    <glyph glyph-name="endash" unicode="&#x2013;" 
d="M1024 543h-1024v102h1024v-102z" />
    <glyph glyph-name="emdash" unicode="&#x2014;" horiz-adv-x="2048" 
d="M2048 543h-2048v102h2048v-102z" />
    <glyph glyph-name="quoteleft" unicode="&#x2018;" horiz-adv-x="378" 
d="M297 1233c0 -32 -10.3291 -58.833 -30.9961 -80.5s-48 -32.5 -82 -32.5c-38.667 0 -71.5 16.667 -98.5 50s-40.5 80.333 -40.5 141c0 77.333 21.667 139.666 65 186.999s98.666 71 165.999 71h7v-66c-48.667 -4 -86.334 -20.667 -113.001 -50
s-42.334 -74.666 -47.001 -135.999c19.333 19.333 42.666 29 69.999 29c30 0 54.833 -11.167 74.5 -33.5s29.5 -48.833 29.5 -79.5z" />
    <glyph glyph-name="quoteright" unicode="&#x2019;" horiz-adv-x="389" 
d="M313 1321c0 -78 -21.6689 -140.499 -65.002 -187.499s-98.666 -70.5 -165.999 -70.5h-6v65c48 4.66699 85.333 21.667 112 51s42.667 74.666 48 135.999c-19.333 -19.333 -42.666 -29 -69.999 -29c-30 0 -55 11.167 -75 33.5s-30 48.833 -30 79.5
c0 31.333 10.333 57.833 31 79.5s48 32.5 82 32.5c39.333 0 72.333 -16.5 99 -49.5s40 -79.833 40 -140.5z" />
    <glyph glyph-name="quotesinglbase" unicode="&#x201a;" horiz-adv-x="415" 
d="M334 27c0 -78 -21.668 -140.501 -65.001 -187.501s-99 -70.5 -167 -70.5h-6v65c48 4 85.5 20.833 112.5 50.5s42.833 74.834 47.5 135.501c-19.333 -18.667 -42.666 -28 -69.999 -28c-30 0 -54.833 11.167 -74.5 33.5s-29.5 48.5 -29.5 78.5c0 32 10.333 58.833 31 80.5
s48 32.5 82 32.5c38.667 0 71.5 -16.5 98.5 -49.5s40.5 -79.833 40.5 -140.5z" />
    <glyph glyph-name="quotedblleft" unicode="&#x201c;" horiz-adv-x="772" 
d="M680 1233c0 -32 -10.3301 -58.833 -30.9971 -80.5s-48 -32.5 -82 -32.5c-38.667 0 -71.5 16.667 -98.5 50s-40.5 80.333 -40.5 141c0 77.333 21.667 139.666 65 186.999s98.666 71 165.999 71h7v-66c-48.667 -4 -86.334 -20.667 -113.001 -50
s-42.334 -74.666 -47.001 -135.999c19.333 19.333 42.333 29 69 29c30 0 55 -11.167 75 -33.5s30 -48.833 30 -79.5zM297.003 1233c0 -32 -10.3291 -58.833 -30.9961 -80.5s-48 -32.5 -82 -32.5c-38.667 0 -71.5 16.667 -98.5 50s-40.5 80.333 -40.5 141
c0 77.333 21.667 139.666 65 186.999s98.666 71 165.999 71h7v-66c-48.667 -4 -86.334 -20.667 -113.001 -50s-42.334 -74.666 -47.001 -135.999c19.333 19.333 42.666 29 69.999 29c30 0 54.833 -11.167 74.5 -33.5s29.5 -48.833 29.5 -79.5z" />
    <glyph glyph-name="quotedblright" unicode="&#x201d;" horiz-adv-x="772" 
d="M696 1321c0 -78 -21.6689 -140.499 -65.002 -187.499s-98.666 -70.5 -165.999 -70.5h-6v65c48 4.66699 85.333 21.667 112 51s42.334 74.666 47.001 135.999c-18.667 -19.333 -41.667 -29 -69 -29c-30 0 -55 11.167 -75 33.5s-30 48.833 -30 79.5
c0 31.333 10.333 57.833 31 79.5s48 32.5 82 32.5c39.333 0 72.333 -16.5 99 -49.5s40 -79.833 40 -140.5zM312.998 1321c0 -78 -21.6689 -140.499 -65.002 -187.499s-98.666 -70.5 -165.999 -70.5h-6v65c48 4.66699 85.333 21.667 112 51s42.667 74.666 48 135.999
c-19.333 -19.333 -42.666 -29 -69.999 -29c-30 0 -55 11.167 -75 33.5s-30 48.833 -30 79.5c0 31.333 10.333 57.833 31 79.5s48 32.5 82 32.5c39.333 0 72.333 -16.5 99 -49.5s40 -79.833 40 -140.5z" />
    <glyph glyph-name="quotedblbase" unicode="&#x201e;" horiz-adv-x="772" 
d="M717 27c0 -78 -21.834 -140.501 -65.501 -187.501s-99.167 -70.5 -166.5 -70.5h-6v65c48 4 85.5 20.833 112.5 50.5s42.833 74.834 47.5 135.501c-19.333 -18.667 -42.666 -28 -69.999 -28c-30 0 -54.833 11.167 -74.5 33.5s-29.5 48.5 -29.5 78.5
c0 32 10.333 58.833 31 80.5s48 32.5 82 32.5c38.667 0 71.5 -16.5 98.5 -49.5s40.5 -79.833 40.5 -140.5zM333.999 26.999c0 -78 -21.668 -140.501 -65.001 -187.501s-99 -70.5 -167 -70.5h-6v65c48 4 85.5 20.833 112.5 50.5s42.833 74.834 47.5 135.501
c-19.333 -18.667 -42.666 -28 -69.999 -28c-30 0 -54.833 11.167 -74.5 33.5s-29.5 48.5 -29.5 78.5c0 32 10.333 58.833 31 80.5s48 32.5 82 32.5c38.667 0 71.5 -16.5 98.5 -49.5s40.5 -79.833 40.5 -140.5z" />
    <glyph glyph-name="dagger" unicode="&#x2020;" horiz-adv-x="1034" 
d="M870 930h-297v-1120h-112v1120h-297v92h297v379h112v-379h297v-92z" />
    <glyph glyph-name="daggerdbl" unicode="&#x2021;" horiz-adv-x="1075" 
d="M891 297h-297v-487h-113v487h-297v92h297v541h-297v92h297v379h113v-379h297v-92h-297v-541h297v-92z" />
    <glyph glyph-name="bullet" unicode="&#x2022;" horiz-adv-x="778" 
d="M573 608c0 -51.333 -17.833 -95.166 -53.5 -131.499s-79.167 -54.5 -130.5 -54.5c-50.667 0 -94 18.167 -130 54.5s-54 80.166 -54 131.499s18 95.333 54 132s79.333 55 130 55c51.333 0 94.833 -18.167 130.5 -54.5s53.5 -80.5 53.5 -132.5z" />
    <glyph glyph-name="ellipsis" unicode="&#x2026;" horiz-adv-x="1294" 
d="M1212 104c0 -34 -10.667 -62.5 -32 -85.5s-48.666 -34.5 -81.999 -34.5s-60.833 11.5 -82.5 34.5s-32.5 51.5 -32.5 85.5c0 34.667 10.833 63.5 32.5 86.5s49.167 34.5 82.5 34.5s60.666 -11.5 81.999 -34.5s32 -51.833 32 -86.5zM311 104c0 -34 -10.667 -62.5 -32 -85.5
s-48.666 -34.5 -81.999 -34.5s-60.833 11.5 -82.5 34.5s-32.5 51.5 -32.5 85.5c0 34.667 10.833 63.5 32.5 86.5s49.167 34.5 82.5 34.5s60.666 -11.5 81.999 -34.5s32 -51.833 32 -86.5zM762 104c0 -34 -10.833 -62.5 -32.5 -85.5s-49.167 -34.5 -82.5 -34.5
s-60.833 11.5 -82.5 34.5s-32.5 51.5 -32.5 85.5s10.833 62.667 32.5 86s49.167 35 82.5 35s60.833 -11.5 82.5 -34.5s32.5 -51.833 32.5 -86.5z" />
    <glyph glyph-name="perthousand" unicode="&#x2030;" horiz-adv-x="2488" 
d="M2324 344c0 -116.667 -27.167 -205.832 -81.5 -267.499s-126.833 -92.5 -217.5 -92.5s-163.167 30.667 -217.5 92s-81.5 150.666 -81.5 267.999c0 115.333 27.333 203.5 82 264.5s127 91.5 217 91.5c90.667 0 163.167 -30.667 217.5 -92s81.5 -149.333 81.5 -264z
M1593 344.002c0 -116.667 -27.333 -205.832 -82 -267.499s-127 -92.5 -217 -92.5c-90.667 0 -163.167 30.667 -217.5 92s-81.5 150.666 -81.5 267.999c0 115.333 27.333 203.5 82 264.5s127 91.5 217 91.5s162.333 -30.667 217 -92s82 -149.333 82 -264zM762 1012
c0 -116.667 -27.333 -206 -82 -268s-127 -93 -217 -93s-162.333 30.833 -217 92.5s-82 151.167 -82 268.5c0 114.667 27.333 202.667 82 264s127 92 217 92s162.333 -30.833 217 -92.5s82 -149.5 82 -263.5zM2218 344.004c0 90.667 -16.499 158.334 -49.499 203.001
s-79.833 67 -140.5 67c-62.667 0 -110.834 -22.333 -144.501 -67s-50.5 -112.334 -50.5 -203.001c0 -89.333 16.667 -157.333 50 -204s80 -70 140 -70c62.667 0 110.834 23 144.5 69c33.667 46 50.5 114.333 50.5 205zM655.001 1012c0 180 -63.332 270.001 -189.999 270.001
c-62.667 0 -110.834 -22.333 -144.501 -67s-50.5 -112.334 -50.5 -203.001c0 -90 16.667 -158.333 50 -205s80.333 -70 141 -70c62.667 0 110.667 23 144 69s50 114.667 50 206zM1487 344.005c0 90.667 -16.501 158.333 -49.501 203s-80.167 67 -141.5 67
c-62 0 -109.833 -22.5 -143.5 -67.5s-50.5 -112.5 -50.5 -202.5c0 -89.333 16.667 -157.333 50 -204s80 -70 140 -70c62.667 0 110.834 23 144.501 69s50.5 114.333 50.5 205zM1405 1346l-973 -1389l-78 55l971 1387z" />
    <glyph glyph-name="minute" unicode="&#x2032;" horiz-adv-x="399" 
d="M213 870h-111l84 592h111z" />
    <glyph glyph-name="second" unicode="&#x2033;" horiz-adv-x="686" 
d="M500 870h-111l84 592h111zM213 870h-111l84 592h111z" />
    <glyph glyph-name="uni2034" unicode="&#x2034;" horiz-adv-x="972" 
d="M213 870h-111l84 592h111zM786 870h-110l84 592h110zM500 870h-111l84 592h111z" />
    <glyph glyph-name="guilsinglleft" unicode="&#x2039;" horiz-adv-x="442" 
d="M391 229l-92 -65l-258 368l258 367l88 -63l-217 -301z" />
    <glyph glyph-name="guilsinglright" unicode="&#x203a;" horiz-adv-x="442" 
d="M401 532l-258 -366l-88 63l217 301l-221 306l92 65z" />
    <glyph glyph-name="fraction" unicode="&#x2044;" horiz-adv-x="522" 
d="M727 1462l-858 -1616h-115l858 1616h115z" />
    <glyph glyph-name="uni2070" unicode="&#x2070;" horiz-adv-x="677" 
d="M72 991c0 280 90.001 419.997 270.001 419.997c93.333 0 160.666 -33.667 201.999 -101s62 -173.666 62 -318.999c0 -141.333 -21.833 -246.666 -65.5 -315.999s-111.167 -104 -202.5 -104c-93.333 0 -161 33.833 -203 101.5s-63 173.834 -63 318.501zM494.001 994.997
c0 218.667 -52 328.002 -156 328.002c-102.667 0 -154 -109.333 -154 -328c0 -66.667 5 -123.834 15 -171.501s26.667 -85.834 50 -114.501s53 -43 89 -43c104 0 156 109.667 156 329z" />
    <glyph glyph-name="uni2074" unicode="&#x2074;" horiz-adv-x="671" 
d="M653 778h-121v-196h-108v196h-373v74l344 549h137v-527h121v-96zM428 1288h-4.00098c-7.33301 -20 -27 -55.333 -59 -106l-138 -217c-23.333 -38 -45.666 -69 -66.999 -93l2 -4c14.667 4 102 6 262 6v263c0 86 1.33301 136.333 4 151z" />
    <glyph glyph-name="uni2075" unicode="&#x2075;" horiz-adv-x="661" 
d="M143 1401l408.002 -0.000976562v-94h-313c-12 -144 -23 -233 -33 -267c34.667 45.333 84.334 68 149.001 68c68 0 124.333 -24.333 169 -73s67 -108.334 67 -179.001c0 -48 -8 -90.667 -24 -128s-37.5 -67.166 -64.5 -89.499s-57 -39.166 -90 -50.499
s-67.833 -17 -104.5 -17c-78.667 0 -154.334 18.667 -227.001 56l47 94c57.333 -35.333 116.666 -53 177.999 -53c51.333 0 93.166 14.833 125.499 44.5s48.5 75.5 48.5 137.5c0 48.667 -14 89.167 -42 121.5s-63.667 48.5 -107 48.5c-46.667 0 -91.667 -24.667 -135 -74
l-89 37z" />
    <glyph glyph-name="uni2076" unicode="&#x2076;" horiz-adv-x="655" 
d="M539 1380l-35.002 -79.999c-34 15.333 -65.333 23 -94 23c-71.333 0 -126.166 -22.167 -164.499 -66.5s-61.5 -120.5 -69.5 -228.5c20.667 30.667 44.834 53 72.501 67s65.5 21 113.5 21c62.667 0 115.334 -23.333 158.001 -70s64 -111.334 64 -194.001
c0 -86 -24.333 -154.333 -73 -205s-108.334 -76 -179.001 -76c-80.667 0 -144.167 30.333 -190.5 91s-69.5 156 -69.5 286c0 308.667 113.333 463 340 463c50 0 92.333 -10.333 127 -31zM335.998 1026c-45.333 0 -81.668 -14.499 -109.001 -43.499s-41 -69.833 -41 -122.5
c0 -64.667 12.667 -113.5 38 -146.5s61.333 -49.5 108 -49.5c42 0 75.667 16.167 101 48.5s38 78.166 38 137.499c0 56.667 -11.667 100.167 -35 130.5s-56.666 45.5 -99.999 45.5z" />
    <glyph glyph-name="uni2077" unicode="&#x2077;" horiz-adv-x="532" 
d="M43 1401h463v-66l-281 -753h-123l285 723h-344v96z" />
    <glyph glyph-name="uni2078" unicode="&#x2078;" horiz-adv-x="671" 
d="M340 1411c68 0 122.167 -19.166 162.5 -57.499s60.5 -88.833 60.5 -151.5c0 -83.333 -38 -143.333 -114 -180c45.333 -13.333 81.833 -40 109.5 -80s41.5 -84.333 41.5 -133c0 -76 -23.333 -134.667 -70 -176s-114 -62 -202 -62c-80.667 0 -143.5 20.833 -188.5 62.5
s-67.5 100.167 -67.5 175.5c0 49.333 13.667 93.833 41 133.5s64 66.167 110 79.5c-36.667 17.333 -64.834 41.666 -84.501 72.999s-29.5 67 -29.5 107c0 63.333 20.333 114 61 152s97.334 57 170.001 57zM336 977.001c-42 0 -77.499 -15.5 -106.499 -46.5
s-43.5 -69.5 -43.5 -115.5c0 -43.333 14.167 -79.666 42.5 -108.999s64.166 -44 107.499 -44s79 14.667 107 44s42 65.666 42 108.999c0 46 -14.333 84.5 -43 115.5s-64 46.5 -106 46.5zM336.001 1327c-33.333 0 -61.167 -12.333 -83.5 -37s-33.5 -54.667 -33.5 -90
c0 -38 11.5 -71.333 34.5 -100s50.5 -43 82.5 -43c31.333 0 58.666 14.333 81.999 43s35 62 35 100c0 35.333 -11.167 65.333 -33.5 90s-50.166 37 -83.499 37z" />
    <glyph glyph-name="uni2079" unicode="&#x2079;" horiz-adv-x="655" 
d="M324 1411c80.667 0 144.167 -30.334 190.5 -91.001s69.5 -156 69.5 -286c0 -308.667 -113.333 -463 -340 -463c-48.667 0 -91 10.333 -127 31l35 80c36 -15.333 67.333 -23 94 -23c71.333 0 126 22.167 164 66.5s61 120.5 69 228.5
c-20.667 -30.667 -44.834 -53 -72.501 -67s-65.5 -21 -113.5 -21c-62.667 0 -115.167 23.333 -157.5 70s-63.5 111.334 -63.5 194.001c0 86.667 24.333 155.167 73 205.5s108.334 75.5 179.001 75.5zM324 1321c-42 0 -75.8311 -16.333 -101.498 -49
s-38.5 -78.334 -38.5 -137.001c0 -55.333 11.667 -98.166 35 -128.499s56.666 -45.5 99.999 -45.5c45.333 0 81.666 14.333 108.999 43s41 68.667 41 120c0 64.667 -12.5 113.667 -37.5 147s-60.833 50 -107.5 50z" />
    <glyph glyph-name="uni2080" unicode="&#x2080;" horiz-adv-x="677" 
d="M72 10c0 280 90.001 419.997 270.001 419.997c93.333 0 160.666 -33.667 201.999 -101s62 -173.666 62 -318.999c0 -141.333 -21.833 -246.666 -65.5 -315.999s-111.167 -104 -202.5 -104c-93.333 0 -161 33.833 -203 101.5s-63 173.834 -63 318.501zM494.001 13.9971
c0 218.667 -52 328.002 -156 328.002c-102.667 0 -154 -109.333 -154 -328c0 -66.667 5 -123.834 15 -171.501s26.667 -85.834 50 -114.501s53 -43 89 -43c104 0 156 109.667 156 329z" />
    <glyph glyph-name="uni2081" unicode="&#x2081;" horiz-adv-x="552" 
d="M61 360l213 60h74v-725h135v-94h-417v94h174v618l-179 -49v96z" />
    <glyph glyph-name="uni2082" unicode="&#x2082;" horiz-adv-x="659" 
d="M88 319c36 36 74.0039 63.502 114.004 82.502s87.333 28.5 142 28.5c69.333 0 126 -19.5 170 -58.5s66 -89.833 66 -152.5c0 -37.333 -7.33301 -71.333 -22 -102s-33.834 -56.834 -57.501 -78.501s-49.667 -42.334 -78 -62.001l-85 -57.5
c-28.333 -18.667 -54.333 -38.167 -78 -58.5s-42.834 -44.333 -57.501 -72s-22 -58.167 -22 -91.5h412v-96h-522v63c0 49.333 7.16699 93.5 21.5 132.5s33.166 71 56.499 96s48.833 47.833 76.5 68.5s55.5 39.5 83.5 56.5s53.667 34.333 77 52s42.166 38.667 56.499 63
s21.5 51.833 21.5 82.5c0 36.667 -10.833 65.667 -32.5 87s-51.834 32 -90.501 32c-59.333 0 -120.666 -29.333 -183.999 -88z" />
    <glyph glyph-name="uni2083" unicode="&#x2083;" horiz-adv-x="618" 
d="M66 332c36.667 32.667 73.833 57.167 111.5 73.5s82.167 24.5 133.5 24.5c62.667 0 114.167 -17.333 154.5 -52s60.5 -77.334 60.5 -128.001c0 -54 -12.667 -95.833 -38 -125.5s-63 -52.834 -113 -69.501c114.667 -23.333 172 -92.333 172 -207
c0 -80.667 -26 -143.834 -78 -189.501s-119.667 -68.5 -203 -68.5c-68 0 -138.333 18.667 -211 56l45 94c58 -35.333 115.333 -53 172 -53c48.667 0 87.5 14 116.5 42s43.5 70 43.5 126c0 42.667 -15.333 76.834 -46 102.501s-73.334 38.5 -128.001 38.5h-65v96
c79.333 0.666992 136 12.834 170 36.501s51 57.834 51 102.501c0 32.667 -10.667 58.667 -32 78s-49.666 29 -84.999 29c-48 0 -104 -26.667 -168 -80z" />
    <glyph glyph-name="uni2084" unicode="&#x2084;" horiz-adv-x="671" 
d="M653 -203h-121v-196h-108v196h-373v74l344 549h137v-526h121v-97zM428 307h-4.00098c-7.33301 -20 -27 -55.333 -59 -106l-138 -217c-23.333 -38 -45.666 -69 -66.999 -93l2 -4c14.667 4.66699 102 7 262 7v262c0 86 1.33301 136.333 4 151z" />
    <glyph glyph-name="uni2085" unicode="&#x2085;" horiz-adv-x="661" 
d="M143 420l408.002 -0.000976562v-94h-313c-12 -144 -23 -233 -33 -267c34.667 45.333 84.334 68 149.001 68c68 0 124.333 -24.333 169 -73s67 -108.334 67 -179.001c0 -48 -8 -90.667 -24 -128s-37.5 -67.166 -64.5 -89.499s-57 -39.166 -90 -50.499
s-67.833 -17 -104.5 -17c-78.667 0 -154.334 18.667 -227.001 56l47 94c57.333 -35.333 116.666 -53 177.999 -53c51.333 0 93.166 14.833 125.499 44.5s48.5 75.5 48.5 137.5c0 48.667 -14 89.167 -42 121.5s-63.667 48.5 -107 48.5c-46.667 0 -91.667 -24.667 -135 -74
l-89 37z" />
    <glyph glyph-name="uni2086" unicode="&#x2086;" horiz-adv-x="655" 
d="M539 399l-35.002 -79.999c-34 15.333 -65.333 23 -94 23c-71.333 0 -126.166 -22.167 -164.499 -66.5s-61.5 -120.5 -69.5 -228.5c20.667 30.667 44.834 53 72.501 67s65.5 21 113.5 21c62.667 0 115.334 -23.333 158.001 -70s64 -111.334 64 -194.001
c0 -86 -24.333 -154.333 -73 -205s-108.334 -76 -179.001 -76c-80.667 0 -144.167 30.333 -190.5 91s-69.5 156 -69.5 286c0 308.667 113.333 463 340 463c50 0 92.333 -10.333 127 -31zM335.998 45.001c-45.333 0 -81.668 -14.499 -109.001 -43.499s-41 -69.833 -41 -122.5
c0 -64.667 12.667 -113.5 38 -146.5s61.333 -49.5 108 -49.5c42 0 75.667 16.167 101 48.5s38 78.166 38 137.499c0 56.667 -11.667 100.167 -35 130.5s-56.666 45.5 -99.999 45.5z" />
    <glyph glyph-name="uni2087" unicode="&#x2087;" horiz-adv-x="532" 
d="M43 420h463v-66l-281 -753h-123l285 723h-344v96z" />
    <glyph glyph-name="uni2088" unicode="&#x2088;" horiz-adv-x="671" 
d="M340 430c68 0 122.167 -19.166 162.5 -57.499s60.5 -88.833 60.5 -151.5c0 -83.333 -38 -143.333 -114 -180c45.333 -13.333 81.833 -40 109.5 -80s41.5 -84.333 41.5 -133c0 -76 -23.333 -134.667 -70 -176s-114 -62 -202 -62c-80.667 0 -143.5 20.833 -188.5 62.5
s-67.5 100.167 -67.5 175.5c0 49.333 13.667 93.833 41 133.5s64 66.167 110 79.5c-36.667 17.333 -64.834 41.666 -84.501 72.999s-29.5 67 -29.5 107c0 63.333 20.333 114 61 152s97.334 57 170.001 57zM336 -3.99902c-42 0 -77.499 -15.5 -106.499 -46.5
s-43.5 -69.5 -43.5 -115.5c0 -43.333 14.167 -79.666 42.5 -108.999s64.166 -44 107.499 -44s79 14.667 107 44s42 65.666 42 108.999c0 46 -14.333 84.5 -43 115.5s-64 46.5 -106 46.5zM336.001 346.001c-33.333 0 -61.167 -12.333 -83.5 -37s-33.5 -54.667 -33.5 -90
c0 -38 11.5 -71.333 34.5 -100s50.5 -43 82.5 -43c31.333 0 58.666 14.333 81.999 43s35 62 35 100c0 35.333 -11.167 65.333 -33.5 90s-50.166 37 -83.499 37z" />
    <glyph glyph-name="uni2089" unicode="&#x2089;" horiz-adv-x="655" 
d="M324 430c80.667 0 144.167 -30.333 190.5 -91s69.5 -156 69.5 -286c0 -308.667 -113.333 -463 -340 -463c-48.667 0 -91 10.333 -127 31l35 80c36 -15.333 67.333 -23 94 -23c71.333 0 126 22.167 164 66.5s61 120.5 69 228.5c-20.667 -30.667 -44.834 -53 -72.501 -67
s-65.5 -21 -113.5 -21c-62.667 0 -115.167 23.333 -157.5 70s-63.5 111.667 -63.5 195c0 86 24.333 154.167 73 204.5s108.334 75.5 179.001 75.5zM324 340c-42 0 -75.8311 -16.333 -101.498 -49s-38.5 -78.334 -38.5 -137.001c0 -55.333 11.667 -98.166 35 -128.499
s56.666 -45.5 99.999 -45.5c45.333 0 81.666 14.333 108.999 43s41 68.667 41 120c0 64.667 -12.5 113.667 -37.5 147s-60.833 50 -107.5 50z" />
    <glyph glyph-name="Euro" unicode="&#x20ac;" 
d="M596 -16c-248.667 0 -386.664 181.999 -413.997 545.999h-104v99h98v51c0 38 0.666992 66 2 84h-100v98h108c20.667 168.667 69.334 295.167 146.001 379.5s170.667 126.5 282 126.5c70 0 128.667 -11.833 176 -35.5s94.666 -60.834 141.999 -111.501l-80 -82
c-38.667 44 -76.334 75.833 -113.001 95.5s-78.334 29.5 -125.001 29.5c-76 0 -140.667 -33.167 -194 -99.5s-89 -167.166 -107 -302.499h414v-98h-422c-1.33301 -19.333 -2 -48.666 -2 -87.999v-47h424v-99h-418c23.333 -294.667 122.333 -442 297 -442
c48 0 95.5 11.5 142.5 34.5s88.167 56.5 123.5 100.5l80 -78c-44.667 -54.667 -98.334 -95.167 -161.001 -121.5s-127.667 -39.5 -195 -39.5z" />
    <glyph glyph-name="uni2117" unicode="&#x2117;" horiz-adv-x="1822" 
d="M1628 700c0 -129.333 -31.999 -249.001 -95.999 -359.001s-151 -197 -261 -261s-230 -96 -360 -96c-129.333 0 -249 32 -359 96s-197 151 -261 261s-96 229.667 -96 359c0 130 32 250 96 360s151 197 261 261s229.667 96 359 96c97.333 0 190.166 -19 278.499 -57
s164.5 -89 228.5 -153s115 -140.167 153 -228.5s57 -181.166 57 -278.499zM1538 699.999c0 114.667 -27.833 220.667 -83.5 318s-131.667 174.5 -228 231.5s-201.5 85.5 -315.5 85.5c-85.333 0 -166.666 -16.833 -243.999 -50.5s-143.833 -79 -199.5 -136
s-100 -124.5 -133 -202.5s-49.5 -160 -49.5 -246c0 -85.333 16.5 -167.166 49.5 -245.499s77.333 -145.833 133 -202.5s122.167 -101.834 199.5 -135.501s158.666 -50.5 243.999 -50.5c114 0 219.167 28.5 315.5 85.5s172.333 134.167 228 231.5s83.5 203 83.5 317z
M1204 849.999c0 -80 -25.332 -141.666 -75.999 -184.999s-122.334 -65 -215.001 -65h-94v-305h-102v786h235c82 0 144.5 -19.833 187.5 -59.5s64.5 -96.834 64.5 -171.501zM1096 848c0 52 -14.832 89.167 -44.499 111.5s-75.834 33.5 -138.501 33.5h-94v-305h92
c123.333 0 185 53.333 185 160z" />
    <glyph glyph-name="trademark" unicode="&#x2122;" horiz-adv-x="1478" 
d="M1397 770l-101 0.000976562c0 294.667 2.33301 477.667 7 549l-3 2c-4 -16.667 -14 -43.167 -30 -79.5l-127 -278.5h-123c-102.667 198.667 -158.667 318 -168 358l-2 -2c4 -79.333 6 -262.333 6 -549h-100v631h149c107.333 -216.667 164.333 -335.334 171 -356.001
c2 -5.33301 3.66699 -10.333 5 -15h2c10 35.333 65.333 159 166 371h148v-631zM608 1311h-190v-541h-103v541h-192v90h485v-90z" />
    <glyph glyph-name="Omega" unicode="&#x2126;" horiz-adv-x="1286" 
d="M1163 731c0 -160 -22.333 -293.503 -67 -400.503s-104 -182.5 -178 -226.5v-2c39.333 4.66699 109.333 7 210 7v-109h-372v98c102 58.667 175.167 137.167 219.5 235.5s66.5 226.833 66.5 385.5c0 397.333 -132.333 596 -397 596
c-126.667 0 -225.167 -48.833 -295.5 -146.5s-105.5 -235.834 -105.5 -414.501c0 -169.333 22.5 -305.666 67.5 -408.999s118.5 -185.666 220.5 -246.999v-98h-374v109c110.667 0 183.667 -2.33301 219 -7v2c-74 46.667 -134.833 121.834 -182.5 225.501
s-71.5 234.834 -71.5 393.501c0 230 47 403.167 141 519.5s224.333 174.5 391 174.5c338.667 0 508 -228.667 508 -686z" />
    <glyph glyph-name="uni2150" unicode="&#x2150;" horiz-adv-x="1607" 
d="M61 1341l213 60h74v-725h135v-94h-417v94h174v618l-179 -49v96zM1280 1462l-858 -1616h-115l858 1616h115zM1118 819h463v-65l-281 -754h-122l284 723h-344v96z" />
    <glyph glyph-name="uni2151" unicode="&#x2151;" horiz-adv-x="1730" 
d="M61 1341l213 60h74v-725h135v-94h-417v94h174v618l-179 -49v96zM1280 1462l-858 -1616h-115l858 1616h115zM1399 829c80.667 0 144.166 -30.168 190.499 -90.501s69.5 -155.5 69.5 -285.5c0 -308.667 -113.333 -463 -340 -463c-50 0 -92.333 10 -127 30l35 80
c34 -14.667 65.333 -22 94 -22c71.333 0 126 22.167 164 66.5s61 120.5 69 228.5c-19.333 -31.333 -43 -53.833 -71 -67.5s-66.333 -20.5 -115 -20.5c-62.667 0 -115.167 23.333 -157.5 70s-63.5 111.334 -63.5 194.001c0 86 24.333 154.167 73 204.5
s108.334 75.5 179.001 75.5zM1399 738.999c-42 0 -75.666 -16.1689 -100.999 -48.502s-38 -78.166 -38 -137.499c0 -55.333 11.667 -98.166 35 -128.499s56.666 -45.5 99.999 -45.5c44.667 0 80.667 14.5 108 43.5s41 69.167 41 120.5c0 64.667 -12.5 113.5 -37.5 146.5
s-60.833 49.5 -107.5 49.5z" />
    <glyph glyph-name="uni2152" unicode="&#x2152;" horiz-adv-x="2306" 
d="M61 1341l213 60h74v-725h135v-94h-417v94h174v618l-179 -49v96zM1280 1462l-858 -1616h-115l858 1616h115zM1137 760l213 59h73v-725h136v-94h-418v94h174v619l-178 -49v96zM1700 410c0 279.333 90 418.998 270 418.998c93.333 0 160.666 -33.667 202 -101
c41.333 -67.333 62 -173.333 62 -318c0 -141.333 -21.833 -246.666 -65.5 -315.999s-111.167 -104 -202.5 -104c-93.333 0 -161 33.833 -203 101.5s-63 173.834 -63 318.501zM2122 413.998c0 218 -52 327 -156 327c-102.667 0 -154 -109 -154 -327c0 -66.667 5 -124 15 -172
s26.667 -86.333 50 -115s53 -43 89 -43c104 0 156 110 156 330z" />
    <glyph glyph-name="onethird" unicode="&#x2153;" horiz-adv-x="1693" 
d="M61 1341l213 60h74v-725h135v-94h-417v94h174v618l-179 -49v96zM1280 1462l-858 -1616h-115l858 1616h115zM1141 731c36.667 32.667 73.665 57.1641 110.998 73.4971s82 24.5 134 24.5c62.667 0 114.334 -17.167 155.001 -51.5s61 -77.166 61 -128.499
c0 -54 -12.833 -95.833 -38.5 -125.5s-63.5 -52.5 -113.5 -68.5c114.667 -24 172 -93 172 -207c0 -80.667 -26 -143.834 -78 -189.501s-119.667 -68.5 -203 -68.5c-69.333 0 -139.666 18.333 -210.999 55l46 94c57.333 -35.333 114.666 -53 171.999 -53
c48.667 0 87.334 14 116.001 42s43 70 43 126c0 42.667 -15.333 76.834 -46 102.501s-73.334 38.5 -128.001 38.5h-65v97c79.333 0.666992 136 12.834 170 36.501s51 57.834 51 102.501c0 32 -10.667 57.667 -32 77s-49.666 29 -84.999 29
c-48.667 0 -104.667 -26.667 -168 -80z" />
    <glyph glyph-name="twothirds" unicode="&#x2154;" horiz-adv-x="1800" 
d="M88 1300c36 36 74.0039 63.502 114.004 82.502s87.333 28.5 142 28.5c69.333 0 126 -19.5 170 -58.5s66 -89.833 66 -152.5c0 -37.333 -7.33301 -71.333 -22 -102s-33.834 -56.834 -57.501 -78.501s-49.667 -42.334 -78 -62.001l-85 -57.5
c-28.333 -18.667 -54.333 -38.167 -78 -58.5s-42.834 -44.333 -57.501 -72s-22 -58.167 -22 -91.5h412v-96h-522v63c0 49.333 7.16699 93.5 21.5 132.5s33.166 71 56.499 96s48.833 47.833 76.5 68.5s55.5 39.5 83.5 56.5s53.667 34.333 77 52s42.166 38.667 56.499 63
s21.5 51.833 21.5 82.5c0 36.667 -10.833 65.667 -32.5 87s-51.834 32 -90.501 32c-59.333 0 -120.666 -29.333 -183.999 -88zM1386 1462l-858 -1616h-114l858 1616h114zM1247 731.002c37.333 32.667 74.666 57.1641 111.999 73.4971s82 24.5 134 24.5
c62.667 0 114.167 -17.167 154.5 -51.5s60.5 -77.166 60.5 -128.499c0 -54 -12.833 -95.833 -38.5 -125.5s-63.5 -52.5 -113.5 -68.5c115.333 -24 173 -93 173 -207c0 -80.667 -26 -143.834 -78 -189.501s-119.667 -68.5 -203 -68.5c-69.333 0 -139.666 18.333 -210.999 55
l45 94c58 -35.333 115.333 -53 172 -53c48.667 0 87.5 14 116.5 42s43.5 70 43.5 126c0 42.667 -15.5 76.834 -46.5 102.501s-73.5 38.5 -127.5 38.5h-66v97c79.333 0.666992 136 12.834 170 36.501s51 57.834 51 102.501c0 32 -10.667 57.667 -32 77s-49.333 29 -84 29
c-49.333 0 -105.333 -26.667 -168 -80z" />
    <glyph glyph-name="uni2155" unicode="&#x2155;" horiz-adv-x="1736" 
d="M61 1341l213 60h74v-725h135v-94h-417v94h174v618l-179 -49v96zM1280 1462l-858 -1616h-115l858 1616h115zM1219 819l407.001 0.000976562v-94h-313c-9.33301 -135.333 -20.333 -224 -33 -266c34 44.667 84 67 150 67c68 0 124.167 -24.333 168.5 -73
s66.5 -108.334 66.5 -179.001c0 -92.667 -27.667 -163.167 -83 -211.5s-122 -72.5 -200 -72.5c-80 0 -155.667 18.333 -227 55l47 94c58 -35.333 117.333 -53 178 -53c51.333 0 93.166 14.833 125.499 44.5s48.5 75.5 48.5 137.5c0 48.667 -14 89.167 -42 121.5
s-63.667 48.5 -107 48.5c-47.333 0 -92.333 -24.333 -135 -73l-88 36z" />
    <glyph glyph-name="uni2156" unicode="&#x2156;" horiz-adv-x="1843" 
d="M88 1300c36 36 74.0039 63.502 114.004 82.502s87.333 28.5 142 28.5c69.333 0 126 -19.5 170 -58.5s66 -89.833 66 -152.5c0 -37.333 -7.33301 -71.333 -22 -102s-33.834 -56.834 -57.501 -78.501s-49.667 -42.334 -78 -62.001l-85 -57.5
c-28.333 -18.667 -54.333 -38.167 -78 -58.5s-42.834 -44.333 -57.501 -72s-22 -58.167 -22 -91.5h412v-96h-522v63c0 49.333 7.16699 93.5 21.5 132.5s33.166 71 56.499 96s48.833 47.833 76.5 68.5s55.5 39.5 83.5 56.5s53.667 34.333 77 52s42.166 38.667 56.499 63
s21.5 51.833 21.5 82.5c0 36.667 -10.833 65.667 -32.5 87s-51.834 32 -90.501 32c-59.333 0 -120.666 -29.333 -183.999 -88zM1386 1462l-858 -1616h-114l858 1616h114zM1325 819.002l408.004 -0.00195312v-94h-314c-10 -139.333 -21 -228 -33 -266c34 44.667 84 67 150 67
c68 0 124.333 -24.333 169 -73s67 -108.334 67 -179.001c0 -47.333 -8 -89.666 -24 -126.999s-37.667 -67.166 -65 -89.499s-57.333 -39.166 -90 -50.499s-67.334 -17 -104.001 -17c-80.667 0 -156.334 18.333 -227.001 55l47 94c57.333 -35.333 116.666 -53 177.999 -53
c51.333 0 93.166 14.833 125.499 44.5s48.5 75.5 48.5 137.5c0 48.667 -14 89.167 -42 121.5s-64 48.5 -108 48.5c-47.333 0 -92.333 -24.333 -135 -73l-88 36z" />
    <glyph glyph-name="uni2157" unicode="&#x2157;" horiz-adv-x="1802" 
d="M66 1313c36.667 32.667 73.833 57.167 111.5 73.5s82.167 24.5 133.5 24.5c62.667 0 114.167 -17.333 154.5 -52s60.5 -77.334 60.5 -128.001c0 -54 -12.667 -95.833 -38 -125.5s-63 -52.834 -113 -69.501c114.667 -23.333 172 -92.333 172 -207
c0 -80.667 -26 -143.834 -78 -189.501s-119.667 -68.5 -203 -68.5c-68 0 -138.333 18.667 -211 56l45 94c58 -35.333 115.333 -53 172 -53c48.667 0 87.5 14 116.5 42s43.5 70 43.5 126c0 42.667 -15.333 76.834 -46 102.501s-73.334 38.5 -128.001 38.5h-65v96
c79.333 0.666992 136 12.834 170 36.501s51 57.834 51 102.501c0 32.667 -10.667 58.667 -32 78s-49.666 29 -84.999 29c-48 0 -104 -26.667 -168 -80zM1346 1462l-859 -1616h-114l858 1616h115zM1284 819l408.004 -0.00195312v-94h-314c-10 -138 -20.667 -226.667 -32 -266
c33.333 44.667 83 67 149 67c68 0 124.333 -24.333 169 -73s67 -108.334 67 -179.001c0 -47.333 -8 -89.666 -24 -126.999s-37.667 -67.166 -65 -89.499s-57.333 -39.166 -90 -50.499s-67.334 -17 -104.001 -17c-80.667 0 -156.334 18.333 -227.001 55l47 94
c57.333 -35.333 116.666 -53 177.999 -53c51.333 0 93.166 14.833 125.499 44.5s48.5 75.5 48.5 137.5c0 48.667 -14 89.167 -42 121.5s-64 48.5 -108 48.5c-47.333 0 -92.333 -24.333 -135 -73l-88 36z" />
    <glyph glyph-name="uni2158" unicode="&#x2158;" horiz-adv-x="1855" 
d="M653 778h-121v-196h-108v196h-373v74l344 549h137v-527h121v-96zM428 1288h-4.00098c-7.33301 -20 -27 -55.333 -59 -106l-138 -217c-23.333 -38 -45.666 -69 -66.999 -93l2 -4c14.667 4 102 6 262 6v263c0 86 1.33301 136.333 4 151zM1399 1462l-858 -1616h-115
l858 1616h115zM1337 819l408.003 -0.000976562v-94h-313c-12 -142.667 -23 -231.334 -33 -266.001c34 44.667 83.667 67 149 67c68 0 124.333 -24.333 169 -73s67 -108.334 67 -179.001c0 -47.333 -8 -89.666 -24 -126.999s-37.667 -67.166 -65 -89.499
s-57.333 -39.166 -90 -50.499s-67.334 -17 -104.001 -17c-80 0 -155.667 18.333 -227 55l47 94c57.333 -35.333 116.666 -53 177.999 -53c51.333 0 93.166 14.833 125.499 44.5s48.5 75.5 48.5 137.5c0 48.667 -14 89.167 -42 121.5s-63.667 48.5 -107 48.5
c-47.333 0 -92.333 -24.333 -135 -73l-89 36z" />
    <glyph glyph-name="uni2159" unicode="&#x2159;" horiz-adv-x="1730" 
d="M61 1341l213 60h74v-725h135v-94h-417v94h174v618l-179 -49v96zM1280 1462l-858 -1616h-115l858 1616h115zM1614 799l-35.0029 -80c-35.333 14.667 -66.666 22 -93.999 22c-71.333 0 -126.166 -22 -164.499 -66s-61.5 -120.333 -69.5 -229
c20.667 31.333 44.834 54 72.501 68s65.834 21 114.501 21c62 0 114.333 -23.5 157 -70.5s64 -111.833 64 -194.5c0 -86 -24.333 -154.167 -73 -204.5s-108.334 -75.5 -179.001 -75.5c-80.667 0 -144.167 30.333 -190.5 91s-69.5 156 -69.5 286c0 308 113.333 462 340 462
c50 0 92.333 -10 127 -30zM1411 444c-44.667 0 -80.668 -14.499 -108.001 -43.499s-41 -69.5 -41 -121.5c0 -65.333 12.5 -114.5 37.5 -147.5s60.833 -49.5 107.5 -49.5c42 0 75.667 16.167 101 48.5s38 78.166 38 137.499c0 56.667 -11.667 100.167 -35 130.5
s-56.666 45.5 -99.999 45.5z" />
    <glyph glyph-name="uni215A" unicode="&#x215a;" horiz-adv-x="1839" 
d="M143 1401l408.002 -0.000976562v-94h-313c-12 -144 -23 -233 -33 -267c34.667 45.333 84.334 68 149.001 68c68 0 124.333 -24.333 169 -73s67 -108.334 67 -179.001c0 -48 -8 -90.667 -24 -128s-37.5 -67.166 -64.5 -89.499s-57 -39.166 -90 -50.499
s-67.833 -17 -104.5 -17c-78.667 0 -154.334 18.667 -227.001 56l47 94c57.333 -35.333 116.666 -53 177.999 -53c51.333 0 93.166 14.833 125.499 44.5s48.5 75.5 48.5 137.5c0 48.667 -14 89.167 -42 121.5s-63.667 48.5 -107 48.5c-46.667 0 -91.667 -24.667 -135 -74
l-89 37zM1389 1462l-859 -1616h-114l858 1616h115zM1722 798.999l-34 -80c-35.333 14.667 -67 22 -95 22c-71.333 0 -126 -22.167 -164 -66.5s-61 -120.5 -69 -228.5c20.667 31.333 44.834 54 72.501 68s65.5 21 113.5 21c62.667 0 115.167 -23.5 157.5 -70.5
s63.5 -111.833 63.5 -194.5c0 -86 -24.167 -154.167 -72.5 -204.5s-107.833 -75.5 -178.5 -75.5c-80.667 0 -144.334 30.333 -191.001 91s-70 156 -70 286c0 308 113.333 462 340 462c50.667 0 93 -10 127 -30zM1520 443.999c-45.333 0 -81.668 -14.499 -109.001 -43.499
s-41 -69.5 -41 -121.5c0 -65.333 12.5 -114.5 37.5 -147.5s61.167 -49.5 108.5 -49.5c41.333 0 74.833 16.167 100.5 48.5s38.5 78.166 38.5 137.499c0 56.667 -11.667 100.167 -35 130.5s-56.666 45.5 -99.999 45.5z" />
    <glyph glyph-name="oneeighth" unicode="&#x215b;" horiz-adv-x="1746" 
d="M61 1341l213 60h74v-725h135v-94h-417v94h174v618l-179 -49v96zM1280 1462l-858 -1616h-115l858 1616h115zM1415 829c68 0 122.167 -18.999 162.5 -56.999s60.5 -88.333 60.5 -151c0 -84.667 -38 -145 -114 -181c45.333 -12.667 81.833 -39 109.5 -79
s41.5 -84.667 41.5 -134c0 -76 -23.333 -134.5 -70 -175.5s-114 -61.5 -202 -61.5c-80.667 0 -143.5 20.667 -188.5 62s-67.5 99.666 -67.5 174.999c0 49.333 13.667 94 41 134s64 66.333 110 79c-36.667 17.333 -64.834 41.833 -84.501 73.5s-29.5 67.5 -29.5 107.5
c0 63.333 20.333 113.833 61 151.5s97.334 56.5 170.001 56.5zM1411 395.001c-42 0 -77.332 -15.5 -105.999 -46.5s-43 -69.5 -43 -115.5c0 -43.333 14 -79.666 42 -108.999s63.667 -44 107 -44s79.166 14.667 107.499 44s42.5 65.666 42.5 108.999
c0 46 -14.5 84.5 -43.5 115.5s-64.5 46.5 -106.5 46.5zM1411 745.001c-33.333 0 -61.167 -12.333 -83.5 -37s-33.5 -54.667 -33.5 -90c0 -38 11.667 -71.333 35 -100s50.666 -43 81.999 -43c32 0 59.5 14.333 82.5 43s34.5 62 34.5 100c0 35.333 -11.167 65.333 -33.5 90
s-50.166 37 -83.499 37z" />
    <glyph glyph-name="threeeighths" unicode="&#x215c;" horiz-adv-x="1812" 
d="M66 1313c36.667 32.667 73.833 57.167 111.5 73.5s82.167 24.5 133.5 24.5c62.667 0 114.167 -17.333 154.5 -52s60.5 -77.334 60.5 -128.001c0 -54 -12.667 -95.833 -38 -125.5s-63 -52.834 -113 -69.501c114.667 -23.333 172 -92.333 172 -207
c0 -80.667 -26 -143.834 -78 -189.501s-119.667 -68.5 -203 -68.5c-68 0 -138.333 18.667 -211 56l45 94c58 -35.333 115.333 -53 172 -53c48.667 0 87.5 14 116.5 42s43.5 70 43.5 126c0 42.667 -15.333 76.834 -46 102.501s-73.334 38.5 -128.001 38.5h-65v96
c79.333 0.666992 136 12.834 170 36.501s51 57.834 51 102.501c0 32.667 -10.667 58.667 -32 78s-49.666 29 -84.999 29c-48 0 -104 -26.667 -168 -80zM1346 1462l-859 -1616h-114l858 1616h115zM1481 829c68 0 122.167 -18.999 162.5 -56.999s60.5 -88.333 60.5 -151
c0 -84 -38.333 -144.333 -115 -181c45.333 -12.667 82 -39 110 -79s42 -84.667 42 -134c0 -76 -23.5 -134.5 -70.5 -175.5s-114.5 -61.5 -202.5 -61.5c-80 0 -142.667 20.667 -188 62s-68 99.666 -68 174.999c0 49.333 13.833 94 41.5 134s64.5 66.333 110.5 79
c-36.667 17.333 -65 41.833 -85 73.5s-30 67.5 -30 107.5c0 63.333 20.5 113.833 61.5 151.5s97.833 56.5 170.5 56.5zM1477 395.001c-42 0 -77.499 -15.5 -106.499 -46.5s-43.5 -69.5 -43.5 -115.5c0 -43.333 14.167 -79.666 42.5 -108.999s64.166 -44 107.499 -44
s79 14.667 107 44s42 65.666 42 108.999c0 46 -14.333 84.5 -43 115.5s-64 46.5 -106 46.5zM1477 745.001c-33.333 0 -61.167 -12.333 -83.5 -37s-33.5 -54.667 -33.5 -90c0 -38 11.5 -71.333 34.5 -100s50.5 -43 82.5 -43c31.333 0 58.5 14.333 81.5 43s34.5 62 34.5 100
c0 35.333 -11 65.333 -33 90s-49.667 37 -83 37z" />
    <glyph glyph-name="fiveeighths" unicode="&#x215d;" horiz-adv-x="1855" 
d="M143 1401l408.002 -0.000976562v-94h-313c-12 -144 -23 -233 -33 -267c34.667 45.333 84.334 68 149.001 68c68 0 124.333 -24.333 169 -73s67 -108.334 67 -179.001c0 -48 -8 -90.667 -24 -128s-37.5 -67.166 -64.5 -89.499s-57 -39.166 -90 -50.499
s-67.833 -17 -104.5 -17c-78.667 0 -154.334 18.667 -227.001 56l47 94c57.333 -35.333 116.666 -53 177.999 -53c51.333 0 93.166 14.833 125.499 44.5s48.5 75.5 48.5 137.5c0 48.667 -14 89.167 -42 121.5s-63.667 48.5 -107 48.5c-46.667 0 -91.667 -24.667 -135 -74
l-89 37zM1389 1462l-859 -1616h-114l858 1616h115zM1524 828.999c68 0 122.167 -18.999 162.5 -56.999s60.5 -88.333 60.5 -151c0 -84 -38.333 -144.333 -115 -181c45.333 -12.667 82 -39 110 -79s42 -84.667 42 -134c0 -76 -23.5 -134.5 -70.5 -175.5
s-114.5 -61.5 -202.5 -61.5c-80 0 -142.667 20.667 -188 62s-68 99.666 -68 174.999c0 49.333 13.833 94 41.5 134s64.5 66.333 110.5 79c-36.667 17.333 -65 41.833 -85 73.5s-30 67.5 -30 107.5c0 63.333 20.5 113.833 61.5 151.5s97.833 56.5 170.5 56.5zM1520 395
c-42 0 -77.499 -15.5 -106.499 -46.5s-43.5 -69.5 -43.5 -115.5c0 -43.333 14.167 -79.666 42.5 -108.999s64.166 -44 107.499 -44s79 14.667 107 44s42 65.666 42 108.999c0 46 -14.333 84.5 -43 115.5s-64 46.5 -106 46.5zM1520 745c-33.333 0 -61.167 -12.333 -83.5 -37
s-33.5 -54.667 -33.5 -90c0 -38 11.5 -71.333 34.5 -100s50.5 -43 82.5 -43c31.333 0 58.5 14.333 81.5 43s34.5 62 34.5 100c0 35.333 -11 65.333 -33 90s-49.667 37 -83 37z" />
    <glyph glyph-name="seveneighths" unicode="&#x215e;" horiz-adv-x="1624" 
d="M43 1401h463v-66l-281 -753h-123l285 723h-344v96zM1157 1462l-858 -1616h-115l858 1616h115zM1292 829c68.667 0 123.166 -19 163.499 -57s60.5 -88.333 60.5 -151c0 -84 -38.333 -144.333 -115 -181c45.333 -12.667 81.833 -39 109.5 -79s41.5 -84.667 41.5 -134
c0 -76 -23.333 -134.5 -70 -175.5s-114 -61.5 -202 -61.5c-80.667 0 -143.5 20.667 -188.5 62s-67.5 99.666 -67.5 174.999c0 50 13.667 94.833 41 134.5s64.333 65.834 111 78.501c-36.667 17.333 -65 41.833 -85 73.5s-30 67.5 -30 107.5
c0 63.333 20.333 113.833 61 151.5s97.334 56.5 170.001 56.5zM1288 395c-42 0 -77.332 -15.5 -105.999 -46.5s-43 -69.5 -43 -115.5c0 -43.333 14 -79.666 42 -108.999s63.667 -44 107 -44s79.166 14.667 107.499 44s42.5 65.666 42.5 108.999c0 46 -14.5 84.5 -43.5 115.5
s-64.5 46.5 -106.5 46.5zM1288 745c-33.333 0 -61.167 -12.333 -83.5 -37s-33.5 -54.667 -33.5 -90c0 -38 11.667 -71.333 35 -100s50.666 -43 81.999 -43c32 0 59.5 14.333 82.5 43s34.5 62 34.5 100c0 35.333 -11.167 65.333 -33.5 90s-50.166 37 -83.499 37z" />
    <glyph glyph-name="uni215F" unicode="&#x215f;" horiz-adv-x="1075" 
d="M61 1341l213 60h74v-725h135v-94h-417v94h174v618l-179 -49v96zM1280 1462l-858 -1616h-115l858 1616h115z" />
    <glyph glyph-name="uni2189" unicode="&#x2189;" horiz-adv-x="1818" 
d="M72 991c0 280 90.001 419.997 270.001 419.997c93.333 0 160.666 -33.667 201.999 -101s62 -173.666 62 -318.999c0 -141.333 -21.833 -246.666 -65.5 -315.999s-111.167 -104 -202.5 -104c-93.333 0 -161 33.833 -203 101.5s-63 173.834 -63 318.501zM494.001 994.997
c0 218.667 -52 328.002 -156 328.002c-102.667 0 -154 -109.333 -154 -328c0 -66.667 5 -123.834 15 -171.501s26.667 -85.834 50 -114.501s53 -43 89 -43c104 0 156 109.667 156 329zM1405 1462l-858 -1616h-115l858 1616h115zM1266 730.999
c36.667 32.667 73.665 57.1641 110.998 73.4971s82 24.5 134 24.5c62.667 0 114.167 -17.167 154.5 -51.5s60.5 -77.166 60.5 -128.499c0 -54 -12.667 -95.833 -38 -125.5s-63 -52.5 -113 -68.5c114.667 -24 172 -93 172 -207c0 -80.667 -26 -143.834 -78 -189.501
s-119.667 -68.5 -203 -68.5c-69.333 0 -139.666 18.333 -210.999 55l45 94c58 -35.333 115.667 -53 173 -53c48.667 0 87.334 14 116.001 42s43 70 43 126c0 42.667 -15.333 76.834 -46 102.501s-73.334 38.5 -128.001 38.5h-65v97c79.333 0.666992 136 12.834 170 36.501
s51 57.834 51 102.501c0 32 -10.667 57.667 -32 77s-49.666 29 -84.999 29c-48.667 0 -104.667 -26.667 -168 -80z" />
    <glyph glyph-name="arrowleft" unicode="&#x2190;" horiz-adv-x="2048" 
d="M2050 543h-1604c-134.667 0 -219 2 -253 6l-3 -2c32.667 -24.667 99.667 -87 201 -187l533 -518l-86 -86l-838 838l838 838l82 -82l-535 -523c-96 -94 -163 -156 -201 -186l2 -2c34.667 4 119.334 6 254.001 6h1610v-102z" />
    <glyph glyph-name="arrowright" unicode="&#x2192;" horiz-adv-x="2048" 
d="M2048 594l-837.999 -837.999l-82 82l535 522c99.333 97.333 166.333 159.666 201 186.999l-2 2c-34.667 -4 -119.334 -6 -254.001 -6h-1610v102h1604c134.667 0 219 -2 253 -6l3 2c-35.333 26.667 -102.333 88.667 -201 186l-533 519l86 86z" />
    <glyph glyph-name="partialdiff" unicode="&#x2202;" horiz-adv-x="1060" 
d="M969 795c0 -50 -1.49902 -98.501 -4.49902 -145.501s-9.16699 -98.333 -18.5 -154s-21.5 -107 -36.5 -154s-35.167 -93 -60.5 -138s-54.833 -83.333 -88.5 -115s-74.834 -57 -123.501 -76s-102.667 -28.5 -162 -28.5c-125.333 0 -220.5 36.333 -285.5 109
s-97.5 181 -97.5 325c0 149.333 40.833 267.5 122.5 354.5s191.834 130.5 330.501 130.5c60.667 0 118.167 -11.833 172.5 -35.5s101.166 -58.167 140.499 -103.5l2 2v25c0 177.333 -41.833 317.333 -125.5 420s-199.5 159 -347.5 169l12 90c184 -12 325 -77.167 423 -195.5
s147 -278.166 147 -479.499zM854.001 611.999c-34 62 -77.501 109.334 -130.501 142.001s-112.5 49 -178.5 49c-113.333 0 -197.666 -34.333 -252.999 -103s-83 -163.334 -83 -284.001c0 -102 23.167 -182.5 69.5 -241.5s111.833 -88.5 196.5 -88.5
c110.667 0 197.5 46 260.5 138s102.5 221.333 118.5 388z" />
    <glyph glyph-name="Delta" unicode="&#x2206;" horiz-adv-x="960" 
d="M940 0h-920l396 1401h135zM774 109l-231 884l-39 151c-6 24 -11.5 51.5 -16.5 82.5s-7.83301 61.167 -8.5 90.5h-2c-2 -42 -6.83301 -81.5 -14.5 -118.5s-24.5 -105.5 -50.5 -205.5l-232 -884h594z" />
    <glyph glyph-name="product" unicode="&#x220f;" horiz-adv-x="1349" 
d="M1268 1356h-185v-1772h-118v1772h-580v-1772h-119v1772h-184v106h1186v-106z" />
    <glyph glyph-name="summation" unicode="&#x2211;" horiz-adv-x="1058" 
d="M977 -416h-895v97l602 862l-588 825v94h858v-108h-467c-129.333 0 -206.333 1.33301 -231 4l-2 -2l573 -805l-602 -858l2 -2c24.667 2.66699 102 4 232 4h518v-111z" />
    <glyph glyph-name="minus" unicode="&#x2212;" horiz-adv-x="1064" 
d="M922 502h-779v102h779v-102z" />
    <glyph glyph-name="uni2219" unicode="&#x2219;" horiz-adv-x="1277" 
d="M823 608c0 -51.333 -18 -95.166 -54 -131.499s-79.333 -54.5 -130 -54.5s-94 18.167 -130 54.5s-54 80.166 -54 131.499s18 95.333 54 132s79.333 55 130 55s94 -18.333 130 -55s54 -80.667 54 -132z" />
    <glyph glyph-name="radical" unicode="&#x221a;" horiz-adv-x="1011" 
d="M1053 1462l-467.001 -1462h-111l-299 926h-176v96h268l142 -453l29 -92.5l24 -79l19 -63l16.5 -53c3.66699 -11.667 7.66699 -25.167 12 -40.5s7.5 -27 9.5 -35s4 -16.833 6 -26.5s3.33301 -17.834 4 -24.501l2 -20h3c0.666992 8.66699 1.83398 17.334 3.50098 26.001
s4.16699 19.834 7.5 33.501s6.83301 26.667 10.5 39l16.5 56l21 69l29 94l36 116.5l275 893h119z" />
    <glyph glyph-name="infinity" unicode="&#x221e;" horiz-adv-x="1912" 
d="M1759 584c0 -87.333 -31.332 -162.167 -93.999 -224.5s-142.667 -93.5 -240 -93.5c-38.667 0 -77.834 6.33301 -117.501 19s-81 32.334 -124 59.001s-80.5 51.834 -112.5 75.501l-119 92.5c-46 -38 -85 -68.833 -117 -92.5s-69.333 -48.667 -112 -75
s-83.834 -46 -123.501 -59s-78.5 -19.5 -116.5 -19.5c-102.667 0 -183.167 29.167 -241.5 87.5s-87.5 130.166 -87.5 215.499c0 87.333 31.333 162.166 94 224.499s142.334 93.5 239.001 93.5c38.667 0 78 -6.33301 118 -19s81.667 -32.334 125 -59.001
s80.833 -51.667 112.5 -75l120.5 -93c94 78 177.833 138.5 251.5 181.5s145.5 64.5 215.5 64.5c102.667 0 183.167 -29.167 241.5 -87.5s87.5 -130.166 87.5 -215.499zM1651 572.999c0 64 -21.165 116.333 -63.498 157s-98.5 61 -168.5 61c-51.333 0 -107 -18 -167 -54
s-132.667 -88.333 -218 -157c81.333 -69.333 153.666 -123 216.999 -161s123.666 -57 180.999 -57c64 0 116.5 20.667 157.5 62s61.5 91 61.5 149zM879.003 570.999c-86.667 72 -160.333 126.667 -221 164s-119.667 56 -177 56c-64 0 -116.5 -20.667 -157.5 -62
s-61.5 -91 -61.5 -149c0 -64 21.167 -116.333 63.5 -157s98.5 -61 168.5 -61c52 0 107.667 17.667 167 53s132 87.333 218 156z" />
    <glyph glyph-name="integral" unicode="&#x222b;" horiz-adv-x="540" 
d="M541 1360c-29.333 9.33301 -57.333 13.999 -84 13.999c-54.667 0 -93.667 -15.833 -117 -47.5s-35 -83.5 -35 -155.5c0 -130 7.16699 -333.833 21.5 -611.5s21.5 -503.167 21.5 -676.5c0 -210 -82 -315 -246 -315c-34.667 0 -68.667 4 -102 12v101c28 -10 56 -15 84 -15
c54.667 0 93.667 16 117 48s35 83.667 35 155c0 131.333 -7.16699 335.833 -21.5 613.5s-21.5 501.834 -21.5 672.501c0 210 81.667 315 245 315c36 0 70.333 -4 103 -12v-98z" />
    <glyph glyph-name="approxequal" unicode="&#x2248;" horiz-adv-x="1267" 
d="M1042 670c-90 -56 -165 -84 -225 -84c-40.667 0 -80.667 7 -120 21l-122 42c-42 14 -86.333 21 -133 21c-61.333 0 -133.666 -28 -216.999 -84v121c85.333 57.333 157.666 86 216.999 86c46.667 0 91 -7 133 -21l122 -42c39.333 -14 79.333 -21 120 -21
c62 0 137 27.333 225 82v-121zM1042 381c-91.333 -56 -166.333 -84 -225 -84c-40.667 0 -80.667 7 -120 21l-122 42c-42 14 -86.333 21 -133 21c-61.333 0 -133.666 -28 -216.999 -84v121c85.333 57.333 157.666 86 216.999 86c46.667 0 91 -7 133 -21l122 -42
c39.333 -14 79.333 -21 120 -21c62 0 137 27.333 225 82v-121z" />
    <glyph glyph-name="notequal" unicode="&#x2260;" horiz-adv-x="1359" 
d="M1135 326h-519l-182 -326h-108l182 326h-283v102h340l121 213h-461v100h516l158 281h109l-158 -281h285v-100h-340l-121 -213h461v-102z" />
    <glyph glyph-name="lessequal" unicode="&#x2264;" horiz-adv-x="839" 
d="M721 297l-74 -90l-534 422l532 424l72 -86l-430 -332zM737 0h-635v102h635v-102z" />
    <glyph glyph-name="greaterequal" unicode="&#x2265;" horiz-adv-x="839" 
d="M723 629l-533 -424l-71 86l430 332l-434 338l73 90zM737 0h-635v102h635v-102z" />
    <glyph glyph-name="dotmath" unicode="&#x22c5;" horiz-adv-x="1277" 
d="M770 592c0 -36.667 -12.833 -67.667 -38.5 -93s-56.5 -38 -92.5 -38c-36.667 0 -67.667 12.5 -93 37.5s-38 56.167 -38 93.5c0 36 12.667 66.833 38 92.5s56.333 38.5 93 38.5c36 0 66.833 -12.833 92.5 -38.5s38.5 -56.5 38.5 -92.5z" />
    <glyph glyph-name="filledbox" unicode="&#x25a0;" horiz-adv-x="1759" 
d="M1575 0h-1391v1401h1391v-1401z" />
    <glyph glyph-name="H22073" unicode="&#x25a1;" horiz-adv-x="1759" 
d="M1575 0h-1391v1401h1391v-1401zM1456 115v1171h-1153v-1171h1153z" />
    <glyph glyph-name="uni25B8" unicode="&#x25b8;" horiz-adv-x="831" 
d="M709 582l-525 -258v516z" />
    <glyph glyph-name="uni25C2" unicode="&#x25c2;" horiz-adv-x="831" 
d="M647 324l-524 258l524 258v-516z" />
    <glyph glyph-name="lozenge" unicode="&#x25ca;" horiz-adv-x="1110" 
d="M1028 698l-403 -698h-138l-405 702l403 699h138zM891 694l-340 594l-332 -581l340 -594z" />
    <glyph glyph-name="circle" unicode="&#x25cb;" horiz-adv-x="1759" 
d="M881 1401c126.667 0 243.334 -31.333 350.001 -94s190.667 -147.667 252 -255s92 -224.666 92 -351.999c0 -95.333 -18.167 -186.166 -54.5 -272.499s-85.333 -160.666 -147 -222.999s-135.334 -112 -221.001 -149s-176.167 -55.5 -271.5 -55.5s-186 18.5 -272 55.5
s-160 86.667 -222 149s-111.333 136.666 -148 222.999s-55 177.166 -55 272.499c0 127.333 31 244.666 93 351.999s146.5 192.333 253.5 255s223.833 94 350.5 94zM879 1286c-105.333 0 -202.333 -26.333 -291 -79s-158.334 -123.834 -209.001 -213.501
s-76 -187.5 -76 -293.5c0 -105.333 25.333 -202.833 76 -292.5s120.334 -160.834 209.001 -213.501s185.667 -79 291 -79s202.333 26.333 291 79s158.5 123.834 209.5 213.501s76.5 187.167 76.5 292.5c0 106 -25.5 203.833 -76.5 293.5s-120.833 160.834 -209.5 213.501
s-185.667 79 -291 79z" />
    <glyph glyph-name="H18533" unicode="&#x25cf;" horiz-adv-x="1759" 
d="M881 1401c126.667 0 243.334 -31.333 350.001 -94s190.667 -147.667 252 -255s92 -224.666 92 -351.999c0 -95.333 -18.167 -186.166 -54.5 -272.499s-85.333 -160.666 -147 -222.999s-135.334 -112 -221.001 -149s-176.167 -55.5 -271.5 -55.5s-186 18.5 -272 55.5
s-160 86.667 -222 149s-111.333 136.666 -148 222.999s-55 177.166 -55 272.499c0 127.333 31 244.666 93 351.999s146.5 192.333 253.5 255s223.833 94 350.5 94z" />
    <glyph glyph-name="uniFB00" unicode="&#xfb00;" horiz-adv-x="1228" 
d="M825 1303c-73.333 34 -148.333 51 -225 51c-90.667 0 -157.667 -20.5 -201 -61.5s-65 -107.167 -65 -198.5v-72h459v96c0 70 10.667 131.667 32 185zM1341 1423v-110c-80 40.667 -153.667 61 -221 61c-143.333 0 -215 -86.667 -215 -260v-92h332v-96h-332v-926h-112v926
h-459v-926h-113v926h-217v96h217v76c0 121.333 31.167 210.333 93.5 267s154.833 85 277.5 85c100.667 0 199 -19 295 -57c56 51.333 134.333 77 235 77c68 0 141 -15.667 219 -47z" />
    <glyph glyph-name="fi" unicode="&#xfb01;" horiz-adv-x="1058" 
d="M905 0h-112v926h-459v-926h-113v926h-217v96h217v96c0 121.333 31.167 210.333 93.5 267s154.833 85 277.5 85c72.667 0 158 -14.333 256 -43v-110c-98 38 -180.667 57 -248 57c-90.667 0 -157.667 -20.5 -201 -61.5s-65 -107.167 -65 -198.5v-92h571v-1022z" />
    <glyph glyph-name="fl" unicode="&#xfb02;" horiz-adv-x="1064" 
d="M905 0h-111.999v1337c-66 24.667 -130.333 37 -193 37c-90.667 0 -157.667 -20.5 -201 -61.5s-65 -107.167 -65 -198.5v-92h235v-96h-235v-926h-113v926h-217v96h217v96c0 121.333 31.167 210.333 93.5 267s154.833 85 277.5 85c85.333 0 189.666 -16.333 312.999 -49
v-1421z" />
    <glyph glyph-name="uniFB03" unicode="&#xfb03;" horiz-adv-x="1630" 
d="M1477 0h-113v926h-459v-926h-112v926h-459v-926h-113v926h-217v96h217v76c0 121.333 31.167 210.333 93.5 267s154.833 85 277.5 85c103.333 0 203 -19.667 299 -59c58 52.667 148.667 79 272 79c72.667 0 158 -14.333 256 -43v-110c-98 38 -180.667 57 -248 57
c-90.667 0 -157.667 -20.5 -201 -61.5s-65 -107.167 -65 -198.5v-92h572v-1022zM825 1303c-73.333 34 -148.333 51 -225 51c-90.667 0 -157.667 -20.5 -201 -61.5s-65 -107.167 -65 -198.5v-72h459v96c0 70 10.667 131.667 32 185z" />
    <glyph glyph-name="uniFB04" unicode="&#xfb04;" horiz-adv-x="1636" 
d="M1477 0h-113v1337c-66 24.667 -130.333 37 -193 37c-90.667 0 -157.667 -20.5 -201 -61.5s-65 -107.167 -65 -198.5v-92h236v-96h-236v-926h-112v926h-459v-926h-113v926h-217v96h217v76c0 121.333 31.167 210.333 93.5 267s154.833 85 277.5 85
c103.333 0 203 -19.667 299 -59c58 52.667 148.667 79 272 79c86 0 190.667 -16.333 314 -49v-1421zM825 1303c-73.333 34 -148.333 51 -225 51c-90.667 0 -157.667 -20.5 -201 -61.5s-65 -107.167 -65 -198.5v-72h459v96c0 70 10.667 131.667 32 185z" />
    <glyph glyph-name="uniFEFF" unicode="&#xfeff;" horiz-adv-x="0" 
 />
    <glyph glyph-name="nonmarkingreturn" horiz-adv-x="682" 
 />
    <glyph glyph-name="uni030C.alt001" horiz-adv-x="63" 
d="M113 1462l-50 -360h-79v360h129z" />
    <glyph glyph-name="zero.numr" horiz-adv-x="677" 
d="M72 991c0 280 90.001 419.997 270.001 419.997c93.333 0 160.666 -33.667 201.999 -101s62 -173.666 62 -318.999c0 -141.333 -21.833 -246.666 -65.5 -315.999s-111.167 -104 -202.5 -104c-93.333 0 -161 33.833 -203 101.5s-63 173.834 -63 318.501zM494.001 994.997
c0 218.667 -52 328.002 -156 328.002c-102.667 0 -154 -109.333 -154 -328c0 -66.667 5 -123.834 15 -171.501s26.667 -85.834 50 -114.501s53 -43 89 -43c104 0 156 109.667 156 329z" />
    <glyph glyph-name="one.numr" horiz-adv-x="552" 
d="M61 1341l213 60h74v-725h135v-94h-417v94h174v618l-179 -49v96z" />
    <glyph glyph-name="two.numr" horiz-adv-x="659" 
d="M88 1300c36 36 74.0039 63.502 114.004 82.502s87.333 28.5 142 28.5c69.333 0 126 -19.5 170 -58.5s66 -89.833 66 -152.5c0 -37.333 -7.33301 -71.333 -22 -102s-33.834 -56.834 -57.501 -78.501s-49.667 -42.334 -78 -62.001l-85 -57.5
c-28.333 -18.667 -54.333 -38.167 -78 -58.5s-42.834 -44.333 -57.501 -72s-22 -58.167 -22 -91.5h412v-96h-522v63c0 49.333 7.16699 93.5 21.5 132.5s33.166 71 56.499 96s48.833 47.833 76.5 68.5s55.5 39.5 83.5 56.5s53.667 34.333 77 52s42.166 38.667 56.499 63
s21.5 51.833 21.5 82.5c0 36.667 -10.833 65.667 -32.5 87s-51.834 32 -90.501 32c-59.333 0 -120.666 -29.333 -183.999 -88z" />
    <glyph glyph-name="three.numr" horiz-adv-x="618" 
d="M66 1313c36.667 32.667 73.833 57.167 111.5 73.5s82.167 24.5 133.5 24.5c62.667 0 114.167 -17.333 154.5 -52s60.5 -77.334 60.5 -128.001c0 -54 -12.667 -95.833 -38 -125.5s-63 -52.834 -113 -69.501c114.667 -23.333 172 -92.333 172 -207
c0 -80.667 -26 -143.834 -78 -189.501s-119.667 -68.5 -203 -68.5c-68 0 -138.333 18.667 -211 56l45 94c58 -35.333 115.333 -53 172 -53c48.667 0 87.5 14 116.5 42s43.5 70 43.5 126c0 42.667 -15.333 76.834 -46 102.501s-73.334 38.5 -128.001 38.5h-65v96
c79.333 0.666992 136 12.834 170 36.501s51 57.834 51 102.501c0 32.667 -10.667 58.667 -32 78s-49.666 29 -84.999 29c-48 0 -104 -26.667 -168 -80z" />
    <glyph glyph-name="four.numr" horiz-adv-x="671" 
d="M653 778h-121v-196h-108v196h-373v74l344 549h137v-527h121v-96zM428 1288h-4.00098c-7.33301 -20 -27 -55.333 -59 -106l-138 -217c-23.333 -38 -45.666 -69 -66.999 -93l2 -4c14.667 4 102 6 262 6v263c0 86 1.33301 136.333 4 151z" />
    <glyph glyph-name="five.numr" horiz-adv-x="661" 
d="M143 1401l408.002 -0.000976562v-94h-313c-12 -144 -23 -233 -33 -267c34.667 45.333 84.334 68 149.001 68c68 0 124.333 -24.333 169 -73s67 -108.334 67 -179.001c0 -48 -8 -90.667 -24 -128s-37.5 -67.166 -64.5 -89.499s-57 -39.166 -90 -50.499
s-67.833 -17 -104.5 -17c-78.667 0 -154.334 18.667 -227.001 56l47 94c57.333 -35.333 116.666 -53 177.999 -53c51.333 0 93.166 14.833 125.499 44.5s48.5 75.5 48.5 137.5c0 48.667 -14 89.167 -42 121.5s-63.667 48.5 -107 48.5c-46.667 0 -91.667 -24.667 -135 -74
l-89 37z" />
    <glyph glyph-name="six.numr" horiz-adv-x="655" 
d="M539 1380l-35.002 -79.999c-34 15.333 -65.333 23 -94 23c-71.333 0 -126.166 -22.167 -164.499 -66.5s-61.5 -120.5 -69.5 -228.5c20.667 30.667 44.834 53 72.501 67s65.5 21 113.5 21c62.667 0 115.334 -23.333 158.001 -70s64 -111.334 64 -194.001
c0 -86 -24.333 -154.333 -73 -205s-108.334 -76 -179.001 -76c-80.667 0 -144.167 30.333 -190.5 91s-69.5 156 -69.5 286c0 308.667 113.333 463 340 463c50 0 92.333 -10.333 127 -31zM335.998 1026c-45.333 0 -81.668 -14.499 -109.001 -43.499s-41 -69.833 -41 -122.5
c0 -64.667 12.667 -113.5 38 -146.5s61.333 -49.5 108 -49.5c42 0 75.667 16.167 101 48.5s38 78.166 38 137.499c0 56.667 -11.667 100.167 -35 130.5s-56.666 45.5 -99.999 45.5z" />
    <glyph glyph-name="seven.numr" horiz-adv-x="532" 
d="M43 1401h463v-66l-281 -753h-123l285 723h-344v96z" />
    <glyph glyph-name="eight.numr" horiz-adv-x="671" 
d="M340 1411c68 0 122.167 -19.166 162.5 -57.499s60.5 -88.833 60.5 -151.5c0 -83.333 -38 -143.333 -114 -180c45.333 -13.333 81.833 -40 109.5 -80s41.5 -84.333 41.5 -133c0 -76 -23.333 -134.667 -70 -176s-114 -62 -202 -62c-80.667 0 -143.5 20.833 -188.5 62.5
s-67.5 100.167 -67.5 175.5c0 49.333 13.667 93.833 41 133.5s64 66.167 110 79.5c-36.667 17.333 -64.834 41.666 -84.501 72.999s-29.5 67 -29.5 107c0 63.333 20.333 114 61 152s97.334 57 170.001 57zM336 977.001c-42 0 -77.499 -15.5 -106.499 -46.5
s-43.5 -69.5 -43.5 -115.5c0 -43.333 14.167 -79.666 42.5 -108.999s64.166 -44 107.499 -44s79 14.667 107 44s42 65.666 42 108.999c0 46 -14.333 84.5 -43 115.5s-64 46.5 -106 46.5zM336.001 1327c-33.333 0 -61.167 -12.333 -83.5 -37s-33.5 -54.667 -33.5 -90
c0 -38 11.5 -71.333 34.5 -100s50.5 -43 82.5 -43c31.333 0 58.666 14.333 81.999 43s35 62 35 100c0 35.333 -11.167 65.333 -33.5 90s-50.166 37 -83.499 37z" />
    <glyph glyph-name="nine.numr" horiz-adv-x="655" 
d="M324 1411c80.667 0 144.167 -30.334 190.5 -91.001s69.5 -156 69.5 -286c0 -308.667 -113.333 -463 -340 -463c-48.667 0 -91 10.333 -127 31l35 80c36 -15.333 67.333 -23 94 -23c71.333 0 126 22.167 164 66.5s61 120.5 69 228.5
c-20.667 -30.667 -44.834 -53 -72.501 -67s-65.5 -21 -113.5 -21c-62.667 0 -115.167 23.333 -157.5 70s-63.5 111.334 -63.5 194.001c0 86.667 24.333 155.167 73 205.5s108.334 75.5 179.001 75.5zM324 1321c-42 0 -75.8311 -16.333 -101.498 -49
s-38.5 -78.334 -38.5 -137.001c0 -55.333 11.667 -98.166 35 -128.499s56.666 -45.5 99.999 -45.5c45.333 0 81.666 14.333 108.999 43s41 68.667 41 120c0 64.667 -12.5 113.667 -37.5 147s-60.833 50 -107.5 50z" />
    <glyph glyph-name="zero.dnom" horiz-adv-x="677" 
d="M72 410c0 279.333 90.001 418.998 270.001 418.998c93.333 0 160.666 -33.667 201.999 -101s62 -173.333 62 -318c0 -141.333 -21.833 -246.666 -65.5 -315.999s-111.167 -104 -202.5 -104c-93.333 0 -161 33.833 -203 101.5s-63 173.834 -63 318.501zM494.001 413.998
c0 218 -52 327 -156 327c-102.667 0 -154 -109 -154 -327c0 -66.667 5 -124 15 -172s26.667 -86.333 50 -115s53 -43 89 -43c104 0 156 110 156 330z" />
    <glyph glyph-name="one.dnom" horiz-adv-x="552" 
d="M61 760l213 59h74v-725h135v-94h-417v94h174v619l-179 -49v96z" />
    <glyph glyph-name="two.dnom" horiz-adv-x="659" 
d="M88 719c36.667 36 74.8359 63.335 114.503 82.002s86.834 28 141.501 28c69.333 0 126 -19.5 170 -58.5s66 -89.833 66 -152.5c0 -37.333 -7.33301 -71.333 -22 -102s-33.834 -56.834 -57.501 -78.501s-49.667 -42.334 -78 -62.001l-85 -57.5
c-28.333 -18.667 -54.333 -38.167 -78 -58.5s-42.834 -44.333 -57.501 -72s-22 -58.167 -22 -91.5h412v-96h-522v63c0 49.333 7.16699 93.5 21.5 132.5s33.166 71 56.499 96s48.833 47.833 76.5 68.5s55.5 39.5 83.5 56.5s53.667 34.333 77 52s42.166 38.667 56.499 63
s21.5 51.833 21.5 82.5c0 36.667 -10.833 65.667 -32.5 87s-51.834 32 -90.501 32c-59.333 0 -120.666 -29.333 -183.999 -88z" />
    <glyph glyph-name="three.dnom" horiz-adv-x="618" 
d="M66 731c36.667 32.667 73.666 57.1641 110.999 73.4971s82 24.5 134 24.5c62.667 0 114.167 -17.167 154.5 -51.5s60.5 -77.166 60.5 -128.499c0 -54 -12.667 -95.833 -38 -125.5s-63 -52.5 -113 -68.5c114.667 -24 172 -93 172 -207
c0 -80.667 -26 -143.834 -78 -189.501s-119.667 -68.5 -203 -68.5c-69.333 0 -139.666 18.333 -210.999 55l45 94c58 -35.333 115.333 -53 172 -53c48.667 0 87.5 14 116.5 42s43.5 70 43.5 126c0 42.667 -15.333 76.834 -46 102.501s-73.334 38.5 -128.001 38.5h-65v97
c79.333 0.666992 136 12.834 170 36.501s51 57.834 51 102.501c0 32 -10.667 57.667 -32 77s-49.666 29 -84.999 29c-49.333 0 -105.333 -26.667 -168 -80z" />
    <glyph glyph-name="four.dnom" horiz-adv-x="671" 
d="M653 197h-121v-197h-108v197h-373v73l344 549h137v-526h121v-96zM428 707l-4.00098 0.000976562c-7.33301 -20 -27 -55.667 -59 -107l-138 -217c-25.333 -40.667 -47.666 -71.334 -66.999 -92.001l2 -4c14.667 4 102 6 262 6v262c0 86 1.33301 136.667 4 152z" />
    <glyph glyph-name="five.dnom" horiz-adv-x="661" 
d="M143 819l408.002 0.00195312v-94h-313c-12 -142.667 -23 -231.334 -33 -266.001c34 44.667 83.667 67 149 67c68 0 124.333 -24.333 169 -73s67 -108.334 67 -179.001c0 -92.667 -27.667 -163.167 -83 -211.5s-122 -72.5 -200 -72.5c-80 0 -155.667 18.333 -227 55l47 94
c57.333 -35.333 116.666 -53 177.999 -53c51.333 0 93.166 14.833 125.499 44.5s48.5 75.5 48.5 137.5c0 48.667 -14 89.167 -42 121.5s-63.667 48.5 -107 48.5c-47.333 0 -92.333 -24.333 -135 -73l-89 36z" />
    <glyph glyph-name="six.dnom" horiz-adv-x="655" 
d="M539 799l-35.002 -80c-35.333 14.667 -66.666 22 -93.999 22c-71.333 0 -126.166 -22 -164.499 -66s-61.5 -120.333 -69.5 -229c20.667 31.333 44.834 54 72.501 68s65.5 21 113.5 21c62.667 0 115.334 -23.5 158.001 -70.5s64 -111.833 64 -194.5
c0 -86 -24.333 -154.167 -73 -204.5s-108.334 -75.5 -179.001 -75.5c-80.667 0 -144.167 30.333 -190.5 91s-69.5 156 -69.5 286c0 308 113.333 462 340 462c49.333 0 91.666 -10 126.999 -30zM335.998 444c-45.333 0 -81.668 -14.499 -109.001 -43.499
s-41 -69.5 -41 -121.5c0 -65.333 12.667 -114.5 38 -147.5s61.333 -49.5 108 -49.5c42 0 75.667 16.167 101 48.5s38 78.166 38 137.499c0 56.667 -11.667 100.167 -35 130.5s-56.666 45.5 -99.999 45.5z" />
    <glyph glyph-name="seven.dnom" horiz-adv-x="532" 
d="M43 819h463v-65l-281 -754h-123l285 723h-344v96z" />
    <glyph glyph-name="eight.dnom" horiz-adv-x="671" 
d="M340 829c68 0 122.167 -18.999 162.5 -56.999s60.5 -88.333 60.5 -151c0 -84 -38 -144.333 -114 -181c45.333 -12.667 81.833 -39 109.5 -79s41.5 -84.667 41.5 -134c0 -76 -23.333 -134.5 -70 -175.5s-114 -61.5 -202 -61.5c-80.667 0 -143.5 20.667 -188.5 62
s-67.5 99.666 -67.5 174.999c0 49.333 13.667 94 41 134s64 66.333 110 79c-36.667 17.333 -64.834 41.833 -84.501 73.5s-29.5 67.5 -29.5 107.5c0 63.333 20.333 113.833 61 151.5s97.334 56.5 170.001 56.5zM336 395.001c-42 0 -77.499 -15.5 -106.499 -46.5
s-43.5 -69.5 -43.5 -115.5c0 -43.333 14.167 -79.666 42.5 -108.999s64.166 -44 107.499 -44s79 14.667 107 44s42 65.666 42 108.999c0 46 -14.333 84.5 -43 115.5s-64 46.5 -106 46.5zM336.001 745.001c-33.333 0 -61.167 -12.333 -83.5 -37s-33.5 -54.667 -33.5 -90
c0 -38 11.5 -71.333 34.5 -100s50.5 -43 82.5 -43c31.333 0 58.666 14.333 81.999 43s35 62 35 100c0 35.333 -11.167 65.333 -33.5 90s-50.166 37 -83.499 37z" />
    <glyph glyph-name="nine.dnom" horiz-adv-x="655" 
d="M324 829c80.667 0 144.166 -30.168 190.499 -90.501s69.5 -155.5 69.5 -285.5c0 -308.667 -113.333 -463 -340 -463c-49.333 0 -91.666 10 -126.999 30l35 80c34 -14.667 65.333 -22 94 -22c71.333 0 126 22.167 164 66.5s61 120.5 69 228.5
c-20 -31.333 -43.833 -53.833 -71.5 -67.5s-65.834 -20.5 -114.501 -20.5c-62.667 0 -115.167 23.333 -157.5 70s-63.5 111.334 -63.5 194.001c0 86 24.333 154.167 73 204.5s108.334 75.5 179.001 75.5zM323.999 738.999c-42 0 -75.8311 -16.1689 -101.498 -48.502
s-38.5 -78.166 -38.5 -137.499c0 -55.333 11.667 -98.166 35 -128.499s56.666 -45.5 99.999 -45.5c45.333 0 81.666 14.5 108.999 43.5s41 69.167 41 120.5c0 64.667 -12.5 113.5 -37.5 146.5s-60.833 49.5 -107.5 49.5z" />
    <glyph glyph-name="space.frac" horiz-adv-x="90" 
 />
    <glyph glyph-name="plus.tf" 
d="M457 573v449h110v-449h441v-102h-441v-471h-110v471h-441v102h441z" />
    <glyph glyph-name="zero.tf" 
d="M109 676c0 226.667 34.5 398.667 103.5 516s169.5 176 301.5 176c138.667 0 240.167 -56.5 304.5 -169.5s96.5 -287.167 96.5 -522.5c0 -228.667 -33.833 -401.167 -101.5 -517.5s-168.167 -174.5 -301.5 -174.5c-138.667 0 -240.5 56.333 -305.5 169
s-97.5 287 -97.5 523zM797 678c0 92.667 -4.83203 174.166 -14.499 244.499s-25.334 132.333 -47.001 186s-51.167 94.334 -88.5 122.001s-82.333 41.5 -135 41.5s-97.667 -13.833 -135 -41.5s-66.833 -68.167 -88.5 -121.5s-37.334 -115.166 -47.001 -185.499
s-14.5 -152.166 -14.5 -245.499s5 -175.333 15 -246s25.833 -132.834 47.5 -186.501s51 -94.334 88 -122.001s81.167 -41.5 132.5 -41.5c54 0 99.833 13.667 137.5 41s67.334 67.833 89.001 121.5s37.167 115.5 46.5 185.5s14 152.667 14 248z" />
    <glyph glyph-name="one.tf" 
d="M225 1139v100l310 113h83v-1252h261v-100h-646v100h273v1139z" />
    <glyph glyph-name="two.tf" 
d="M870 1042c0 -61.333 -11.333 -118.333 -34 -171s-52.167 -98.5 -88.5 -137.5s-76.333 -76.667 -120 -113l-131 -108c-43.667 -35.667 -83.667 -72.5 -120 -110.5s-65.833 -82.667 -88.5 -134s-34 -106.666 -34 -165.999h631v-102h-746v80c0 56.667 7 110.334 21 161.001
s32.833 95.167 56.5 133.5s50.667 74.666 81 108.999s62.5 66 96.5 95l101.5 84c33.667 27 65.667 54.5 96 82.5s57.333 56.333 81 85s42.5 60.667 56.5 96s21 72.666 21 111.999c0 67.333 -21 122.5 -63 165.5s-97 64.5 -165 64.5c-72.667 0 -129.667 -24.5 -171 -73.5
s-62 -107.833 -62 -176.5h-115c0 106 33.667 190.833 101 254.5s153 95.5 257 95.5c102 0 183.833 -29.833 245.5 -89.5s92.5 -138.5 92.5 -236.5z" />
    <glyph glyph-name="three.tf" 
d="M827 1073c0 -82.667 -20.9971 -150.83 -62.9971 -204.497s-106.333 -96.834 -193 -129.501v-2c89.333 -12.667 160.166 -50.334 212.499 -113.001s78.5 -140.334 78.5 -233.001c0 -129.333 -36.833 -229.5 -110.5 -300.5s-173.167 -106.5 -298.5 -106.5
c-74.667 0 -142.334 15.833 -203.001 47.5s-110 76.5 -148 134.5l99 70c61.333 -98.667 144.666 -148 249.999 -148c193.333 0 290 96.333 290 289c0 90 -31 161.667 -93 215s-141.333 80 -238 80c-18 0 -40.667 -0.666992 -68 -2v110c243.333 4 365 98.333 365 283
c0 60 -21.667 109.167 -65 147.5s-99 57.5 -167 57.5c-90 0 -172 -49.333 -246 -148l-82 58c89.333 126.667 202 190 338 190c102 0 184.5 -27.333 247.5 -82s94.5 -125.667 94.5 -213z" />
    <glyph glyph-name="four.tf" 
d="M938 457v-105h-186v-352h-113v352h-598v99l545 901h166v-895h186zM152 453c36.667 2.66699 199 4.00098 487 4.00098v553c0 150 2 238.667 6 266l-2 2c-13.333 -36.667 -46 -97.334 -98 -182.001l-295 -484c-60 -98 -92.667 -151 -98 -159z" />
    <glyph glyph-name="five.tf" 
d="M903 446c0 -78 -12.165 -147.499 -36.498 -208.499s-56.5 -109.333 -96.5 -145s-83.5 -62.667 -130.5 -81s-95.5 -27.5 -145.5 -27.5c-74.667 0 -142.334 15.833 -203.001 47.5s-110 76.5 -148 134.5l99 70c61.333 -98.667 144.666 -148 249.999 -148
c36 0 70.333 6.66699 103 20s63.334 33.666 92.001 60.999s51.667 65.5 69 114.5s26 105.5 26 169.5c0 83.333 -24.333 153.666 -73 210.999s-112.334 86 -191.001 86c-50 0 -95 -10.667 -135 -32s-78.333 -54.666 -115 -99.999l-96 37l61 697h607v-101h-502
c-28 -308 -45.667 -477.333 -53 -508h2c38.667 38.667 78.5 66.167 119.5 82.5s87.167 24.5 138.5 24.5c107.333 0 193.833 -38.5 259.5 -115.5s98.5 -173.167 98.5 -288.5z" />
    <glyph glyph-name="six.tf" 
d="M909 446c0 -142 -36.999 -254.501 -110.999 -337.501s-165.333 -124.5 -274 -124.5c-122 0 -217.667 49.667 -287 149s-104 256.333 -104 471c0 509.333 171.333 764 514 764c74 0 138.333 -16.333 193 -49l-47 -94c-45.333 27.333 -95.333 41 -150 41
c-56.667 0 -107 -10.167 -151 -30.5s-82.833 -52 -116.5 -95s-60.667 -100 -81 -171s-33.833 -155.833 -40.5 -254.5h2c30 51.333 71.667 91.833 125 121.5s116.666 44.5 189.999 44.5c97.333 0 178 -38.167 242 -114.5s96 -183.166 96 -320.499zM541.001 773.999
c-80.667 0 -145.667 -27.832 -195 -83.499s-74 -132.167 -74 -229.5c0 -124.667 22.833 -218.334 68.5 -281.001s110.5 -94 194.5 -94c76.667 0 138 30.667 184 92s69 149.333 69 264c0 109.333 -22.167 192 -66.5 248s-104.5 84 -180.5 84z" />
    <glyph glyph-name="seven.tf" 
d="M770 1247h-586v105h709v-90l-463 -1262h-135z" />
    <glyph glyph-name="eight.tf" 
d="M500 -16c-118.667 0 -213.999 34.499 -285.999 103.499s-108 161.5 -108 277.5c0 86.667 21.167 162.167 63.5 226.5s103.166 108.833 182.499 133.5v2c-124 65.333 -186 168.333 -186 309c0 95.333 32.833 174.5 98.5 237.5s150.834 94.5 255.501 94.5
c98 0 178.833 -31.833 242.5 -95.5s95.5 -142.5 95.5 -236.5c0 -136 -62 -239 -186 -309v-2c79.333 -24.667 140.166 -69.167 182.499 -133.5s63.5 -139.833 63.5 -226.5c0 -117.333 -37.333 -210.166 -112 -278.499s-176.667 -102.5 -306 -102.5zM512.001 83.999
c88 0 156.833 26.5 206.5 79.5s74.5 122.833 74.5 209.5c0 88.667 -25.333 160.667 -76 216s-119 83 -205 83s-154.333 -27.667 -205 -83s-76 -127.333 -76 -216c0 -86.667 24.833 -156.5 74.5 -209.5s118.5 -79.5 206.5 -79.5zM512.001 755.999
c68 0 122.833 25.667 164.5 77s62.5 116.333 62.5 195c0 76 -20 136.333 -60 181s-95.667 67 -167 67s-127 -22.333 -167 -67s-60 -105 -60 -181c0 -78.667 20.833 -143.667 62.5 -195s96.5 -77 164.5 -77z" />
    <glyph glyph-name="nine.tf" 
d="M115 905c0 142.667 36.999 255.5 110.999 338.5s165.333 124.5 274 124.5c122 0 217.667 -49.667 287 -149s104 -256.333 104 -471c0 -259.333 -43.167 -451.5 -129.5 -576.5s-214.5 -187.5 -384.5 -187.5c-74 0 -138.333 16.333 -193 49l47 94
c43.333 -27.333 93.333 -41 150 -41s107 10.167 151 30.5s82.833 52 116.5 95s60.667 100 81 171s33.833 155.833 40.5 254.5h-2c-30 -51.333 -71.667 -91.833 -125 -121.5s-116.666 -44.5 -189.999 -44.5c-96.667 0 -177.167 38.167 -241.5 114.5
s-96.5 182.833 -96.5 319.5zM482.999 578c80.667 0 145.667 27.667 195 83s74 132 74 230c0 124.667 -22.833 218.334 -68.5 281.001s-110.5 94 -194.5 94c-76.667 0 -138 -30.833 -184 -92.5s-69 -149.834 -69 -264.501c0 -109.333 22.167 -191.833 66.5 -247.5
s104.5 -83.5 180.5 -83.5z" />
    <glyph glyph-name="less.tf" 
d="M102 444v136l742 391v-121l-654 -332l654 -340v-123z" />
    <glyph glyph-name="equal.tf" 
d="M911 440v-102h-798v102h798zM911 750v-101h-798v101h798z" />
    <glyph glyph-name="greater.tf" 
d="M922 584v-135l-742 -392v121l654 332l-654 340v123z" />
    <glyph glyph-name="logicalnot.tf" 
d="M784 543h-678v102h793v-424h-115v322z" />
    <glyph glyph-name="plusminus.tf" 
d="M436 719v407h111v-407h379v-103h-379v-407h-111v407h-379v103h379zM926 0h-869v102h869v-102z" />
    <glyph glyph-name="multiply.tf" 
d="M442 512l-366 365l78 77l366 -366l363 364l71 -71l-364 -363l377 -375l-78 -77l-377 376l-371 -372l-71 71z" />
    <glyph glyph-name="divide.tf" 
d="M16 573h992v-102h-992v102zM512 225c33.333 0 60.833 -11.5 82.5 -34.5s32.5 -51.833 32.5 -86.5c0 -34 -10.833 -62.5 -32.5 -85.5s-49.167 -34.5 -82.5 -34.5s-60.833 11.5 -82.5 34.5s-32.5 51.5 -32.5 85.5c0 34.667 10.833 63.5 32.5 86.5s49.167 34.5 82.5 34.5z
M512 1038c33.333 0 60.833 -11.5 82.5 -34.5s32.5 -51.5 32.5 -85.5c0 -34.667 -10.833 -63.5 -32.5 -86.5s-49.167 -34.5 -82.5 -34.5s-60.833 11.5 -82.5 34.5s-32.5 51.833 -32.5 86.5c0 34 10.833 62.5 32.5 85.5s49.167 34.5 82.5 34.5z" />
    <glyph glyph-name="uni2007.tf" 
 />
    <glyph glyph-name="minus.tf" 
d="M901 502h-778v102h778v-102z" />
    <glyph glyph-name="uni2219.tf" 
d="M696 608c0 -51.333 -18 -95.166 -54 -131.499s-79.333 -54.5 -130 -54.5s-94 18.167 -130 54.5s-54 80.166 -54 131.499s18 95.333 54 132s79.333 55 130 55s94 -18.333 130 -55s54 -80.667 54 -132z" />
    <glyph glyph-name="approxequal.tf" 
d="M102 707c85.333 57.333 157.666 86 216.999 86c46.667 0 91 -7 133 -21l122 -42c39.333 -14 79.333 -21 120 -21c62 0 137.333 27.333 226 82v-121c-90.667 -56 -166 -84 -226 -84c-40.667 0 -80.667 7 -120 21l-122 42c-42 14 -86.333 21 -133 21
c-61.333 0 -133.666 -28 -216.999 -84v121zM102 418c85.333 57.333 157.665 85.999 216.998 85.999c46.667 0 91 -7 133 -21l122 -42c39.333 -14 79.333 -21 120 -21c62 0 137.333 27.333 226 82v-121c-48.667 -29.333 -90.167 -50.666 -124.5 -63.999
s-68.166 -20 -101.499 -20c-40.667 0 -80.667 7 -120 21l-122 42c-42 14 -86.333 21 -133 21c-61.333 0 -133.666 -28 -216.999 -84v121z" />
    <glyph glyph-name="notequal.tf" 
d="M449 326l-183 -326h-108l182 326h-283v102h340l121 213h-461v100h516l158 281h109l-158 -281h285v-100h-340l-121 -213h461v-102h-518z" />
    <glyph glyph-name="lessequal.tf" 
d="M133 629v135l737 371v-121l-649 -312l649 -319v-123zM133 102h737v-102h-737v102z" />
    <glyph glyph-name="greaterequal.tf" 
d="M891 629l-737 -369v123l649 319l-649 312v121l737 -371v-135zM891 102v-102h-737v102h737z" />
    <glyph glyph-name="dotmath.tf" 
d="M643 592c0 -36.667 -12.833 -67.667 -38.5 -93s-56.5 -38 -92.5 -38c-37.333 0 -68.5 12.5 -93.5 37.5s-37.5 56.167 -37.5 93.5c0 36 12.667 66.833 38 92.5s56.333 38.5 93 38.5c36 0 66.833 -12.833 92.5 -38.5s38.5 -56.5 38.5 -92.5z" />
    <glyph glyph-name="zero.lf" horiz-adv-x="991" 
d="M92 676c0 226.667 34.5 398.667 103.5 516s169.833 176 302.5 176c138 0 239.333 -56.5 304 -169.5s97 -287.167 97 -522.5c0 -228.667 -33.833 -401.167 -101.5 -517.5s-168.167 -174.5 -301.5 -174.5c-138.667 0 -240.667 56.5 -306 169.5s-98 287.167 -98 522.5z
M780 678c0 93.333 -4.83203 174.999 -14.499 244.999s-25.167 131.833 -46.5 185.5s-50.666 94.334 -87.999 122.001s-82.333 41.5 -135 41.5s-97.667 -13.833 -135 -41.5s-66.833 -68.167 -88.5 -121.5s-37.334 -115.166 -47.001 -185.499s-14.5 -152.166 -14.5 -245.499
s5 -175.333 15 -246s25.833 -132.834 47.5 -186.501s51 -94.334 88 -122.001s81.167 -41.5 132.5 -41.5c54 0 99.833 13.667 137.5 41s67.167 67.833 88.5 121.5s36.666 115.5 45.999 185.5s14 152.667 14 248z" />
    <glyph glyph-name="one.lf" horiz-adv-x="667" 
d="M602 0h-502v100h211v1139l-239 -86v100l268 99h84v-1252h178v-100z" />
    <glyph glyph-name="two.lf" horiz-adv-x="937" 
d="M817 1042c0 -61.333 -11.332 -118.334 -33.999 -171.001s-52.167 -98.5 -88.5 -137.5s-76.333 -76.667 -120 -113l-131 -108c-43.667 -35.667 -83.667 -72.5 -120 -110.5s-65.833 -82.667 -88.5 -134s-34 -106.666 -34 -165.999h630v-102h-745v80
c0 72 11.167 139 33.5 201s51.5 115 87.5 159s75.667 85.5 119 124.5s86.666 76 129.999 111s83 69.833 119 104.5s65.167 74 87.5 118s33.5 90.667 33.5 140c0 67.333 -20.833 122.5 -62.5 165.5s-96.5 64.5 -164.5 64.5c-73.333 0 -130.5 -24.333 -171.5 -73
s-61.5 -107.667 -61.5 -177h-115c0 106 33.667 190.833 101 254.5s153 95.5 257 95.5c102 0 183.833 -29.833 245.5 -89.5s92.5 -138.5 92.5 -236.5z" />
    <glyph glyph-name="three.lf" horiz-adv-x="901" 
d="M756 1073c0 -82.667 -20.999 -150.832 -62.999 -204.499s-106.333 -96.834 -193 -129.501v-2c88.667 -12.667 159.334 -50.5 212.001 -113.5s79 -140.5 79 -232.5c0 -129.333 -36.833 -229.5 -110.5 -300.5s-173.5 -106.5 -299.5 -106.5
c-74.667 0 -142.167 15.833 -202.5 47.5s-109.5 76.5 -147.5 134.5l98 70c61.333 -98.667 144.666 -148 249.999 -148c194 0 291 96.333 291 289c0 90 -31 161.667 -93 215s-141.667 80 -239 80c-18 0 -40.667 -0.666992 -68 -2v110c243.333 4 365 98.333 365 283
c0 60 -21.5 109.167 -64.5 147.5s-98.833 57.5 -167.5 57.5c-90.667 0 -172.334 -49.333 -245.001 -148l-82 58c89.333 126.667 202 190 338 190c102 0 184.5 -27.333 247.5 -82s94.5 -125.667 94.5 -213z" />
    <glyph glyph-name="four.lf" horiz-adv-x="1003" 
d="M934 457v-105h-186v-352h-113v352h-598v99l545 901h166v-895h186zM147 453c37.333 2.66699 200 4.00098 488 4.00098v553c0 150 2 238.667 6 266l-2 2c-13.333 -36.667 -46 -97.334 -98 -182.001l-295 -484c-65.333 -105.333 -98.333 -158.333 -99 -159z" />
    <glyph glyph-name="five.lf" horiz-adv-x="935" 
d="M852 446c0 -78 -12.165 -147.499 -36.498 -208.499s-56.5 -109.333 -96.5 -145s-83.667 -62.667 -131 -81s-96 -27.5 -146 -27.5c-74 0 -141.333 15.833 -202 47.5s-110 76.5 -148 134.5l98 70c62 -98.667 145.333 -148 250 -148c36 0 70.333 6.66699 103 20
s63.5 33.666 92.5 60.999s52.167 65.5 69.5 114.5s26 105.5 26 169.5c0 83.333 -24.333 153.666 -73 210.999s-112.334 86 -191.001 86c-50 0 -95 -10.667 -135 -32s-78.333 -54.666 -115 -99.999l-96 37l61 697h606v-101h-501c-28 -308 -46 -477.333 -54 -508h3
c38 38.667 77.667 66.167 119 82.5s87.666 24.5 138.999 24.5c107.333 0 193.833 -38.5 259.5 -115.5s98.5 -173.167 98.5 -288.5z" />
    <glyph glyph-name="six.lf" horiz-adv-x="989" 
d="M887 446c0 -142 -37.001 -254.499 -111.001 -337.499s-165.333 -124.5 -274 -124.5c-122.667 0 -218.5 49.667 -287.5 149s-103.5 256.333 -103.5 471c0 509.333 171.333 764 514 764c74 0 138 -16.333 192 -49l-47 -94c-45.333 27.333 -95 41 -149 41
c-116 0 -206.667 -43.5 -272 -130.5s-104.666 -227.167 -117.999 -420.5h2c30.667 51.333 72.5 91.833 125.5 121.5s116.5 44.5 190.5 44.5c96.667 0 177.167 -38.333 241.5 -115s96.5 -183.334 96.5 -320.001zM517.999 774.001c-80.667 0 -145.5 -27.832 -194.5 -83.499
s-73.5 -132.167 -73.5 -229.5c0 -124.667 22.667 -218.334 68 -281.001s110 -94 194 -94c77.333 0 139 30.667 185 92s69 149.333 69 264c0 110 -22.167 192.833 -66.5 248.5s-104.833 83.5 -181.5 83.5z" />
    <glyph glyph-name="seven.lf" horiz-adv-x="704" 
d="M586 1247h-586v105h709v-90l-463 -1262h-135z" />
    <glyph glyph-name="eight.lf" horiz-adv-x="995" 
d="M485 -16c-118 0 -212.999 34.499 -284.999 103.499s-108 161.5 -108 277.5c0 86.667 21.167 162.167 63.5 226.5s103.166 108.833 182.499 133.5v2c-124 65.333 -186 168.333 -186 309c0 95.333 32.833 174.5 98.5 237.5s150.834 94.5 255.501 94.5
c97.333 0 178 -31.833 242 -95.5s96 -142.5 96 -236.5c0 -136 -62.333 -239 -187 -309v-2c79.333 -24.667 140.166 -69.167 182.499 -133.5s63.5 -139.833 63.5 -226.5c0 -117.333 -37.333 -210.166 -112 -278.499s-176.667 -102.5 -306 -102.5zM498.001 83.999
c88 0 156.667 26.5 206 79.5s74 122.833 74 209.5c0 88.667 -25.167 160.667 -75.5 216s-118.5 83 -204.5 83s-154.333 -27.667 -205 -83s-76 -127.333 -76 -216c0 -86.667 24.667 -156.5 74 -209.5s118.333 -79.5 207 -79.5zM498.001 755.999
c68 0 122.832 25.667 164.499 77s62.5 116.333 62.5 195c0 76 -20 136.333 -60 181s-95.667 67 -167 67c-72 0 -128 -22.333 -168 -67s-60 -105 -60 -181c0 -78.667 20.833 -143.667 62.5 -195s96.834 -77 165.501 -77z" />
    <glyph glyph-name="nine.lf" horiz-adv-x="993" 
d="M102 905c0 72 10.333 137.5 31 196.5s48.5 107.667 83.5 146s75.833 68 122.5 89s96 31.5 148 31.5c122.667 0 218.667 -49.667 288 -149s104 -256.333 104 -471c0 -509.333 -171.333 -764 -514 -764c-74.667 0 -139 16.333 -193 49l47 94
c43.333 -27.333 93.333 -41 150 -41s107 10.167 151 30.5s82.833 52 116.5 95s60.667 100 81 171s33.833 155.833 40.5 254.5h-2c-30.667 -51.333 -72.5 -91.833 -125.5 -121.5s-116.5 -44.5 -190.5 -44.5c-96.667 0 -177.167 38.167 -241.5 114.5
s-96.5 182.833 -96.5 319.5zM471 578c80.667 0 145.5 27.667 194.5 83s73.5 132 73.5 230c0 124.667 -22.667 218.334 -68 281.001s-110 94 -194 94c-76.667 0 -138.167 -30.833 -184.5 -92.5s-69.5 -149.834 -69.5 -264.501c0 -109.333 22.333 -191.833 67 -247.5
s105 -83.5 181 -83.5z" />
    <glyph glyph-name="plus.tosf" 
d="M457 573v449h110v-449h441v-102h-441v-471h-110v471h-441v102h441z" />
    <glyph glyph-name="zero.tosf" 
d="M915 563c0 -184 -36.166 -326.501 -108.499 -427.501s-170.5 -151.5 -294.5 -151.5c-128.667 0 -228 48.833 -298 146.5s-105 241.834 -105 432.501c0 183.333 36.667 325.833 110 427.5s171.666 152.5 294.999 152.5c128.667 0 227.667 -49.333 297 -148
s104 -242.667 104 -432zM797.001 564.999c0 151.333 -24.3311 269.5 -72.998 354.5s-119.334 127.5 -212.001 127.5s-163.334 -42.5 -212.001 -127.5s-73 -203.167 -73 -354.5s24.5 -269.666 73.5 -354.999s118.833 -128 209.5 -128c95.333 0 167 42.167 215 126.5
s72 203.166 72 356.499z" />
    <glyph glyph-name="one.tosf" 
d="M225 913v101l310 112h83v-1026h261v-100h-646v100h273v914z" />
    <glyph glyph-name="two.tosf" 
d="M893 0h-760.001v80c0 52.667 7 100.167 21 142.5s33 77.833 57 106.5s51.333 54.667 82 78s63.167 43.833 97.5 61.5l102.5 51.5c34 16.667 66.333 34.334 97 53.001s58 39.167 82 61.5s43 49.833 57 82.5s21 69.334 21 110.001c0 61.333 -20.5 112.5 -61.5 153.5
s-95.167 61.5 -162.5 61.5c-97.333 0 -188 -41.333 -272 -124l-68 86c53.333 44.667 107.5 79 162.5 103s117.833 36 188.5 36c100.667 0 181.334 -28.667 242.001 -86s91 -130.333 91 -219c0 -50.667 -7.16699 -96.334 -21.5 -137.001s-33.5 -74.667 -57.5 -102
s-51.5 -52.166 -82.5 -74.499s-63.667 -41.833 -98 -58.5l-103 -49.5c-34.333 -16.333 -67 -34 -98 -53s-58.5 -39.833 -82.5 -62.5s-43.167 -50.834 -57.5 -84.501s-21.5 -71.834 -21.5 -114.501h645v-102z" />
    <glyph glyph-name="three.tosf" 
d="M862 129c0 -131.333 -39.668 -235.166 -119.001 -311.499s-182.333 -114.5 -309 -114.5c-99.333 0 -201.666 22.667 -306.999 68l53 108c87.333 -48 168.666 -72 243.999 -72c96.667 0 173.667 27.333 231 82s86 132 86 232c0 94.667 -31 170.167 -93 226.5
s-141.333 84.5 -238 84.5c-18 0 -40.667 -0.666992 -68 -2v111c243.333 4 365 99.333 365 286c0 61.333 -20.5 112.5 -61.5 153.5s-95.167 61.5 -162.5 61.5c-97.333 0 -188 -41.333 -272 -124l-68 86c53.333 44.667 107.5 79 162.5 103s117.833 36 188.5 36
c100.667 0 181.334 -28.667 242.001 -86s91 -130.333 91 -219c0 -83.333 -21.167 -152.5 -63.5 -207.5s-106.5 -98.5 -192.5 -130.5v-2c88 -18 158.5 -59.333 211.5 -124s79.5 -146.334 79.5 -245.001z" />
    <glyph glyph-name="four.tosf" 
d="M936 72h-186v-353h-113v353h-598v92l541 962h170v-950h186v-104zM643 1051l-2 1.99902c-10 -27.333 -42 -89.666 -96 -186.999l-299 -534c-38 -68.667 -70 -122 -96 -160c36.667 2.66699 199 4 487 4v608c0 150.667 2 239.667 6 267z" />
    <glyph glyph-name="five.tosf" 
d="M903 236c0 -166 -44.333 -296.333 -133 -391s-201.334 -142 -338.001 -142c-63.333 0 -119.5 6.33301 -168.5 19s-101.5 31.667 -157.5 57l54 110c82.667 -54.667 172.667 -82 270 -82c106 0 191.167 36.833 255.5 110.5s96.5 176.167 96.5 307.5
c0 92.667 -22.333 166 -67 220s-107 81 -187 81c-96 0 -177.667 -44.333 -245 -133l-97 37l62 696h581v-100h-477c-28 -308 -45.667 -477.333 -53 -508h2c72.667 72.667 157.334 109 254.001 109c110 0 195.5 -34.167 256.5 -102.5s91.5 -164.5 91.5 -288.5z" />
    <glyph glyph-name="six.tosf" 
d="M909 446c0 -142 -36.9971 -254.5 -110.997 -337.5s-165.333 -124.5 -274 -124.5c-122 0 -217.667 49.667 -287 149s-104 256.333 -104 471c0 249.333 45.5 439 136.5 569s218.833 195 383.5 195c37.333 0 73.666 -5.33301 108.999 -16l-27 -101
c-26.667 10 -57.334 15 -92.001 15c-52 0 -99.667 -10.5 -143 -31.5s-82.333 -53.167 -117 -96.5s-63.167 -100.833 -85.5 -172.5s-36.833 -155.167 -43.5 -250.5h2c30 54 71.667 96.833 125 128.5s116.666 47.5 189.999 47.5c96.667 0 177.167 -39.167 241.5 -117.5
s96.5 -187.5 96.5 -327.5zM788.003 442c0 112.667 -22.167 197.834 -66.5 255.501s-104.5 86.5 -180.5 86.5c-80 0 -144.833 -29.333 -194.5 -88s-74.5 -137 -74.5 -235c0 -124.667 22.833 -218.334 68.5 -281.001s110.5 -94 194.5 -94c76.667 0 138 30.667 184 92
s69 149.333 69 264z" />
    <glyph glyph-name="seven.tosf" 
d="M891 1036l-504 -1317h-135l522 1303h-592v104h709v-90z" />
    <glyph glyph-name="eight.tosf" 
d="M918 365c0 -117.333 -37.332 -210.167 -111.999 -278.5s-176.667 -102.5 -306 -102.5c-118.667 0 -214 34.5 -286 103.5s-108 161.5 -108 277.5c0 86.667 21.167 162.167 63.5 226.5s103.166 108.833 182.499 133.5v2c-124 65.333 -186 168.333 -186 309
c0 95.333 32.833 174.5 98.5 237.5s150.834 94.5 255.501 94.5c98 0 178.833 -31.833 242.5 -95.5s95.5 -142.5 95.5 -236.5c0 -136 -62 -239 -186 -309v-2c79.333 -24.667 140.166 -69.167 182.499 -133.5s63.5 -139.833 63.5 -226.5zM793.001 372.999
c0 88.667 -25.333 160.667 -76 216s-119 83 -205 83s-154.333 -27.667 -205 -83s-76 -127.333 -76 -216c0 -86.667 24.833 -156.5 74.5 -209.5s118.5 -79.5 206.5 -79.5s156.833 26.5 206.5 79.5s74.5 122.833 74.5 209.5zM739.001 1028c0 76 -20 136.333 -60 181
s-95.667 67 -167 67s-127 -22.333 -167 -67s-60 -105 -60 -181c0 -78.667 20.833 -143.667 62.5 -195s96.5 -77 164.5 -77s122.833 25.667 164.5 77s62.5 116.333 62.5 195z" />
    <glyph glyph-name="nine.tosf" 
d="M891 522c0 -262.667 -47 -464.833 -141 -606.5s-233.333 -212.5 -418 -212.5c-38 0 -79 4.66699 -123 14l16 103c43.333 -10 83.666 -15 120.999 -15c122 0 220.167 50.833 294.5 152.5s117.5 253.167 129.5 454.5h-2c-30 -54 -71.667 -96.833 -125 -128.5
s-116.666 -47.5 -189.999 -47.5c-97.333 0 -178 39 -242 117s-96 187 -96 327c0 142.667 37 255.5 111 338.5s165.333 124.5 274 124.5c59.333 0 112.333 -11.5 159 -34.5s87.667 -58.667 123 -107s62.333 -112.833 81 -193.5s28 -176 28 -286zM752 668.001
c0 124.667 -22.833 218.166 -68.5 280.499s-110.5 93.5 -194.5 93.5c-76.667 0 -138 -30.667 -184 -92s-69 -149.333 -69 -264c0 -112 22.167 -197 66.5 -255s104.5 -87 180.5 -87c80 0 144.833 29.333 194.5 88s74.5 137.334 74.5 236.001z" />
    <glyph glyph-name="less.tosf" 
d="M102 444v136l742 391v-121l-654 -332l654 -340v-123z" />
    <glyph glyph-name="equal.tosf" 
d="M911 440v-102h-798v102h798zM911 750v-101h-798v101h798z" />
    <glyph glyph-name="greater.tosf" 
d="M922 584v-135l-742 -392v121l654 332l-654 340v123z" />
    <glyph glyph-name="logicalnot.tosf" 
d="M784 543h-678v102h793v-424h-115v322z" />
    <glyph glyph-name="plusminus.tosf" 
d="M436 719v407h111v-407h379v-103h-379v-407h-111v407h-379v103h379zM926 0h-869v102h869v-102z" />
    <glyph glyph-name="multiply.tosf" 
d="M442 512l-366 365l78 77l366 -366l363 364l71 -71l-364 -363l377 -375l-78 -77l-377 376l-371 -372l-71 71z" />
    <glyph glyph-name="divide.tosf" 
d="M16 573h992v-102h-992v102zM512 225c33.333 0 60.833 -11.5 82.5 -34.5s32.5 -51.833 32.5 -86.5c0 -34 -10.833 -62.5 -32.5 -85.5s-49.167 -34.5 -82.5 -34.5s-60.833 11.5 -82.5 34.5s-32.5 51.5 -32.5 85.5c0 34.667 10.833 63.5 32.5 86.5s49.167 34.5 82.5 34.5z
M512 1038c33.333 0 60.833 -11.5 82.5 -34.5s32.5 -51.5 32.5 -85.5c0 -34.667 -10.833 -63.5 -32.5 -86.5s-49.167 -34.5 -82.5 -34.5s-60.833 11.5 -82.5 34.5s-32.5 51.833 -32.5 86.5c0 34 10.833 62.5 32.5 85.5s49.167 34.5 82.5 34.5z" />
    <glyph glyph-name="uni2007.tosf" 
 />
    <glyph glyph-name="minus.tosf" 
d="M901 502h-778v102h778v-102z" />
    <glyph glyph-name="uni2219.tosf" 
d="M696 608c0 -51.333 -18 -95.166 -54 -131.499s-79.333 -54.5 -130 -54.5s-94 18.167 -130 54.5s-54 80.166 -54 131.499s18 95.333 54 132s79.333 55 130 55s94 -18.333 130 -55s54 -80.667 54 -132z" />
    <glyph glyph-name="approxequal.tosf" 
d="M102 707c85.333 57.333 157.666 86 216.999 86c46.667 0 91 -7 133 -21l122 -42c39.333 -14 79.333 -21 120 -21c62 0 137.333 27.333 226 82v-121c-90.667 -56 -166 -84 -226 -84c-40.667 0 -80.667 7 -120 21l-122 42c-42 14 -86.333 21 -133 21
c-61.333 0 -133.666 -28 -216.999 -84v121zM102 418c85.333 57.333 157.665 85.999 216.998 85.999c46.667 0 91 -7 133 -21l122 -42c39.333 -14 79.333 -21 120 -21c62 0 137.333 27.333 226 82v-121c-48.667 -29.333 -90.167 -50.666 -124.5 -63.999
s-68.166 -20 -101.499 -20c-40.667 0 -80.667 7 -120 21l-122 42c-42 14 -86.333 21 -133 21c-61.333 0 -133.666 -28 -216.999 -84v121z" />
    <glyph glyph-name="notequal.tosf" 
d="M449 326l-183 -326h-108l182 326h-283v102h340l121 213h-461v100h516l158 281h109l-158 -281h285v-100h-340l-121 -213h461v-102h-518z" />
    <glyph glyph-name="lessequal.tosf" 
d="M133 629v135l737 371v-121l-649 -312l649 -319v-123zM133 102h737v-102h-737v102z" />
    <glyph glyph-name="greaterequal.tosf" 
d="M891 629l-737 -369v123l649 319l-649 312v121l737 -371v-135zM891 102v-102h-737v102h737z" />
    <glyph glyph-name="dotmath.tosf" 
d="M643 592c0 -36.667 -12.833 -67.667 -38.5 -93s-56.5 -38 -92.5 -38c-37.333 0 -68.5 12.5 -93.5 37.5s-37.5 56.167 -37.5 93.5c0 36 12.667 66.833 38 92.5s56.333 38.5 93 38.5c36 0 66.833 -12.833 92.5 -38.5s38.5 -56.5 38.5 -92.5z" />
    <glyph glyph-name="parenleft.case" horiz-adv-x="628" 
d="M649 -215l-112.002 0.00195312c-99.333 168 -172.666 324.667 -219.999 470s-71 300 -71 464c0 165.333 23.833 319.166 71.5 461.499s120.167 288.166 217.5 437.499h112c-99.333 -154 -172.666 -301.167 -219.999 -441.5s-71 -292.833 -71 -457.5
c0 -163.333 23.667 -317 71 -461s121.333 -301.667 222 -473z" />
    <glyph glyph-name="parenright.case" horiz-adv-x="628" 
d="M383 719c0 -164 -23.668 -318.669 -71.001 -464.002s-120.666 -302 -219.999 -470h-112c100.667 171.333 174.5 328.833 221.5 472.5s70.5 297.5 70.5 461.5c0 165.333 -23.5 318 -70.5 458s-120.167 287 -219.5 441h112
c97.333 -149.333 169.833 -295.166 217.5 -437.499s71.5 -296.166 71.5 -461.499z" />
    <glyph glyph-name="hyphen.case" horiz-adv-x="690" 
d="M557 645h-424v115h424v-115z" />
    <glyph glyph-name="bracketleft.case" horiz-adv-x="587" 
d="M608 -215h-342v1833h342v-84h-233v-1665h233v-84z" />
    <glyph glyph-name="bracketright.case" horiz-adv-x="587" 
d="M322 -215h-342v84h233v1665h-233v84h342v-1833z" />
    <glyph glyph-name="braceleft.case" horiz-adv-x="645" 
d="M666 -215h-102.997c-89.333 0 -151.5 20.667 -186.5 62s-52.5 101.333 -52.5 180v379c0 24 -0.166992 41.833 -0.5 53.5s-1 27.334 -2 47.001s-3 34.167 -6 43.5l-11.5 35c-4.66699 14 -11 24.5 -19 31.5s-17.5 14.667 -28.5 23s-24.167 14.5 -39.5 18.5
s-33 7.33301 -53 10v106c20 2 37.667 5.16699 53 9.5s28.5 10.666 39.5 18.999s20.5 16.333 28.5 24s14.333 18.667 19 33l11.5 36c3 9.66699 5 24.334 6 44.001s1.66699 35.167 2 46.5s0.5 28.666 0.5 51.999v338c0 78.667 17.5 138.667 52.5 180s97.167 62 186.5 62h103
v-84h-88c-54 0 -91.833 -13.167 -113.5 -39.5s-32.5 -70.5 -32.5 -132.5v-344c0 -28 -0.333008 -49.167 -1 -63.5s-2.33398 -32.166 -5.00098 -53.499s-7.33398 -38.5 -14.001 -51.5s-15.667 -27.5 -27 -43.5s-26 -30.5 -44 -43.5s-39.667 -26.167 -65 -39.5v-2
c29.333 -12.667 54.166 -27.834 74.499 -45.501s35.833 -35 46.5 -52s18.667 -38.5 24 -64.5s8.5 -48.333 9.5 -67s1.5 -44 1.5 -76v-375c0 -64 10.5 -108.667 31.5 -134s59.167 -38 114.5 -38h88v-84z" />
    <glyph glyph-name="braceright.case" horiz-adv-x="645" 
d="M481 670c-17.333 -2 -32.999 -5.16699 -46.999 -9.5s-26.333 -8.83301 -37 -13.5s-20 -11.5 -28 -20.5s-14.667 -17 -20 -24s-9.66602 -17.167 -12.999 -30.5s-6 -24.5 -8 -33.5s-3.5 -22.333 -4.5 -40s-1.5 -31.834 -1.5 -42.501v-48v-381
c0 -78.667 -17.667 -138.667 -53 -180s-97.666 -62 -186.999 -62h-102v84h88c54.667 0 92.5 12.667 113.5 38s31.5 70 31.5 134v375c0 32 0.5 57.333 1.5 76s4.16699 41 9.5 67s13.333 47.5 24 64.5s26.167 34.333 46.5 52s45.166 32.834 74.499 45.501v2
c-25.333 13.333 -47 26.5 -65 39.5s-32.667 27.5 -44 43.5s-20.333 30.5 -27 43.5s-11.334 30.167 -14.001 51.5s-4.33398 39.166 -5.00098 53.499s-1 35.5 -1 63.5v344c0 62 -10.833 106.167 -32.5 132.5s-59.167 39.5 -112.5 39.5h-88v84h102
c89.333 0 151.666 -20.667 186.999 -62s53 -101.333 53 -180v-336c0 -23.333 0.166992 -40.666 0.5 -51.999s1 -26.833 2 -46.5s3 -34.334 6 -44.001l11.5 -36c4.66699 -14.333 11 -25.333 19 -33s17.333 -15.667 28 -24s23.834 -14.666 39.501 -18.999
s33.167 -7.5 52.5 -9.5v-106z" />
    <glyph glyph-name="guillemotleft.case" horiz-adv-x="808" 
d="M758 399l-92 -65l-263 368l263 367l88 -63l-222 -301zM389 399l-92 -65l-256 368l256 367l88 -63l-215 -301z" />
    <glyph glyph-name="uni00AD.case" horiz-adv-x="690" 
d="M557 645h-424v115h424v-115z" />
    <glyph glyph-name="guillemotright.case" horiz-adv-x="808" 
d="M406 702l-263 -366l-88 63l221 301l-225 306l92 65zM768 702l-256 -366l-88 63l215 301l-219 306l92 65z" />
    <glyph glyph-name="gravecomb.case" horiz-adv-x="2" 
d="M-434 1581l-45 -65l-312 184l74 104z" />
    <glyph glyph-name="acutecomb.case" horiz-adv-x="2" 
d="M-260 1700l-311 -184l-45 65l282 223z" />
    <glyph glyph-name="uni0302.case" horiz-adv-x="2" 
d="M-266 1556l-43 -59l-223 154l-216 -150l-38 55l260 232z" />
    <glyph glyph-name="tildecomb.case" horiz-adv-x="2" 
d="M-244 1618c-45.333 -54.667 -105.335 -82 -180.002 -82c-35.333 0 -73.166 9.83301 -113.499 29.5s-72.166 29.5 -95.499 29.5c-52.667 0 -97 -19 -133 -57l-47 72c46 56 106 84 180 84c36 0 74 -10 114 -30s71.667 -30 95 -30c52 0 96.333 19.333 133 58z" />
    <glyph glyph-name="uni0304.case" horiz-adv-x="2" 
d="M-240 1530h-497v90h497v-90z" />
    <glyph glyph-name="uni0306.case" horiz-adv-x="2" 
d="M-240 1745c0 -64 -19.168 -116.833 -57.501 -158.5s-98.166 -62.5 -179.499 -62.5s-141 20.667 -179 62s-57 94.333 -57 159h88c0 -92.667 50.667 -139 152 -139c99.333 0 149 46.333 149 139h84z" />
    <glyph glyph-name="uni0307.case" horiz-adv-x="2" 
d="M-295 1647c0 -32.667 -10.167 -60.334 -30.5 -83.001s-46.166 -34 -77.499 -34s-57.333 11.333 -78 34s-31 50.334 -31 83.001c0 32 10.333 59.333 31 82s46.667 34 78 34s57.166 -11.333 77.499 -34s30.5 -50 30.5 -82z" />
    <glyph glyph-name="uni0308.case" horiz-adv-x="2" 
d="M-618 1616c0 -24 -7.83301 -44.333 -23.5 -61s-35.167 -25 -58.5 -25c-25.333 0 -45.666 8.33301 -60.999 25s-23 37 -23 61c0 25.333 7.66699 46 23 62s35.666 24 60.999 24c23.333 0 42.833 -8.16699 58.5 -24.5s23.5 -36.833 23.5 -61.5zM-274 1616
c0 -24 -8.00098 -44.333 -24.001 -61s-36 -25 -60 -25c-23.333 0 -42.833 8.33301 -58.5 25s-23.5 37 -23.5 61c0 24.667 7.66699 45.167 23 61.5s35 24.5 59 24.5c24.667 0 44.834 -8.16699 60.501 -24.5s23.5 -36.833 23.5 -61.5z" />
    <glyph glyph-name="uni030A.case" horiz-adv-x="2" 
d="M-266 1667c0 -47.333 -16.667 -87.833 -50 -121.5s-74 -50.5 -122 -50.5c-49.333 0 -90.666 16.5 -123.999 49.5s-50 73.833 -50 122.5c0 47.333 17.167 87.833 51.5 121.5s75.166 50.5 122.499 50.5c48.667 0 89.5 -16.667 122.5 -50s49.5 -74 49.5 -122zM-346 1667
c0 28.667 -8.5 52.167 -25.5 70.5s-39.167 27.5 -66.5 27.5c-28.667 0 -51.5 -9.16699 -68.5 -27.5s-25.5 -41.833 -25.5 -70.5c0 -28 8.5 -51.333 25.5 -70s39.833 -28 68.5 -28c27.333 0 49.5 9.33301 66.5 28s25.5 42 25.5 70z" />
    <glyph glyph-name="uni030B.case" horiz-adv-x="2" 
d="M-86 1679l-281 -163l-43 63l252 203zM-401 1720l-252 -204l-52 55l220 239z" />
    <glyph glyph-name="uni030C.case" horiz-adv-x="2" 
d="M-147 1739l-261 -232l-260 232l43 59l222 -153l217 149z" />
    <glyph glyph-name="uni0326.case" horiz-adv-x="2" 
d="M-358 -238c0 -58 -19.0029 -104.833 -57.0029 -140.5s-86.667 -53.5 -146 -53.5h-4v67c86.667 6 131.667 44.333 135 115c-15.333 -13.333 -34.333 -20 -57 -20c-27.333 0 -49.666 9 -66.999 27s-26 39.667 -26 65c0 28.667 8.83301 51.5 26.5 68.5
s41.834 25.5 72.501 25.5c34.667 0 63.834 -13.667 87.501 -41s35.5 -65 35.5 -113z" />
    </font>
</defs>
</svg>
