<?xml version="1.0" standalone="no"?>
<!DOCTYPE svg PUBLIC "-//W3C//DTD SVG 1.1//EN" "http://www.w3.org/Graphics/SVG/1.1/DTD/svg11.dtd" >
<svg>
<metadata>
Created by FontForge 20110222 at Tue Jul  9 16:23:08 2013
 By Orthosie Webhosting
2007 Albert Pinggera published by FSI FontShop International GmbH
</metadata>
<defs>
<font id="LetterGothicTextOTRegular" horiz-adv-x="1024" >
  <font-face 
    font-family="LetterGothicTextOTRegular"
    font-weight="400"
    font-stretch="normal"
    units-per-em="2048"
    panose-1="2 11 5 4 2 1 1 2 1 2"
    ascent="1606"
    descent="-442"
    x-height="1024"
    cap-height="1403"
    bbox="-823 -512 2415 1884"
    underline-thickness="143"
    underline-position="-62"
    unicode-range="U+000D-FEFF"
  />
<missing-glyph horiz-adv-x="1013" 
d="M111 0v1440h792v-1440h-792zM242 131h530v1178h-530v-1178z" />
    <glyph glyph-name="f_f" unicode="ff" horiz-adv-x="1236" 
d="M1329 1274q-119 53 -211 53q-98 0 -144 -54.5t-46 -172.5v-76h295v-145h-295v-879h-180v879h-371v-879h-180v879h-195v145h195v82q0 178 98 264t276 86q160 0 293 -47q90 68 228 68q104 0 237 -43v-160zM772 1272q-81 35 -172 35q-117 0 -171 -52t-54 -176v-55h373v102
q0 76 24 146z" />
    <glyph glyph-name="f_f_i" unicode="ffi" horiz-adv-x="1619" 
d="M1479 0h-181v879h-370v-879h-180v879h-371v-879h-180v879h-195v145h195v82q0 178 98 264t276 86q156 0 295 -51q90 72 258 72q133 0 287 -47v-160q-155 57 -258 57q-117 0 -171 -52t-54 -175v-76h551v-1024zM772 1272q-81 35 -172 35q-117 0 -171 -52t-54 -176v-55h373
v102q0 76 24 146z" />
    <glyph glyph-name="f_f_l" unicode="ffl" horiz-adv-x="1622" 
d="M1479 0h-181v1298q-81 29 -151 29q-114 0 -166.5 -52t-52.5 -175v-76h198v-145h-198v-879h-180v879h-371v-879h-180v879h-195v145h195v82q0 178 98 264t276 86q156 0 295 -51q93 72 256 72q143 0 357 -54v-1423zM772 1272q-81 35 -172 35q-117 0 -171 -52t-54 -176v-55
h373v102q0 76 24 146z" />
    <glyph glyph-name="f_i" unicode="fi" horiz-adv-x="1069" 
d="M928 0h-180v879h-371v-879h-180v879h-195v145h195v102q0 178 98 264.5t276 86.5q137 0 287 -47v-160q-155 57 -258 57q-116 0 -169.5 -52t-53.5 -175v-76h551v-1024z" />
    <glyph glyph-name="f_j" unicode="fj" horiz-adv-x="1069" 
d="M928 -86q0 -173 -90.5 -261.5t-251.5 -88.5q-72 0 -122 10t-112 33v160q115 -54 207 -54q96 0 142.5 55t46.5 173v938h-371v-879h-180v879h-195v145h195v102q0 178 98 264.5t276 86.5q137 0 287 -47v-160q-155 57 -258 57q-116 0 -169.5 -52t-53.5 -175v-76h551v-1110z
" />
    <glyph glyph-name="f_l" unicode="fl" horiz-adv-x="1071" 
d="M928 0h-180v1298q-82 29 -152 29q-113 0 -166 -52t-53 -175v-76h198v-145h-198v-879h-180v879h-195v145h195v102q0 178 98 264.5t276 86.5q143 0 357 -54v-1423z" />
    <glyph glyph-name=".notdef" horiz-adv-x="1013" 
d="M111 0v1440h792v-1440h-792zM242 131h530v1178h-530v-1178z" />
    <glyph glyph-name=".null" horiz-adv-x="0" 
 />
    <glyph glyph-name=".null" horiz-adv-x="0" 
 />
    <glyph glyph-name="nonmarkingreturn" horiz-adv-x="682" 
 />
    <glyph glyph-name="CR" unicode="&#xd;" horiz-adv-x="450" 
 />
    <glyph glyph-name="space" unicode=" " horiz-adv-x="450" 
 />
    <glyph glyph-name="exclam" unicode="!" horiz-adv-x="538" 
d="M412 1436l-23 -996h-143l-25 996h191zM451 121q0 -58 -38 -98.5t-96 -40.5q-57 0 -96 40.5t-39 98.5q0 59 39 100t96 41q58 0 96 -41t38 -100z" />
    <glyph glyph-name="quotedbl" unicode="&#x22;" horiz-adv-x="831" 
d="M647 997h-155v469h155v-469zM309 997h-155v469h155v-469z" />
    <glyph glyph-name="numbersign" unicode="#" horiz-adv-x="1433" 
d="M1253 891h-235l-62 -313h211v-134h-237l-84 -444h-164l86 444h-238l-86 -444h-163l86 444h-211v134h235l64 313h-215v133h237l74 379h164l-72 -379h236l73 379h164l-74 -379h211v-133zM854 891h-238l-59 -313h236z" />
    <glyph glyph-name="dollar" unicode="$" horiz-adv-x="1136" 
d="M987 385q0 -157 -85.5 -263.5t-244.5 -133.5v-211h-147v207q-185 14 -354 137l100 166q93 -69 166 -102t153 -33q99 0 157.5 53t58.5 155q0 57 -25.5 103.5t-67 76.5t-94.5 60t-108 54t-108 58t-94.5 72.5t-67 97.5t-25.5 132q0 138 80.5 232.5t224.5 117.5v176h147v-172
q151 -13 299 -119l-94 -143q-145 102 -260 102q-101 0 -152 -46.5t-51 -131.5q0 -49 25.5 -89.5t67 -67t95 -54.5t108.5 -51.5t108.5 -59t95 -76.5t67 -105t25.5 -142z" />
    <glyph glyph-name="percent" unicode="%" horiz-adv-x="1810" 
d="M788 1014q0 -170 -87 -266.5t-232 -96.5q-147 0 -230 94t-83 267q0 169 87 264.5t232 95.5q146 0 229.5 -93.5t83.5 -264.5zM1655 344q0 -171 -87 -266.5t-233 -95.5t-229.5 93.5t-83.5 266.5q0 169 87 263.5t232 94.5q146 0 230 -93t84 -263zM1450 1333l-973 -1388
l-117 82l971 1386zM633 1014q0 229 -160 229q-162 0 -162 -229q0 -117 42 -174.5t118 -57.5q162 0 162 232zM1499 344q0 227 -160 227q-161 0 -161 -227q0 -117 41.5 -174t117.5 -57q162 0 162 231z" />
    <glyph glyph-name="ampersand" unicode="&#x26;" horiz-adv-x="1249" 
d="M1194 109l-104 -140q-108 80 -216 178q-129 -165 -350 -165q-172 0 -275.5 89.5t-103.5 258.5q0 115 55 204t156 185q-143 219 -143 393q0 151 91 230t235 79q135 0 217 -70.5t82 -201.5q0 -56 -16.5 -111t-38 -95t-63 -89.5t-69 -77t-78.5 -76.5q106 -139 265 -290
q20 73 20 153v80h154v-59q0 -157 -47 -285q94 -84 229 -190zM756 254q-182 170 -301 332q-125 -139 -125 -248q0 -95 57 -147t145 -52q135 0 224 115zM657 1137q0 67 -34.5 102t-90.5 35q-62 0 -103.5 -41t-41.5 -109q0 -125 94 -290q85 79 130.5 149.5t45.5 153.5z" />
    <glyph glyph-name="quotesingle" unicode="'" horiz-adv-x="442" 
d="M309 997h-155v469h155v-469z" />
    <glyph glyph-name="parenleft" unicode="(" horiz-adv-x="681" 
d="M707 -326h-170q-153 255 -226 478t-73 477t73 474t224 458h172q-154 -241 -227.5 -459.5t-73.5 -472.5t73.5 -475.5t227.5 -479.5z" />
    <glyph glyph-name="parenright" unicode=")" horiz-adv-x="681" 
d="M444 627q0 -254 -73 -477t-226 -476h-170q155 256 228 478t73 475q0 255 -73.5 473t-227.5 461h172q150 -236 223.5 -458t73.5 -476z" />
    <glyph glyph-name="asterisk" unicode="*" horiz-adv-x="833" 
d="M756 1229l-256 -58l178 -198l-129 -96l-129 235l-133 -238l-127 97l178 198l-260 58l49 153l240 -112l-29 268h156l-25 -266l240 112z" />
    <glyph glyph-name="plus" unicode="+" horiz-adv-x="1282" 
d="M1143 444h-414v-444h-176v444h-414v156h414v424h176v-424h414v-156z" />
    <glyph glyph-name="comma" unicode="," horiz-adv-x="448" 
d="M371 45q0 -131 -73 -210t-192 -79h-8v90q76 3 117.5 42t50.5 120q-28 -22 -65 -22q-54 0 -88.5 40t-34.5 95q0 57 37.5 95t95.5 38q69 0 114.5 -54.5t45.5 -154.5z" />
    <glyph glyph-name="hyphen" unicode="-" horiz-adv-x="700" 
d="M578 483h-455v164h455v-164z" />
    <glyph glyph-name="period" unicode="." horiz-adv-x="436" 
d="M358 127q0 -61 -40 -103t-99 -42q-61 0 -101 42t-40 103t40 103t101 42q59 0 99 -42t40 -103z" />
    <glyph glyph-name="slash" unicode="/" horiz-adv-x="821" 
d="M788 1548l-622 -1716l-133 51l622 1716z" />
    <glyph glyph-name="zero" unicode="0" horiz-adv-x="1103" 
d="M1016 563q0 -270 -127 -425.5t-340 -155.5q-222 0 -341.5 149.5t-119.5 431.5q0 270 127.5 425t341.5 155q222 0 340.5 -149.5t118.5 -430.5zM827 565q0 214 -70.5 323t-205.5 109q-133 0 -204 -109t-71 -323q0 -215 71 -324.5t204 -109.5q136 0 206 109t70 325z" />
    <glyph glyph-name="one" unicode="1" horiz-adv-x="722" 
d="M674 0h-559v147h204v801l-227 -82v160l285 102h123v-981h174v-147z" />
    <glyph glyph-name="two" unicode="2" horiz-adv-x="958" 
d="M879 0h-805v102q0 97 33 171.5t85 120t115.5 82t127 67t115.5 64t85 84.5t33 118q0 78 -52 128t-141 50q-130 0 -258 -121l-104 129q87 71 178.5 109.5t204.5 38.5q165 0 262.5 -88.5t97.5 -231.5q0 -92 -32.5 -162.5t-84.5 -113.5t-115 -77.5t-127 -63.5t-117.5 -60.5
t-88.5 -79t-39 -110.5h627v-156z" />
    <glyph glyph-name="three" unicode="3" horiz-adv-x="915" 
d="M821 139q0 -201 -125 -318.5t-323 -117.5q-175 0 -338 78l71 162q136 -78 256 -78q124 0 196.5 71.5t72.5 196.5q0 127 -79.5 200t-207.5 73q-49 0 -90 -5v160q182 1 263 65.5t81 182.5q0 77 -52 127.5t-140 50.5q-133 0 -256 -121l-105 129q89 71 179.5 109.5
t203.5 38.5q164 0 260 -87.5t96 -228.5q0 -231 -237 -325v-2q130 -32 202 -127t72 -234z" />
    <glyph glyph-name="four" unicode="4" horiz-adv-x="1040" 
d="M991 49h-182v-332h-180v332h-590v141l541 936h229v-915h182v-162zM639 950l-2 2q-13 -44 -102 -200l-222 -387q-59 -102 -98 -158q57 4 414 4v498q0 198 10 241z" />
    <glyph glyph-name="five" unicode="5" horiz-adv-x="958" 
d="M885 240q0 -125 -37 -227.5t-102.5 -169.5t-154.5 -103.5t-192 -36.5q-106 0 -184.5 20t-169.5 64l72 162q127 -84 270 -84q135 0 221 97t86 261q0 131 -56.5 200t-160.5 69q-122 0 -213 -113l-143 55l61 692h631l-4 -157h-463q-33 -368 -45 -414h2q94 92 232 92
q167 0 258.5 -108t91.5 -299z" />
    <glyph glyph-name="six" unicode="6" horiz-adv-x="1015" 
d="M924 459q0 -111 -33 -202.5t-89.5 -151t-130 -91.5t-155.5 -32q-416 0 -416 614q0 372 140 574t399 202q68 0 129 -20l-37 -152q-41 14 -96 14q-146 0 -239 -116t-113 -353h2q104 152 297 152q148 0 245 -116t97 -322zM733 446q0 145 -55.5 218t-151.5 73
q-98 0 -160.5 -74.5t-62.5 -199.5q0 -162 57.5 -242t161.5 -80q96 0 153.5 78.5t57.5 226.5z" />
    <glyph glyph-name="seven" unicode="7" horiz-adv-x="876" 
d="M805 991l-496 -1272h-205l512 1248h-565v159h754v-135z" />
    <glyph glyph-name="eight" unicode="8" 
d="M936 377q0 -176 -113 -285.5t-317 -109.5q-200 0 -309 108t-109 287q0 125 64.5 221t173.5 133v2q-179 95 -179 299q0 145 102 242.5t267 97.5q163 0 262 -96t99 -242q0 -201 -179 -301v-2q109 -37 173.5 -133t64.5 -221zM741 389q0 115 -62 187.5t-167 72.5t-167 -72.5
t-62 -187.5q0 -112 60 -181t169 -69t169 69t60 181zM694 1018q0 96 -47.5 149.5t-134.5 53.5t-134.5 -53.5t-47.5 -149.5q0 -101 51 -163t131 -62t131 62t51 163z" />
    <glyph glyph-name="nine" unicode="9" horiz-adv-x="1017" 
d="M915 520q0 -394 -142 -607.5t-431 -213.5q-58 0 -129 14l18 156q57 -14 117 -14q168 0 266 130.5t113 389.5h-2q-42 -66 -115.5 -107t-175.5 -41q-148 0 -244 116t-96 323q0 220 118 348.5t290 128.5q413 0 413 -623zM713 664q0 162 -57.5 241.5t-161.5 79.5
q-95 0 -153 -78.5t-58 -226.5q0 -145 55.5 -218t150.5 -73q98 0 161 75t63 200z" />
    <glyph glyph-name="colon" unicode=":" horiz-adv-x="518" 
d="M399 741q0 -60 -40 -102.5t-99 -42.5q-61 0 -101 42.5t-40 102.5q0 61 40 103.5t101 42.5q59 0 99 -42.5t40 -103.5zM399 127q0 -61 -40 -103t-99 -42q-61 0 -101 42t-40 103t40 103t101 42q59 0 99 -42t40 -103z" />
    <glyph glyph-name="semicolon" unicode=";" horiz-adv-x="518" 
d="M412 45q0 -131 -73 -210t-192 -79h-8v90q76 3 117.5 42t50.5 120q-27 -22 -65 -22q-54 0 -88.5 40t-34.5 95q0 57 37.5 95t95.5 38q69 0 114.5 -54.5t45.5 -154.5zM399 741q0 -60 -40 -102.5t-99 -42.5q-61 0 -101 42.5t-40 102.5q0 61 40 103.5t101 42.5q59 0 99 -42.5
t40 -103.5z" />
    <glyph glyph-name="less" unicode="&#x3c;" horiz-adv-x="876" 
d="M764 82l-123 -129l-559 559l561 561l117 -115l-451 -438z" />
    <glyph glyph-name="equal" unicode="=" horiz-adv-x="1243" 
d="M1040 637h-837v147h837v-147zM1040 305h-837v148h837v-148z" />
    <glyph glyph-name="greater" unicode="&#x3e;" horiz-adv-x="876" 
d="M795 516l-562 -561l-116 115l450 438l-454 438l123 129z" />
    <glyph glyph-name="question" unicode="?" horiz-adv-x="858" 
d="M797 1149q0 -59 -17 -112t-44.5 -93.5t-61 -78t-67 -73t-61 -72t-44.5 -82.5t-17 -97v-99h-178v113q0 81 31 151.5t74.5 121.5t87.5 98.5t75 104t31 116.5q0 67 -43 108t-119 41q-78 0 -121.5 -47.5t-48.5 -136.5h-176q3 161 95 251.5t266 90.5q148 0 243 -84.5
t95 -220.5zM532 121q0 -58 -38.5 -98.5t-96.5 -40.5t-96.5 40.5t-38.5 98.5q0 59 38.5 100t96.5 41t96.5 -41t38.5 -100z" />
    <glyph glyph-name="at" unicode="@" horiz-adv-x="2035" 
d="M1892 688q0 -168 -37 -304t-101 -222.5t-148 -133t-179 -46.5q-115 0 -177 63.5t-62 185.5v23h-2q-69 -123 -164.5 -197.5t-206.5 -74.5q-125 0 -189.5 85.5t-64.5 251.5q0 338 153.5 530.5t418.5 192.5q154 0 321 -45l-98 -546q-21 -116 -21 -181q0 -151 105 -151
q121 0 208 146t87 392q0 295 -161 460t-450 165q-165 0 -314 -71t-259 -194.5t-175 -301t-65 -381.5q0 -303 163.5 -467t445.5 -164q220 0 401 82l51 -137q-207 -84 -469 -84q-350 0 -549.5 202t-199.5 551q0 238 73 443.5t202.5 350.5t313.5 227.5t398 82.5q180 0 323 -54
t236.5 -152t142.5 -232t49 -295zM1257 889q-68 18 -143 18q-113 0 -198 -73.5t-129 -200.5t-44 -287q0 -99 29 -157t90 -58q110 0 215.5 161.5t149.5 416.5z" />
    <glyph glyph-name="A" unicode="A" horiz-adv-x="1036" 
d="M1016 0h-213l-98 387h-390l-98 -387h-197l396 1403h207zM666 543l-82 321q-31 123 -41 165t-19.5 95t-11.5 99h-2q-4 -69 -18 -137t-54 -220l-84 -323h312z" />
    <glyph glyph-name="B" unicode="B" horiz-adv-x="1056" 
d="M981 395q0 -193 -115.5 -294t-314.5 -101h-385v1403h389q180 0 274.5 -86t94.5 -248q0 -106 -57.5 -190.5t-170.5 -122.5v-2q140 -31 212.5 -128t72.5 -231zM788 410q0 65 -22 114t-59 77.5t-81.5 42t-95.5 13.5h-176v-495h201q108 0 170.5 68t62.5 180zM737 1044
q0 101 -51.5 150t-157.5 49h-174v-430h129q112 0 183 57t71 174z" />
    <glyph glyph-name="C" unicode="C" horiz-adv-x="1003" 
d="M926 367q-6 -176 -106 -280.5t-290 -104.5q-226 0 -337 173t-111 550q0 186 35 326t98.5 224t146 125t183.5 41q166 0 263 -94t114 -274h-183q-12 106 -64.5 156.5t-135.5 50.5q-124 0 -195.5 -132.5t-71.5 -422.5q0 -293 64 -426.5t199 -133.5q187 0 206 222h185z" />
    <glyph glyph-name="D" unicode="D" horiz-adv-x="1081" 
d="M999 709q0 -371 -119.5 -540t-381.5 -169h-332v1403h348q258 0 371.5 -161.5t113.5 -532.5zM805 705q0 153 -16 253t-54.5 165t-99.5 92.5t-154 27.5h-127v-1081h129q181 0 251.5 120.5t70.5 422.5z" />
    <glyph glyph-name="E" unicode="E" horiz-adv-x="972" 
d="M881 0h-715v1403h688v-160h-500v-424h465v-157h-465v-498h527v-164z" />
    <glyph glyph-name="F" unicode="F" horiz-adv-x="890" 
d="M829 1243h-475v-438h434v-156h-434v-649h-188v1403h663v-160z" />
    <glyph glyph-name="G" unicode="G" horiz-adv-x="1056" 
d="M938 0h-139q0 121 8 166l-2 2q-36 -89 -113 -137.5t-176 -48.5q-214 0 -324 176t-110 547q0 186 35 326t98.5 224t146 125t183.5 41q167 0 264.5 -94t114.5 -274h-187q-23 207 -198 207q-124 0 -195.5 -132.5t-71.5 -422.5q0 -295 65 -427.5t208 -132.5q100 0 154.5 78.5
t54.5 225.5v102h-189v160h373v-711z" />
    <glyph glyph-name="H" unicode="H" horiz-adv-x="1193" 
d="M1028 0h-186v670h-488v-670h-188v1403h188v-572h488v572h186v-1403z" />
    <glyph glyph-name="I" unicode="I" horiz-adv-x="649" 
d="M573 0h-497v164h155v1079h-155v160h497v-160h-153v-1079h153v-164z" />
    <glyph glyph-name="J" unicode="J" horiz-adv-x="983" 
d="M827 428q0 -228 -97 -337t-300 -109q-190 0 -284.5 110.5t-94.5 323.5q0 92 4 131h176q-6 -53 -6 -119q0 -133 52.5 -207t154.5 -74q63 0 105.5 20.5t64.5 62t30.5 90.5t8.5 118v805h-213v160h399v-975z" />
    <glyph glyph-name="K" unicode="K" horiz-adv-x="1054" 
d="M1053 0h-248l-430 641l-21 -8v-633h-188v1403h188v-586q105 70 225.5 226.5t223.5 396.5l176 -92l-109 -183q-90 -150 -174 -253t-180 -173z" />
    <glyph glyph-name="L" unicode="L" horiz-adv-x="913" 
d="M891 0h-725v1403h188v-1241h537v-162z" />
    <glyph glyph-name="M" unicode="M" horiz-adv-x="1386" 
d="M1221 0h-189l2 465q0 430 15 696l-5 2q-20 -93 -133 -383l-137 -352h-153l-146 352q-105 254 -133 383l-4 -2q14 -266 14 -696l2 -465h-188v1403h233l181 -445q9 -21 26 -63.5l23 -57.5l18 -45t16 -42.5t11.5 -34t11 -34t7 -28t5.5 -30.5h2q11 57 33.5 122t81.5 213
l176 445h230v-1403z" />
    <glyph glyph-name="N" unicode="N" horiz-adv-x="1210" 
d="M1044 0h-219l-288 635q-140 307 -211 528l-4 -2q15 -248 18 -635l2 -526h-176v1403h225l283 -625q84 -189 129 -298.5t84 -229.5l4 2q-16 228 -19 637l-2 514h174v-1403z" />
    <glyph glyph-name="O" unicode="O" horiz-adv-x="1069" 
d="M987 700q0 -359 -121.5 -538.5t-341.5 -179.5q-218 0 -330 175t-112 543q0 360 122.5 540.5t340.5 180.5q219 0 330.5 -175.5t111.5 -545.5zM797 702q0 286 -63 423t-195 137q-127 0 -197 -128.5t-70 -394.5q0 -303 61 -448.5t197 -145.5t201.5 139t65.5 418z" />
    <glyph glyph-name="P" unicode="P" horiz-adv-x="995" 
d="M948 979q0 -217 -124 -335t-347 -118h-123v-526h-188v1403h354q212 0 320 -106.5t108 -317.5zM752 977q0 136 -64 201t-199 65h-135v-553h133q127 0 196 72t69 215z" />
    <glyph glyph-name="Q" unicode="Q" horiz-adv-x="1069" 
d="M1096 -98l-109 -140q-163 140 -274 263q-83 -43 -189 -43q-218 0 -330 175t-112 543q0 360 122.5 540.5t340.5 180.5q219 0 330.5 -175.5t111.5 -545.5q0 -398 -151 -579q95 -104 260 -219zM797 702q0 286 -63 423t-195 137q-127 0 -197 -128.5t-70 -394.5
q0 -303 61 -448.5t197 -145.5t201.5 139t65.5 418z" />
    <glyph glyph-name="R" unicode="R" horiz-adv-x="1038" 
d="M1001 0h-229l-258 563h-160v-563h-188v1403h364q194 0 303 -103t109 -296q0 -138 -63 -243.5t-189 -156.5zM745 1004q0 119 -64.5 179t-186.5 60h-140v-522h129q124 0 193 73.5t69 209.5z" />
    <glyph glyph-name="S" unicode="S" horiz-adv-x="970" 
d="M889 385q0 -174 -114 -288.5t-308 -114.5q-201 0 -412 147l103 158q90 -69 163 -102t154 -33q98 0 157.5 53.5t59.5 154.5q0 65 -32.5 118t-85 90.5t-115.5 73t-126 74.5t-115.5 84.5t-85 112.5t-32.5 150q0 160 105.5 259t292.5 99q182 0 354 -123l-92 -143
q-144 105 -260 105q-102 0 -153.5 -47.5t-51.5 -133.5q0 -56 33 -102t85 -80.5t115.5 -68t127 -74t115.5 -88t85 -120t33 -161.5z" />
    <glyph glyph-name="T" unicode="T" horiz-adv-x="935" 
d="M903 1243h-342v-1243h-186v1243h-342v160h870v-160z" />
    <glyph glyph-name="U" unicode="U" horiz-adv-x="1120" 
d="M965 424q0 -217 -110 -329.5t-300 -112.5q-399 0 -399 442v979h188v-975q0 -283 219 -283q116 0 165.5 74t49.5 207v977h187v-979z" />
    <glyph glyph-name="V" unicode="V" horiz-adv-x="1036" 
d="M1016 1403l-393 -1403h-205l-398 1403h213l222 -864q41 -161 54.5 -227t16.5 -132h2q5 67 18.5 133.5t53.5 225.5l219 864h197z" />
    <glyph glyph-name="W" unicode="W" horiz-adv-x="1366" 
d="M1272 1403l-127 -1403h-242l-133 440q-8 28 -22.5 75.5t-19.5 64.5t-14 49t-12.5 45.5t-8 35t-6.5 37t-3 33.5h-2q-6 -60 -21.5 -118.5t-66.5 -221.5l-139 -440h-234l-127 1403h199l57 -750q25 -307 25 -424v-34l4 -2q17 108 115 411l112 357h170l109 -357
q41 -136 57 -189.5t32 -116.5t23 -105l4 2v34q0 100 25 424l55 750h191z" />
    <glyph glyph-name="X" unicode="X" horiz-adv-x="1009" 
d="M995 0h-229l-270 578l-265 -578h-208l368 743l-336 660h228l219 -473l215 473h209l-320 -639z" />
    <glyph glyph-name="Y" unicode="Y" horiz-adv-x="942" 
d="M915 1403l-344 -809v-594h-188v575l-356 828h215l174 -445q36 -91 48 -129t15 -73h2q4 36 15 71t47 131l168 445h204z" />
    <glyph glyph-name="Z" unicode="Z" horiz-adv-x="925" 
d="M854 0h-784v143l573 1096l-2 2q-39 -6 -250 -6h-291v168h754v-143l-569 -1092q43 4 247 4h322v-172z" />
    <glyph glyph-name="bracketleft" unicode="[" horiz-adv-x="636" 
d="M637 -326h-389v1887h389v-129h-219v-1629h219v-129z" />
    <glyph glyph-name="backslash" unicode="\" horiz-adv-x="821" 
d="M788 -117l-133 -51l-622 1716l133 51z" />
    <glyph glyph-name="bracketright" unicode="]" horiz-adv-x="636" 
d="M389 -326h-389v129h219v1629h-219v129h389v-1887z" />
    <glyph glyph-name="asciicircum" unicode="^" horiz-adv-x="1157" 
d="M1090 766h-203l-314 487l-315 -487h-190l434 637h151z" />
    <glyph glyph-name="underscore" unicode="_" 
d="M1024 -299h-1024v131h1024v-131z" />
    <glyph glyph-name="grave" unicode="`" horiz-adv-x="919" 
d="M655 1286l-61 -100l-346 186l90 141z" />
    <glyph glyph-name="a" unicode="a" horiz-adv-x="933" 
d="M834 0h-168q-16 65 -23 150l-2 2q-44 -79 -116 -124.5t-171 -45.5q-133 0 -217 83t-84 242q0 170 101 260t264 90q76 0 153 -22l41 -12v73q0 98 -48 149.5t-144 51.5q-101 0 -227 -57l-48 141q158 61 304 61q173 0 259.5 -89t86.5 -240v-377q0 -176 39 -336zM614 399v93
l-32 12q-69 24 -142 24q-89 0 -143.5 -56t-54.5 -153q0 -86 43 -134t121 -48q92 0 150 75t58 187z" />
    <glyph glyph-name="b" unicode="b" horiz-adv-x="997" 
d="M930 514q0 -254 -103 -393t-280 -139q-77 0 -143 29.5t-111 78.5l-2 -2q-6 -41 -17 -88h-163q39 166 39 336v1130h180v-247q0 -205 -17 -293l2 -2q107 118 256 118q169 0 264 -130t95 -398zM741 516q0 178 -55 275.5t-156 97.5q-65 0 -116.5 -37t-83.5 -102v-510
q80 -101 196 -101q108 0 161.5 98t53.5 279z" />
    <glyph glyph-name="c" unicode="c" horiz-adv-x="878" 
d="M838 141q-149 -159 -346 -159q-208 0 -316 135t-108 393q0 249 117.5 390.5t318.5 141.5q183 0 311 -131l-106 -112q-82 96 -199 96q-126 0 -190 -97.5t-64 -285.5q0 -181 64 -280t188 -99q125 0 227 125z" />
    <glyph glyph-name="d" unicode="d" horiz-adv-x="997" 
d="M889 0h-166q-13 55 -21 117l-2 2q-111 -137 -272 -137q-171 0 -265.5 130t-94.5 398q0 255 103 393.5t282 138.5q136 0 227 -86l2 2q-12 95 -12 293v215h180v-1130q0 -176 39 -336zM670 281v507q-43 51 -89 76t-110 25q-107 0 -161 -98t-54 -277q0 -180 56 -277.5
t157 -97.5q64 0 117 38t84 104z" />
    <glyph glyph-name="e" unicode="e" horiz-adv-x="950" 
d="M874 473h-618q11 -157 78.5 -246.5t193.5 -89.5q109 0 271 90l59 -147q-188 -98 -356 -98q-114 0 -199.5 41.5t-135.5 115.5t-74.5 167.5t-24.5 205.5q0 243 113 386.5t300 143.5q190 0 291.5 -133.5t101.5 -378.5v-57zM690 614q-9 135 -63.5 210t-149.5 75
q-91 0 -149 -76.5t-70 -208.5h432z" />
    <glyph glyph-name="f" unicode="f" horiz-adv-x="686" 
d="M778 1274q-117 53 -211 53q-98 0 -144 -54.5t-46 -172.5v-76h293v-145h-293v-879h-180v879h-195v145h195v102q0 173 91 262t251 89q103 0 239 -43v-160z" />
    <glyph glyph-name="g" unicode="g" horiz-adv-x="993" 
d="M883 1024q-39 -160 -39 -336v-696q0 -207 -110 -317.5t-296 -110.5q-173 0 -334 80l58 147q139 -78 268 -78q116 0 176 70t60 197q0 71 8 114l-2 2q-114 -112 -254 -112q-173 0 -261.5 135t-88.5 397q0 250 95.5 388t280.5 138q78 0 145 -29.5t111 -78.5l2 2q4 26 17 88
h164zM664 274v519q-91 96 -195 96q-213 0 -213 -373q0 -182 53 -279.5t156 -97.5q112 0 199 135z" />
    <glyph glyph-name="h" unicode="h" horiz-adv-x="1007" 
d="M874 0h-180v682q0 111 -32 157t-101 46q-97 0 -167 -107.5t-70 -261.5v-516h-181v1466h181v-325q0 -215 -15 -293l2 -2q92 196 299 196q134 0 199 -85t65 -228v-729z" />
    <glyph glyph-name="i" unicode="i" horiz-adv-x="509" 
d="M369 0h-181v879h-163v145h344v-1024zM389 1321q0 -52 -34.5 -88.5t-86.5 -36.5t-86.5 36t-34.5 89q0 52 35 88.5t86 36.5q52 0 86.5 -36t34.5 -89z" />
    <glyph glyph-name="j" unicode="j" horiz-adv-x="509" 
d="M369 -86q0 -173 -91.5 -261.5t-252.5 -88.5q-72 0 -123 10t-117 33v162q121 -54 211 -54q99 0 145.5 54.5t46.5 173.5v936h-163v145h344v-1110zM389 1321q0 -52 -34.5 -88.5t-86.5 -36.5t-86.5 36t-34.5 89q0 52 35 88.5t86 36.5q52 0 86.5 -36t34.5 -89z" />
    <glyph glyph-name="k" unicode="k" horiz-adv-x="958" 
d="M942 0h-242l-346 475l-30 -24v-451h-181v1466h181v-852q218 211 350 410h213q-94 -136 -180.5 -237t-202.5 -216z" />
    <glyph glyph-name="l" unicode="l" horiz-adv-x="489" 
d="M346 0h-180v1321h-162v145h342v-1466z" />
    <glyph glyph-name="m" unicode="m" horiz-adv-x="1497" 
d="M1364 0h-180v711q0 174 -113 174q-91 0 -158 -104.5t-67 -245.5v-535h-178v711q0 174 -115 174q-89 0 -156 -104.5t-67 -245.5v-535h-180v688q0 170 -39 336h165q22 -88 27 -197h2q43 101 117 158t174 57t160.5 -53t72.5 -149h2q40 97 112.5 149.5t170.5 52.5
q125 0 187.5 -76t62.5 -221v-745z" />
    <glyph glyph-name="n" unicode="n" horiz-adv-x="1013" 
d="M881 0h-181v682q0 111 -32 157t-101 46q-97 0 -167 -107.5t-70 -261.5v-516h-180v688q0 170 -39 336h165q22 -88 27 -195l2 -2q43 104 122 159.5t189 55.5q134 0 199.5 -85t65.5 -228v-729z" />
    <glyph glyph-name="o" unicode="o" horiz-adv-x="972" 
d="M905 512q0 -247 -115 -388.5t-307 -141.5q-200 0 -307.5 135.5t-107.5 392.5q0 248 115.5 390t308.5 142q200 0 306.5 -135.5t106.5 -394.5zM717 514q0 188 -59.5 284.5t-170.5 96.5q-112 0 -171.5 -95.5t-59.5 -285.5t60 -286.5t169 -96.5q113 0 172.5 96t59.5 287z" />
    <glyph glyph-name="p" unicode="p" horiz-adv-x="999" 
d="M932 514q0 -255 -103 -393.5t-282 -138.5q-136 0 -228 86l-2 -2q13 -95 13 -293v-215h-180v1130q0 170 -39 336h165q15 -56 21 -117l2 -2q113 137 272 137q171 0 266 -130t95 -398zM743 510q0 180 -55.5 277.5t-157.5 97.5q-63 0 -116 -38t-84 -104v-507q42 -51 88 -76
t110 -25q107 0 161 98t54 277z" />
    <glyph glyph-name="q" unicode="q" horiz-adv-x="999" 
d="M889 1024q-39 -160 -39 -336v-1120h-180v237q0 215 14 293l-2 2q-107 -118 -254 -118q-171 0 -265.5 130t-94.5 398q0 255 103 393.5t282 138.5q153 0 252 -108l2 2q4 28 16 88h166zM670 279v507q-79 103 -199 103q-107 0 -161 -98.5t-54 -278.5q0 -178 56 -276.5
t157 -98.5q63 0 116 38.5t85 103.5z" />
    <glyph glyph-name="r" unicode="r" horiz-adv-x="811" 
d="M823 967l-121 -136q-48 46 -108 46q-109 0 -177.5 -126.5t-68.5 -347.5v-403h-180v498q0 161 -25.5 279.5t-87.5 246.5h176q57 -124 76 -252h2q107 270 328 270q111 0 186 -75z" />
    <glyph glyph-name="s" unicode="s" horiz-adv-x="788" 
d="M723 285q0 -137 -90.5 -220t-239.5 -83q-188 0 -350 106l82 154q80 -56 138 -80.5t124 -24.5q70 0 112 35t42 92q0 48 -25 83.5t-65.5 59t-89.5 44.5t-97.5 46.5t-89 58t-65.5 86t-25 124.5q0 128 87.5 203t229.5 75q154 0 301 -90l-73 -137q-124 80 -221 80
q-70 0 -108 -34t-38 -87q0 -42 25.5 -74.5t66 -54t89.5 -42t98.5 -46.5t90 -59.5t66 -88.5t25.5 -126z" />
    <glyph glyph-name="t" unicode="t" horiz-adv-x="788" 
d="M811 150q-78 -87 -154.5 -127.5t-181.5 -40.5q-145 0 -211.5 79.5t-66.5 233.5v584h-195v145h195v319h180v-319h293v-145h-293v-570q0 -166 133 -166q97 0 190 125z" />
    <glyph glyph-name="u" unicode="u" horiz-adv-x="1015" 
d="M905 0h-166q-21 92 -26 195l-2 2q-92 -215 -312 -215q-134 0 -199 85t-65 228v729h180v-682q0 -111 32 -157t102 -46q98 0 167.5 106.5t69.5 260.5v518h180v-688q0 -170 39 -336z" />
    <glyph glyph-name="v" unicode="v" horiz-adv-x="897" 
d="M866 1024l-331 -1024h-173l-331 1024h194l121 -418q17 -57 37.5 -127t29.5 -100t19 -66.5t14 -59t7 -44.5h2q2 22 6.5 44t14.5 59.5t18.5 66.5t29.5 100t37 127l121 418h184z" />
    <glyph glyph-name="w" unicode="w" horiz-adv-x="1218" 
d="M1165 1024l-164 -1024h-194l-88 303q-92 315 -102 370q-5 25 -7 50h-2q-4 -51 -22 -119.5t-86 -300.5l-88 -303h-195l-164 1024h195l57 -418q39 -286 41 -385h2q10 60 27.5 123.5t75.5 259.5l71 242h189l71 -242q56 -188 74 -255t27 -128h2q5 104 43 385l57 418h180z" />
    <glyph glyph-name="x" unicode="x" horiz-adv-x="935" 
d="M922 0h-224l-178 307q-50 86 -61 121l-2 2q-20 -50 -64 -125l-176 -305h-203l340 549l-299 475h219l129 -221q52 -90 60 -121h2q15 42 61 121l127 221h201l-285 -463z" />
    <glyph glyph-name="y" unicode="y" horiz-adv-x="870" 
d="M840 1024l-379 -1169q-23 -72 -49 -122t-63 -90t-88 -59.5t-118 -19.5q-79 0 -144 21t-142 63l67 145q41 -24 65 -37t63 -25t75 -12q69 0 106 40t70 145l47 147l-317 973h194l107 -369q16 -54 37.5 -126.5t30 -101.5t18.5 -67.5t14 -61t6 -44.5h4q3 27 11 63t18 70
t34 115.5t44 152.5l104 369h185z" />
    <glyph glyph-name="z" unicode="z" horiz-adv-x="841" 
d="M774 0h-708v133l477 733l-2 2q-41 -4 -203 -4h-238v160h658v-133l-471 -731l2 -2q39 6 203 6h282v-164z" />
    <glyph glyph-name="braceleft" unicode="{" horiz-adv-x="681" 
d="M682 -326h-129q-129 0 -194.5 71.5t-65.5 191.5v372v48.5t-1.5 42.5t-4.5 40t-8 33.5t-13 30.5t-20 23.5t-28 20.5t-37.5 13.5t-47.5 9.5v136q26 3 47.5 9t37.5 13.5t28 21.5t20 25t13 31.5t8 34t4.5 40.5t1.5 42v47v329q0 119 65 190t195 71h129v-134h-76
q-80 0 -112.5 -39.5t-32.5 -132.5v-303q0 -51 -1.5 -78.5t-10.5 -65t-26 -62t-49.5 -52.5t-80.5 -53v-2q39 -18 68.5 -39t47.5 -47.5t29 -51t15.5 -59.5t6 -61t1.5 -68v-331q0 -96 31.5 -134t113.5 -38h76v-136z" />
    <glyph glyph-name="bar" unicode="|" horiz-adv-x="540" 
d="M348 -512h-155v2048h155v-2048z" />
    <glyph glyph-name="braceright" unicode="}" horiz-adv-x="681" 
d="M549 573q-26 -3 -47.5 -9.5t-37.5 -13.5t-28 -20.5t-20 -23.5t-13 -30.5t-8 -33.5t-4.5 -40t-1.5 -42.5v-48.5v-374q0 -121 -66 -192t-196 -71h-127v136h74q82 0 113.5 38t31.5 134v323q0 44 1 69.5t6 62.5t16 61.5t29 52t48 49t70 39.5v2q-41 22 -70.5 43.5t-48 47.5
t-29.5 47t-15.5 56t-5.5 58.5t-1 69.5v292q0 93 -32.5 132.5t-112.5 39.5h-74v134h129q129 0 194.5 -71t65.5 -190v-327v-47t1.5 -42t4.5 -40.5t8 -34t13 -31.5t20 -25t28 -21.5t37.5 -13.5t47.5 -9v-136z" />
    <glyph glyph-name="asciitilde" unicode="~" horiz-adv-x="1030" 
d="M942 621q-135 -89 -242 -89q-74 0 -183 39t-198 39q-110 0 -231 -90v168q125 90 231 90q89 0 198 -39t183 -39q111 0 242 88v-167z" />
    <glyph glyph-name="uni00A0" unicode="&#xa0;" horiz-adv-x="450" 
 />
    <glyph glyph-name="exclamdown" unicode="&#xa1;" horiz-adv-x="505" 
d="M324 -414h-191l23 996h143zM362 901q0 -59 -38.5 -100t-96.5 -41q-57 0 -95 41t-38 100q0 58 38 98.5t95 40.5q58 0 96.5 -40.5t38.5 -98.5z" />
    <glyph glyph-name="cent" unicode="&#xa2;" horiz-adv-x="1036" 
d="M930 207q-127 -133 -283 -156v-186h-145v188q-168 25 -255 156.5t-87 365.5q0 216 91 353t251 170v155h143v-149q150 -14 262 -129l-106 -113q-35 44 -87.5 70t-113.5 26q-125 0 -188.5 -97t-63.5 -283q0 -182 63 -280.5t187 -98.5q127 0 229 125z" />
    <glyph glyph-name="sterling" unicode="&#xa3;" horiz-adv-x="1153" 
d="M1030 303q0 -150 -81.5 -235.5t-229.5 -85.5q-74 0 -141.5 22.5t-121.5 45t-96 22.5q-104 0 -194 -78l-84 119q92 70 143.5 130.5t79 140t27.5 187.5q0 35 -10 88h-203v129h178q-23 119 -23 213q0 171 100 272t261 101q142 0 230.5 -79.5t95.5 -217.5h-160
q-21 152 -160 152q-91 0 -148 -61.5t-57 -168.5q0 -69 25 -211h250v-129h-226q9 -63 9 -116q0 -95 -31.5 -167.5t-118.5 -164.5l2 -2q35 14 105 14q48 0 97 -22t95.5 -44t87.5 -22q73 0 108 40t35 122q0 47 -2 70h158v-64z" />
    <glyph glyph-name="currency" unicode="&#xa4;" horiz-adv-x="1228" 
d="M1116 907l-155 -141q69 -112 69 -240q0 -135 -78 -245l162 -152l-113 -113l-147 160q-117 -86 -256 -86q-129 0 -236 74l-137 -148l-112 113l147 137q-86 117 -86 260q0 135 80 248l-141 133l112 113l131 -141q114 84 252 84q141 0 256 -91l140 148zM874 528
q0 116 -79.5 202.5t-194.5 86.5q-112 0 -190 -86.5t-78 -202.5q0 -117 80 -203.5t194 -86.5q112 0 190 86.5t78 203.5z" />
    <glyph glyph-name="yen" unicode="&#xa5;" horiz-adv-x="1093" 
d="M989 1354l-299 -680h221v-129h-264v-129h264v-129h-262v-287h-188v287h-266v129h266v129h-266v129h215l-306 680h218l170 -430q35 -89 47 -126.5t16 -76.5h2q8 53 64 203l163 430h205z" />
    <glyph glyph-name="brokenbar" unicode="&#xa6;" horiz-adv-x="540" 
d="M348 -512h-155v838h155v-838zM348 801h-155v735h155v-735z" />
    <glyph glyph-name="section" unicode="&#xa7;" horiz-adv-x="1060" 
d="M895 623q0 -88 -40.5 -156t-109.5 -107q107 -99 107 -241q0 -140 -92 -224.5t-246 -84.5q-174 0 -348 118l74 152q88 -62 150.5 -88.5t125.5 -26.5q75 0 115.5 36.5t40.5 96.5q0 48 -26.5 89.5t-68.5 73t-92.5 62.5t-101.5 66t-93 75.5t-68.5 99t-26.5 128.5q0 82 44 147
t119 101q-122 104 -122 256q0 124 88.5 202.5t226.5 78.5q84 0 156 -26t153 -77l-72 -133q-131 86 -233 86q-73 0 -107 -35t-34 -92q0 -42 26.5 -80t69 -68t93.5 -61.5t102.5 -67t94 -76.5t69 -98.5t26.5 -125.5zM721 594q0 21 -6 41t-13.5 35.5t-24.5 34t-28 29.5t-37 29.5
t-38 26.5t-44 28.5t-43 27.5q-60 -14 -92.5 -51t-32.5 -88q0 -26 11.5 -50.5t26.5 -43t44.5 -41.5t51.5 -37.5t61 -39.5t61 -40q49 16 76 53t27 86z" />
    <glyph glyph-name="dieresis" unicode="&#xa8;" horiz-adv-x="915" 
d="M752 1333q0 -45 -30.5 -76.5t-76.5 -31.5q-45 0 -74.5 31.5t-29.5 76.5q0 48 29 79.5t75 31.5t76.5 -31.5t30.5 -79.5zM375 1333q0 -45 -30 -76.5t-75 -31.5q-46 0 -76 31.5t-30 76.5q0 48 29.5 79.5t76.5 31.5q45 0 75 -31.5t30 -79.5z" />
    <glyph glyph-name="copyright" unicode="&#xa9;" horiz-adv-x="1794" 
d="M1614 702q0 -150 -56 -283.5t-151 -229.5t-228 -151.5t-282 -55.5t-282 55.5t-228 151.5t-151 229.5t-56 283.5q0 199 94.5 364.5t259.5 261t363 95.5t362.5 -95t259.5 -260.5t95 -365.5zM1460 702q0 159 -73.5 291.5t-203 209.5t-286.5 77q-158 0 -287.5 -77
t-202.5 -209.5t-73 -291.5q0 -160 73 -292t202.5 -208.5t287.5 -76.5t287.5 76.5t202.5 208.5t73 292zM1153 520q-5 -97 -74.5 -158t-185.5 -61q-149 0 -222 97t-73 307q0 201 82.5 299t218.5 98q113 0 177.5 -53.5t74.5 -157.5h-145q-9 50 -36.5 71t-74.5 21
q-145 0 -145 -276q0 -156 35 -219.5t114 -63.5q46 0 74 25t35 71h145z" />
    <glyph glyph-name="ordfeminine" unicode="&#xaa;" horiz-adv-x="841" 
d="M725 635h-135q-17 75 -21 106l-2 2q-35 -56 -93 -89t-130 -33q-103 0 -166 63.5t-63 183.5q0 126 78 194t202 68q79 0 152 -24v49q0 73 -41.5 111.5t-112.5 38.5t-168 -39l-37 110q122 45 236 45q136 0 203 -66t67 -179v-285q0 -143 31 -256zM547 946v55q-72 25 -127 25
q-71 0 -111.5 -38.5t-40.5 -113.5q0 -131 127 -131q70 0 111 58t41 145z" />
    <glyph glyph-name="guillemotleft" unicode="&#xab;" horiz-adv-x="890" 
d="M434 227l-141 -94l-262 393l262 392l135 -91l-203 -297zM846 231l-141 -94l-273 389l273 387l135 -90l-213 -293z" />
    <glyph glyph-name="logicalnot" unicode="&#xac;" horiz-adv-x="1075" 
d="M942 236h-174v288h-672v158h846v-446z" />
    <glyph glyph-name="uni00AD" unicode="&#xad;" horiz-adv-x="700" 
d="M578 483h-455v164h455v-164z" />
    <glyph glyph-name="registered" unicode="&#xae;" horiz-adv-x="1794" 
d="M1614 702q0 -150 -56 -283.5t-151 -229.5t-228 -151.5t-282 -55.5t-282 55.5t-228 151.5t-151 229.5t-56 283.5q0 199 94.5 364.5t259.5 261t363 95.5t362.5 -95t259.5 -260.5t95 -365.5zM1466 702q0 161 -74 295t-205 211.5t-290 77.5t-290 -78t-205 -212t-74 -294
q0 -161 74 -295t205 -211t290 -77t290 77.5t205 211t74 294.5zM1206 319h-180l-154 304h-75v-304h-148v764h256q121 0 189.5 -56.5t68.5 -162.5q0 -74 -36.5 -130t-108.5 -85zM1008 860q0 107 -136 107h-75v-232h71q62 0 101 31t39 94z" />
    <glyph glyph-name="macron" unicode="&#xaf;" horiz-adv-x="968" 
d="M737 1257h-512v132h512v-132z" />
    <glyph glyph-name="degree" unicode="&#xb0;" horiz-adv-x="782" 
d="M686 1163q0 -145 -83 -229t-214 -84q-136 0 -213.5 80.5t-77.5 232.5q0 146 81.5 230t211.5 84q138 0 216.5 -81t78.5 -233zM543 1165q0 93 -39 145t-113 52q-73 0 -112 -52.5t-39 -144.5t39.5 -144t109.5 -52q154 0 154 196z" />
    <glyph glyph-name="plusminus" unicode="&#xb1;" horiz-adv-x="1214" 
d="M1059 614h-365v-358h-174v358h-364v156h364v356h174v-356h365v-156zM1059 0h-903v156h903v-156z" />
    <glyph glyph-name="twosuperior" unicode="&#xb2;" horiz-adv-x="679" 
d="M82 1321q118 94 272 94q111 0 181.5 -63.5t70.5 -165.5q0 -60 -20 -109t-52 -81t-71 -59t-78 -49t-71 -44.5t-52 -52.5t-20 -66h372v-143h-546v90q0 74 19.5 131.5t51.5 92.5t70 62t76 48t70 43t51.5 53t19.5 72q0 43 -27 68.5t-71 25.5q-75 0 -166 -74z" />
    <glyph glyph-name="threesuperior" unicode="&#xb3;" horiz-adv-x="630" 
d="M53 1333q119 82 252 82q109 0 173.5 -55.5t64.5 -145.5q0 -67 -36 -111.5t-95 -64.5q153 -44 153 -204q0 -123 -82.5 -194t-210.5 -71q-110 0 -225 56l59 141q78 -45 148 -45q133 0 133 125q0 51 -38.5 79.5t-102.5 28.5q-37 0 -60 -2v133q99 1 139 27.5t40 77.5
q0 37 -25 60.5t-66 23.5q-61 0 -143 -60z" />
    <glyph glyph-name="acute" unicode="&#xb4;" horiz-adv-x="917" 
d="M727 1372l-346 -186l-62 100l318 227z" />
    <glyph glyph-name="mu" unicode="&#xb5;" horiz-adv-x="1042" 
d="M932 0h-166q-25 110 -27 195l-2 2q-45 -105 -124 -160t-177 -55q-76 0 -117 34q5 -65 5 -317v-117h-181v1442h181v-696q0 -103 36 -148t107 -45q106 0 176 107t70 268v514h180v-688q0 -176 39 -336z" />
    <glyph glyph-name="paragraph" unicode="&#xb6;" horiz-adv-x="1163" 
d="M956 -182h-165v1431h-191v-1431h-166v850q-151 9 -235 112.5t-84 255.5q0 156 90 261.5t246 105.5h505v-1585z" />
    <glyph glyph-name="periodcentered" unicode="&#xb7;" horiz-adv-x="688" 
d="M500 592q0 -66 -45.5 -111t-110.5 -45q-66 0 -111 45t-45 111q0 65 45 110.5t111 45.5q64 0 110 -46t46 -110z" />
    <glyph glyph-name="cedilla" unicode="&#xb8;" horiz-adv-x="884" 
d="M688 -264q0 -77 -56 -129.5t-155 -52.5q-96 0 -184 34l22 103q77 -41 146 -41q117 0 117 84q0 76 -121 76q-22 0 -76 -7l53 189h96l-30 -107q10 2 35 2q65 0 109 -40.5t44 -110.5z" />
    <glyph glyph-name="onesuperior" unicode="&#xb9;" horiz-adv-x="579" 
d="M49 1339l230 62h114v-676h133v-143h-473v143h172v512l-176 -49v151z" />
    <glyph glyph-name="ordmasculine" unicode="&#xba;" horiz-adv-x="886" 
d="M774 1022q0 -189 -90 -295t-244 -106q-160 0 -243.5 101.5t-83.5 297.5q0 189 90 295t243 106q159 0 243.5 -101.5t84.5 -297.5zM618 1024q0 276 -174 276q-87 0 -130.5 -67t-43.5 -209q0 -279 172 -279q89 0 132.5 67.5t43.5 211.5z" />
    <glyph glyph-name="guillemotright" unicode="&#xbb;" horiz-adv-x="890" 
d="M860 526l-262 -393l-141 94l209 303l-203 297l135 91zM459 526l-273 -389l-141 94l219 299l-213 293l135 90z" />
    <glyph glyph-name="onequarter" unicode="&#xbc;" horiz-adv-x="2035" 
d="M1882 176h-119v-176h-166v176h-370v123l327 520h209v-504h119v-139zM1522 1466l-860 -1620h-181l860 1620h181zM627 582h-469v141h170v520l-174 -49v149l227 62h113v-682h133v-141zM1604 653h-5q-14 -33 -65 -114l-80 -125q-47 -77 -74 -101l2 -4q33 6 215 6v213
q0 103 7 125z" />
    <glyph glyph-name="onehalf" unicode="&#xbd;" horiz-adv-x="2105" 
d="M1522 1466l-860 -1620h-181l860 1620h181zM1952 0h-559v88q0 74 20.5 131.5t53 93t72 62.5t79 48t72 42.5t53 52t20.5 70.5q0 47 -27.5 72.5t-70.5 25.5q-46 0 -83 -18.5t-79 -57.5l-92 127q68 50 130 73.5t145 23.5q113 0 185.5 -64.5t72.5 -169.5q0 -59 -21 -106.5
t-54.5 -79.5t-74 -58.5t-80.5 -49t-73.5 -45t-54.5 -52.5t-21 -66h387v-143zM627 582h-469v141h170v520l-174 -49v149l227 62h113v-682h133v-141z" />
    <glyph glyph-name="threequarters" unicode="&#xbe;" horiz-adv-x="2054" 
d="M1868 176h-119v-176h-166v176h-371v123l328 520h209v-504h119v-139zM1507 1466l-860 -1620h-180l860 1620h180zM670 834q0 -123 -82.5 -194t-210.5 -71q-109 0 -223 56l57 139q77 -45 149 -45q63 0 99.5 31t36.5 94q0 52 -40 82t-104 30q-39 0 -61 -4v133q98 0 140 27.5
t42 79.5q0 36 -25.5 60t-64.5 24q-40 0 -70.5 -16t-66.5 -50l-84 115q60 46 116.5 68t133.5 22q108 0 171.5 -55.5t63.5 -145.5q0 -59 -29.5 -103.5t-80.5 -70.5q133 -58 133 -206zM1589 653h-4q-11 -25 -65 -114l-80 -125q-47 -77 -74 -101l2 -4q33 6 215 6v213
q0 103 6 125z" />
    <glyph glyph-name="questiondown" unicode="&#xbf;" horiz-adv-x="804" 
d="M719 -90q-3 -161 -95 -251.5t-266 -90.5q-148 0 -243 84.5t-95 220.5q0 59 17 112t44.5 93.5t61 78t67 73t61 72t44.5 82.5t17 97v99h178v-113q0 -81 -31 -151.5t-75 -121.5t-87.5 -98.5t-74.5 -104t-31 -116.5q0 -67 43 -108t119 -41q78 0 121.5 47.5t48.5 136.5h176z
M555 901q0 -59 -38.5 -100t-96.5 -41t-96.5 41t-38.5 100q0 58 38.5 98.5t96.5 40.5t96.5 -40.5t38.5 -98.5z" />
    <glyph glyph-name="Agrave" unicode="&#xc0;" horiz-adv-x="1036" 
d="M1016 0h-213l-98 387h-390l-98 -387h-197l396 1403h207zM666 543l-82 321q-31 123 -41 165t-19.5 95t-11.5 99h-2q-4 -69 -18 -137t-54 -220l-84 -323h312zM635 1604l-62 -101l-346 187l90 141z" />
    <glyph glyph-name="Aacute" unicode="&#xc1;" horiz-adv-x="1036" 
d="M1016 0h-213l-98 387h-390l-98 -387h-197l396 1403h207zM666 543l-82 321q-31 123 -41 165t-19.5 95t-11.5 99h-2q-4 -69 -18 -137t-54 -220l-84 -323h312zM799 1690l-346 -187l-62 101l318 227z" />
    <glyph glyph-name="Acircumflex" unicode="&#xc2;" horiz-adv-x="1036" 
d="M1016 0h-213l-98 387h-390l-98 -387h-197l396 1403h207zM666 543l-82 321q-31 123 -41 165t-19.5 95t-11.5 99h-2q-4 -69 -18 -137t-54 -220l-84 -323h312zM817 1585l-57 -92l-242 149l-231 -145l-56 88l293 234z" />
    <glyph glyph-name="Atilde" unicode="&#xc3;" horiz-adv-x="1036" 
d="M1016 0h-213l-98 387h-390l-98 -387h-197l396 1403h207zM666 543l-82 321q-31 123 -41 165t-19.5 95t-11.5 99h-2q-4 -69 -18 -137t-54 -220l-84 -323h312zM795 1610q-75 -84 -179 -84q-54 0 -116 27.5t-99 27.5q-72 0 -127 -55l-55 106q74 84 180 84q53 0 114.5 -27.5
t98.5 -27.5q72 0 127 55z" />
    <glyph glyph-name="Adieresis" unicode="&#xc4;" horiz-adv-x="1036" 
d="M1016 0h-213l-98 387h-390l-98 -387h-197l396 1403h207zM666 543l-82 321q-31 123 -41 165t-19.5 95t-11.5 99h-2q-4 -69 -18 -137t-54 -220l-84 -323h312zM813 1640q0 -45 -30.5 -76.5t-75.5 -31.5q-46 0 -75.5 31.5t-29.5 76.5q0 48 29.5 79.5t75.5 31.5t76 -31.5
t30 -79.5zM436 1640q0 -45 -30 -76.5t-74 -31.5q-47 0 -77 31.5t-30 76.5q0 48 29.5 79.5t77.5 31.5q44 0 74 -31.5t30 -79.5z" />
    <glyph glyph-name="Aring" unicode="&#xc5;" horiz-adv-x="1036" 
d="M1016 0h-213l-98 387h-390l-98 -387h-197l394 1395q-90 56 -90 166q0 81 58.5 137.5t137.5 56.5q84 0 139.5 -55.5t55.5 -138.5q0 -52 -24 -95.5t-66 -68.5zM666 543l-82 321q-31 123 -41 165t-19.5 95t-11.5 99h-2q-4 -69 -18 -137t-54 -220l-84 -323h312zM608 1561
q0 42 -24.5 68t-63.5 26t-63.5 -26t-24.5 -68q0 -40 24.5 -67.5t63.5 -27.5t63.5 27.5t24.5 67.5z" />
    <glyph glyph-name="AE" unicode="&#xc6;" horiz-adv-x="1484" 
d="M1393 0h-662v377h-364l-160 -377h-203l629 1403h706v-158h-424v-426h396v-155h-396v-504h478v-160zM733 1257h-2q-7 -29 -41 -104l-260 -621h301v611q0 86 2 114z" />
    <glyph glyph-name="Ccedilla" unicode="&#xc7;" horiz-adv-x="1003" 
d="M926 367q-6 -163 -92.5 -265.5t-251.5 -117.5l-29 -99q10 2 31 2q69 0 113 -40.5t44 -110.5q0 -77 -56 -129.5t-155 -52.5q-96 0 -184 34l23 103q77 -41 145 -41q117 0 117 84q0 76 -121 76q-22 0 -76 -7l51 181q-204 15 -303.5 189t-99.5 532q0 186 35 326t98.5 224
t146 125t183.5 41q166 0 263 -94t114 -274h-183q-12 106 -64.5 156.5t-135.5 50.5q-124 0 -195.5 -132.5t-71.5 -422.5q0 -293 64 -426.5t199 -133.5q187 0 206 222h185z" />
    <glyph glyph-name="Egrave" unicode="&#xc8;" horiz-adv-x="972" 
d="M881 0h-715v1403h688v-160h-500v-424h465v-157h-465v-498h527v-164zM645 1604l-61 -101l-346 187l90 141z" />
    <glyph glyph-name="Eacute" unicode="&#xc9;" horiz-adv-x="972" 
d="M881 0h-715v1403h688v-160h-500v-424h465v-157h-465v-498h527v-164zM788 1690l-346 -187l-61 101l317 227z" />
    <glyph glyph-name="Ecircumflex" unicode="&#xca;" horiz-adv-x="972" 
d="M881 0h-715v1403h688v-160h-500v-424h465v-157h-465v-498h527v-164zM797 1585l-58 -92l-241 149l-232 -145l-55 88l293 234z" />
    <glyph glyph-name="Edieresis" unicode="&#xcb;" horiz-adv-x="972" 
d="M881 0h-715v1403h688v-160h-500v-424h465v-157h-465v-498h527v-164zM801 1640q0 -45 -30.5 -76.5t-76.5 -31.5q-45 0 -74.5 31.5t-29.5 76.5q0 48 29 79.5t75 31.5t76.5 -31.5t30.5 -79.5zM424 1640q0 -45 -30 -76.5t-75 -31.5q-46 0 -76 31.5t-30 76.5q0 48 29.5 79.5
t76.5 31.5q45 0 75 -31.5t30 -79.5z" />
    <glyph glyph-name="Igrave" unicode="&#xcc;" horiz-adv-x="649" 
d="M573 0h-497v164h155v1079h-155v160h497v-160h-153v-1079h153v-164zM451 1604l-62 -101l-346 187l90 141z" />
    <glyph glyph-name="Iacute" unicode="&#xcd;" horiz-adv-x="649" 
d="M573 0h-497v164h155v1079h-155v160h497v-160h-153v-1079h153v-164zM604 1690l-346 -187l-61 101l317 227z" />
    <glyph glyph-name="Icircumflex" unicode="&#xce;" horiz-adv-x="649" 
d="M573 0h-497v164h155v1079h-155v160h497v-160h-153v-1079h153v-164zM618 1585l-57 -92l-242 149l-231 -145l-55 88l293 234z" />
    <glyph glyph-name="Idieresis" unicode="&#xcf;" horiz-adv-x="649" 
d="M573 0h-497v164h155v1079h-155v160h497v-160h-153v-1079h153v-164zM618 1640q0 -45 -30.5 -76.5t-75.5 -31.5t-74.5 31.5t-29.5 76.5q0 48 29 79.5t75 31.5t76 -31.5t30 -79.5zM242 1640q0 -45 -30 -76.5t-75 -31.5q-46 0 -76 31.5t-30 76.5q0 48 29.5 79.5t76.5 31.5
q45 0 75 -31.5t30 -79.5z" />
    <glyph glyph-name="Eth" unicode="&#xd0;" horiz-adv-x="1110" 
d="M1028 709q0 -371 -119.5 -540t-382.5 -169h-331v672h-175v159h175v572h348q258 0 371.5 -161.5t113.5 -532.5zM834 705q0 153 -16 253t-54.5 165t-99.5 92.5t-154 27.5h-127v-412h192v-159h-192v-510h129q181 0 251.5 120.5t70.5 422.5z" />
    <glyph glyph-name="Ntilde" unicode="&#xd1;" horiz-adv-x="1210" 
d="M1044 0h-219l-288 635q-140 307 -211 528l-4 -2q15 -248 18 -635l2 -526h-176v1403h225l283 -625q84 -189 129 -298.5t84 -229.5l4 2q-16 228 -19 637l-2 514h174v-1403zM893 1610q-74 -84 -178 -84q-54 0 -116 27.5t-99 27.5q-72 0 -127 -55l-56 106q75 84 181 84
q52 0 114 -27.5t99 -27.5q72 0 127 55z" />
    <glyph glyph-name="Ograve" unicode="&#xd2;" horiz-adv-x="1069" 
d="M987 700q0 -359 -121.5 -538.5t-341.5 -179.5q-218 0 -330 175t-112 543q0 360 122.5 540.5t340.5 180.5q219 0 330.5 -175.5t111.5 -545.5zM797 702q0 286 -63 423t-195 137q-127 0 -197 -128.5t-70 -394.5q0 -303 61 -448.5t197 -145.5t201.5 139t65.5 418zM686 1604
l-61 -101l-346 187l90 141z" />
    <glyph glyph-name="Oacute" unicode="&#xd3;" horiz-adv-x="1069" 
d="M987 700q0 -359 -121.5 -538.5t-341.5 -179.5q-218 0 -330 175t-112 543q0 360 122.5 540.5t340.5 180.5q219 0 330.5 -175.5t111.5 -545.5zM797 702q0 286 -63 423t-195 137q-127 0 -197 -128.5t-70 -394.5q0 -303 61 -448.5t197 -145.5t201.5 139t65.5 418zM850 1690
l-346 -187l-62 101l318 227z" />
    <glyph glyph-name="Ocircumflex" unicode="&#xd4;" horiz-adv-x="1069" 
d="M987 700q0 -359 -121.5 -538.5t-341.5 -179.5q-218 0 -330 175t-112 543q0 360 122.5 540.5t340.5 180.5q219 0 330.5 -175.5t111.5 -545.5zM797 702q0 286 -63 423t-195 137q-127 0 -197 -128.5t-70 -394.5q0 -303 61 -448.5t197 -145.5t201.5 139t65.5 418zM834 1585
l-58 -92l-241 149l-232 -145l-55 88l293 234z" />
    <glyph glyph-name="Otilde" unicode="&#xd5;" horiz-adv-x="1069" 
d="M987 700q0 -359 -121.5 -538.5t-341.5 -179.5q-218 0 -330 175t-112 543q0 360 122.5 540.5t340.5 180.5q219 0 330.5 -175.5t111.5 -545.5zM797 702q0 286 -63 423t-195 137q-127 0 -197 -128.5t-70 -394.5q0 -303 61 -448.5t197 -145.5t201.5 139t65.5 418zM821 1610
q-74 -84 -178 -84q-54 0 -116 27.5t-99 27.5q-72 0 -127 -55l-55 106q74 84 180 84q52 0 114 -27.5t99 -27.5q72 0 127 55z" />
    <glyph glyph-name="Odieresis" unicode="&#xd6;" horiz-adv-x="1069" 
d="M987 700q0 -359 -121.5 -538.5t-341.5 -179.5q-218 0 -330 175t-112 543q0 360 122.5 540.5t340.5 180.5q219 0 330.5 -175.5t111.5 -545.5zM797 702q0 286 -63 423t-195 137q-127 0 -197 -128.5t-70 -394.5q0 -303 61 -448.5t197 -145.5t201.5 139t65.5 418zM834 1640
q0 -45 -31 -76.5t-76 -31.5t-74.5 31.5t-29.5 76.5q0 48 29 79.5t75 31.5t76.5 -31.5t30.5 -79.5zM457 1640q0 -45 -30 -76.5t-75 -31.5q-46 0 -76 31.5t-30 76.5q0 48 29.5 79.5t76.5 31.5q45 0 75 -31.5t30 -79.5z" />
    <glyph glyph-name="multiply" unicode="&#xd7;" horiz-adv-x="1198" 
d="M479 512l-346 344l123 121l344 -346l342 344l115 -117l-344 -340l356 -352l-123 -121l-354 354l-348 -352l-115 117z" />
    <glyph glyph-name="Oslash" unicode="&#xd8;" horiz-adv-x="1069" 
d="M989 1403l-100 -180q98 -176 98 -521q0 -362 -121 -541t-342 -179q-162 0 -264 96l-80 -146l-110 68l104 190q-92 179 -92 512q0 361 122 540t341 179q157 0 256 -90l73 137zM797 702q0 173 -29 297l-416 -749q62 -105 178 -105q136 0 201.5 139t65.5 418zM713 1167
q-64 95 -174 95q-127 0 -197 -128.5t-70 -394.5q0 -194 29 -319z" />
    <glyph glyph-name="Ugrave" unicode="&#xd9;" horiz-adv-x="1120" 
d="M965 424q0 -217 -110 -329.5t-300 -112.5q-399 0 -399 442v979h188v-975q0 -283 219 -283q116 0 165.5 74t49.5 207v977h187v-979zM696 1604l-61 -101l-346 187l90 141z" />
    <glyph glyph-name="Uacute" unicode="&#xda;" horiz-adv-x="1120" 
d="M965 424q0 -217 -110 -329.5t-300 -112.5q-399 0 -399 442v979h188v-975q0 -283 219 -283q116 0 165.5 74t49.5 207v977h187v-979zM850 1690l-346 -187l-62 101l318 227z" />
    <glyph glyph-name="Ucircumflex" unicode="&#xdb;" horiz-adv-x="1120" 
d="M965 424q0 -217 -110 -329.5t-300 -112.5q-399 0 -399 442v979h188v-975q0 -283 219 -283q116 0 165.5 74t49.5 207v977h187v-979zM854 1585l-57 -92l-242 149l-231 -145l-56 88l293 234z" />
    <glyph glyph-name="Udieresis" unicode="&#xdc;" horiz-adv-x="1120" 
d="M965 424q0 -217 -110 -329.5t-300 -112.5q-399 0 -399 442v979h188v-975q0 -283 219 -283q116 0 165.5 74t49.5 207v977h187v-979zM858 1640q0 -45 -30.5 -76.5t-75.5 -31.5q-46 0 -75.5 31.5t-29.5 76.5q0 48 29.5 79.5t75.5 31.5t76 -31.5t30 -79.5zM481 1640
q0 -45 -30 -76.5t-74 -31.5q-47 0 -77 31.5t-30 76.5q0 48 29.5 79.5t77.5 31.5q44 0 74 -31.5t30 -79.5z" />
    <glyph glyph-name="Yacute" unicode="&#xdd;" horiz-adv-x="942" 
d="M915 1403l-344 -809v-594h-188v575l-356 828h215l174 -445q36 -91 48 -129t15 -73h2q4 36 15 71t47 131l168 445h204zM805 1690l-346 -187l-62 101l318 227z" />
    <glyph glyph-name="Thorn" unicode="&#xde;" horiz-adv-x="1019" 
d="M948 745q0 -216 -124 -334t-347 -118h-123v-293h-188v1403h188v-234h166q212 0 320 -106.5t108 -317.5zM752 743q0 136 -64 201.5t-199 65.5h-135v-553h133q127 0 196 71.5t69 214.5z" />
    <glyph glyph-name="germandbls" unicode="&#xdf;" horiz-adv-x="1048" 
d="M985 418q0 -204 -98.5 -320t-259.5 -116q-100 0 -193 36l45 164q72 -35 127 -35q89 0 138 69.5t49 205.5q0 148 -76 219t-230 74v145q114 17 166 86.5t52 190.5q0 89 -47.5 138.5t-129.5 49.5q-106 0 -155 -56t-49 -192v-1077h-181v1075q0 402 394 402q173 0 263.5 -90
t90.5 -234q0 -255 -227 -338v-2q150 -17 235.5 -121t85.5 -274z" />
    <glyph glyph-name="agrave" unicode="&#xe0;" horiz-adv-x="933" 
d="M834 0h-168q-16 65 -23 150l-2 2q-44 -79 -116 -124.5t-171 -45.5q-133 0 -217 83t-84 242q0 170 101 260t264 90q76 0 153 -22l41 -12v73q0 98 -48 149.5t-144 51.5q-101 0 -227 -57l-48 141q158 61 304 61q173 0 259.5 -89t86.5 -240v-377q0 -176 39 -336zM614 399v93
l-32 12q-69 24 -142 24q-89 0 -143.5 -56t-54.5 -153q0 -86 43 -134t121 -48q92 0 150 75t58 187zM614 1286l-61 -100l-346 186l90 141z" />
    <glyph glyph-name="aacute" unicode="&#xe1;" horiz-adv-x="933" 
d="M834 0h-168q-16 65 -23 150l-2 2q-44 -79 -116 -124.5t-171 -45.5q-133 0 -217 83t-84 242q0 170 101 260t264 90q76 0 153 -22l41 -12v73q0 98 -48 149.5t-144 51.5q-101 0 -227 -57l-48 141q158 61 304 61q173 0 259.5 -89t86.5 -240v-377q0 -176 39 -336zM614 399v93
l-32 12q-69 24 -142 24q-89 0 -143.5 -56t-54.5 -153q0 -86 43 -134t121 -48q92 0 150 75t58 187zM754 1372l-346 -186l-62 100l318 227z" />
    <glyph glyph-name="acircumflex" unicode="&#xe2;" horiz-adv-x="933" 
d="M834 0h-168q-16 65 -23 150l-2 2q-44 -79 -116 -124.5t-171 -45.5q-133 0 -217 83t-84 242q0 170 101 260t264 90q76 0 153 -22l41 -12v73q0 98 -48 149.5t-144 51.5q-101 0 -227 -57l-48 141q158 61 304 61q173 0 259.5 -89t86.5 -240v-377q0 -176 39 -336zM614 399v93
l-32 12q-69 24 -142 24q-89 0 -143.5 -56t-54.5 -153q0 -86 43 -134t121 -48q92 0 150 75t58 187zM752 1268l-58 -92l-241 149l-232 -145l-55 88l293 233z" />
    <glyph glyph-name="atilde" unicode="&#xe3;" horiz-adv-x="933" 
d="M834 0h-168q-16 65 -23 150l-2 2q-44 -79 -116 -124.5t-171 -45.5q-133 0 -217 83t-84 242q0 170 101 260t264 90q76 0 153 -22l41 -12v73q0 98 -48 149.5t-144 51.5q-101 0 -227 -57l-48 141q158 61 304 61q173 0 259.5 -89t86.5 -240v-377q0 -176 39 -336zM614 399v93
l-32 12q-69 24 -142 24q-89 0 -143.5 -56t-54.5 -153q0 -86 43 -134t121 -48q92 0 150 75t58 187zM754 1323q-77 -84 -179 -84q-54 0 -116 27.5t-99 27.5q-72 0 -127 -55l-55 107q75 84 180 84q53 0 114.5 -28t98.5 -28q73 0 127 56z" />
    <glyph glyph-name="adieresis" unicode="&#xe4;" horiz-adv-x="933" 
d="M834 0h-168q-16 65 -23 150l-2 2q-44 -79 -116 -124.5t-171 -45.5q-133 0 -217 83t-84 242q0 170 101 260t264 90q76 0 153 -22l41 -12v73q0 98 -48 149.5t-144 51.5q-101 0 -227 -57l-48 141q158 61 304 61q173 0 259.5 -89t86.5 -240v-377q0 -176 39 -336zM614 399v93
l-32 12q-69 24 -142 24q-89 0 -143.5 -56t-54.5 -153q0 -86 43 -134t121 -48q92 0 150 75t58 187zM762 1333q0 -45 -30.5 -76.5t-76.5 -31.5q-45 0 -74.5 31.5t-29.5 76.5q0 48 29 79.5t75 31.5t76.5 -31.5t30.5 -79.5zM385 1333q0 -45 -30 -76.5t-74 -31.5q-47 0 -77 31.5
t-30 76.5q0 48 29.5 79.5t77.5 31.5q44 0 74 -31.5t30 -79.5z" />
    <glyph glyph-name="aring" unicode="&#xe5;" horiz-adv-x="933" 
d="M834 0h-168q-16 65 -23 150l-2 2q-44 -79 -116 -124.5t-171 -45.5q-133 0 -217 83t-84 242q0 170 101 260t264 90q76 0 153 -22l41 -12v73q0 98 -48 149.5t-144 51.5q-101 0 -227 -57l-48 141q158 61 304 61q173 0 259.5 -89t86.5 -240v-377q0 -176 39 -336zM614 399v93
l-32 12q-69 24 -142 24q-89 0 -143.5 -56t-54.5 -153q0 -86 43 -134t121 -48q92 0 150 75t58 187zM686 1352q0 -81 -56 -138t-138 -57q-83 0 -140 56t-57 139q0 81 58.5 137.5t138.5 56.5q84 0 139 -55.5t55 -138.5zM580 1352q0 42 -24.5 68t-63.5 26q-40 0 -64.5 -26
t-24.5 -68q0 -40 24.5 -67.5t64.5 -27.5q39 0 63.5 27.5t24.5 67.5z" />
    <glyph glyph-name="ae" unicode="&#xe6;" horiz-adv-x="1486" 
d="M1411 473h-618q11 -157 78.5 -246.5t193.5 -89.5q110 0 270 90l60 -147q-188 -98 -357 -98q-238 0 -350 180h-2q-54 -87 -137 -133.5t-184 -46.5q-141 0 -226.5 82.5t-85.5 242.5q0 170 101 260t264 90q76 0 153 -22l41 -12v73q0 98 -48 149.5t-144 51.5q-101 0 -227 -57
l-48 141q158 61 304 61q199 0 286 -122q111 122 283 122q190 0 291.5 -133.5t101.5 -378.5v-57zM614 399v93l-32 12q-69 24 -142 24q-89 0 -143.5 -56t-54.5 -153q0 -86 43 -134t121 -48q92 0 150 75t58 187zM1227 614q-10 135 -64 210t-149 75q-91 0 -149 -76.5t-70 -208.5
h432z" />
    <glyph glyph-name="ccedilla" unicode="&#xe7;" horiz-adv-x="878" 
d="M838 141q-138 -148 -322 -159l-29 -97q11 2 31 2q69 0 113.5 -40.5t44.5 -110.5q0 -77 -56 -129.5t-155 -52.5q-96 0 -184 34l22 103q77 -41 146 -41q116 0 116 84q0 76 -121 76q-23 0 -75 -7l51 183q-173 23 -262.5 156t-89.5 368q0 249 117.5 390.5t318.5 141.5
q183 0 311 -131l-106 -112q-82 96 -199 96q-126 0 -190 -97.5t-64 -285.5q0 -181 64 -280t188 -99q125 0 227 125z" />
    <glyph glyph-name="egrave" unicode="&#xe8;" horiz-adv-x="950" 
d="M874 473h-618q11 -157 78.5 -246.5t193.5 -89.5q109 0 271 90l59 -147q-188 -98 -356 -98q-114 0 -199.5 41.5t-135.5 115.5t-74.5 167.5t-24.5 205.5q0 243 113 386.5t300 143.5q190 0 291.5 -133.5t101.5 -378.5v-57zM690 614q-9 135 -63.5 210t-149.5 75
q-91 0 -149 -76.5t-70 -208.5h432zM614 1286l-61 -100l-346 186l90 141z" />
    <glyph glyph-name="eacute" unicode="&#xe9;" horiz-adv-x="950" 
d="M874 473h-618q11 -157 78.5 -246.5t193.5 -89.5q109 0 271 90l59 -147q-188 -98 -356 -98q-114 0 -199.5 41.5t-135.5 115.5t-74.5 167.5t-24.5 205.5q0 243 113 386.5t300 143.5q190 0 291.5 -133.5t101.5 -378.5v-57zM690 614q-9 135 -63.5 210t-149.5 75
q-91 0 -149 -76.5t-70 -208.5h432zM799 1372l-346 -186l-62 100l318 227z" />
    <glyph glyph-name="ecircumflex" unicode="&#xea;" horiz-adv-x="950" 
d="M874 473h-618q11 -157 78.5 -246.5t193.5 -89.5q109 0 271 90l59 -147q-188 -98 -356 -98q-114 0 -199.5 41.5t-135.5 115.5t-74.5 167.5t-24.5 205.5q0 243 113 386.5t300 143.5q190 0 291.5 -133.5t101.5 -378.5v-57zM690 614q-9 135 -63.5 210t-149.5 75
q-91 0 -149 -76.5t-70 -208.5h432zM778 1268l-57 -92l-242 149l-231 -145l-55 88l292 233z" />
    <glyph glyph-name="edieresis" unicode="&#xeb;" horiz-adv-x="950" 
d="M874 473h-618q11 -157 78.5 -246.5t193.5 -89.5q109 0 271 90l59 -147q-188 -98 -356 -98q-114 0 -199.5 41.5t-135.5 115.5t-74.5 167.5t-24.5 205.5q0 243 113 386.5t300 143.5q190 0 291.5 -133.5t101.5 -378.5v-57zM690 614q-9 135 -63.5 210t-149.5 75
q-91 0 -149 -76.5t-70 -208.5h432zM772 1333q0 -45 -30.5 -76.5t-75.5 -31.5q-46 0 -75.5 31.5t-29.5 76.5q0 48 29.5 79.5t75.5 31.5t76 -31.5t30 -79.5zM395 1333q0 -45 -30 -76.5t-74 -31.5q-47 0 -77 31.5t-30 76.5q0 48 29.5 79.5t77.5 31.5q44 0 74 -31.5t30 -79.5z
" />
    <glyph glyph-name="igrave" unicode="&#xec;" horiz-adv-x="509" 
d="M367 0h-181v879h-161v145h342v-1024zM399 1286l-61 -100l-346 186l90 141z" />
    <glyph glyph-name="iacute" unicode="&#xed;" horiz-adv-x="509" 
d="M367 0h-181v879h-161v145h342v-1024zM512 1372l-346 -186l-62 100l318 227z" />
    <glyph glyph-name="icircumflex" unicode="&#xee;" horiz-adv-x="509" 
d="M369 0h-181v879h-161v145h342v-1024zM528 1268l-57 -92l-242 149l-231 -145l-55 88l293 233z" />
    <glyph glyph-name="idieresis" unicode="&#xef;" horiz-adv-x="509" 
d="M369 0h-181v879h-161v145h342v-1024zM518 1333q0 -45 -30.5 -76.5t-75.5 -31.5q-46 0 -75.5 31.5t-29.5 76.5q0 48 29.5 79.5t75.5 31.5t76 -31.5t30 -79.5zM141 1333q0 -45 -30 -76.5t-74 -31.5q-47 0 -77 31.5t-30 76.5q0 48 29.5 79.5t77.5 31.5q44 0 74 -31.5
t30 -79.5z" />
    <glyph glyph-name="eth" unicode="&#xf0;" horiz-adv-x="974" 
d="M907 569q0 -277 -105.5 -432t-316.5 -155q-417 0 -417 512q0 245 110.5 378.5t292.5 133.5q135 0 205 -91l2 3q-43 152 -152 264l-188 -131l-84 114l160 113q-68 43 -166 82l69 135q142 -48 240 -119l176 125l86 -115l-151 -106q239 -242 239 -711zM717 514
q0 168 -58.5 257t-169.5 89q-229 0 -229 -364q0 -365 227 -365q111 0 170 96.5t60 286.5z" />
    <glyph glyph-name="ntilde" unicode="&#xf1;" horiz-adv-x="1013" 
d="M881 0h-181v682q0 111 -32 157t-101 46q-97 0 -167 -107.5t-70 -261.5v-516h-180v688q0 170 -39 336h165q22 -88 27 -195l2 -2q43 104 122 159.5t189 55.5q134 0 199.5 -85t65.5 -228v-729zM791 1323q-77 -84 -179 -84q-54 0 -116 27.5t-99 27.5q-72 0 -127 -55l-55 107
q75 84 180 84q53 0 114.5 -28t98.5 -28q71 0 127 56z" />
    <glyph glyph-name="ograve" unicode="&#xf2;" horiz-adv-x="972" 
d="M905 512q0 -247 -115 -388.5t-307 -141.5q-200 0 -307.5 135.5t-107.5 392.5q0 248 115.5 390t308.5 142q200 0 306.5 -135.5t106.5 -394.5zM717 514q0 188 -59.5 284.5t-170.5 96.5q-112 0 -171.5 -95.5t-59.5 -285.5t60 -286.5t169 -96.5q113 0 172.5 96t59.5 287z
M618 1286l-61 -100l-346 186l90 141z" />
    <glyph glyph-name="oacute" unicode="&#xf3;" horiz-adv-x="972" 
d="M905 512q0 -247 -115 -388.5t-307 -141.5q-200 0 -307.5 135.5t-107.5 392.5q0 248 115.5 390t308.5 142q200 0 306.5 -135.5t106.5 -394.5zM717 514q0 188 -59.5 284.5t-170.5 96.5q-112 0 -171.5 -95.5t-59.5 -285.5t60 -286.5t169 -96.5q113 0 172.5 96t59.5 287z
M799 1372l-346 -186l-62 100l318 227z" />
    <glyph glyph-name="ocircumflex" unicode="&#xf4;" horiz-adv-x="972" 
d="M905 512q0 -247 -115 -388.5t-307 -141.5q-200 0 -307.5 135.5t-107.5 392.5q0 248 115.5 390t308.5 142q200 0 306.5 -135.5t106.5 -394.5zM717 514q0 188 -59.5 284.5t-170.5 96.5q-112 0 -171.5 -95.5t-59.5 -285.5t60 -286.5t169 -96.5q113 0 172.5 96t59.5 287z
M791 1268l-58 -92l-241 149l-232 -145l-55 88l293 233z" />
    <glyph glyph-name="otilde" unicode="&#xf5;" horiz-adv-x="972" 
d="M905 512q0 -247 -115 -388.5t-307 -141.5q-200 0 -307.5 135.5t-107.5 392.5q0 248 115.5 390t308.5 142q200 0 306.5 -135.5t106.5 -394.5zM717 514q0 188 -59.5 284.5t-170.5 96.5q-112 0 -171.5 -95.5t-59.5 -285.5t60 -286.5t169 -96.5q113 0 172.5 96t59.5 287z
M772 1323q-75 -84 -178 -84q-54 0 -116 27.5t-99 27.5q-72 0 -127 -55l-55 107q75 84 180 84q53 0 114 -28t99 -28q71 0 127 56z" />
    <glyph glyph-name="odieresis" unicode="&#xf6;" horiz-adv-x="972" 
d="M905 512q0 -247 -115 -388.5t-307 -141.5q-200 0 -307.5 135.5t-107.5 392.5q0 248 115.5 390t308.5 142q200 0 306.5 -135.5t106.5 -394.5zM717 514q0 188 -59.5 284.5t-170.5 96.5q-112 0 -171.5 -95.5t-59.5 -285.5t60 -286.5t169 -96.5q113 0 172.5 96t59.5 287z
M782 1333q0 -45 -30.5 -76.5t-75.5 -31.5q-46 0 -75.5 31.5t-29.5 76.5q0 48 29.5 79.5t75.5 31.5t76 -31.5t30 -79.5zM406 1333q0 -45 -30.5 -76.5t-74.5 -31.5q-46 0 -76 31.5t-30 76.5q0 48 29.5 79.5t76.5 31.5q45 0 75 -31.5t30 -79.5z" />
    <glyph glyph-name="divide" unicode="&#xf7;" horiz-adv-x="1282" 
d="M1143 444h-1004v156h1004v-156zM778 907q0 -60 -38.5 -100.5t-98.5 -40.5q-58 0 -97.5 40.5t-39.5 100.5q0 59 39.5 100.5t97.5 41.5q59 0 98 -41.5t39 -100.5zM778 123q0 -59 -39 -100t-98 -41q-58 0 -97.5 41t-39.5 100q0 60 39.5 100.5t97.5 40.5q60 0 98.5 -40.5
t38.5 -100.5z" />
    <glyph glyph-name="oslash" unicode="&#xf8;" horiz-adv-x="974" 
d="M907 1047l-100 -152q98 -136 98 -383t-115 -388.5t-307 -141.5q-134 0 -231 63l-94 -141l-103 71l107 160q-94 133 -94 375q0 248 115.5 390t308.5 142q133 0 225 -61l86 133zM717 514q0 123 -25 207l-348 -533q56 -57 141 -57q113 0 172.5 96t59.5 287zM625 842
q-56 53 -138 53q-112 0 -171.5 -95.5t-59.5 -285.5q0 -115 23 -201z" />
    <glyph glyph-name="ugrave" unicode="&#xf9;" horiz-adv-x="1015" 
d="M905 0h-166q-21 92 -26 195l-2 2q-92 -215 -312 -215q-134 0 -199 85t-65 228v729h180v-682q0 -111 32 -157t102 -46q98 0 167.5 106.5t69.5 260.5v518h180v-688q0 -170 39 -336zM645 1286l-61 -100l-346 186l90 141z" />
    <glyph glyph-name="uacute" unicode="&#xfa;" horiz-adv-x="1015" 
d="M905 0h-166q-21 92 -26 195l-2 2q-92 -215 -312 -215q-134 0 -199 85t-65 228v729h180v-682q0 -111 32 -157t102 -46q98 0 167.5 106.5t69.5 260.5v518h180v-688q0 -170 39 -336zM778 1372l-346 -186l-61 100l317 227z" />
    <glyph glyph-name="ucircumflex" unicode="&#xfb;" horiz-adv-x="1015" 
d="M905 0h-166q-21 92 -26 195l-2 2q-92 -215 -312 -215q-134 0 -199 85t-65 228v729h180v-682q0 -111 32 -157t102 -46q98 0 167.5 106.5t69.5 260.5v518h180v-688q0 -170 39 -336zM795 1268l-58 -92l-241 149l-232 -145l-55 88l293 233z" />
    <glyph glyph-name="udieresis" unicode="&#xfc;" horiz-adv-x="1015" 
d="M905 0h-166q-21 92 -26 195l-2 2q-92 -215 -312 -215q-134 0 -199 85t-65 228v729h180v-682q0 -111 32 -157t102 -46q98 0 167.5 106.5t69.5 260.5v518h180v-688q0 -170 39 -336zM797 1333q0 -45 -30.5 -76.5t-76.5 -31.5q-45 0 -74.5 31.5t-29.5 76.5q0 48 29 79.5
t75 31.5t76.5 -31.5t30.5 -79.5zM420 1333q0 -45 -30 -76.5t-75 -31.5q-46 0 -76 31.5t-30 76.5q0 48 29.5 79.5t76.5 31.5q45 0 75 -31.5t30 -79.5z" />
    <glyph glyph-name="yacute" unicode="&#xfd;" horiz-adv-x="870" 
d="M840 1024l-379 -1169q-23 -72 -49 -122t-63 -90t-88 -59.5t-118 -19.5q-79 0 -144 21t-142 63l67 145q41 -24 65 -37t63 -25t75 -12q69 0 106 40t70 145l47 147l-317 973h194l107 -369q16 -54 37.5 -126.5t30 -101.5t18.5 -67.5t14 -61t6 -44.5h4q3 27 11 63t18 70
t34 115.5t44 152.5l104 369h185zM772 1372l-346 -186l-61 100l317 227z" />
    <glyph glyph-name="thorn" unicode="&#xfe;" horiz-adv-x="991" 
d="M924 514q0 -254 -103 -393t-280 -139q-136 0 -228 86l-2 -2q13 -95 13 -293v-215h-181v1908h181v-247q0 -205 -17 -293l2 -2q107 118 256 118q169 0 264 -130t95 -398zM735 516q0 178 -55.5 275.5t-155.5 97.5q-65 0 -116.5 -37t-83.5 -102v-510q80 -101 196 -101
q108 0 161.5 98t53.5 279z" />
    <glyph glyph-name="ydieresis" unicode="&#xff;" horiz-adv-x="870" 
d="M840 1024l-379 -1169q-23 -72 -49 -122t-63 -90t-88 -59.5t-118 -19.5q-79 0 -144 21t-142 63l67 145q41 -24 65 -37t63 -25t75 -12q69 0 106 40t70 145l47 147l-317 973h194l107 -369q16 -54 37.5 -126.5t30 -101.5t18.5 -67.5t14 -61t6 -44.5h4q3 27 11 63t18 70
t34 115.5t44 152.5l104 369h185zM731 1333q0 -45 -30.5 -76.5t-75.5 -31.5q-46 0 -75.5 31.5t-29.5 76.5q0 48 29.5 79.5t75.5 31.5t76 -31.5t30 -79.5zM354 1333q0 -45 -30 -76.5t-74 -31.5q-47 0 -77 31.5t-30 76.5q0 48 29.5 79.5t77.5 31.5q44 0 74 -31.5t30 -79.5z" />
    <glyph glyph-name="dotlessi" unicode="&#x131;" horiz-adv-x="509" 
d="M367 0h-181v879h-161v145h342v-1024z" />
    <glyph glyph-name="Lslash" unicode="&#x141;" horiz-adv-x="991" 
d="M969 0h-725v578l-183 -50l-41 158l224 59v658h188v-608l227 61l41 -156l-268 -71v-467h537v-162z" />
    <glyph glyph-name="lslash" unicode="&#x142;" horiz-adv-x="700" 
d="M680 670l-238 -64v-606h-180v559l-201 -53l-41 151l242 64v600h-162v145h342v-696l197 53z" />
    <glyph glyph-name="OE" unicode="&#x152;" horiz-adv-x="1443" 
d="M1352 0h-555q-83 0 -155 -9t-118 -9q-442 0 -442 720q0 361 122 540t341 179q52 0 117.5 -9t146.5 -9h514v-160h-451v-424h418v-155h-418v-500h480v-164zM684 199v1020q-67 43 -145 43q-127 0 -197 -128.5t-70 -394.5q0 -303 61 -448.5t197 -145.5q48 0 80.5 12t73.5 42z
" />
    <glyph glyph-name="oe" unicode="&#x153;" horiz-adv-x="1591" 
d="M1516 473h-619q9 -156 78 -246t194 -90q101 0 269 90l59 -149q-99 -49 -180 -72.5t-174 -23.5q-236 0 -340 174h-2q-48 -79 -128.5 -126.5t-189.5 -47.5q-200 0 -307.5 135.5t-107.5 392.5q0 248 115.5 390t308.5 142q230 0 323 -165h2q47 76 125.5 120.5t179.5 44.5
q190 0 292 -133.5t102 -378.5v-57zM717 514q0 188 -59.5 284.5t-170.5 96.5q-112 0 -171.5 -95.5t-59.5 -285.5t60 -286.5t169 -96.5q113 0 172.5 96t59.5 287zM1329 616q-10 138 -64 209.5t-147 71.5q-90 0 -148.5 -75.5t-70.5 -205.5h430z" />
    <glyph glyph-name="Scaron" unicode="&#x160;" horiz-adv-x="970" 
d="M889 385q0 -174 -114 -288.5t-308 -114.5q-201 0 -412 147l103 158q90 -69 163 -102t154 -33q98 0 157.5 53.5t59.5 154.5q0 65 -32.5 118t-85 90.5t-115.5 73t-126 74.5t-115.5 84.5t-85 112.5t-32.5 150q0 160 105.5 259t292.5 99q182 0 354 -123l-92 -143
q-144 105 -260 105q-102 0 -153.5 -47.5t-51.5 -133.5q0 -56 33 -102t85 -80.5t115.5 -68t127 -74t115.5 -88t85 -120t33 -161.5zM774 1726l-293 -233l-293 233l58 91l241 -150l232 148z" />
    <glyph glyph-name="scaron" unicode="&#x161;" horiz-adv-x="788" 
d="M723 285q0 -137 -90.5 -220t-239.5 -83q-188 0 -350 106l82 154q80 -56 138 -80.5t124 -24.5q70 0 112 35t42 92q0 48 -25 83.5t-65.5 59t-89.5 44.5t-97.5 46.5t-89 58t-65.5 86t-25 124.5q0 128 87.5 203t229.5 75q154 0 301 -90l-73 -137q-124 80 -221 80
q-70 0 -108 -34t-38 -87q0 -42 25.5 -74.5t66 -54t89.5 -42t98.5 -46.5t90 -59.5t66 -88.5t25.5 -126zM684 1399l-293 -234l-293 234l58 90l241 -150l232 148z" />
    <glyph glyph-name="Ydieresis" unicode="&#x178;" horiz-adv-x="942" 
d="M915 1403l-344 -809v-594h-188v575l-356 828h215l174 -445q36 -91 48 -129t15 -73h2q4 36 15 71t47 131l168 445h204zM768 1640q0 -45 -30.5 -76.5t-75.5 -31.5q-46 0 -75.5 31.5t-29.5 76.5q0 48 29.5 79.5t75.5 31.5t76 -31.5t30 -79.5zM391 1640q0 -45 -30 -76.5
t-74 -31.5q-47 0 -77 31.5t-30 76.5q0 48 29.5 79.5t77.5 31.5q44 0 74 -31.5t30 -79.5z" />
    <glyph glyph-name="Zcaron" unicode="&#x17d;" horiz-adv-x="925" 
d="M854 0h-784v143l573 1096l-2 2q-39 -6 -250 -6h-291v168h754v-143l-569 -1092q43 4 247 4h322v-172zM778 1726l-293 -233l-292 233l57 91l242 -150l231 148z" />
    <glyph glyph-name="zcaron" unicode="&#x17e;" horiz-adv-x="841" 
d="M774 0h-708v133l477 733l-2 2q-41 -4 -203 -4h-238v160h658v-133l-471 -731l2 -2q39 6 203 6h282v-164zM731 1399l-293 -234l-293 234l58 90l241 -150l232 148z" />
    <glyph glyph-name="florin" unicode="&#x192;" horiz-adv-x="1058" 
d="M1018 1333l-23 -157q-106 43 -174 43q-104 0 -152.5 -56t-66.5 -180l-33 -225h269v-142h-287l-98 -684q-28 -191 -116.5 -279.5t-248.5 -88.5q-64 0 -111.5 9t-115.5 30l22 159q112 -41 174 -41q103 0 151.5 56t65.5 178l97 661h-215v142h233l35 246q28 191 116.5 279.5
t250.5 88.5q64 0 111.5 -9t115.5 -30z" />
    <glyph glyph-name="uni02BB" unicode="&#x2bb;" horiz-adv-x="417" 
d="M301 1217q0 -57 -37.5 -95.5t-95.5 -38.5q-69 0 -114.5 54.5t-45.5 154.5q0 131 73 210t191 79h9v-90q-76 -3 -117.5 -41.5t-50.5 -120.5q27 23 65 23q54 0 88.5 -40.5t34.5 -94.5z" />
    <glyph glyph-name="afii57929" unicode="&#x2bc;" horiz-adv-x="434" 
d="M350 1339q0 -131 -72.5 -209.5t-191.5 -78.5h-8v90q75 3 116.5 41.5t51.5 120.5q-28 -23 -66 -23q-54 0 -88.5 40.5t-34.5 94.5q0 57 37.5 95t95.5 38q70 0 115 -54t45 -155z" />
    <glyph glyph-name="circumflex" unicode="&#x2c6;" horiz-adv-x="917" 
d="M752 1268l-58 -92l-241 149l-232 -145l-55 88l293 233z" />
    <glyph glyph-name="caron" unicode="&#x2c7;" horiz-adv-x="915" 
d="M754 1399l-293 -234l-291 234l57 90l240 -150l233 148z" />
    <glyph glyph-name="breve" unicode="&#x2d8;" horiz-adv-x="1003" 
d="M778 1427q0 -104 -65 -174.5t-201 -70.5q-91 0 -152 35.5t-86.5 89t-25.5 120.5h127q0 -65 35.5 -100t105.5 -35q139 0 139 135h123z" />
    <glyph glyph-name="dotaccent" unicode="&#x2d9;" horiz-adv-x="917" 
d="M606 1321q0 -52 -34.5 -88.5t-86.5 -36.5q-51 0 -85.5 36t-34.5 89q0 52 34.5 88.5t85.5 36.5q52 0 86.5 -36t34.5 -89z" />
    <glyph glyph-name="ring" unicode="&#x2da;" horiz-adv-x="917" 
d="M662 1352q0 -81 -56 -138t-139 -57t-140 56t-57 139q0 81 58.5 137.5t138.5 56.5q84 0 139.5 -55.5t55.5 -138.5zM555 1352q0 42 -24.5 68t-63.5 26t-63.5 -26t-24.5 -68q0 -40 24.5 -67.5t63.5 -27.5t63.5 27.5t24.5 67.5z" />
    <glyph glyph-name="ogonek" unicode="&#x2db;" horiz-adv-x="968" 
d="M707 -399q-94 -47 -199 -47q-97 0 -154 50.5t-57 143.5q0 147 176 279h127q-77 -60 -118.5 -120.5t-41.5 -131.5q0 -46 25 -72.5t67 -26.5q50 0 125 41z" />
    <glyph glyph-name="tilde" unicode="&#x2dc;" horiz-adv-x="1003" 
d="M784 1323q-75 -84 -178 -84q-54 0 -116 27.5t-99 27.5q-72 0 -127 -55l-55 107q75 84 180 84q53 0 114 -28t99 -28q71 0 127 56z" />
    <glyph glyph-name="hungarumlaut" unicode="&#x2dd;" horiz-adv-x="917" 
d="M850 1346l-293 -175l-59 89l264 208zM504 1391l-262 -217l-72 75l229 250z" />
    <glyph glyph-name="gravecomb" unicode="&#x300;" horiz-adv-x="2" 
d="M-354 1286l-62 -100l-346 186l90 141z" />
    <glyph glyph-name="acutecomb" unicode="&#x301;" horiz-adv-x="2" 
d="M-174 1372l-346 -186l-62 100l318 227z" />
    <glyph glyph-name="uni0302" unicode="&#x302;" horiz-adv-x="2" 
d="M-182 1268l-58 -92l-241 149l-232 -145l-55 88l293 233z" />
    <glyph glyph-name="tildecomb" unicode="&#x303;" horiz-adv-x="2" 
d="M-201 1323q-75 -84 -178 -84q-54 0 -116 27.5t-99 27.5q-72 0 -127 -55l-55 107q75 84 180 84q52 0 114 -28t99 -28q71 0 127 56z" />
    <glyph glyph-name="uni0304" unicode="&#x304;" horiz-adv-x="2" 
d="M-231 1225h-512v131h512v-131z" />
    <glyph glyph-name="uni0306" unicode="&#x306;" horiz-adv-x="2" 
d="M-223 1438q0 -49 -15 -91.5t-45.5 -78t-84 -56t-124.5 -20.5q-132 0 -198 70.5t-66 175.5h127q0 -65 35.5 -100t106.5 -35q141 0 141 135h123z" />
    <glyph glyph-name="uni0307" unicode="&#x307;" horiz-adv-x="2" 
d="M-311 1321q0 -52 -34.5 -88.5t-86.5 -36.5t-86.5 36t-34.5 89q0 52 34.5 88.5t86.5 36.5t86.5 -36t34.5 -89z" />
    <glyph glyph-name="uni0308" unicode="&#x308;" horiz-adv-x="2" 
d="M-190 1333q0 -45 -31 -76.5t-76 -31.5t-74.5 31.5t-29.5 76.5q0 48 29 79.5t75 31.5t76.5 -31.5t30.5 -79.5zM-567 1333q0 -45 -30 -76.5t-75 -31.5q-46 0 -76 31.5t-30 76.5q0 48 29.5 79.5t76.5 31.5q45 0 75 -31.5t30 -79.5z" />
    <glyph glyph-name="uni030A" unicode="&#x30a;" horiz-adv-x="2" 
d="M-248 1352q0 -81 -56 -138t-138 -57q-83 0 -140 56t-57 139q0 81 58.5 137.5t138.5 56.5q84 0 139 -55.5t55 -138.5zM-354 1352q0 42 -24.5 68t-63.5 26q-40 0 -64 -26t-24 -68q0 -40 24.5 -67.5t63.5 -27.5t63.5 27.5t24.5 67.5z" />
    <glyph glyph-name="uni030B" unicode="&#x30b;" horiz-adv-x="2" 
d="M-68 1360l-292 -174l-60 88l264 209zM-414 1405l-262 -217l-72 76l230 249z" />
    <glyph glyph-name="uni030C" unicode="&#x30c;" horiz-adv-x="2" 
d="M-111 1399l-292 -234l-293 234l57 90l242 -150l231 148z" />
    <glyph glyph-name="uni0312" unicode="&#x312;" horiz-adv-x="2" 
d="M-639 1343q0 98 62.5 155.5t164.5 57.5h4v-81q-128 -3 -139 -105q24 16 53 16q47 0 77 -30.5t30 -73.5q0 -53 -31.5 -82t-83.5 -29q-58 0 -97.5 45.5t-39.5 126.5z" />
    <glyph glyph-name="uni0326" unicode="&#x326;" horiz-adv-x="2" 
d="M-356 -256q0 -98 -62 -156.5t-164 -58.5h-6v84q129 3 142 102q-24 -16 -56 -16q-46 0 -75 31.5t-29 74.5q0 53 31 82t83 29q58 0 97 -45.5t39 -126.5z" />
    <glyph glyph-name="uni0327" unicode="&#x327;" horiz-adv-x="2" 
d="M-195 -264q0 -77 -56 -129.5t-155 -52.5q-94 0 -184 34l23 103q77 -41 145 -41q117 0 117 84q0 76 -121 76q-22 0 -76 -7l53 189h97l-31 -107q10 2 35 2q65 0 109 -40.5t44 -110.5z" />
    <glyph glyph-name="uni0328" unicode="&#x328;" horiz-adv-x="2" 
d="M-143 -399q-94 -47 -197 -47q-98 0 -154.5 50t-56.5 144q0 149 174 279h127q-77 -60 -118.5 -120.5t-41.5 -131.5q0 -46 25.5 -72.5t67.5 -26.5q49 0 124 41z" />
    <glyph glyph-name="uni0394" unicode="&#x394;" horiz-adv-x="1036" 
d="M1016 0h-996l396 1403h207zM760 168l-176 696q-31 123 -41 165t-19.5 95t-11.5 99h-2q-4 -66 -17.5 -129.5t-54.5 -227.5l-178 -698h500z" />
    <glyph glyph-name="uni03A9" unicode="&#x3a9;" horiz-adv-x="1331" 
d="M1208 760q0 -464 -239 -613l2 -2q51 7 200 7v-152h-401v143q250 158 250 578q0 280 -85.5 412.5t-262.5 132.5q-167 0 -264 -129t-97 -385q0 -231 62 -379.5t188 -229.5v-143h-401v152q157 0 207 -7v2q-112 72 -178 221t-66 380q0 322 148.5 497.5t406.5 175.5
q257 0 393.5 -169.5t136.5 -491.5z" />
    <glyph glyph-name="uni03BC" unicode="&#x3bc;" horiz-adv-x="1042" 
d="M932 0h-166q-25 110 -27 195l-2 2q-45 -105 -124 -160t-177 -55q-76 0 -117 34q5 -65 5 -317v-117h-181v1442h181v-696q0 -103 36 -148t107 -45q106 0 176 107t70 268v514h180v-688q0 -176 39 -336z" />
    <glyph glyph-name="pi" unicode="&#x3c0;" horiz-adv-x="1251" 
d="M1251 96q-124 -114 -270 -114q-242 0 -242 254v643h-370v-879h-181v879h-163v145h1103v-145h-208v-609q0 -65 23 -92.5t69 -27.5q73 0 141 71z" />
    <glyph glyph-name="uni2007" unicode="&#x2007;" horiz-adv-x="1103" 
 />
    <glyph glyph-name="uni2008" unicode="&#x2008;" horiz-adv-x="436" 
 />
    <glyph glyph-name="uni200B" unicode="&#x200b;" horiz-adv-x="0" 
 />
    <glyph glyph-name="endash" unicode="&#x2013;" 
d="M1024 516h-1024v156h1024v-156z" />
    <glyph glyph-name="emdash" unicode="&#x2014;" horiz-adv-x="2048" 
d="M2048 516h-2048v156h2048v-156z" />
    <glyph glyph-name="quoteleft" unicode="&#x2018;" horiz-adv-x="417" 
d="M301 1217q0 -57 -37.5 -95.5t-95.5 -38.5q-69 0 -114.5 54.5t-45.5 154.5q0 131 73 210t191 79h9v-90q-76 -3 -117.5 -41.5t-50.5 -120.5q27 23 65 23q54 0 88.5 -40.5t34.5 -94.5z" />
    <glyph glyph-name="quoteright" unicode="&#x2019;" horiz-adv-x="434" 
d="M350 1339q0 -131 -72.5 -209.5t-191.5 -78.5h-8v90q75 3 116.5 41.5t51.5 120.5q-28 -23 -66 -23q-54 0 -88.5 40.5t-34.5 94.5q0 57 37.5 95t95.5 38q70 0 115 -54t45 -155z" />
    <glyph glyph-name="quotesinglbase" unicode="&#x201a;" horiz-adv-x="448" 
d="M371 45q0 -131 -73 -210t-192 -79h-8v90q76 3 117.5 42t50.5 120q-28 -22 -65 -22q-54 0 -88.5 40t-34.5 95q0 57 37.5 95t95.5 38q69 0 114.5 -54.5t45.5 -154.5z" />
    <glyph glyph-name="quotedblleft" unicode="&#x201c;" horiz-adv-x="831" 
d="M684 1217q0 -57 -37.5 -95.5t-95.5 -38.5q-69 0 -114.5 54.5t-45.5 154.5q0 131 73 210t191 79h9v-90q-76 -3 -117.5 -41.5t-50.5 -120.5q27 23 65 23q54 0 88.5 -40.5t34.5 -94.5zM301 1217q0 -57 -37.5 -95.5t-95.5 -38.5q-69 0 -114.5 54.5t-45.5 154.5q0 131 73 210
t191 79h9v-90q-76 -3 -117.5 -41.5t-50.5 -120.5q27 23 65 23q54 0 88.5 -40.5t34.5 -94.5z" />
    <glyph glyph-name="quotedblright" unicode="&#x201d;" horiz-adv-x="831" 
d="M733 1339q0 -131 -72.5 -209.5t-191.5 -78.5h-8v90q75 3 116.5 41.5t51.5 120.5q-28 -23 -66 -23q-54 0 -88.5 40.5t-34.5 94.5q0 57 37.5 95t95.5 38q70 0 115 -54t45 -155zM350 1339q0 -131 -72.5 -209.5t-191.5 -78.5h-8v90q75 3 116.5 41.5t51.5 120.5
q-28 -23 -66 -23q-54 0 -88.5 40.5t-34.5 94.5q0 57 37.5 95t95.5 38q70 0 115 -54t45 -155z" />
    <glyph glyph-name="quotedblbase" unicode="&#x201e;" horiz-adv-x="831" 
d="M754 45q0 -131 -73 -210t-192 -79h-8v90q76 3 117.5 42t50.5 120q-27 -22 -65 -22q-54 0 -88.5 40t-34.5 95q0 57 37.5 95t95.5 38q69 0 114.5 -54.5t45.5 -154.5zM371 45q0 -131 -73 -210t-192 -79h-8v90q76 3 117.5 42t50.5 120q-28 -22 -65 -22q-54 0 -88.5 40
t-34.5 95q0 57 37.5 95t95.5 38q69 0 114.5 -54.5t45.5 -154.5z" />
    <glyph glyph-name="dagger" unicode="&#x2020;" horiz-adv-x="1038" 
d="M901 881h-295v-1063h-174v1063h-295v143h295v379h174v-379h295v-143z" />
    <glyph glyph-name="daggerdbl" unicode="&#x2021;" horiz-adv-x="1079" 
d="M922 285h-295v-467h-174v467h-295v143h295v453h-295v143h295v379h174v-379h295v-143h-295v-453h295v-143z" />
    <glyph glyph-name="bullet" unicode="&#x2022;" horiz-adv-x="837" 
d="M633 608q0 -89 -62.5 -153t-150.5 -64q-89 0 -152 64t-63 153t63 153t152 64q88 0 150.5 -64t62.5 -153z" />
    <glyph glyph-name="ellipsis" unicode="&#x2026;" horiz-adv-x="1337" 
d="M1260 127q0 -61 -40 -103t-100 -42q-61 0 -101 42t-40 103t40 103t101 42q60 0 100 -42t40 -103zM809 127q0 -61 -40 -103t-99 -42q-61 0 -101.5 42t-40.5 103t40.5 103t101.5 42q59 0 99 -42t40 -103zM358 127q0 -61 -40 -103t-99 -42q-61 0 -101 42t-40 103t40 103
t101 42q59 0 99 -42t40 -103z" />
    <glyph glyph-name="perthousand" unicode="&#x2030;" horiz-adv-x="2570" 
d="M2415 344q0 -170 -88 -266t-234 -96t-229.5 93.5t-83.5 266.5q0 169 87 263.5t232 94.5q147 0 231.5 -93t84.5 -263zM788 1014q0 -170 -87 -266.5t-232 -96.5q-147 0 -230 94t-83 267q0 169 87 264.5t232 95.5q146 0 229.5 -93.5t83.5 -264.5zM1655 344
q0 -171 -87 -266.5t-233 -95.5t-229.5 93.5t-83.5 266.5q0 169 87 263.5t232 94.5q146 0 230 -93t84 -263zM1450 1333l-973 -1388l-117 82l971 1386zM633 1014q0 229 -160 229q-162 0 -162 -229q0 -117 42 -174.5t118 -57.5q162 0 162 232zM1499 344q0 227 -160 227
q-161 0 -161 -227q0 -117 41.5 -174t117.5 -57q162 0 162 231zM2257 344q0 227 -160 227t-160 -227q0 -231 158 -231q162 0 162 231z" />
    <glyph glyph-name="minute" unicode="&#x2032;" horiz-adv-x="444" 
d="M258 874h-156l84 592h156z" />
    <glyph glyph-name="second" unicode="&#x2033;" horiz-adv-x="782" 
d="M596 874h-156l84 592h156zM258 874h-156l84 592h156z" />
    <glyph glyph-name="uni2034" unicode="&#x2034;" horiz-adv-x="1120" 
d="M258 874h-156l84 592h156zM934 874h-156l84 592h156zM596 874h-156l84 592h156z" />
    <glyph glyph-name="guilsinglleft" unicode="&#x2039;" horiz-adv-x="483" 
d="M438 227l-141 -94l-266 393l266 392l135 -91l-207 -297z" />
    <glyph glyph-name="guilsinglright" unicode="&#x203a;" horiz-adv-x="481" 
d="M451 526l-267 -391l-133 90l207 297l-213 303l139 95z" />
    <glyph glyph-name="fraction" unicode="&#x2044;" horiz-adv-x="589" 
d="M795 1466l-861 -1620h-180l860 1620h181z" />
    <glyph glyph-name="uni2070" unicode="&#x2070;" horiz-adv-x="712" 
d="M645 993q0 -424 -293 -424q-151 0 -218.5 103.5t-67.5 320.5q0 422 294 422q151 0 218 -104t67 -318zM473 993q0 147 -29 212t-88 65q-58 0 -87 -64.5t-29 -212.5q0 -145 29 -209.5t87 -64.5q60 0 88.5 63.5t28.5 210.5z" />
    <glyph glyph-name="uni2074" unicode="&#x2074;" horiz-adv-x="714" 
d="M688 758h-119v-176h-168v176h-362v123l321 520h209v-504h119v-139zM406 1233h-5q-24 -57 -51 -103l-84 -133q-46 -76 -71 -102l2 -4q32 6 204 6v211q0 100 5 125z" />
    <glyph glyph-name="uni2075" unicode="&#x2075;" horiz-adv-x="675" 
d="M133 1401h436v-137h-295q-16 -162 -30 -205q55 55 139 55q95 0 161 -74.5t66 -181.5q0 -140 -81.5 -214.5t-211.5 -74.5q-73 0 -127.5 14t-117.5 42l57 143q85 -49 164 -49q67 0 105 33t38 100q0 55 -30 90t-80 35q-55 0 -111 -66l-121 50z" />
    <glyph glyph-name="uni2076" unicode="&#x2076;" horiz-adv-x="684" 
d="M569 1384l-47 -135q-53 21 -106 21q-85 0 -131.5 -54.5t-59.5 -168.5q56 75 164 75q99 0 164 -68.5t65 -191.5q0 -134 -81 -213.5t-195 -79.5q-146 0 -214.5 99t-68.5 276q0 228 92.5 349.5t270.5 121.5q89 0 147 -31zM344 979q-48 0 -78 -32.5t-30 -88.5
q0 -143 106 -143q46 0 74 34t28 99q0 64 -26 97.5t-74 33.5z" />
    <glyph glyph-name="uni2077" unicode="&#x2077;" horiz-adv-x="569" 
d="M41 1401h504v-111l-271 -708h-190l278 675h-319z" />
    <glyph glyph-name="uni2078" unicode="&#x2078;" horiz-adv-x="686" 
d="M346 1415q113 0 177.5 -58t64.5 -151q0 -125 -121 -180q65 -15 110.5 -73.5t45.5 -135.5q0 -111 -73 -179.5t-210 -68.5q-135 0 -206 67.5t-71 178.5q0 76 45.5 135t110.5 76q-53 24 -87 70t-34 108q0 93 66 152t182 59zM342 948q-46 0 -75 -34t-29 -87q0 -51 27.5 -82.5
t76.5 -31.5q50 0 78.5 31.5t28.5 82.5q0 53 -29.5 87t-77.5 34zM342 1280q-38 0 -61 -26t-23 -68q0 -44 25.5 -73.5t58.5 -29.5q35 0 61.5 29.5t26.5 73.5q0 41 -25 67.5t-63 26.5z" />
    <glyph glyph-name="uni2079" unicode="&#x2079;" horiz-adv-x="684" 
d="M336 1415q282 0 282 -373q0 -104 -18.5 -187t-58.5 -148.5t-110.5 -101.5t-168.5 -36q-94 0 -153 31l47 137q43 -20 108 -20q91 0 134 55t55 168q-54 -76 -164 -76q-100 0 -165 68.5t-65 191.5q0 135 81 213t196 78zM336 1272q-47 0 -75 -34t-28 -99q0 -129 101 -129
q48 0 78 31.5t30 86.5q0 144 -106 144z" />
    <glyph glyph-name="uni2080" unicode="&#x2080;" horiz-adv-x="712" 
d="M645 12q0 -424 -293 -424q-151 0 -218.5 103.5t-67.5 320.5q0 422 294 422q151 0 218 -104t67 -318zM473 12q0 147 -29 212t-88 65q-58 0 -87 -64.5t-29 -212.5q0 -145 29 -209.5t87 -64.5q60 0 88.5 63.5t28.5 210.5z" />
    <glyph glyph-name="uni2081" unicode="&#x2081;" horiz-adv-x="579" 
d="M49 358l230 62h114v-676h133v-143h-473v143h172v512l-176 -49v151z" />
    <glyph glyph-name="uni2082" unicode="&#x2082;" horiz-adv-x="679" 
d="M82 340q118 94 272 94q111 0 181.5 -63.5t70.5 -165.5q0 -60 -20 -109t-52 -81t-71 -59t-78 -49t-71 -44.5t-52 -52.5t-20 -66h372v-143h-546v90q0 74 19.5 131.5t51.5 92.5t70 62t76 48t70 43t51.5 53t19.5 72q0 43 -27 68.5t-71 25.5q-75 0 -166 -74z" />
    <glyph glyph-name="uni2083" unicode="&#x2083;" horiz-adv-x="630" 
d="M53 352q119 82 252 82q109 0 173.5 -55.5t64.5 -145.5q0 -67 -36 -111.5t-95 -64.5q153 -44 153 -204q0 -123 -82.5 -194t-210.5 -71q-110 0 -225 56l59 141q78 -45 148 -45q133 0 133 125q0 51 -38.5 79.5t-102.5 28.5q-37 0 -60 -2v133q99 1 139 27.5t40 77.5
q0 37 -25 60.5t-66 23.5q-61 0 -143 -60z" />
    <glyph glyph-name="uni2084" unicode="&#x2084;" horiz-adv-x="714" 
d="M688 -223h-119v-176h-168v176h-362v123l321 520h209v-504h119v-139zM406 252h-5q-23 -56 -51 -102l-84 -134q-46 -76 -71 -102l2 -4q32 6 204 6v211q0 100 5 125z" />
    <glyph glyph-name="uni2085" unicode="&#x2085;" horiz-adv-x="675" 
d="M133 420h436v-137h-295q-16 -162 -30 -205q55 55 139 55q95 0 161 -74.5t66 -181.5q0 -140 -81.5 -214.5t-211.5 -74.5q-73 0 -127.5 14t-117.5 42l57 143q85 -49 164 -49q67 0 105 33t38 100q0 55 -30 90t-80 35q-55 0 -111 -66l-121 50z" />
    <glyph glyph-name="uni2086" unicode="&#x2086;" horiz-adv-x="684" 
d="M569 403l-47 -135q-53 21 -106 21q-85 0 -131.5 -54.5t-59.5 -168.5q56 75 164 75q99 0 164 -68.5t65 -191.5q0 -134 -81 -213.5t-195 -79.5q-146 0 -214.5 99t-68.5 276q0 228 92.5 349.5t270.5 121.5q89 0 147 -31zM344 -2q-48 0 -78 -32.5t-30 -88.5q0 -143 106 -143
q46 0 74 34t28 99q0 64 -26 97.5t-74 33.5z" />
    <glyph glyph-name="uni2087" unicode="&#x2087;" horiz-adv-x="569" 
d="M41 420h504v-111l-271 -708h-190l278 675h-319z" />
    <glyph glyph-name="uni2088" unicode="&#x2088;" horiz-adv-x="686" 
d="M346 434q113 0 177.5 -58t64.5 -151q0 -125 -121 -180q65 -15 110.5 -73.5t45.5 -135.5q0 -111 -73 -179.5t-210 -68.5q-135 0 -206 67.5t-71 178.5q0 76 45.5 135t110.5 76q-53 24 -87 70t-34 108q0 93 66 152t182 59zM342 -33q-46 0 -75 -34t-29 -87q0 -51 27.5 -82.5
t76.5 -31.5q50 0 78.5 31.5t28.5 82.5q0 53 -29.5 87t-77.5 34zM342 299q-38 0 -61 -26t-23 -68q0 -44 25.5 -73.5t58.5 -29.5q35 0 61.5 29.5t26.5 73.5q0 41 -25 67.5t-63 26.5z" />
    <glyph glyph-name="uni2089" unicode="&#x2089;" horiz-adv-x="684" 
d="M336 434q282 0 282 -373q0 -104 -18.5 -187t-58.5 -148.5t-110.5 -101.5t-168.5 -36q-94 0 -153 31l47 137q43 -20 108 -20q91 0 134 55t55 168q-54 -76 -164 -76q-100 0 -165 68.5t-65 191.5q0 135 81 213t196 78zM336 291q-47 0 -75 -34t-28 -99q0 -129 101 -129
q48 0 78 31.5t30 86.5q0 144 -106 144z" />
    <glyph glyph-name="Euro" unicode="&#x20ac;" 
d="M57 889h115q35 243 151.5 362t284.5 119q109 0 184 -34t146 -107l-104 -123q-55 57 -105 81.5t-115 24.5q-207 0 -254 -323h357v-133h-367q-2 -27 -2 -74v-47h369v-133h-359q34 -355 252 -355q140 0 248 117l111 -127q-142 -155 -365 -155q-193 0 -302.5 125.5
t-135.5 394.5h-109v133h101v49q0 49 2 72h-103v133z" />
    <glyph glyph-name="uni2117" unicode="&#x2117;" horiz-adv-x="1794" 
d="M1614 702q0 -150 -56 -283.5t-151 -229.5t-228 -151.5t-282 -55.5t-282 55.5t-228 151.5t-151 229.5t-56 283.5q0 199 94.5 364.5t259.5 261t363 95.5t362.5 -95t259.5 -260.5t95 -365.5zM1466 702q0 161 -74 295t-205 211.5t-290 77.5t-290 -78t-205 -212t-74 -294
q0 -161 74 -295t205 -211t290 -77t290 77.5t205 211t74 294.5zM1198 829q0 -118 -76 -182.5t-215 -64.5h-69v-277h-148v766h242q132 0 199 -62t67 -180zM1051 831q0 64 -34 90.5t-108 26.5h-71v-246h69q144 0 144 129z" />
    <glyph glyph-name="trademark" unicode="&#x2122;" horiz-adv-x="1564" 
d="M1470 770h-135q0 399 8 510l-2 2q-12 -41 -145 -326h-145q-139 278 -150 326l-4 -2q8 -117 8 -510h-135v633h191q108 -217 133.5 -270.5t29.5 -77.5h2q8 32 34.5 89.5t125.5 258.5h184v-633zM639 1286h-186v-516h-138v516h-188v117h512v-117z" />
    <glyph glyph-name="Omega" unicode="&#x2126;" horiz-adv-x="1331" 
d="M1208 760q0 -464 -239 -613l2 -2q51 7 200 7v-152h-401v143q250 158 250 578q0 280 -85.5 412.5t-262.5 132.5q-167 0 -264 -129t-97 -385q0 -231 62 -379.5t188 -229.5v-143h-401v152q157 0 207 -7v2q-112 72 -178 221t-66 380q0 322 148.5 497.5t406.5 175.5
q257 0 393.5 -169.5t136.5 -491.5z" />
    <glyph glyph-name="uni2150" unicode="&#x2150;" horiz-adv-x="1738" 
d="M49 1339l230 62h114v-676h133v-143h-473v143h172v512l-176 -49v151zM1374 1466l-860 -1620h-180l860 1620h180zM1210 819h504v-110l-270 -709h-191l279 676h-320z" />
    <glyph glyph-name="uni2151" unicode="&#x2151;" horiz-adv-x="1853" 
d="M49 1339l230 62h114v-676h133v-143h-473v143h172v512l-176 -49v151zM1374 1466l-860 -1620h-180l860 1620h180zM1505 834q283 0 283 -373q0 -104 -18.5 -187t-58.5 -148.5t-110.5 -101.5t-168.5 -36q-96 0 -154 30l47 138q43 -21 109 -21q91 0 134 55t54 168
q-27 -38 -65 -56.5t-99 -18.5q-99 0 -164 68.5t-65 191.5q0 134 80.5 212.5t195.5 78.5zM1505 690q-46 0 -74 -34t-28 -99q0 -64 26 -96.5t74 -32.5q49 0 79 31.5t30 87.5q0 143 -107 143z" />
    <glyph glyph-name="uni2152" unicode="&#x2152;" horiz-adv-x="2461" 
d="M49 1339l230 62h114v-676h133v-143h-473v143h172v512l-176 -49v151zM1374 1466l-860 -1620h-180l860 1620h180zM1219 758l229 61h115v-676h133v-143h-473v143h172v512l-176 -49v152zM2394 412q0 -213 -72 -318.5t-221 -105.5q-151 0 -218.5 103.5t-67.5 320.5
q0 422 294 422q151 0 218 -104.5t67 -317.5zM2222 412q0 146 -29 211t-88 65q-58 0 -87 -64.5t-29 -211.5q0 -145 29 -210t87 -65q60 0 88.5 64t28.5 211z" />
    <glyph glyph-name="onethird" unicode="&#x2153;" horiz-adv-x="1800" 
d="M49 1339l230 62h114v-676h133v-143h-473v143h172v512l-176 -49v151zM1374 1466l-860 -1620h-180l860 1620h180zM1223 752q117 82 252 82q108 0 172.5 -55.5t64.5 -145.5q0 -67 -36 -112t-95 -64q154 -46 154 -205q0 -123 -82.5 -193.5t-210.5 -70.5q-113 0 -225 55
l59 141q80 -45 147 -45q133 0 133 125q0 52 -38.5 80.5t-102.5 28.5q-37 0 -59 -2v133q98 1 138 27.5t40 76.5q0 37 -24.5 60.5t-65.5 23.5q-62 0 -144 -59z" />
    <glyph glyph-name="twothirds" unicode="&#x2154;" horiz-adv-x="1900" 
d="M82 1321q118 94 272 94q111 0 181.5 -63.5t70.5 -165.5q0 -60 -20 -109t-52 -81t-71 -59t-78 -49t-71 -44.5t-52 -52.5t-20 -66h372v-143h-546v90q0 74 19.5 131.5t51.5 92.5t70 62t76 48t70 43t51.5 53t19.5 72q0 43 -27 68.5t-71 25.5q-75 0 -166 -74zM1475 1466
l-861 -1620h-180l860 1620h181zM1323 752q60 41 118 61.5t134 20.5q108 0 172.5 -55.5t64.5 -145.5q0 -67 -36 -112t-95 -64q154 -45 154 -205q0 -123 -82.5 -193.5t-210.5 -70.5q-112 0 -225 55l59 141q81 -45 148 -45q133 0 133 125q0 51 -38.5 80t-102.5 29q-37 0 -60 -2
v133q98 1 138 27.5t40 76.5q0 37 -24.5 60.5t-65.5 23.5q-63 0 -143 -59z" />
    <glyph glyph-name="uni2155" unicode="&#x2155;" horiz-adv-x="1845" 
d="M49 1339l230 62h114v-676h133v-143h-473v143h172v512l-176 -49v151zM1374 1466l-860 -1620h-180l860 1620h180zM1303 819h436v-137h-295q-16 -158 -31 -205q55 55 139 55q95 0 161.5 -74t66.5 -182q0 -140 -81.5 -214t-211.5 -74q-74 0 -128.5 13.5t-117.5 41.5l57 143
q89 -49 164 -49q67 0 105.5 33t38.5 100q0 55 -30.5 90t-80.5 35q-56 0 -111 -65l-120 49z" />
    <glyph glyph-name="uni2156" unicode="&#x2156;" horiz-adv-x="1945" 
d="M82 1321q118 94 272 94q111 0 181.5 -63.5t70.5 -165.5q0 -60 -20 -109t-52 -81t-71 -59t-78 -49t-71 -44.5t-52 -52.5t-20 -66h372v-143h-546v90q0 74 19.5 131.5t51.5 92.5t70 62t76 48t70 43t51.5 53t19.5 72q0 43 -27 68.5t-71 25.5q-75 0 -166 -74zM1475 1466
l-861 -1620h-180l860 1620h181zM1403 819h436v-137h-295q-16 -164 -31 -205q55 55 140 55q95 0 161 -74t66 -182q0 -140 -81.5 -214t-211.5 -74q-123 0 -246 55l58 143q87 -49 164 -49q67 0 105 33t38 100q0 55 -30.5 90t-80.5 35q-55 0 -110 -65l-121 49z" />
    <glyph glyph-name="uni2157" unicode="&#x2157;" horiz-adv-x="1896" 
d="M53 1333q119 82 252 82q109 0 173.5 -55.5t64.5 -145.5q0 -67 -36 -111.5t-95 -64.5q153 -44 153 -204q0 -123 -82.5 -194t-210.5 -71q-110 0 -225 56l59 141q78 -45 148 -45q133 0 133 125q0 51 -38.5 79.5t-102.5 28.5q-37 0 -60 -2v133q99 1 139 27.5t40 77.5
q0 37 -25 60.5t-66 23.5q-61 0 -143 -60zM1425 1466l-860 -1620h-180l860 1620h180zM1354 819h436v-137h-295q-16 -164 -31 -205q55 55 140 55q95 0 161 -74t66 -182q0 -140 -81.5 -214t-211.5 -74q-123 0 -246 55l58 143q87 -49 163 -49q67 0 105.5 33t38.5 100
q0 55 -30.5 90t-80.5 35q-56 0 -110 -65l-121 49z" />
    <glyph glyph-name="uni2158" unicode="&#x2158;" horiz-adv-x="1980" 
d="M688 758h-119v-176h-168v176h-362v123l321 520h209v-504h119v-139zM406 1233h-5q-24 -57 -51 -103l-84 -133q-46 -76 -71 -102l2 -4q32 6 204 6v211q0 100 5 125zM1509 1466l-860 -1620h-180l860 1620h180zM1438 819h436v-137h-295q-16 -164 -31 -205q55 55 140 55
q95 0 161 -74t66 -182q0 -140 -81.5 -214t-211.5 -74q-123 0 -246 55l58 143q87 -49 163 -49q67 0 105.5 33t38.5 100q0 55 -30.5 90t-80.5 35q-56 0 -110 -65l-121 49z" />
    <glyph glyph-name="uni2159" unicode="&#x2159;" horiz-adv-x="1853" 
d="M49 1339l230 62h114v-676h133v-143h-473v143h172v512l-176 -49v151zM1374 1466l-860 -1620h-180l860 1620h180zM1739 803l-47 -135q-55 20 -107 20q-84 0 -131 -54.5t-59 -168.5q57 76 164 76q99 0 164 -68.5t65 -191.5q0 -135 -81 -214t-196 -79q-146 0 -214 98.5
t-68 275.5q0 229 92.5 350.5t269.5 121.5q88 0 148 -31zM1513 397q-48 0 -78 -32.5t-30 -88.5q0 -143 106 -143q47 0 75 34t28 99q0 64 -26.5 97.5t-74.5 33.5z" />
    <glyph glyph-name="uni215A" unicode="&#x215a;" horiz-adv-x="1949" 
d="M133 1401h436v-137h-295q-16 -162 -30 -205q55 55 139 55q95 0 161 -74.5t66 -181.5q0 -140 -81.5 -214.5t-211.5 -74.5q-73 0 -127.5 14t-117.5 42l57 143q85 -49 164 -49q67 0 105 33t38 100q0 55 -30 90t-80 35q-55 0 -111 -66l-121 50zM1470 1466l-860 -1620h-180
l860 1620h180zM1835 803l-47 -135q-55 20 -107 20q-84 0 -131 -54.5t-59 -168.5q57 76 164 76q99 0 164 -68.5t65 -191.5q0 -135 -81 -214t-195 -79q-283 0 -283 374q0 229 92.5 350.5t270.5 121.5q87 0 147 -31zM1610 397q-49 0 -79 -32.5t-30 -88.5q0 -143 107 -143
q46 0 74 34t28 99q0 64 -26 97.5t-74 33.5z" />
    <glyph glyph-name="oneeighth" unicode="&#x215b;" horiz-adv-x="1855" 
d="M49 1339l230 62h114v-676h133v-143h-473v143h172v512l-176 -49v151zM1374 1466l-860 -1620h-180l860 1620h180zM1516 834q112 0 176.5 -58.5t64.5 -150.5q0 -126 -121 -181q65 -15 110.5 -73.5t45.5 -134.5q0 -111 -72.5 -179.5t-210.5 -68.5q-135 0 -205.5 67t-70.5 178
q0 76 45.5 135t110.5 76q-53 23 -87 69.5t-34 109.5q0 93 66 152t182 59zM1511 367q-45 0 -74.5 -34.5t-29.5 -86.5t28 -83.5t76 -31.5q50 0 78.5 31.5t28.5 83.5t-30 86.5t-77 34.5zM1511 698q-38 0 -61 -26t-23 -68q0 -43 25.5 -72.5t58.5 -29.5q35 0 61.5 29.5t26.5 72.5
q0 41 -24.5 67.5t-63.5 26.5z" />
    <glyph glyph-name="threeeighths" unicode="&#x215c;" horiz-adv-x="1906" 
d="M53 1333q119 82 252 82q109 0 173.5 -55.5t64.5 -145.5q0 -67 -36 -111.5t-95 -64.5q153 -44 153 -204q0 -123 -82.5 -194t-210.5 -71q-110 0 -225 56l59 141q78 -45 148 -45q133 0 133 125q0 51 -38.5 79.5t-102.5 28.5q-37 0 -60 -2v133q99 1 139 27.5t40 77.5
q0 37 -25 60.5t-66 23.5q-61 0 -143 -60zM1425 1466l-860 -1620h-180l860 1620h180zM1567 834q112 0 176.5 -58.5t64.5 -150.5q0 -125 -120 -181q65 -15 110 -73.5t45 -134.5q0 -111 -72 -179.5t-210 -68.5q-136 0 -206.5 67t-70.5 178q0 76 45.5 135t110.5 76
q-53 23 -87 69.5t-34 109.5q0 93 66 152t182 59zM1563 367q-46 0 -75.5 -34.5t-29.5 -86.5t28 -83.5t77 -31.5t77.5 31.5t28.5 83.5t-29.5 86.5t-76.5 34.5zM1563 698q-38 0 -61 -26t-23 -68q0 -43 25.5 -72.5t58.5 -29.5q35 0 61.5 29.5t26.5 72.5q0 41 -25 67.5t-63 26.5z
" />
    <glyph glyph-name="fiveeighths" unicode="&#x215d;" horiz-adv-x="1951" 
d="M133 1401h436v-137h-295q-16 -162 -30 -205q55 55 139 55q95 0 161 -74.5t66 -181.5q0 -140 -81.5 -214.5t-211.5 -74.5q-73 0 -127.5 14t-117.5 42l57 143q85 -49 164 -49q67 0 105 33t38 100q0 55 -30 90t-80 35q-55 0 -111 -66l-121 50zM1470 1466l-860 -1620h-180
l860 1620h180zM1612 834q112 0 176.5 -58.5t64.5 -150.5q0 -125 -120 -181q65 -15 110 -73.5t45 -134.5q0 -111 -72 -179.5t-210 -68.5q-136 0 -206.5 67t-70.5 178q0 76 45.5 135t110.5 76q-53 23 -87 69.5t-34 109.5q0 93 66 152t182 59zM1608 367q-46 0 -75.5 -34.5
t-29.5 -86.5t28 -83.5t77 -31.5t77.5 31.5t28.5 83.5t-29.5 86.5t-76.5 34.5zM1608 698q-38 0 -61 -26t-23 -68q0 -43 25.5 -72.5t58.5 -29.5q35 0 61.5 29.5t26.5 72.5q0 41 -25 67.5t-63 26.5z" />
    <glyph glyph-name="seveneighths" unicode="&#x215e;" horiz-adv-x="1742" 
d="M41 1401h504v-111l-271 -708h-190l278 675h-319zM1262 1466l-861 -1620h-180l860 1620h181zM1403 834q112 0 177 -58.5t65 -150.5q0 -125 -121 -181q65 -15 110 -73.5t45 -134.5q0 -111 -72 -179.5t-210 -68.5q-136 0 -206.5 67t-70.5 178q0 76 45.5 135t110.5 76
q-53 23 -87 69.5t-34 109.5q0 93 66 152t182 59zM1399 367q-46 0 -75.5 -34.5t-29.5 -86.5t28 -83.5t77 -31.5t77.5 31.5t28.5 83.5t-29.5 86.5t-76.5 34.5zM1399 698q-38 0 -61 -26t-23 -68q0 -43 25.5 -72.5t58.5 -29.5q35 0 61.5 29.5t26.5 72.5q0 41 -25 67.5t-63 26.5z
" />
    <glyph glyph-name="uni215F" unicode="&#x215f;" horiz-adv-x="1169" 
d="M49 1339l230 62h114v-676h133v-143h-473v143h172v512l-176 -49v151zM1374 1466l-860 -1620h-180l860 1620h180z" />
    <glyph glyph-name="uni2189" unicode="&#x2189;" horiz-adv-x="1933" 
d="M645 993q0 -424 -293 -424q-151 0 -218.5 103.5t-67.5 320.5q0 422 294 422q151 0 218 -104t67 -318zM473 993q0 147 -29 212t-88 65q-58 0 -87 -64.5t-29 -212.5q0 -145 29 -209.5t87 -64.5q60 0 88.5 63.5t28.5 210.5zM1507 1466l-860 -1620h-180l860 1620h180z
M1356 752q60 41 118 61.5t134 20.5q108 0 172.5 -55.5t64.5 -145.5q0 -67 -36 -112t-95 -64q154 -46 154 -205q0 -123 -82.5 -193.5t-210.5 -70.5q-113 0 -225 55l59 141q79 -45 147 -45q63 0 98.5 30.5t35.5 94.5q0 52 -39 80.5t-103 28.5q-37 0 -59 -2v133q98 1 138 27.5
t40 76.5q0 37 -24.5 60.5t-65.5 23.5q-63 0 -143 -59z" />
    <glyph glyph-name="arrowleft" unicode="&#x2190;" horiz-adv-x="2048" 
d="M2050 516h-1503q-203 0 -254 8l-2 -2l18 -14t16 -12.5t19.5 -16.5t19.5 -18t25.5 -24.5t29 -27.5t37.5 -36.5t44 -42.5l471 -459l-125 -123l-846 846l846 846l119 -119l-476 -463q-35 -34 -78 -76.5t-58 -56.5t-33.5 -30.5t-36.5 -28.5l2 -2q51 8 254 8h1511v-156z" />
    <glyph glyph-name="arrowright" unicode="&#x2192;" horiz-adv-x="2048" 
d="M2048 594l-846 -846l-119 119l476 463q31 30 66 64.5t50 49t33 31.5t30 27t27 20l-2 2q-51 -8 -254 -8h-1511v156h1503q203 0 254 -8l2 2q-47 30 -209 192l-471 459l125 123z" />
    <glyph glyph-name="partialdiff" unicode="&#x2202;" horiz-adv-x="1056" 
d="M995 786q0 -75 -6 -147t-22.5 -153.5t-42 -152t-67.5 -136t-96 -112t-130.5 -74t-167.5 -27.5q-197 0 -299.5 110t-102.5 326q0 225 129 362.5t345 137.5q79 0 151 -28.5t123 -80.5l2 2q-9 233 -125.5 365.5t-318.5 146.5l16 145q289 -12 450.5 -194t161.5 -490zM805 606
q-90 152 -268 152q-145 0 -216 -91t-71 -247q0 -125 58.5 -195.5t162.5 -70.5q143 0 226.5 118.5t107.5 333.5z" />
    <glyph glyph-name="Delta" unicode="&#x2206;" horiz-adv-x="1036" 
d="M1016 0h-996l396 1403h207zM760 168l-176 696q-31 123 -41 165t-19.5 95t-11.5 99h-2q-4 -66 -17.5 -129.5t-54.5 -227.5l-178 -698h500z" />
    <glyph glyph-name="product" unicode="&#x220f;" horiz-adv-x="1392" 
d="M1311 1296h-185v-1714h-186v1714h-487v-1714h-189v1714h-182v168h1229v-168z" />
    <glyph glyph-name="summation" unicode="&#x2211;" horiz-adv-x="1095" 
d="M1014 -418h-932v146l567 811l-553 782v143h895v-170h-407q-195 0 -232 4l-2 -2l524 -745l-559 -797l2 -2q37 4 232 4h465v-174z" />
    <glyph glyph-name="minus" unicode="&#x2212;" horiz-adv-x="1056" 
d="M918 483h-779v152h779v-152z" />
    <glyph glyph-name="uni2219" unicode="&#x2219;" horiz-adv-x="1282" 
d="M854 608q0 -89 -62.5 -153t-150.5 -64q-89 0 -152 64t-63 153t63 153t152 64q88 0 150.5 -64t62.5 -153z" />
    <glyph glyph-name="radical" unicode="&#x221a;" horiz-adv-x="1089" 
d="M1102 1464l-471 -1464h-174l-285 879h-172v145h319l123 -418q11 -38 28.5 -95t24 -80t17.5 -60t15 -53t9 -39t7.5 -38.5t3.5 -31.5h4q3 28 11 63.5t17 66.5t34 115.5t44 151.5l248 858h197z" />
    <glyph glyph-name="infinity" unicode="&#x221e;" horiz-adv-x="1953" 
d="M1810 586q0 -145 -102.5 -246.5t-265.5 -101.5q-110 0 -222.5 62t-246.5 173q-136 -112 -247 -173.5t-222 -61.5q-166 0 -263.5 94t-97.5 235q0 146 104 248.5t267 102.5q110 0 220.5 -62t248.5 -174q135 111 247 173.5t222 62.5q165 0 261.5 -95t96.5 -237zM1647 575
q0 83 -56 135t-147 52q-70 0 -150.5 -46.5t-191.5 -135.5q111 -91 192.5 -139t155.5 -48q86 0 141.5 53.5t55.5 128.5zM852 573q-110 92 -191.5 140.5t-154.5 48.5q-87 0 -142 -53t-55 -129q0 -83 56 -135t147 -52q70 0 150 46t190 134z" />
    <glyph glyph-name="integral" unicode="&#x222b;" horiz-adv-x="573" 
d="M573 1315q-48 12 -77 12q-75 0 -107.5 -54t-32.5 -183q0 -177 20.5 -544t20.5 -579q0 -199 -71.5 -301t-206.5 -102q-66 0 -119 16v148q46 -13 78 -13q74 0 106.5 54.5t32.5 183.5q0 178 -20.5 544t-20.5 576q0 199 72 301.5t207 102.5q64 0 118 -17v-145z" />
    <glyph glyph-name="approxequal" unicode="&#x2248;" horiz-adv-x="1222" 
d="M1038 674q-132 -84 -239 -84q-75 0 -184 37t-199 37q-102 0 -232 -86v165q126 88 232 88q90 0 199 -36.5t184 -36.5q106 0 239 82v-166zM1038 344q-134 -84 -239 -84q-75 0 -184 37t-199 37q-102 0 -232 -86v166q128 88 232 88q90 0 199 -37t184 -37q104 0 239 82v-166z
" />
    <glyph glyph-name="notequal" unicode="&#x2260;" horiz-adv-x="1335" 
d="M1133 297h-521l-168 -297h-157l168 297h-252v149h334l106 187h-440v147h522l137 244h158l-137 -244h250v-147h-332l-107 -187h439v-149z" />
    <glyph glyph-name="lessequal" unicode="&#x2264;" horiz-adv-x="827" 
d="M727 365l-113 -127l-520 409l518 414l111 -125l-367 -283zM735 0h-643v156h643v-156z" />
    <glyph glyph-name="greaterequal" unicode="&#x2265;" horiz-adv-x="829" 
d="M725 651l-518 -413l-111 124l367 283l-371 289l113 127zM737 0h-643v156h643v-156z" />
    <glyph glyph-name="dotmath" unicode="&#x22c5;" horiz-adv-x="1282" 
d="M797 592q0 -66 -45.5 -111t-110.5 -45q-66 0 -111 45t-45 111q0 65 45 110.5t111 45.5q65 0 110.5 -46t45.5 -110z" />
    <glyph glyph-name="filledbox" unicode="&#x25a0;" horiz-adv-x="1726" 
d="M1561 0h-1395v1403h1395v-1403z" />
    <glyph glyph-name="H22073" unicode="&#x25a1;" horiz-adv-x="1726" 
d="M1561 0h-1395v1403h1395v-1403zM1372 186v1033h-1018v-1033h1018z" />
    <glyph glyph-name="uni25B8" unicode="&#x25b8;" horiz-adv-x="899" 
d="M784 582l-600 -295v590z" />
    <glyph glyph-name="uni25C2" unicode="&#x25c2;" horiz-adv-x="899" 
d="M715 287l-600 295l600 295v-590z" />
    <glyph glyph-name="lozenge" unicode="&#x25ca;" horiz-adv-x="1118" 
d="M1067 698l-403 -698h-207l-406 702l404 701h207zM858 696l-303 535l-295 -522l303 -543z" />
    <glyph glyph-name="circle" unicode="&#x25cb;" horiz-adv-x="1726" 
d="M864 1401q190 0 350 -94t252.5 -255t92.5 -352q0 -143 -54.5 -272.5t-147.5 -223t-221.5 -149t-271.5 -55.5t-272 55.5t-221.5 149t-147.5 223t-55 272.5q0 191 92.5 352t253 255t350.5 94zM862 1225q-139 0 -256.5 -70.5t-184.5 -190.5t-67 -262q0 -141 67 -261
t184.5 -190.5t256.5 -70.5q141 0 259 70.5t185.5 190.5t67.5 261q0 142 -67.5 262t-185.5 190.5t-259 70.5z" />
    <glyph glyph-name="H18533" unicode="&#x25cf;" horiz-adv-x="1726" 
d="M864 1401q190 0 350 -94t252.5 -255t92.5 -352q0 -143 -54.5 -272.5t-147.5 -223t-221.5 -149t-271.5 -55.5t-272 55.5t-221.5 149t-147.5 223t-55 272.5q0 191 92.5 352t253 255t350.5 94z" />
    <glyph glyph-name="uniFB00" unicode="&#xfb00;" horiz-adv-x="1236" 
d="M1329 1274q-119 53 -211 53q-98 0 -144 -54.5t-46 -172.5v-76h295v-145h-295v-879h-180v879h-371v-879h-180v879h-195v145h195v82q0 178 98 264t276 86q160 0 293 -47q90 68 228 68q104 0 237 -43v-160zM772 1272q-81 35 -172 35q-117 0 -171 -52t-54 -176v-55h373v102
q0 76 24 146z" />
    <glyph glyph-name="fi" unicode="&#xfb01;" horiz-adv-x="1069" 
d="M928 0h-180v879h-371v-879h-180v879h-195v145h195v102q0 178 98 264.5t276 86.5q137 0 287 -47v-160q-155 57 -258 57q-116 0 -169.5 -52t-53.5 -175v-76h551v-1024z" />
    <glyph glyph-name="fl" unicode="&#xfb02;" horiz-adv-x="1071" 
d="M928 0h-180v1298q-82 29 -152 29q-113 0 -166 -52t-53 -175v-76h198v-145h-198v-879h-180v879h-195v145h195v102q0 178 98 264.5t276 86.5q143 0 357 -54v-1423z" />
    <glyph glyph-name="uniFB03" unicode="&#xfb03;" horiz-adv-x="1619" 
d="M1479 0h-181v879h-370v-879h-180v879h-371v-879h-180v879h-195v145h195v82q0 178 98 264t276 86q156 0 295 -51q90 72 258 72q133 0 287 -47v-160q-155 57 -258 57q-117 0 -171 -52t-54 -175v-76h551v-1024zM772 1272q-81 35 -172 35q-117 0 -171 -52t-54 -176v-55h373
v102q0 76 24 146z" />
    <glyph glyph-name="uniFB04" unicode="&#xfb04;" horiz-adv-x="1622" 
d="M1479 0h-181v1298q-81 29 -151 29q-114 0 -166.5 -52t-52.5 -175v-76h198v-145h-198v-879h-180v879h-371v-879h-180v879h-195v145h195v82q0 178 98 264t276 86q156 0 295 -51q93 72 256 72q143 0 357 -54v-1423zM772 1272q-81 35 -172 35q-117 0 -171 -52t-54 -176v-55
h373v102q0 76 24 146z" />
    <glyph glyph-name="uniFEFF" unicode="&#xfeff;" horiz-adv-x="0" 
 />
    <glyph glyph-name="uni030C.alt001" horiz-adv-x="81" 
d="M156 1462l-50 -379h-118v379h168z" />
    <glyph glyph-name="zero.numr" horiz-adv-x="712" 
d="M645 993q0 -424 -293 -424q-151 0 -218.5 103.5t-67.5 320.5q0 422 294 422q151 0 218 -104t67 -318zM473 993q0 147 -29 212t-88 65q-58 0 -87 -64.5t-29 -212.5q0 -145 29 -209.5t87 -64.5q60 0 88.5 63.5t28.5 210.5z" />
    <glyph glyph-name="one.numr" horiz-adv-x="579" 
d="M49 1339l230 62h114v-676h133v-143h-473v143h172v512l-176 -49v151z" />
    <glyph glyph-name="two.numr" horiz-adv-x="679" 
d="M82 1321q118 94 272 94q111 0 181.5 -63.5t70.5 -165.5q0 -60 -20 -109t-52 -81t-71 -59t-78 -49t-71 -44.5t-52 -52.5t-20 -66h372v-143h-546v90q0 74 19.5 131.5t51.5 92.5t70 62t76 48t70 43t51.5 53t19.5 72q0 43 -27 68.5t-71 25.5q-75 0 -166 -74z" />
    <glyph glyph-name="three.numr" horiz-adv-x="630" 
d="M53 1333q119 82 252 82q109 0 173.5 -55.5t64.5 -145.5q0 -67 -36 -111.5t-95 -64.5q153 -44 153 -204q0 -123 -82.5 -194t-210.5 -71q-110 0 -225 56l59 141q78 -45 148 -45q133 0 133 125q0 51 -38.5 79.5t-102.5 28.5q-37 0 -60 -2v133q99 1 139 27.5t40 77.5
q0 37 -25 60.5t-66 23.5q-61 0 -143 -60z" />
    <glyph glyph-name="four.numr" horiz-adv-x="714" 
d="M688 758h-119v-176h-168v176h-362v123l321 520h209v-504h119v-139zM406 1233h-5q-24 -57 -51 -103l-84 -133q-46 -76 -71 -102l2 -4q32 6 204 6v211q0 100 5 125z" />
    <glyph glyph-name="five.numr" horiz-adv-x="675" 
d="M133 1401h436v-137h-295q-16 -162 -30 -205q55 55 139 55q95 0 161 -74.5t66 -181.5q0 -140 -81.5 -214.5t-211.5 -74.5q-73 0 -127.5 14t-117.5 42l57 143q85 -49 164 -49q67 0 105 33t38 100q0 55 -30 90t-80 35q-55 0 -111 -66l-121 50z" />
    <glyph glyph-name="six.numr" horiz-adv-x="684" 
d="M569 1384l-47 -135q-53 21 -106 21q-85 0 -131.5 -54.5t-59.5 -168.5q56 75 164 75q99 0 164 -68.5t65 -191.5q0 -134 -81 -213.5t-195 -79.5q-146 0 -214.5 99t-68.5 276q0 228 92.5 349.5t270.5 121.5q89 0 147 -31zM344 979q-48 0 -78 -32.5t-30 -88.5
q0 -143 106 -143q46 0 74 34t28 99q0 64 -26 97.5t-74 33.5z" />
    <glyph glyph-name="seven.numr" horiz-adv-x="569" 
d="M41 1401h504v-111l-271 -708h-190l278 675h-319z" />
    <glyph glyph-name="eight.numr" horiz-adv-x="686" 
d="M346 1415q113 0 177.5 -58t64.5 -151q0 -125 -121 -180q65 -15 110.5 -73.5t45.5 -135.5q0 -111 -73 -179.5t-210 -68.5q-135 0 -206 67.5t-71 178.5q0 76 45.5 135t110.5 76q-53 24 -87 70t-34 108q0 93 66 152t182 59zM342 948q-46 0 -75 -34t-29 -87q0 -51 27.5 -82.5
t76.5 -31.5q50 0 78.5 31.5t28.5 82.5q0 53 -29.5 87t-77.5 34zM342 1280q-38 0 -61 -26t-23 -68q0 -44 25.5 -73.5t58.5 -29.5q35 0 61.5 29.5t26.5 73.5q0 41 -25 67.5t-63 26.5z" />
    <glyph glyph-name="nine.numr" horiz-adv-x="684" 
d="M336 1415q282 0 282 -373q0 -104 -18.5 -187t-58.5 -148.5t-110.5 -101.5t-168.5 -36q-94 0 -153 31l47 137q43 -20 108 -20q91 0 134 55t55 168q-54 -76 -164 -76q-100 0 -165 68.5t-65 191.5q0 135 81 213t196 78zM336 1272q-47 0 -75 -34t-28 -99q0 -129 101 -129
q48 0 78 31.5t30 86.5q0 144 -106 144z" />
    <glyph glyph-name="zero.dnom" horiz-adv-x="712" 
d="M645 412q0 -213 -72 -318.5t-221 -105.5q-151 0 -218.5 103.5t-67.5 320.5q0 422 294 422q151 0 218 -104.5t67 -317.5zM473 412q0 146 -29 211t-88 65q-58 0 -87 -64.5t-29 -211.5q0 -145 29 -210t87 -65q60 0 88.5 64t28.5 211z" />
    <glyph glyph-name="one.dnom" horiz-adv-x="579" 
d="M49 758l230 61h114v-676h133v-143h-473v143h172v512l-176 -49v152z" />
    <glyph glyph-name="two.dnom" horiz-adv-x="679" 
d="M82 739q117 95 272 95q111 0 181.5 -64t70.5 -166q0 -60 -20 -109t-52 -81t-71 -58.5t-78 -49t-71 -44.5t-52 -52.5t-20 -66.5h372v-143h-546v90q0 74 19.5 131.5t51.5 92.5t70 62.5t76 48.5t70 42.5t51.5 52.5t19.5 72q0 43 -27 68.5t-71 25.5q-75 0 -166 -74z" />
    <glyph glyph-name="three.dnom" horiz-adv-x="630" 
d="M53 752q119 82 252 82q109 0 173.5 -55.5t64.5 -145.5q0 -67 -36 -112t-95 -64q153 -45 153 -205q0 -123 -82.5 -193.5t-210.5 -70.5q-112 0 -225 55l59 141q81 -45 148 -45q133 0 133 125q0 52 -38.5 80.5t-102.5 28.5q-37 0 -60 -2v133q99 1 139 27.5t40 76.5
q0 37 -25 60.5t-66 23.5q-63 0 -143 -59z" />
    <glyph glyph-name="four.dnom" horiz-adv-x="714" 
d="M688 176h-119v-176h-168v176h-362v123l321 520h209v-504h119v-139zM406 651h-5q-26 -61 -51 -102l-84 -133q-46 -77 -71 -103l2 -4q32 6 204 6v211q0 101 5 125z" />
    <glyph glyph-name="five.dnom" horiz-adv-x="675" 
d="M133 819h436v-137h-295q-16 -162 -30 -205q55 55 139 55q95 0 161 -74t66 -182q0 -140 -81.5 -214t-211.5 -74q-123 0 -245 55l57 143q87 -49 164 -49q67 0 105 33t38 100q0 55 -30 90t-80 35q-56 0 -111 -65l-121 49z" />
    <glyph glyph-name="six.dnom" horiz-adv-x="684" 
d="M569 803l-47 -135q-55 20 -106 20q-85 0 -131.5 -54.5t-59.5 -168.5q57 76 164 76q99 0 164 -68.5t65 -191.5q0 -135 -81 -214t-195 -79q-283 0 -283 374q0 229 92.5 350.5t270.5 121.5q87 0 147 -31zM344 397q-48 0 -78 -32.5t-30 -88.5q0 -143 106 -143q46 0 74 34
t28 99q0 64 -26 97.5t-74 33.5z" />
    <glyph glyph-name="seven.dnom" horiz-adv-x="569" 
d="M41 819h504v-110l-271 -709h-190l278 676h-319z" />
    <glyph glyph-name="eight.dnom" horiz-adv-x="686" 
d="M346 834q113 0 177.5 -58.5t64.5 -150.5q0 -126 -121 -181q65 -15 110.5 -73.5t45.5 -134.5q0 -111 -72.5 -179.5t-210.5 -68.5q-135 0 -206 67t-71 178q0 76 45.5 135t110.5 76q-53 23 -87 70t-34 109q0 93 66 152t182 59zM342 367q-45 0 -74.5 -34.5t-29.5 -86.5
t27.5 -83.5t76.5 -31.5q50 0 78.5 31.5t28.5 83.5t-30 86.5t-77 34.5zM342 698q-38 0 -61 -26t-23 -68q0 -43 25.5 -72.5t58.5 -29.5q35 0 61.5 29.5t26.5 72.5q0 41 -25 67.5t-63 26.5z" />
    <glyph glyph-name="nine.dnom" horiz-adv-x="684" 
d="M336 834q282 0 282 -373q0 -104 -18.5 -187t-58.5 -148.5t-110.5 -101.5t-168.5 -36q-96 0 -153 30l47 138q42 -21 108 -21q91 0 134 55t55 168q-27 -38 -65 -56.5t-99 -18.5q-100 0 -165 68.5t-65 191.5q0 134 81 212.5t196 78.5zM336 690q-47 0 -75 -34t-28 -99
q0 -129 101 -129q48 0 78 31.5t30 87.5q0 143 -106 143z" />
    <glyph glyph-name="space.frac" horiz-adv-x="90" 
 />
    <glyph glyph-name="plus.tf" 
d="M424 600v424h174v-424h408v-156h-408v-444h-174v444h-406v156h406z" />
    <glyph glyph-name="zero.tf" 
d="M82 676q0 345 111 520.5t323 175.5q220 0 323 -169t103 -525q0 -347 -109.5 -521.5t-324.5 -174.5q-221 0 -323.5 168.5t-102.5 525.5zM756 678q0 281 -56.5 414t-187.5 133t-187.5 -132t-56.5 -415q0 -281 57 -414t185 -133q134 0 190 131t56 416z" />
    <glyph glyph-name="one.tf" 
d="M213 1083v160l319 113h123v-1209h256v-147h-704v147h268v1031z" />
    <glyph glyph-name="two.tf" 
d="M899 1026q0 -87 -32 -164.5t-84 -136t-114.5 -112t-126 -104t-116.5 -101.5t-88 -115t-39 -133h608v-160h-788v102q0 101 32.5 190t84.5 154t115 123t126 109.5t115 101.5t84.5 110.5t32.5 125.5q0 88 -48.5 143t-138.5 55q-93 0 -143.5 -63.5t-50.5 -155.5h-176
q0 166 103 271.5t280 105.5q165 0 264.5 -96.5t99.5 -249.5z" />
    <glyph glyph-name="three.tf" 
d="M856 1065q0 -225 -240 -322v-2q133 -29 204 -119t71 -223q0 -198 -118.5 -307.5t-311.5 -109.5q-244 0 -377 190l139 121q97 -150 236 -150q116 0 178.5 63t62.5 183q0 123 -78.5 190.5t-207.5 67.5q-49 0 -90 -6v160q344 3 344 246q0 75 -53.5 121t-135.5 46
q-73 0 -125 -34.5t-100 -100.5l-129 92q69 98 159.5 149.5t219.5 51.5q154 0 253 -85t99 -222z" />
    <glyph glyph-name="four.tf" 
d="M956 481v-159h-165v-322h-181v322h-573v143l526 891h228v-875h165zM215 477q47 4 395 4v469q0 197 8 240l-2 2q-6 -18 -19.5 -47t-24.5 -48.5t-32.5 -58t-25.5 -45.5l-205 -358q-13 -23 -31 -55t-26 -46t-18 -30t-19 -27z" />
    <glyph glyph-name="five.tf" 
d="M918 453q0 -116 -34.5 -208t-94.5 -148.5t-136.5 -85.5t-165.5 -29q-127 0 -222 52t-152 138l137 121q97 -150 235 -150q102 0 173 77t71 233q0 122 -60 192t-163 70q-127 0 -215 -107l-144 56l62 692h645l-6 -158h-475q-33 -368 -45 -414h2q96 86 233 86
q164 0 259.5 -118.5t95.5 -298.5z" />
    <glyph glyph-name="six.tf" 
d="M932 459q0 -220 -118 -348.5t-290 -128.5q-210 0 -311.5 158t-101.5 456q0 381 135.5 578.5t398.5 197.5q129 0 217 -51l-55 -147q-66 40 -162 40q-310 0 -354 -469h2q103 142 299 142q149 0 244.5 -112.5t95.5 -315.5zM537 727q-99 0 -161.5 -71.5t-62.5 -196.5
q0 -161 57 -239.5t162 -78.5q95 0 153 77t58 224q0 142 -55.5 213.5t-150.5 71.5z" />
    <glyph glyph-name="seven.tf" 
d="M719 1196h-561v160h753v-135l-460 -1221h-205z" />
    <glyph glyph-name="eight.tf" 
d="M506 -18q-200 0 -308 108t-108 287q0 125 63.5 221t172.5 133v2q-179 95 -179 299q0 145 102 242.5t267 97.5q163 0 262 -96t99 -242q0 -199 -179 -301v-2q109 -37 172.5 -133t63.5 -221q0 -176 -112 -285.5t-316 -109.5zM512 139q109 0 169 69t60 181q0 115 -62 187.5
t-167 72.5t-167 -72.5t-62 -187.5q0 -112 60 -181t169 -69zM512 793q80 0 131 62t51 163q0 95 -48 149t-134 54q-87 0 -134.5 -53.5t-47.5 -149.5q0 -101 51 -163t131 -62z" />
    <glyph glyph-name="nine.tf" 
d="M92 895q0 220 118 348.5t290 128.5q210 0 311.5 -158.5t101.5 -457.5q0 -379 -135.5 -576.5t-398.5 -197.5q-129 0 -217 51l55 147q68 -41 162 -41q152 0 241.5 112.5t112.5 356.5h-2q-102 -141 -299 -141q-149 0 -244.5 111.5t-95.5 316.5zM487 627q99 0 161.5 71.5
t62.5 196.5q0 161 -57 239t-162 78q-95 0 -153 -76.5t-58 -224.5q0 -142 55.5 -213t150.5 -71z" />
    <glyph glyph-name="less.tf" 
d="M94 418v188l768 391v-184l-626 -295l626 -303v-186z" />
    <glyph glyph-name="equal.tf" 
d="M930 453v-148h-836v148h836zM930 784v-147h-836v147h836z" />
    <glyph glyph-name="greater.tf" 
d="M930 610v-188l-768 -391v184l626 295l-626 303v186z" />
    <glyph glyph-name="logicalnot.tf" 
d="M741 524h-671v158h845v-446h-174v288z" />
    <glyph glyph-name="plusminus.tf" 
d="M414 770v356h172v-356h354v-156h-354v-358h-172v358h-355v156h355zM940 0h-881v156h881v-156z" />
    <glyph glyph-name="multiply.tf" 
d="M397 512l-346 344l123 121l344 -346l342 344l115 -117l-344 -340l356 -352l-123 -121l-354 354l-348 -352l-115 117z" />
    <glyph glyph-name="divide.tf" 
d="M18 600h988v-156h-988v156zM512 1049q58 0 97.5 -41.5t39.5 -100.5q0 -60 -39.5 -100.5t-97.5 -40.5t-97.5 40.5t-39.5 100.5q0 59 39.5 100.5t97.5 41.5zM512 264q58 0 97.5 -40.5t39.5 -100.5q0 -59 -39.5 -100t-97.5 -41t-97.5 41t-39.5 100q0 60 39.5 100.5
t97.5 40.5z" />
    <glyph glyph-name="uni2007.tf" 
 />
    <glyph glyph-name="minus.tf" 
d="M901 483h-778v152h778v-152z" />
    <glyph glyph-name="uni2219.tf" 
d="M727 608q0 -89 -62.5 -153t-150.5 -64q-89 0 -152 64t-63 153t63 153t152 64q88 0 150.5 -64t62.5 -153z" />
    <glyph glyph-name="approxequal.tf" 
d="M84 743q126 88 231 88q90 0 199.5 -36.5t183.5 -36.5q107 0 240 82v-166q-132 -84 -240 -84q-74 0 -183.5 37t-199.5 37q-101 0 -231 -86v165zM84 414q128 88 231 88q90 0 199.5 -37t183.5 -37q105 0 240 82v-166q-134 -84 -240 -84q-74 0 -183.5 37t-199.5 37
q-101 0 -231 -86v166z" />
    <glyph glyph-name="notequal.tf" 
d="M457 297l-168 -297h-158l166 297h-250v149h334l106 187h-440v147h520l138 244h157l-135 -244h250v-147h-334l-106 -187h440v-149h-520z" />
    <glyph glyph-name="lessequal.tf" 
d="M133 602v189l737 339v-184l-596 -244l596 -251v-187zM133 156h737v-156h-737v156z" />
    <glyph glyph-name="greaterequal.tf" 
d="M891 602l-737 -338v187l596 251l-596 244v184l737 -339v-189zM891 156v-156h-737v156h737z" />
    <glyph glyph-name="dotmath.tf" 
d="M668 592q0 -66 -45.5 -111t-110.5 -45q-66 0 -111 45t-45 111q0 65 45 110.5t111 45.5q64 0 110 -46t46 -110z" />
    <glyph glyph-name="zero.lf" horiz-adv-x="1036" 
d="M88 676q0 345 111 520.5t323 175.5q220 0 323 -169t103 -525q0 -347 -109.5 -521.5t-324.5 -174.5q-221 0 -323.5 168.5t-102.5 525.5zM762 678q0 281 -56.5 414t-187.5 133t-187.5 -132t-56.5 -415q0 -281 57 -414t185 -133q134 0 190 131t56 416z" />
    <glyph glyph-name="one.lf" horiz-adv-x="722" 
d="M94 1098v157l283 101h123v-1209h176v-147h-559v147h202v1031z" />
    <glyph glyph-name="two.lf" horiz-adv-x="958" 
d="M862 1026q0 -87 -32 -164.5t-83.5 -136t-114.5 -112t-126 -104t-116.5 -101.5t-88.5 -115t-39 -133h608v-160h-788v102q0 101 32.5 190t84.5 154t115 123t126 109.5t115 101.5t84.5 110.5t32.5 125.5q0 88 -48.5 143t-138.5 55q-93 0 -143.5 -63.5t-50.5 -155.5h-176
q0 166 103 271.5t280 105.5q165 0 264.5 -96.5t99.5 -249.5z" />
    <glyph glyph-name="three.lf" horiz-adv-x="915" 
d="M788 1065q0 -226 -239 -322v-2q132 -29 203 -119t71 -223q0 -198 -118.5 -307.5t-311.5 -109.5q-244 0 -377 190l140 121q97 -150 235 -150q117 0 179.5 62.5t62.5 183.5q0 123 -78.5 190.5t-208.5 67.5q-49 0 -90 -6v160q344 3 344 246q0 75 -53.5 121t-134.5 46
q-73 0 -125 -34.5t-101 -100.5l-129 92q69 98 159.5 149.5t219.5 51.5q154 0 253 -85t99 -222z" />
    <glyph glyph-name="four.lf" horiz-adv-x="1040" 
d="M977 481v-159h-166v-322h-180v322h-574v143l527 891h227v-875h166zM236 477q47 4 395 4v469q0 197 8 240l-2 2q-7 -23 -24 -56.5t-44.5 -83t-33.5 -59.5l-205 -358q-79 -139 -94 -158z" />
    <glyph glyph-name="five.lf" horiz-adv-x="958" 
d="M883 453q0 -116 -34.5 -208t-94 -148.5t-136.5 -85.5t-165 -29q-127 0 -222 52t-153 138l137 121q97 -150 236 -150q101 0 172 77t71 233q0 122 -60 192t-163 70q-127 0 -215 -107l-143 56l61 692h645l-6 -158h-475q-33 -368 -45 -414h2q96 86 233 86q165 0 260 -118
t95 -299z" />
    <glyph glyph-name="six.lf" horiz-adv-x="1015" 
d="M922 459q0 -220 -118 -348.5t-290 -128.5q-210 0 -312 158t-102 456q0 380 136 578t399 198q129 0 217 -51l-55 -147q-66 40 -162 40q-312 0 -354 -469h2q103 142 299 142q149 0 244.5 -112.5t95.5 -315.5zM526 727q-99 0 -161 -71.5t-62 -196.5q0 -161 57 -239.5
t162 -78.5q95 0 153 77t58 224q0 142 -55.5 213.5t-151.5 71.5z" />
    <glyph glyph-name="seven.lf" horiz-adv-x="825" 
d="M612 1196h-561v160h754v-135l-461 -1221h-205z" />
    <glyph glyph-name="eight.lf" 
d="M506 -18q-200 0 -308 108t-108 287q0 125 63.5 221t172.5 133v2q-179 95 -179 299q0 145 102 242.5t267 97.5q163 0 262 -96t99 -242q0 -199 -179 -301v-2q109 -37 172.5 -133t63.5 -221q0 -176 -112 -285.5t-316 -109.5zM512 139q109 0 169 69t60 181q0 115 -62 187.5
t-167 72.5t-167 -72.5t-62 -187.5q0 -112 60 -181t169 -69zM512 793q80 0 131 62t51 163q0 95 -48 149t-134 54q-87 0 -134.5 -53.5t-47.5 -149.5q0 -101 51 -163t131 -62z" />
    <glyph glyph-name="nine.lf" horiz-adv-x="1017" 
d="M92 895q0 220 118 348.5t290 128.5q210 0 311.5 -158.5t101.5 -457.5q0 -379 -135.5 -576.5t-398.5 -197.5q-129 0 -217 51l55 147q68 -41 162 -41q152 0 241.5 112.5t112.5 356.5h-2q-102 -141 -299 -141q-149 0 -244.5 111.5t-95.5 316.5zM487 627q99 0 161.5 71.5
t62.5 196.5q0 161 -57 239t-162 78q-95 0 -153 -76.5t-58 -224.5q0 -142 55.5 -213t150.5 -71z" />
    <glyph glyph-name="plus.tosf" 
d="M424 600v424h174v-424h408v-156h-408v-444h-174v444h-406v156h406z" />
    <glyph glyph-name="zero.tosf" 
d="M944 563q0 -269 -118 -425t-316 -156q-206 0 -317 149.5t-111 431.5q0 270 119 425t317 155q206 0 316 -149.5t110 -430.5zM756 565q0 214 -62.5 323t-181.5 109q-118 0 -180 -108.5t-62 -323.5t62 -324.5t180 -109.5q244 0 244 434z" />
    <glyph glyph-name="one.tosf" 
d="M213 856v160l319 112h123v-981h256v-147h-704v147h268v803z" />
    <glyph glyph-name="two.tosf" 
d="M915 4h-804v102q0 97 33 171.5t85 120t115.5 82t127 67t115.5 64t85 84.5t33 118q0 78 -52 128t-141 50q-130 0 -258 -121l-104 129q87 71 178.5 109.5t203.5 38.5q166 0 263.5 -88.5t97.5 -231.5q0 -92 -32.5 -162.5t-84.5 -113.5t-115 -77.5t-127 -63.5t-117.5 -60.5
t-88.5 -79t-39 -110.5h626v-156z" />
    <glyph glyph-name="three.tosf" 
d="M891 139q0 -201 -125.5 -318.5t-323.5 -117.5q-174 0 -338 78l72 162q136 -78 256 -78q124 0 196 71.5t72 196.5q0 127 -79 200t-207 73q-49 0 -90 -5v160q344 3 344 248q0 77 -52 127.5t-141 50.5q-131 0 -256 -121l-104 129q87 71 178.5 109.5t204.5 38.5
q164 0 260 -87.5t96 -228.5q0 -231 -238 -325v-2q131 -32 203 -127t72 -234z" />
    <glyph glyph-name="four.tosf" 
d="M973 49h-182v-332h-181v332h-590v141l541 936h230v-915h182v-162zM621 950l-3 2q-13 -44 -102 -200l-221 -387q-52 -90 -98 -158q57 4 413 4v498q0 126 1.5 168.5t9.5 72.5z" />
    <glyph glyph-name="five.tosf" 
d="M918 240q0 -125 -37 -227.5t-102.5 -169.5t-154.5 -103.5t-192 -36.5q-106 0 -185 20t-169 64l72 162q127 -84 270 -84q135 0 221 97t86 261q0 131 -56.5 200t-160.5 69q-124 0 -213 -113l-143 55l61 692h631l-4 -157h-463q-33 -368 -45 -414h2q92 92 231 92
q168 0 259.5 -108t91.5 -299z" />
    <glyph glyph-name="six.tosf" 
d="M932 459q0 -111 -33 -202.5t-89.5 -151t-130 -91.5t-155.5 -32q-415 0 -415 614q0 373 139.5 574.5t398.5 201.5q68 0 129 -20l-37 -152q-39 14 -96 14q-146 0 -239 -116t-113 -353h2q104 152 297 152q148 0 245 -116t97 -322zM741 446q0 145 -55.5 218t-150.5 73
q-99 0 -161.5 -74.5t-62.5 -199.5q0 -162 57.5 -242t161.5 -80q96 0 153.5 78.5t57.5 226.5z" />
    <glyph glyph-name="seven.tosf" 
d="M911 991l-495 -1272h-205l512 1248h-565v159h753v-135z" />
    <glyph glyph-name="eight.tosf" 
d="M936 377q0 -176 -113 -285.5t-317 -109.5q-200 0 -309 108t-109 287q0 125 64.5 221t173.5 133v2q-179 95 -179 299q0 145 102 242.5t267 97.5q163 0 262 -96t99 -242q0 -201 -179 -301v-2q109 -37 173.5 -133t64.5 -221zM741 389q0 115 -62 187.5t-167 72.5t-167 -72.5
t-62 -187.5q0 -112 60 -181t169 -69t169 69t60 181zM694 1018q0 96 -47.5 149.5t-134.5 53.5t-134.5 -53.5t-47.5 -149.5q0 -101 51 -163t131 -62t131 62t51 163z" />
    <glyph glyph-name="nine.tosf" 
d="M915 520q0 -394 -142 -607.5t-431 -213.5q-58 0 -129 14l18 156q57 -14 117 -14q168 0 266 130.5t113 389.5h-2q-42 -66 -115.5 -107t-175.5 -41q-148 0 -244 116t-96 323q0 220 118 348.5t290 128.5q413 0 413 -623zM713 664q0 162 -57.5 241.5t-161.5 79.5
q-95 0 -153 -78.5t-58 -226.5q0 -145 55.5 -218t150.5 -73q98 0 161 75t63 200z" />
    <glyph glyph-name="less.tosf" 
d="M94 418v188l768 391v-184l-626 -295l626 -303v-186z" />
    <glyph glyph-name="equal.tosf" 
d="M930 453v-148h-836v148h836zM930 784v-147h-836v147h836z" />
    <glyph glyph-name="greater.tosf" 
d="M930 610v-188l-768 -391v184l626 295l-626 303v186z" />
    <glyph glyph-name="logicalnot.tosf" 
d="M741 524h-671v158h845v-446h-174v288z" />
    <glyph glyph-name="plusminus.tosf" 
d="M414 770v356h172v-356h354v-156h-354v-358h-172v358h-355v156h355zM940 0h-881v156h881v-156z" />
    <glyph glyph-name="multiply.tosf" 
d="M397 512l-346 344l123 121l344 -346l342 344l115 -117l-344 -340l356 -352l-123 -121l-354 354l-348 -352l-115 117z" />
    <glyph glyph-name="divide.tosf" 
d="M18 600h988v-156h-988v156zM512 1049q58 0 97.5 -41.5t39.5 -100.5q0 -60 -39.5 -100.5t-97.5 -40.5t-97.5 40.5t-39.5 100.5q0 59 39.5 100.5t97.5 41.5zM512 264q58 0 97.5 -40.5t39.5 -100.5q0 -59 -39.5 -100t-97.5 -41t-97.5 41t-39.5 100q0 60 39.5 100.5
t97.5 40.5z" />
    <glyph glyph-name="uni2007.tosf" 
 />
    <glyph glyph-name="minus.tosf" 
d="M901 483h-778v152h778v-152z" />
    <glyph glyph-name="uni2219.tosf" 
d="M727 608q0 -89 -62.5 -153t-150.5 -64q-89 0 -152 64t-63 153t63 153t152 64q88 0 150.5 -64t62.5 -153z" />
    <glyph glyph-name="approxequal.tosf" 
d="M84 743q126 88 231 88q90 0 199.5 -36.5t183.5 -36.5q107 0 240 82v-166q-132 -84 -240 -84q-74 0 -183.5 37t-199.5 37q-101 0 -231 -86v165zM84 414q128 88 231 88q90 0 199.5 -37t183.5 -37q105 0 240 82v-166q-134 -84 -240 -84q-74 0 -183.5 37t-199.5 37
q-101 0 -231 -86v166z" />
    <glyph glyph-name="notequal.tosf" 
d="M457 297l-168 -297h-158l166 297h-250v149h334l106 187h-440v147h520l138 244h157l-135 -244h250v-147h-334l-106 -187h440v-149h-520z" />
    <glyph glyph-name="lessequal.tosf" 
d="M133 602v189l737 339v-184l-596 -244l596 -251v-187zM133 156h737v-156h-737v156z" />
    <glyph glyph-name="greaterequal.tosf" 
d="M891 602l-737 -338v187l596 251l-596 244v184l737 -339v-189zM891 156v-156h-737v156h737z" />
    <glyph glyph-name="dotmath.tosf" 
d="M668 592q0 -66 -45.5 -111t-110.5 -45q-66 0 -111 45t-45 111q0 65 45 110.5t111 45.5q64 0 110 -46t46 -110z" />
    <glyph glyph-name="parenleft.case" horiz-adv-x="681" 
d="M707 -242h-170q-153 255 -226 478t-73 477t73 474t224 458h172q-154 -241 -227.5 -459.5t-73.5 -472.5t73.5 -475.5t227.5 -479.5z" />
    <glyph glyph-name="parenright.case" horiz-adv-x="681" 
d="M444 711q0 -254 -73 -477t-226 -476h-170q155 256 228 478t73 475q0 255 -73.5 473t-227.5 461h172q150 -237 223.5 -458.5t73.5 -475.5z" />
    <glyph glyph-name="hyphen.case" horiz-adv-x="700" 
d="M578 621h-455v163h455v-163z" />
    <glyph glyph-name="bracketleft.case" horiz-adv-x="636" 
d="M637 -242h-389v1887h389v-129h-219v-1629h219v-129z" />
    <glyph glyph-name="bracketright.case" horiz-adv-x="636" 
d="M389 -242h-389v129h219v1629h-219v129h389v-1887z" />
    <glyph glyph-name="braceleft.case" horiz-adv-x="681" 
d="M682 -242h-129q-129 0 -194.5 71t-65.5 191v373v48.5t-1.5 42.5t-4.5 40t-8 33.5t-13 30.5t-20 23.5t-28 20.5t-37.5 13.5t-47.5 9.5v136q26 3 47.5 9t37.5 13.5t28 21.5t20 25t13 31.5t8 34t4.5 40.5t1.5 42v47v329q0 119 65 190t195 71h129v-134h-76
q-80 0 -112.5 -39.5t-32.5 -132.5v-303q0 -51 -1.5 -78.5t-10.5 -65t-26 -62t-49.5 -52.5t-80.5 -53v-2q39 -18 68.5 -39t47.5 -47.5t29 -51t15.5 -59.5t6 -61t1.5 -68v-331q0 -96 31.5 -134t113.5 -38h76v-136z" />
    <glyph glyph-name="braceright.case" horiz-adv-x="681" 
d="M549 657q-26 -3 -47.5 -9.5t-37.5 -13.5t-28 -20.5t-20 -23.5t-13 -30.5t-8 -33.5t-4.5 -40t-1.5 -42.5v-48.5v-375q0 -120 -66 -191t-196 -71h-127v136h74q82 0 113.5 38t31.5 134v323q0 44 1 69.5t6 62.5t16 61.5t29 52t48 49t70 39.5v2q-41 22 -70.5 43.5t-48 47.5
t-29.5 47t-15.5 56t-5.5 58.5t-1 69.5v292q0 93 -32.5 132.5t-112.5 39.5h-74v134h129q129 0 194.5 -71t65.5 -190v-327v-47t1.5 -42t4.5 -40.5t8 -34t13 -31.5t20 -25t28 -21.5t37.5 -13.5t47.5 -9v-136z" />
    <glyph glyph-name="guillemotleft.case" horiz-adv-x="890" 
d="M434 403l-141 -94l-262 393l262 392l135 -90l-203 -297zM846 408l-141 -95l-273 389l273 388l135 -91l-213 -292z" />
    <glyph glyph-name="uni00AD.case" horiz-adv-x="700" 
d="M578 621h-455v163h455v-163z" />
    <glyph glyph-name="guillemotright.case" horiz-adv-x="890" 
d="M860 702l-262 -393l-141 94l209 304l-203 297l135 90zM459 702l-273 -389l-141 95l219 299l-213 292l135 91z" />
    <glyph glyph-name="gravecomb.case" horiz-adv-x="2" 
d="M-383 1604l-61 -101l-347 187l91 141z" />
    <glyph glyph-name="acutecomb.case" horiz-adv-x="2" 
d="M-219 1690l-346 -187l-62 101l318 227z" />
    <glyph glyph-name="uni0302.case" horiz-adv-x="2" 
d="M-236 1585l-57 -92l-242 149l-231 -145l-55 88l293 234z" />
    <glyph glyph-name="tildecomb.case" horiz-adv-x="2" 
d="M-248 1610q-74 -84 -178 -84q-54 0 -116 27.5t-99 27.5q-72 0 -127 -55l-55 106q74 84 180 84q53 0 114 -27.5t99 -27.5q72 0 127 55z" />
    <glyph glyph-name="uni0304.case" horiz-adv-x="2" 
d="M-231 1534h-510v131h510v-131z" />
    <glyph glyph-name="uni0306.case" horiz-adv-x="2" 
d="M-223 1767q0 -49 -15 -91.5t-45.5 -78.5t-84 -56.5t-124.5 -20.5q-133 0 -198.5 70.5t-65.5 176.5h127q0 -65 35.5 -100t106.5 -35q141 0 141 135h123z" />
    <glyph glyph-name="uni0307.case" horiz-adv-x="2" 
d="M-303 1667q0 -56 -37 -95.5t-92 -39.5q-54 0 -91.5 39.5t-37.5 95.5t37.5 95.5t91.5 39.5q55 0 92 -39.5t37 -95.5z" />
    <glyph glyph-name="uni0308.case" horiz-adv-x="2" 
d="M-236 1640q0 -45 -30.5 -76.5t-75.5 -31.5t-74.5 31.5t-29.5 76.5q0 48 29 79.5t75 31.5t76 -31.5t30 -79.5zM-612 1640q0 -45 -30 -76.5t-75 -31.5q-46 0 -76 31.5t-30 76.5q0 48 29.5 79.5t76.5 31.5q45 0 75 -31.5t30 -79.5z" />
    <glyph glyph-name="uni030A.case" horiz-adv-x="2" 
d="M-256 1690q0 -82 -56 -138.5t-139 -56.5t-139.5 55.5t-56.5 139.5q0 80 58.5 137t137.5 57q84 0 139.5 -56t55.5 -138zM-362 1690q0 40 -24.5 66t-64.5 26t-65 -26t-25 -66q0 -41 25.5 -68t64.5 -27q40 0 64.5 27t24.5 68z" />
    <glyph glyph-name="uni030B.case" horiz-adv-x="2" 
d="M-68 1677l-292 -174l-60 88l264 209zM-414 1722l-262 -217l-72 76l230 250z" />
    <glyph glyph-name="uni030C.case" horiz-adv-x="2" 
d="M-147 1726l-293 -233l-293 233l57 91l242 -150l231 148z" />
    <glyph glyph-name="uni0326.case" horiz-adv-x="2" 
d="M-356 -256q0 -98 -62 -156.5t-164 -58.5h-6v84q129 3 142 102q-24 -16 -56 -16q-46 0 -75 31.5t-29 74.5q0 53 31 82t83 29q58 0 97 -45.5t39 -126.5z" />
    <glyph glyph-name="uni0327.case" horiz-adv-x="2" 
d="M-195 -264q0 -77 -56 -129.5t-155 -52.5q-94 0 -184 34l23 103q77 -41 145 -41q117 0 117 84q0 76 -121 76q-22 0 -76 -7l53 189h97l-31 -107q10 2 35 2q65 0 109 -40.5t44 -110.5z" />
    <glyph glyph-name="uni0328.case" horiz-adv-x="2" 
d="M-143 -399q-94 -47 -197 -47q-98 0 -154.5 50t-56.5 144q0 149 174 279h127q-77 -60 -118.5 -120.5t-41.5 -131.5q0 -46 25.5 -72.5t67.5 -26.5q49 0 124 41z" />
    <glyph glyph-name="endash.case" 
d="M1024 625h-1024v155h1024v-155z" />
    <glyph glyph-name="emdash.case" horiz-adv-x="2048" 
d="M2048 625h-2048v155h2048v-155z" />
    <glyph glyph-name="guilsinglleft.case" horiz-adv-x="483" 
d="M438 403l-141 -94l-266 393l266 392l135 -90l-207 -297z" />
    <glyph glyph-name="guilsinglright.case" horiz-adv-x="481" 
d="M451 702l-267 -391l-133 90l207 297l-213 303l139 95z" />
    <glyph glyph-name="I.ss01" horiz-adv-x="520" 
d="M354 0h-188v1403h188v-1403z" />
    <glyph glyph-name="Igrave.ss01" horiz-adv-x="520" 
d="M354 0h-188v1403h188v-1403zM387 1604l-61 -101l-346 187l90 141z" />
    <glyph glyph-name="Iacute.ss01" horiz-adv-x="520" 
d="M354 0h-188v1403h188v-1403zM549 1690l-346 -187l-62 101l318 227z" />
    <glyph glyph-name="Icircumflex.ss01" horiz-adv-x="520" 
d="M354 0h-188v1403h188v-1403zM555 1585l-57 -92l-242 149l-231 -145l-56 88l293 234z" />
    <glyph glyph-name="Idieresis.ss01" horiz-adv-x="520" 
d="M354 0h-188v1403h188v-1403zM557 1640q0 -45 -30.5 -76.5t-75.5 -31.5q-46 0 -75.5 31.5t-29.5 76.5q0 48 29.5 79.5t75.5 31.5t76 -31.5t30 -79.5zM180 1640q0 -45 -30 -76.5t-74 -31.5q-47 0 -77 31.5t-30 76.5q0 48 29.5 79.5t77.5 31.5q44 0 74 -31.5t30 -79.5z" />
    <glyph glyph-name="Euro.ss02" 
d="M229 348l-137 -37v154l137 37v184l-137 -37v154l137 37v516h686v-160h-499v-307l385 102v-153l-385 -103v-184l385 102v-153l-385 -103v-233h528v-164h-715v348z" />
    </font>
</defs>
</svg>
